# UnrealEd OBJ exporter (_Internal)



v -11.215958 280.790314 -0.000000

v 0.000000 17.403498 -0.000000

v 0.000000 280.790314 -0.000000

v 0.000000 34.807018 -21.657150

v 0.000000 17.403498 -0.000000

v 0.000000 17.403498 -20.758560

v 0.000000 280.790314 -0.000000

v 0.000000 17.403498 -0.000000

v -11.215958 -0.000009 -0.000000

v 0.000000 -0.000009 -0.000000

v -11.215958 280.790314 -0.000000

v 0.000000 407.304169 -146.207809

v 0.000000 138.372971 -146.207809

v 0.000000 138.372971 -250.000000

v 0.000000 407.304169 -250.000000

v -11.215958 280.790314 -0.000000

v -11.215942 280.790314 -249.999985

v -11.215958 -0.000009 -0.000000

v -11.215958 -0.000009 -250.000000

v 0.000000 52.210484 -42.415718

v 0.000000 34.807018 -21.657150

v 0.000000 34.807018 -41.516960

v 0.000000 280.790314 -0.000000

v 0.000000 69.614037 -63.174095

v 0.000000 52.210484 -62.275337

v 0.000000 87.017540 -83.932503

v 0.000000 69.613976 -83.033897

v 0.000000 280.790314 -0.000000

v 0.000000 104.421021 -104.691032

v 0.000000 87.017509 -103.792145

v 0.000000 121.824440 -125.449432

v 0.000000 104.421021 -124.550697

v 0.000000 138.372971 -146.207809

v 0.000000 407.304169 -146.207809

v 0.000000 121.824440 -145.309082



vt 0.174561 0.993538

vt 0.182861 0.780396

vt 0.182861 0.993538

vt 0.437012 0.779419

vt 0.469238 0.779419

vt 0.452881 0.765869

vt 0.254150 0.993557

vt 0.182861 0.780396

vt 0.174561 0.766357

vt 0.182861 0.766357

vt 0.174561 0.993538

vt 0.192017 0.993538

vt 0.192017 0.766357

vt 0.104797 0.766357

vt 0.105286 0.993538

vt 0.191895 0.993538

vt 0.006222 0.993538

vt 0.191895 0.766357

vt 0.006222 0.766357

vt 0.405273 0.779419

vt 0.437012 0.779419

vt 0.421387 0.765869

vt 0.254150 0.993557

vt 0.373291 0.779419

vt 0.389404 0.765869

vt 0.340820 0.779419

vt 0.357178 0.765869

vt 0.254150 0.993557

vt 0.308105 0.779419

vt 0.324463 0.765869

vt 0.275146 0.779419

vt 0.291748 0.765869

vt 0.242065 0.779419

vt 0.006554 0.993557

vt 0.260254 0.765869



vn 0.000000 0.000000 1.000000

vn 0.000000 0.000000 1.000000

vn 0.000000 0.000000 1.000000

vn 1.000000 0.000000 0.000000

vn 1.000000 0.000000 0.000000

vn 1.000000 0.000000 0.000000

vn 1.000000 0.000000 0.000000

vn 0.000000 0.000000 1.000000

vn 0.000000 0.000000 1.000000

vn 0.000000 0.000000 1.000000

vn 0.000000 0.000000 1.000000

vn 1.000000 0.000000 0.000000

vn 1.000000 0.000000 0.000000

vn 1.000000 0.000000 0.000000

vn 1.000000 0.000000 0.000000

vn -1.000000 0.000000 0.000000

vn -1.000000 0.000000 0.000000

vn -1.000000 0.000000 0.000000

vn -1.000000 0.000000 0.000000

vn 1.000000 0.000000 0.000000

vn 1.000000 0.000000 0.000000

vn 1.000000 0.000000 0.000000

vn 1.000000 0.000000 0.000000

vn 1.000000 0.000000 0.000000

vn 1.000000 0.000000 0.000000

vn 1.000000 0.000000 0.000000

vn 1.000000 0.000000 0.000000

vn 1.000000 0.000000 0.000000

vn 1.000000 0.000000 0.000000

vn 1.000000 0.000000 0.000000

vn 1.000000 0.000000 0.000000

vn 1.000000 0.000000 0.000000

vn 1.000000 0.000000 0.000000

vn 1.000000 0.000000 0.000000

vn 1.000000 0.000000 0.000000

f 1/1/1 2/2/2 3/3/3

f 4/4/4 5/5/5 6/6/6

f 7/7/7 5/5/5 4/4/4

f 8/8/8 9/9/9 10/10/10

f 8/8/8 11/11/11 9/9/9

f 12/12/12 13/13/13 14/14/14

f 12/12/12 14/14/14 15/15/15

f 16/16/16 17/17/17 18/18/18

f 18/18/18 17/17/17 19/19/19

f 20/20/20 21/21/21 22/22/22

f 23/23/23 21/21/21 20/20/20

f 23/23/23 20/20/20 24/24/24

f 24/24/24 20/20/20 25/25/25

f 26/26/26 24/24/24 27/27/27

f 28/28/28 24/24/24 26/26/26

f 29/29/29 26/26/26 30/30/30

f 28/28/28 26/26/26 29/29/29

f 31/31/31 29/29/29 32/32/32

f 28/28/28 29/29/29 31/31/31

f 28/28/28 31/31/31 33/33/33

f 28/28/28 33/33/33 34/34/34

f 33/33/33 31/31/31 35/35/35

