# UnrealEd OBJ exporter (_Internal)



v -11.215942 280.790314 -250.000000

v -11.215942 226.245453 -301.082245

v -11.215942 208.841949 -276.082336

v -11.215942 280.790314 -250.000000

v -11.215942 243.648972 -326.082397

v -11.215942 226.245453 -301.082245

v -11.215942 280.790314 -250.000000

v -11.215942 261.052277 -351.082336

v -11.215942 243.648972 -326.082397

v -11.215942 280.790314 -250.000000

v -11.215942 208.841949 -276.082336

v -11.215942 191.438431 -250.000000

v 0.000000 17.403498 -1.082382

v -11.215942 -0.000009 -0.000000

v 0.000000 -0.000009 -0.000000

v -11.215942 280.790314 -0.000000

v -11.215942 -0.000009 -0.000000

v 0.000000 280.790314 -0.000000

v 0.000000 280.790314 -0.000000

v -11.215942 -0.000009 -0.000000

v 0.000000 17.403498 -1.082382

v 0.000000 280.790314 -0.000000

v 0.000000 280.805084 -251.039764

v 0.000000 494.651825 -251.082367

v -0.000000 208.841949 -276.082336

v 0.000000 191.438431 -251.082367

v -0.000000 191.438431 -274.999908

v 0.000000 226.245453 -301.082245

v -0.000000 208.841949 -276.082336

v 0.000000 208.841949 -300.000061

v -0.000000 261.052277 -351.082336

v 0.000000 243.648972 -326.082397

v -0.000000 243.648895 -349.999939

v 0.000000 280.849365 -376.082275

v -0.000000 261.052277 -351.082336

v 0.000000 261.052277 -375.000061

v 0.000000 280.805084 -251.039764

v -0.000000 208.841949 -276.082336

v 0.000000 226.245453 -301.082245

v 0.000000 280.805084 -251.039764

v 0.000000 243.648972 -326.082397

v -0.000000 261.052277 -351.082336

v 0.000000 280.849365 -376.082275

v 0.000000 280.805084 -251.039764

v -0.000000 261.052277 -351.082336

v 0.000000 280.805084 -251.039764

v 0.000000 191.438431 -251.082367

v -0.000000 208.841949 -276.082336

v 0.000000 494.651825 -251.082367

v 0.000000 280.849365 -376.082275

v 0.000000 280.790344 -400.000000

v 0.000000 494.651825 -251.082367

v 0.000000 280.790344 -400.000000

v -0.000000 494.651825 -401.082397

v 0.000000 494.651825 -251.082367

v 0.000000 280.805084 -251.039764

v 0.000000 280.849365 -376.082275

v -11.215942 261.052277 -351.082336

v -11.215942 243.648895 -349.999939

v -11.215942 243.648972 -326.082397

v -11.215942 226.245453 -325.000000

v -11.215942 226.245453 -301.082245

v -11.215942 208.841949 -300.000061

v -11.215942 208.841949 -276.082336

v -11.215942 191.438431 -274.999908

v -11.215942 191.438431 -250.000000

v -11.215942 -0.000009 -0.000000

v -11.215942 -0.000009 -250.000000

v -11.215942 280.790314 -0.000000

v -11.215942 280.790314 -250.000000

v -11.215942 280.849365 -376.082275

v -11.215942 261.052277 -375.000061

v -11.215942 261.052277 -351.082336

v -11.215942 280.790314 -250.000000

v 0.000000 243.648972 -326.082397

v 0.000000 226.245453 -301.082245

v 0.000000 226.245453 -325.000000

v 0.000000 280.805084 -251.039764

v -11.215942 494.651764 -249.999985

v -11.215942 494.651825 -401.082397

v -11.215942 280.790344 -400.000000

v -11.215942 280.849365 -376.082275

v -11.215942 280.790314 -250.000000

v -11.215942 280.790314 -0.000000

v 0.000000 34.807018 -26.082329

v 0.000000 17.403498 -1.082382

v 0.000000 17.403498 -25.000122

v 0.000000 280.790314 -0.000000

v 0.000000 52.210484 -51.082466

v 0.000000 34.807018 -50.000069

v 0.000000 69.614037 -76.082397

v 0.000000 52.210484 -75.000000

v 0.000000 87.017540 -101.082359

v 0.000000 69.613976 -100.000145

v 0.000000 280.790314 -0.000000

v 0.000000 104.421021 -126.082466

v 0.000000 87.017509 -124.999908

v 0.000000 121.824440 -151.082397

v 0.000000 104.421021 -150.000031

v 0.000000 139.227951 -176.082336

v 0.000000 121.824440 -174.999969

v 0.000000 156.631516 -201.082489

v 0.000000 139.227951 -199.999908

v 0.000000 174.035019 -226.082245

v 0.000000 156.631516 -225.000061

v 0.000000 191.438431 -251.082367

v 0.000000 280.805084 -251.039764

v 0.000000 174.035019 -250.000000



vt 0.355225 0.993603

vt 0.384277 0.949219

vt 0.370117 0.935059

vt 0.355225 0.993603

vt 0.398438 0.963440

vt 0.384277 0.949219

vt 0.355225 0.993603

vt 0.412842 0.977615

vt 0.398438 0.963440

vt 0.355225 0.993603

vt 0.370117 0.935059

vt 0.355225 0.920898

vt 0.182861 0.780884

vt 0.174561 0.766357

vt 0.182861 0.766357

vt 0.174561 0.993538

vt 0.174561 0.766357

vt 0.182861 0.993538

vt 0.182861 0.993538

vt 0.174561 0.766357

vt 0.182861 0.780884

vt 0.493164 0.993538

vt 0.258545 0.842041

vt 0.070923 0.993538

vt 0.458008 0.780396

vt 0.493896 0.780884

vt 0.472656 0.765869

vt 0.422607 0.780151

vt 0.458008 0.780396

vt 0.437744 0.765747

vt 0.351074 0.779663

vt 0.386719 0.779907

vt 0.367188 0.765137

vt 0.312988 0.781494

vt 0.351074 0.779663

vt 0.333740 0.764526

vt 0.419189 0.853882

vt 0.458008 0.780396

vt 0.422607 0.780151

vt 0.419189 0.853882

vt 0.386719 0.779907

vt 0.351074 0.779663

vt 0.312988 0.781494

vt 0.419189 0.853882

vt 0.351074 0.779663

vt 0.419189 0.853882

vt 0.493896 0.780884

vt 0.458008 0.780396

vt 0.244507 0.984795

vt 0.309082 0.790161

vt 0.289307 0.778931

vt 0.244507 0.984795

vt 0.289307 0.778931

vt 0.114807 0.912109

vt 0.244507 0.984795

vt 0.406494 0.848267

vt 0.309082 0.790161

vt 0.412842 0.977615

vt 0.412842 0.963440

vt 0.398438 0.963440

vt 0.398438 0.949219

vt 0.384277 0.949219

vt 0.384277 0.935059

vt 0.370117 0.935059

vt 0.370117 0.920898

vt 0.355225 0.920898

vt 0.169434 0.765991

vt 0.355225 0.765991

vt 0.169434 0.993538

vt 0.355225 0.993538

vt 0.426270 0.993603

vt 0.426270 0.977615

vt 0.412842 0.977615

vt 0.355225 0.993603

vt 0.386719 0.779907

vt 0.422607 0.780151

vt 0.402588 0.765503

vt 0.419189 0.853882

vt 0.182251 0.991302

vt 0.010590 0.991302

vt 0.011818 0.751709

vt 0.039001 0.751831

vt 0.182251 0.751709

vt 0.466309 0.751709

vt 0.458008 0.780884

vt 0.493896 0.780884

vt 0.472656 0.765869

vt 0.279297 0.993538

vt 0.422363 0.780884

vt 0.437744 0.765747

vt 0.386719 0.780884

vt 0.402588 0.765503

vt 0.350342 0.780884

vt 0.367188 0.765137

vt 0.279297 0.993538

vt 0.314453 0.780884

vt 0.333740 0.764526

vt 0.278076 0.780884

vt 0.293457 0.765137

vt 0.239624 0.780884

vt 0.260742 0.764648

vt 0.200928 0.780884

vt 0.216309 0.765259

vt 0.162109 0.780884

vt 0.177490 0.764771

vt 0.123352 0.780884

vt 0.045288 0.854370

vt 0.138794 0.764404



vn -1.000000 0.000000 0.000000

vn -1.000000 0.000000 0.000000

vn -1.000000 0.000000 0.000000

vn -1.000000 0.000000 0.000000

vn -1.000000 0.000000 0.000000

vn -1.000000 0.000000 0.000000

vn -1.000000 0.000000 0.000000

vn -1.000000 0.000000 0.000000

vn -1.000000 0.000000 0.000000

vn -1.000000 0.000000 0.000000

vn -1.000000 0.000000 0.000000

vn -1.000000 0.000000 0.000000

vn 0.000000 0.062992 1.000000

vn 0.000000 0.062992 1.000000

vn 0.000000 0.062992 1.000000

vn 0.000000 0.000000 1.000000

vn 0.000000 0.000000 1.000000

vn 0.000000 0.000000 1.000000

vn 0.102362 -0.007874 0.992126

vn 0.102362 -0.007874 0.992126

vn 0.102362 -0.007874 0.992126

vn 1.000000 0.000000 0.000000

vn 1.000000 0.000000 0.000000

vn 1.000000 0.000000 0.000000

vn 1.000000 0.000000 0.000000

vn 1.000000 0.000000 0.000000

vn 1.000000 0.000000 0.000000

vn 1.000000 0.000000 0.000000

vn 1.000000 0.000000 0.000000

vn 1.000000 0.000000 0.000000

vn 1.000000 0.000000 0.000000

vn 1.000000 0.000000 0.000000

vn 1.000000 0.000000 0.000000

vn 1.000000 0.000000 0.000000

vn 1.000000 0.000000 0.000000

vn 1.000000 0.000000 0.000000

vn 1.000000 0.000000 0.000000

vn 1.000000 0.000000 0.000000

vn 1.000000 0.000000 0.000000

vn 1.000000 0.000000 0.000000

vn 1.000000 0.000000 0.000000

vn 1.000000 0.000000 0.000000

vn 1.000000 0.000000 0.000000

vn 1.000000 0.000000 0.000000

vn 1.000000 0.000000 0.000000

vn 1.000000 0.000000 0.000000

vn 1.000000 0.000000 0.000000

vn 1.000000 0.000000 0.000000

vn 1.000000 0.000000 0.000000

vn 1.000000 0.000000 0.000000

vn 1.000000 0.000000 0.000000

vn 1.000000 0.000000 0.000000

vn 1.000000 0.000000 0.000000

vn 1.000000 0.000000 0.000000

vn 1.000000 0.000000 0.000000

vn 1.000000 0.000000 0.000000

vn 1.000000 0.000000 0.000000

vn -1.000000 0.000000 0.000000

vn -1.000000 0.000000 0.000000

vn -1.000000 0.000000 0.000000

vn -1.000000 0.000000 0.000000

vn -1.000000 0.000000 0.000000

vn -1.000000 0.000000 0.000000

vn -1.000000 0.000000 0.000000

vn -1.000000 0.000000 0.000000

vn -1.000000 0.000000 0.000000

vn -1.000000 0.000000 0.000000

vn -1.000000 0.000000 0.000000

vn -1.000000 0.000000 0.000000

vn -1.000000 0.000000 0.000000

vn -1.000000 0.000000 0.000000

vn -1.000000 0.000000 0.000000

vn -1.000000 0.000000 0.000000

vn -1.000000 0.000000 0.000000

vn 1.000000 0.000000 0.000000

vn 1.000000 0.000000 0.000000

vn 1.000000 0.000000 0.000000

vn 1.000000 0.000000 0.000000

vn -1.000000 0.000000 0.000000

vn -1.000000 0.000000 0.000000

vn -1.000000 0.000000 0.000000

vn -1.000000 0.000000 0.000000

vn -1.000000 0.000000 0.000000

vn -1.000000 0.000000 0.000000

vn 1.000000 0.000000 0.000000

vn 1.000000 0.000000 0.000000

vn 1.000000 0.000000 0.000000

vn 1.000000 0.000000 0.000000

vn 1.000000 0.000000 0.000000

vn 1.000000 0.000000 0.000000

vn 1.000000 0.000000 0.000000

vn 1.000000 0.000000 0.000000

vn 1.000000 0.000000 0.000000

vn 1.000000 0.000000 0.000000

vn 1.000000 0.000000 0.000000

vn 1.000000 0.000000 0.000000

vn 1.000000 0.000000 0.000000

vn 1.000000 0.000000 0.000000

vn 1.000000 0.000000 0.000000

vn 1.000000 0.000000 0.000000

vn 1.000000 0.000000 0.000000

vn 1.000000 0.000000 0.000000

vn 1.000000 0.000000 0.000000

vn 1.000000 0.000000 0.000000

vn 1.000000 0.000000 0.000000

vn 1.000000 0.000000 0.000000

vn 1.000000 0.000000 0.000000

vn 1.000000 0.000000 0.000000

f 1/1/1 2/2/2 3/3/3

f 4/4/4 5/5/5 6/6/6

f 7/7/7 8/8/8 9/9/9

f 10/10/10 11/11/11 12/12/12

f 13/13/13 14/14/14 15/15/15

f 16/16/16 17/17/17 18/18/18

f 19/19/19 20/20/20 21/21/21

f 22/22/22 23/23/23 24/24/24

f 25/25/25 26/26/26 27/27/27

f 28/28/28 29/29/29 30/30/30

f 31/31/31 32/32/32 33/33/33

f 34/34/34 35/35/35 36/36/36

f 37/37/37 38/38/38 39/39/39

f 40/40/40 41/41/41 42/42/42

f 43/43/43 44/44/44 45/45/45

f 46/46/46 47/47/47 48/48/48

f 49/49/49 50/50/50 51/51/51

f 52/52/52 53/53/53 54/54/54

f 55/55/55 56/56/56 57/57/57

f 58/58/58 59/59/59 60/60/60

f 60/60/60 61/61/61 62/62/62

f 62/62/62 63/63/63 64/64/64

f 64/64/64 65/65/65 66/66/66

f 67/67/67 66/66/66 68/68/68

f 67/67/67 69/69/69 66/66/66

f 66/66/66 69/69/69 70/70/70

f 71/71/71 72/72/72 73/73/73

f 71/71/71 73/73/73 74/74/74

f 75/75/75 76/76/76 77/77/77

f 78/78/78 76/76/76 75/75/75

f 79/79/79 80/80/80 81/81/81

f 79/79/79 81/81/81 82/82/82

f 79/79/79 82/82/82 83/83/83

f 83/83/83 84/84/84 79/79/79

f 85/85/85 86/86/86 87/87/87

f 88/88/88 86/86/86 85/85/85

f 88/88/88 85/85/85 89/89/89

f 89/89/89 85/85/85 90/90/90

f 88/88/88 89/89/89 91/91/91

f 91/91/91 89/89/89 92/92/92

f 93/93/93 91/91/91 94/94/94

f 95/95/95 91/91/91 93/93/93

f 96/96/96 93/93/93 97/97/97

f 95/95/95 93/93/93 96/96/96

f 98/98/98 96/96/96 99/99/99

f 95/95/95 96/96/96 98/98/98

f 100/100/100 98/98/98 101/101/101

f 95/95/95 98/98/98 100/100/100

f 102/102/102 100/100/100 103/103/103

f 95/95/95 100/100/100 102/102/102

f 104/104/104 102/102/102 105/105/105

f 95/95/95 102/102/102 104/104/104

f 95/95/95 104/104/104 106/106/106

f 95/95/95 106/106/106 107/107/107

f 106/106/106 104/104/104 108/108/108

