# UnrealEd OBJ exporter (_Internal)



v -6.878876 -11.180374 0.000000

v -6.839722 -8.905624 0.648193

v -6.839722 -8.905624 -0.648193

v 6.839661 -8.905624 -0.648193

v 6.839661 -8.905624 0.648193

v 6.878754 -11.180374 0.000000

v 1.058502 14.469849 -1.165039

v -1.058655 14.469849 -1.165039

v 0.988739 16.317169 -1.053955

v -0.988892 16.317169 -1.053955

v 2.523254 8.418518 -1.528809

v -2.523346 8.418518 -1.528809

v 1.058502 14.469849 -1.165039

v -1.058655 14.469849 -1.165039

v 1.554504 18.181168 -0.941895

v 2.523254 8.418518 -1.528809

v 1.058502 14.469849 -1.165039

v 0.988739 16.317169 -1.053955

v -1.554596 18.181168 -0.941895

v 0.988739 16.317169 -1.053955

v -0.988892 16.317169 -1.053955

v 1.554504 18.181168 -0.941895

v -1.058655 14.469849 -1.165039

v -1.554596 18.181168 -0.941895

v -0.988892 16.317169 -1.053955

v -2.523346 8.418518 -1.528809

v 0.988739 16.317169 1.054443

v -0.988892 16.317169 1.054443

v -1.058655 14.469849 1.165527

v 1.058502 14.469849 1.165527

v -1.058655 14.469849 1.165527

v -2.523346 8.418518 1.529297

v 1.058502 14.469849 1.165527

v 2.523254 8.418518 1.529297

v 2.523254 8.418518 1.529297

v 1.554504 18.181168 0.942383

v 1.058502 14.469849 1.165527

v 0.988739 16.317169 1.054443

v -1.554596 18.181168 0.942383

v 0.988739 16.317169 1.054443

v 1.554504 18.181168 0.942383

v -0.988892 16.317169 1.054443

v -1.554596 18.181168 0.942383

v -2.523346 8.418518 1.529297

v -1.058655 14.469849 1.165527

v -0.988892 16.317169 1.054443

v -2.196014 2.129700 0.967529

v -2.716156 2.736160 -1.485596

v -2.196014 2.129700 -0.967529

v -2.716156 2.736160 1.485840

v 1.554504 18.181168 0.942383

v -1.554596 18.181168 -0.941895

v -1.554596 18.181168 0.942383

v 1.554504 18.181168 -0.941895

v 2.716156 2.736160 -1.485840

v 2.716156 2.736160 1.485840

v 2.196014 2.129700 0.967529

v 2.196014 2.129700 -0.967529

v 2.716156 2.736160 1.485840

v -2.716156 2.736160 1.485840

v -2.196014 2.129700 0.967529

v 2.196014 2.129700 0.967529

v 2.196014 2.129700 -0.967529

v -2.196014 2.129700 -0.967529

v -2.716156 2.736160 -1.485596

v 2.716156 2.736160 -1.485840

v 2.143158 3.847748 1.299072

v 2.523254 8.418518 -1.528809

v 2.523254 8.418518 1.529297

v 2.143158 3.847748 -1.298584

v 2.523254 8.418518 1.529297

v -2.523346 8.418518 1.529297

v -2.143219 3.847748 1.299072

v 2.143158 3.847748 1.299072

v -2.523346 8.418518 1.529297

v -2.143219 3.847748 -1.298584

v -2.143219 3.847748 1.299072

v -2.523346 8.418518 -1.528809

v -2.143219 3.847748 -1.298584

v 2.523254 8.418518 -1.528809

v 2.143158 3.847748 -1.298584

v -2.523346 8.418518 -1.528809

v 5.113251 -1.441986 0.967529

v -2.196014 2.129700 0.967529

v -5.113281 -1.441986 0.967529

v 2.196014 2.129700 0.967529

v 5.113251 -1.441986 0.967529

v 2.196014 2.129700 -0.967529

v 2.196014 2.129700 0.967529

v 5.113251 -1.441986 -0.967529

v 5.113251 -1.441986 -0.967529

v -5.113281 -1.441986 -0.967529

v -2.196014 2.129700 -0.967529

v 2.196014 2.129700 -0.967529

v -2.196014 2.129700 0.967529

v -5.113281 -1.441986 -0.967529

v -5.113281 -1.441986 0.967529

v -2.196014 2.129700 -0.967529

v 2.523254 8.418518 1.529297

v 1.554504 18.181168 -0.941895

v 1.554504 18.181168 0.942383

v 2.523254 8.418518 -1.528809

v -1.554596 18.181168 0.942383

v -2.523346 8.418518 -1.528809

v -2.523346 8.418518 1.529297

v -1.554596 18.181168 -0.941895

v -5.113281 -1.441986 0.967529

v -6.839722 -8.905624 -0.648193

v -6.839722 -8.905624 0.648193

v -5.113281 -1.441986 -0.967529

v 6.839661 -8.905624 0.648193

v -5.113281 -1.441986 0.967529

v -6.839722 -8.905624 0.648193

v 5.113251 -1.441986 0.967529

v 6.839661 -8.905624 0.648193

v 5.113251 -1.441986 -0.967529

v 5.113251 -1.441986 0.967529

v 6.839661 -8.905624 -0.648193

v -6.839722 -8.905624 -0.648193

v -5.113281 -1.441986 -0.967529

v 6.839661 -8.905624 -0.648193

v 5.113251 -1.441986 -0.967529

v -6.839722 -8.905624 0.648193

v 6.878754 -11.180374 0.000000

v 6.839661 -8.905624 0.648193

v -6.878876 -11.180374 0.000000

v 6.878754 -11.180374 0.000000

v -6.878876 -11.180374 0.000000

v -6.839722 -8.905624 -0.648193

v 6.839661 -8.905624 -0.648193

v -2.716156 2.736160 1.485840

v 2.716156 2.736160 1.485840

v 2.143158 3.847748 1.299072

v -2.143219 3.847748 1.299072

v -2.716156 2.736160 1.485840

v -2.143219 3.847748 -1.298584

v -2.716156 2.736160 -1.485596

v -2.143219 3.847748 1.299072

v -2.716156 2.736160 -1.485596

v 2.143158 3.847748 -1.298584

v 2.716156 2.736160 -1.485840

v -2.143219 3.847748 -1.298584

v 2.716156 2.736160 1.485840

v 2.143158 3.847748 -1.298584

v 2.143158 3.847748 1.299072

v 2.716156 2.736160 -1.485840



vt 0.133545 0.305664

vt 0.133545 0.305664

vt 0.133545 0.305664

vt 0.133545 0.305664

vt 0.133545 0.305664

vt 0.133545 0.305664

vt 0.112061 0.229980

vt 0.112061 0.229980

vt 0.112061 0.229980

vt 0.112061 0.229980

vt 0.146973 0.445801

vt 0.146973 0.445801

vt 0.146973 0.445801

vt 0.146973 0.445801

vt 0.146973 0.445801

vt 0.146973 0.445801

vt 0.146973 0.445801

vt 0.146973 0.445801

vt 0.146973 0.445801

vt 0.146973 0.445801

vt 0.146973 0.445801

vt 0.146973 0.445801

vt 0.146973 0.445801

vt 0.146973 0.445801

vt 0.146973 0.445801

vt 0.146973 0.445801

vt 0.112061 0.229980

vt 0.112061 0.229980

vt 0.112061 0.229980

vt 0.112061 0.229980

vt 0.146973 0.445801

vt 0.146973 0.445801

vt 0.146973 0.445801

vt 0.146973 0.445801

vt 0.146973 0.445801

vt 0.146973 0.445801

vt 0.146973 0.445801

vt 0.146973 0.445801

vt 0.146973 0.445801

vt 0.146973 0.445801

vt 0.146973 0.445801

vt 0.146973 0.445801

vt 0.146973 0.445801

vt 0.146973 0.445801

vt 0.146973 0.445801

vt 0.146973 0.445801

vt 0.134277 0.379883

vt 0.134277 0.379883

vt 0.134277 0.379883

vt 0.134277 0.379883

vt 0.146973 0.445801

vt 0.146973 0.445801

vt 0.146973 0.445801

vt 0.146973 0.445801

vt 0.134277 0.379883

vt 0.134277 0.379883

vt 0.134277 0.379883

vt 0.134277 0.379883

vt 0.134277 0.379883

vt 0.134277 0.379883

vt 0.134277 0.379883

vt 0.134277 0.379883

vt 0.134277 0.379883

vt 0.134277 0.379883

vt 0.134277 0.379883

vt 0.134277 0.379883

vt 0.146973 0.445801

vt 0.146973 0.445801

vt 0.146973 0.445801

vt 0.146973 0.445801

vt 0.146973 0.445801

vt 0.146973 0.445801

vt 0.146973 0.445801

vt 0.146973 0.445801

vt 0.146973 0.445801

vt 0.146973 0.445801

vt 0.146973 0.445801

vt 0.146973 0.445801

vt 0.146973 0.445801

vt 0.146973 0.445801

vt 0.146973 0.445801

vt 0.146973 0.445801

vt 0.133545 0.305664

vt 0.133545 0.305664

vt 0.133545 0.305664

vt 0.133545 0.305664

vt 0.133545 0.305664

vt 0.133545 0.305664

vt 0.133545 0.305664

vt 0.133545 0.305664

vt 0.133545 0.305664

vt 0.133545 0.305664

vt 0.133545 0.305664

vt 0.133545 0.305664

vt 0.133545 0.305664

vt 0.133545 0.305664

vt 0.133545 0.305664

vt 0.133545 0.305664

vt 0.146973 0.445801

vt 0.146973 0.445801

vt 0.146973 0.445801

vt 0.146973 0.445801

vt 0.146973 0.445801

vt 0.146973 0.445801

vt 0.146973 0.445801

vt 0.146973 0.445801

vt 0.133545 0.305664

vt 0.133545 0.305664

vt 0.133545 0.305664

vt 0.133545 0.305664

vt 0.133545 0.305664

vt 0.133545 0.305664

vt 0.133545 0.305664

vt 0.133545 0.305664

vt 0.133545 0.305664

vt 0.133545 0.305664

vt 0.133545 0.305664

vt 0.133545 0.305664

vt 0.133545 0.305664

vt 0.133545 0.305664

vt 0.133545 0.305664

vt 0.133545 0.305664

vt 0.133545 0.380371

vt 0.133545 0.380371

vt 0.133545 0.380371

vt 0.133545 0.380371

vt 0.133545 0.380371

vt 0.133545 0.380371

vt 0.133545 0.380371

vt 0.133545 0.380371

vt 0.134277 0.379883

vt 0.134277 0.379883

vt 0.134277 0.379883

vt 0.134277 0.379883

vt 0.134277 0.379883

vt 0.134277 0.379883

vt 0.134277 0.379883

vt 0.134277 0.379883

vt 0.134277 0.379883

vt 0.134277 0.379883

vt 0.134277 0.379883

vt 0.134277 0.379883

vt 0.134277 0.379883

vt 0.134277 0.379883

vt 0.134277 0.379883

vt 0.134277 0.379883



vn -1.000000 0.015748 0.000000

vn -1.000000 0.015748 0.000000

vn -1.000000 0.015748 0.000000

vn 1.000000 0.015748 0.000000

vn 1.000000 0.015748 0.000000

vn 1.000000 0.015748 0.000000

vn 0.000000 0.062992 -1.000000

vn 0.000000 0.062992 -1.000000

vn 0.000000 0.062992 -1.000000

vn 0.000000 0.062992 -1.000000

vn 0.000000 0.062992 -1.000000

vn 0.000000 0.062992 -1.000000

vn 0.000000 0.062992 -1.000000

vn 0.000000 0.062992 -1.000000

vn 0.000000 0.062992 -1.000000

vn 0.000000 0.062992 -1.000000

vn 0.000000 0.062992 -1.000000

vn 0.000000 0.062992 -1.000000

vn 0.000000 0.062992 -1.000000

vn 0.000000 0.062992 -1.000000

vn 0.000000 0.062992 -1.000000

vn 0.000000 0.062992 -1.000000

vn 0.000000 0.062992 -1.000000

vn 0.000000 0.062992 -1.000000

vn 0.000000 0.062992 -1.000000

vn 0.000000 0.062992 -1.000000

vn 0.000000 0.062992 1.000000

vn 0.000000 0.062992 1.000000

vn 0.000000 0.062992 1.000000

vn 0.000000 0.062992 1.000000

vn 0.000000 0.062992 1.000000

vn 0.000000 0.062992 1.000000

vn 0.000000 0.062992 1.000000

vn 0.000000 0.062992 1.000000

vn 0.000000 0.062992 1.000000

vn 0.000000 0.062992 1.000000

vn 0.000000 0.062992 1.000000

vn 0.000000 0.062992 1.000000

vn 0.000000 0.062992 1.000000

vn 0.000000 0.062992 1.000000

vn 0.000000 0.062992 1.000000

vn 0.000000 0.062992 1.000000

vn 0.000000 0.062992 1.000000

vn 0.000000 0.062992 1.000000

vn 0.000000 0.062992 1.000000

vn 0.000000 0.062992 1.000000

vn -0.755906 -0.653543 0.000000

vn -0.755906 -0.653543 0.000000

vn -0.755906 -0.653543 0.000000

vn -0.755906 -0.653543 0.000000

vn 0.000000 1.000000 0.000000

vn 0.000000 1.000000 0.000000

vn 0.000000 1.000000 0.000000

vn 0.000000 1.000000 0.000000

vn 0.755906 -0.653543 0.000000

vn 0.755906 -0.653543 0.000000

vn 0.755906 -0.653543 0.000000

vn 0.755906 -0.653543 0.000000

vn 0.000000 -0.653543 0.763780

vn 0.000000 -0.653543 0.763780

vn 0.000000 -0.653543 0.763780

vn 0.000000 -0.653543 0.763780

vn 0.000000 -0.653543 -0.763780

vn 0.000000 -0.653543 -0.763780

vn 0.000000 -0.653543 -0.763780

vn 0.000000 -0.653543 -0.763780

vn 1.000000 -0.086614 0.000000

vn 1.000000 -0.086614 0.000000

vn 1.000000 -0.086614 0.000000

vn 1.000000 -0.086614 0.000000

vn 0.000000 -0.047244 1.000000

vn 0.000000 -0.047244 1.000000

vn 0.000000 -0.047244 1.000000

vn 0.000000 -0.047244 1.000000

vn -1.000000 -0.086614 0.000000

vn -1.000000 -0.086614 0.000000

vn -1.000000 -0.086614 0.000000

vn -1.000000 -0.086614 0.000000

vn 0.000000 -0.047244 -1.000000

vn 0.000000 -0.047244 -1.000000

vn 0.000000 -0.047244 -1.000000

vn 0.000000 -0.047244 -1.000000

vn 0.000000 0.000000 1.000000

vn 0.000000 0.000000 1.000000

vn 0.000000 0.000000 1.000000

vn 0.000000 0.000000 1.000000

vn 0.771654 0.629921 0.000000

vn 0.771654 0.629921 0.000000

vn 0.771654 0.629921 0.000000

vn 0.771654 0.629921 0.000000

vn 0.000000 0.000000 -1.000000

vn 0.000000 0.000000 -1.000000

vn 0.000000 0.000000 -1.000000

vn 0.000000 0.000000 -1.000000

vn -0.771654 0.629921 0.000000

vn -0.771654 0.629921 0.000000

vn -0.771654 0.629921 0.000000

vn -0.771654 0.629921 0.000000

vn 0.992126 0.102362 0.000000

vn 0.992126 0.102362 0.000000

vn 0.992126 0.102362 0.000000

vn 0.992126 0.102362 0.000000

vn -0.992126 0.102362 0.000000

vn -0.992126 0.102362 0.000000

vn -0.992126 0.102362 0.000000

vn -0.992126 0.102362 0.000000

vn -0.976378 0.228346 0.000000

vn -0.976378 0.228346 0.000000

vn -0.976378 0.228346 0.000000

vn -0.976378 0.228346 0.000000

vn 0.000000 -0.039370 1.000000

vn 0.000000 -0.039370 1.000000

vn 0.000000 -0.039370 1.000000

vn 0.000000 -0.039370 1.000000

vn 0.976378 0.228346 0.000000

vn 0.976378 0.228346 0.000000

vn 0.976378 0.228346 0.000000

vn 0.976378 0.228346 0.000000

vn 0.000000 -0.039370 -1.000000

vn 0.000000 -0.039370 -1.000000

vn 0.000000 -0.039370 -1.000000

vn 0.000000 -0.039370 -1.000000

vn 0.000000 -0.275591 0.960630

vn 0.000000 -0.275591 0.960630

vn 0.000000 -0.275591 0.960630

vn 0.000000 -0.275591 0.960630

vn 0.000000 -0.275591 -0.960630

vn 0.000000 -0.275591 -0.960630

vn 0.000000 -0.275591 -0.960630

vn 0.000000 -0.275591 -0.960630

vn 0.000000 0.165354 0.984252

vn 0.000000 0.165354 0.984252

vn 0.000000 0.165354 0.984252

vn 0.000000 0.165354 0.984252

vn -0.889764 0.456693 0.000000

vn -0.889764 0.456693 0.000000

vn -0.889764 0.456693 0.000000

vn -0.889764 0.456693 0.000000

vn 0.000000 0.165354 -0.984252

vn 0.000000 0.165354 -0.984252

vn 0.000000 0.165354 -0.984252

vn 0.000000 0.165354 -0.984252

vn 0.889764 0.456693 0.000000

vn 0.889764 0.456693 0.000000

vn 0.889764 0.456693 0.000000

vn 0.889764 0.456693 0.000000

f 1/1/1 2/2/2 3/3/3

f 4/4/4 5/5/5 6/6/6

f 7/7/7 8/8/8 9/9/9

f 8/8/8 10/10/10 9/9/9

f 11/11/11 12/12/12 13/13/13

f 12/12/12 14/14/14 13/13/13

f 15/15/15 16/16/16 17/17/17

f 15/15/15 17/17/17 18/18/18

f 19/19/19 20/20/20 21/21/21

f 20/20/20 19/19/19 22/22/22

f 23/23/23 24/24/24 25/25/25

f 26/26/26 24/24/24 23/23/23

f 27/27/27 28/28/28 29/29/29

f 27/27/27 29/29/29 30/30/30

f 31/31/31 32/32/32 33/33/33

f 32/32/32 34/34/34 33/33/33

f 35/35/35 36/36/36 37/37/37

f 37/37/37 36/36/36 38/38/38

f 39/39/39 40/40/40 41/41/41

f 40/40/40 39/39/39 42/42/42

f 43/43/43 44/44/44 45/45/45

f 43/43/43 45/45/45 46/46/46

f 47/47/47 48/48/48 49/49/49

f 48/48/48 47/47/47 50/50/50

f 51/51/51 52/52/52 53/53/53

f 52/52/52 51/51/51 54/54/54

f 55/55/55 56/56/56 57/57/57

f 55/55/55 57/57/57 58/58/58

f 59/59/59 60/60/60 61/61/61

f 59/59/59 61/61/61 62/62/62

f 63/63/63 64/64/64 65/65/65

f 63/63/63 65/65/65 66/66/66

f 67/67/67 68/68/68 69/69/69

f 68/68/68 67/67/67 70/70/70

f 71/71/71 72/72/72 73/73/73

f 71/71/71 73/73/73 74/74/74

f 75/75/75 76/76/76 77/77/77

f 76/76/76 75/75/75 78/78/78

f 79/79/79 80/80/80 81/81/81

f 80/80/80 79/79/79 82/82/82

f 83/83/83 84/84/84 85/85/85

f 84/84/84 83/83/83 86/86/86

f 87/87/87 88/88/88 89/89/89

f 88/88/88 87/87/87 90/90/90

f 91/91/91 92/92/92 93/93/93

f 91/91/91 93/93/93 94/94/94

f 95/95/95 96/96/96 97/97/97

f 96/96/96 95/95/95 98/98/98

f 99/99/99 100/100/100 101/101/101

f 100/100/100 99/99/99 102/102/102

f 103/103/103 104/104/104 105/105/105

f 104/104/104 103/103/103 106/106/106

f 107/107/107 108/108/108 109/109/109

f 108/108/108 107/107/107 110/110/110

f 111/111/111 112/112/112 113/113/113

f 112/112/112 111/111/111 114/114/114

f 115/115/115 116/116/116 117/117/117

f 116/116/116 115/115/115 118/118/118

f 119/119/119 120/120/120 121/121/121

f 121/121/121 120/120/120 122/122/122

f 123/123/123 124/124/124 125/125/125

f 124/124/124 123/123/123 126/126/126

f 127/127/127 128/128/128 129/129/129

f 127/127/127 129/129/129 130/130/130

f 131/131/131 132/132/132 133/133/133

f 131/131/131 133/133/133 134/134/134

f 135/135/135 136/136/136 137/137/137

f 136/136/136 135/135/135 138/138/138

f 139/139/139 140/140/140 141/141/141

f 140/140/140 139/139/139 142/142/142

f 143/143/143 144/144/144 145/145/145

f 144/144/144 143/143/143 146/146/146

