# UnrealEd OBJ exporter (_Internal)



v 0.185328 1.662499 -24.655209

v -25.721769 -0.870868 -0.000011

v -0.126089 1.577283 0.000389

v -26.022535 2.876726 -27.889400

v -55.254257 -4.410297 -26.031422

v -55.647186 0.512139 -26.031422

v -25.629622 -2.045710 -27.889400

v -0.151144 4.941733 -26.031422

v 0.770838 1.823549 -26.321938

v 1.385584 -0.255230 -26.515591

v -55.254257 -4.410297 26.515606

v -26.022535 2.876726 28.373547

v -55.647186 0.512139 26.515606

v -25.629622 -2.045710 28.373547

v -0.151144 4.941733 26.515606

v 1.385584 -0.255230 26.031437

v -26.037184 2.875556 27.077267

v -54.141129 -3.139257 25.304943

v -54.440269 0.608470 25.304943

v -25.738020 -0.872170 27.077267

v -0.081167 4.947317 25.195072

v 0.775644 1.440819 25.233494

v -26.037184 2.875556 -26.592922

v -0.072943 4.947978 -24.582920

v -0.151144 4.941733 -26.031422

v -26.022535 2.876726 -27.889400

v -54.440269 0.608470 -24.820599

v -55.647186 0.512139 -26.031422

v -57.051720 0.400033 -0.000011

v -55.780060 0.501533 -0.000011

v -54.440269 0.608470 25.304943

v -55.647186 0.512139 26.515606

v -26.022535 2.876726 28.373547

v -26.037184 2.875556 27.077267

v -0.151144 4.941733 26.515606

v -0.081167 4.947317 25.195072

v -55.647186 0.512139 26.515606

v -57.051720 0.400033 -0.000011

v -55.254257 -4.410297 26.515606

v -56.658829 -4.522406 -0.000011

v -55.254257 -4.410297 -26.031422

v -55.647186 0.512139 -26.031422

v -0.151144 4.941733 26.515606

v 0.775644 1.440819 25.233494

v -0.081167 4.947317 25.195072

v 1.385584 -0.255230 26.031437

v -0.000006 -0.000003 -0.000011

v -0.126089 1.577283 0.000389

v -54.141129 -3.139257 -24.820599

v -26.037184 2.875556 -26.592922

v -54.440269 0.608470 -24.820599

v -25.738020 -0.872170 -26.592922

v 0.185328 1.662499 -24.655209

v -0.072943 4.947978 -24.582920

v -54.141129 -3.139257 25.304943

v -55.780060 0.501533 -0.000011

v -54.440269 0.608470 25.304943

v -55.480911 -3.246193 -0.000011

v -54.141129 -3.139257 -24.820599

v -54.440269 0.608470 -24.820599

v 0.185328 1.662499 -24.655209

v -0.151144 4.941733 -26.031422

v -0.072943 4.947978 -24.582920

v 0.770838 1.823549 -26.321938

v 1.385584 -0.255230 -26.515591

v -0.000006 -0.000003 -0.000011

v -0.126089 1.577283 0.000389

v -25.721769 -0.870868 -0.000011

v 0.185328 1.662499 -24.655209

v -25.738020 -0.872170 -26.592922

v -54.141129 -3.139257 -24.820599

v -55.480911 -3.246193 -0.000011

v -54.141129 -3.139257 25.304943

v -25.738020 -0.872170 27.077267

v 0.775644 1.440819 25.233494

v -0.126089 1.577283 0.000389

v -36.754890 -2.933711 19.407009

v -25.612486 -2.044344 -0.000011

v -26.913389 -2.180728 20.309460

v -36.390663 -2.904635 0.066010

v -16.381269 -1.500747 19.316608

v -36.752533 -2.933522 -19.056614

v -15.973768 -1.209819 0.004547

v -26.837759 -2.175074 -20.020548

v -16.232328 -1.490236 -19.525860

v -25.629622 -2.045710 28.373547

v -55.254257 -4.410297 26.515606

v -36.754890 -2.933711 19.407009

v -56.658829 -4.522406 -0.000011

v -26.913389 -2.180728 20.309460

v -36.390663 -2.904635 0.066010

v -16.381269 -1.500747 19.316608

v -36.752533 -2.933522 -19.056614

v 1.385584 -0.255230 26.031437

v -55.254257 -4.410297 -26.031422

v -0.000006 -0.000003 -0.000011

v -25.629622 -2.045710 -27.889400

v -15.973768 -1.209819 0.004547

v -26.837759 -2.175074 -20.020548

v -16.232328 -1.490236 -19.525860

v 1.385584 -0.255230 -26.515591



vt 0.301758 0.265625

vt 0.301758 0.265625

vt 0.301758 0.265625

vt 0.301758 0.265625

vt 0.301758 0.265625

vt 0.301758 0.265625

vt 0.301758 0.265625

vt 0.301758 0.265625

vt 0.301758 0.265625

vt 0.301758 0.265625

vt 0.301758 0.265625

vt 0.301758 0.265625

vt 0.301758 0.265625

vt 0.301758 0.265625

vt 0.301758 0.265625

vt 0.301758 0.265625

vt 0.301758 0.265625

vt 0.301758 0.265625

vt 0.301758 0.265625

vt 0.301758 0.265625

vt 0.301758 0.265625

vt 0.301758 0.265625

vt 0.301758 0.265625

vt 0.301758 0.265625

vt 0.301758 0.265625

vt 0.301758 0.265625

vt 0.301758 0.265625

vt 0.301758 0.265625

vt 0.301758 0.265625

vt 0.301758 0.265625

vt 0.301758 0.265625

vt 0.301758 0.265625

vt 0.301758 0.265625

vt 0.301758 0.265625

vt 0.301758 0.265625

vt 0.301758 0.265625

vt 0.301758 0.265625

vt 0.301758 0.265625

vt 0.301758 0.265625

vt 0.301758 0.265625

vt 0.301758 0.265625

vt 0.301758 0.265625

vt 0.301758 0.265625

vt 0.301758 0.265625

vt 0.301758 0.265625

vt 0.301758 0.265625

vt 0.301758 0.265625

vt 0.301758 0.265625

vt 0.301758 0.265625

vt 0.301758 0.265625

vt 0.301758 0.265625

vt 0.301758 0.265625

vt 0.301758 0.265625

vt 0.301758 0.265625

vt 0.301758 0.265625

vt 0.301758 0.265625

vt 0.301758 0.265625

vt 0.301758 0.265625

vt 0.301758 0.265625

vt 0.301758 0.265625

vt 0.301758 0.265625

vt 0.301758 0.265625

vt 0.301758 0.265625

vt 0.301758 0.265625

vt 0.301758 0.265625

vt 0.301758 0.265625

vt 0.301758 0.265625

vt 0.301758 0.265625

vt 0.301758 0.265625

vt 0.301758 0.265625

vt 0.301758 0.265625

vt 0.301758 0.265625

vt 0.301758 0.265625

vt 0.301758 0.265625

vt 0.301758 0.265625

vt 0.301758 0.265625

vt 0.139404 0.447266

vt 0.139404 0.447266

vt 0.139404 0.447266

vt 0.139404 0.447266

vt 0.139404 0.447266

vt 0.139404 0.447266

vt 0.139404 0.447266

vt 0.139404 0.447266

vt 0.139404 0.447266

vt 0.301758 0.265625

vt 0.301758 0.265625

vt 0.301758 0.265625

vt 0.301758 0.265625

vt 0.301758 0.265625

vt 0.301758 0.265625

vt 0.301758 0.265625

vt 0.301758 0.265625

vt 0.301758 0.265625

vt 0.301758 0.265625

vt 0.301758 0.265625

vt 0.301758 0.265625

vt 0.301758 0.265625

vt 0.301758 0.265625

vt 0.301758 0.265625

vt 0.301758 0.265625



vn -0.094488 0.992126 0.000000

vn -0.086614 1.000000 0.000000

vn -0.094488 0.992126 0.000000

vn -0.007874 0.015748 -1.000000

vn -0.062992 -0.007874 -1.000000

vn -0.062992 -0.007874 -1.000000

vn -0.007874 0.015748 -1.000000

vn 0.062992 0.047244 -1.000000

vn 0.055118 0.062992 -1.000000

vn 0.047244 0.102362 -0.992126

vn -0.062992 -0.007874 1.000000

vn 0.007874 -0.015748 1.000000

vn -0.062992 -0.007874 1.000000

vn 0.007874 -0.015748 1.000000

vn 0.078740 -0.031496 1.000000

vn 0.078740 -0.031496 1.000000

vn 0.000000 -0.007874 -1.000000

vn 0.062992 0.007874 -1.000000

vn 0.062992 0.007874 -1.000000

vn 0.000000 -0.007874 -1.000000

vn -0.070866 -0.015748 -1.000000

vn -0.070866 -0.015748 -1.000000

vn -0.078740 1.000000 0.000000

vn -0.078740 1.000000 0.000000

vn -0.078740 1.000000 0.000000

vn -0.078740 1.000000 0.000000

vn -0.078740 1.000000 0.000000

vn -0.078740 1.000000 0.000000

vn -0.078740 1.000000 0.000000

vn -0.078740 1.000000 0.000000

vn -0.078740 1.000000 0.000000

vn -0.078740 1.000000 0.000000

vn -0.078740 1.000000 0.000000

vn -0.078740 1.000000 0.000000

vn -0.078740 1.000000 0.000000

vn -0.078740 1.000000 0.000000

vn -0.992126 -0.078740 0.055118

vn -1.000000 -0.078740 0.000000

vn -0.992126 -0.078740 0.055118

vn -1.000000 -0.078740 0.000000

vn -0.992126 -0.078740 -0.055118

vn -0.992126 -0.078740 -0.055118

vn 0.960630 0.267717 -0.031496

vn 0.976378 0.220472 -0.039370

vn 0.960630 0.267717 -0.031496

vn 0.976378 0.212598 -0.039370

vn 0.960630 0.275591 -0.007874

vn 0.960630 0.275591 -0.007874

vn 0.062992 0.007874 1.000000

vn 0.000000 -0.007874 1.000000

vn 0.062992 0.007874 1.000000

vn 0.000000 -0.007874 1.000000

vn -0.070866 -0.015748 1.000000

vn -0.070866 -0.015748 1.000000

vn 0.992126 0.078740 -0.055118

vn 1.000000 0.078740 0.000000

vn 0.992126 0.078740 -0.055118

vn 1.000000 0.078740 0.000000

vn 0.992126 0.078740 0.055118

vn 0.992126 0.078740 0.055118

vn 0.944882 0.330709 0.047244

vn 0.968504 0.173228 0.165354

vn 0.968504 0.173228 0.165354

vn 0.960630 0.188976 0.220472

vn 0.937008 0.338583 0.039370

vn 0.960630 0.275591 -0.007874

vn 0.960630 0.275591 -0.007874

vn -0.086614 1.000000 0.000000

vn -0.094488 0.992126 0.000000

vn -0.086614 1.000000 0.000000

vn -0.078740 1.000000 0.000000

vn -0.078740 1.000000 0.000000

vn -0.078740 1.000000 0.000000

vn -0.086614 1.000000 0.000000

vn -0.094488 0.992126 0.007874

vn -0.094488 0.992126 0.000000

vn 0.078740 -1.000000 0.000000

vn 0.078740 -1.000000 0.000000

vn 0.078740 -1.000000 0.000000

vn 0.078740 -1.000000 0.000000

vn 0.070866 -1.000000 -0.007874

vn 0.078740 -1.000000 0.000000

vn 0.078740 -1.000000 0.000000

vn 0.078740 -1.000000 0.000000

vn 0.070866 -1.000000 0.007874

vn 0.070866 -1.000000 0.007874

vn 0.078740 -1.000000 0.000000

vn 0.078740 -1.000000 0.000000

vn 0.078740 -1.000000 0.000000

vn 0.078740 -1.000000 0.000000

vn 0.078740 -1.000000 0.000000

vn 0.070866 -1.000000 -0.007874

vn 0.078740 -1.000000 0.000000

vn 0.070866 -1.000000 -0.007874

vn 0.078740 -1.000000 0.000000

vn 0.078740 -1.000000 0.000000

vn 0.070866 -1.000000 -0.007874

vn 0.078740 -1.000000 0.000000

vn 0.078740 -1.000000 0.000000

vn 0.070866 -1.000000 0.007874

vn 0.070866 -1.000000 0.007874

f 1/1/1 2/2/2 3/3/3

f 4/4/4 5/5/5 6/6/6

f 5/5/5 4/4/4 7/7/7

f 8/8/8 7/7/7 4/4/4

f 7/7/7 8/8/8 9/9/9

f 10/10/10 7/7/7 9/9/9

f 11/11/11 12/12/12 13/13/13

f 12/12/12 11/11/11 14/14/14

f 14/14/14 15/15/15 12/12/12

f 15/15/15 14/14/14 16/16/16

f 17/17/17 18/18/18 19/19/19

f 18/18/18 17/17/17 20/20/20

f 17/17/17 21/21/21 20/20/20

f 22/22/22 20/20/20 21/21/21

f 23/23/23 24/24/24 25/25/25

f 23/23/23 25/25/25 26/26/26

f 26/26/26 27/27/27 23/23/23

f 27/27/27 26/26/26 28/28/28

f 28/28/28 29/29/29 27/27/27

f 27/27/27 29/29/29 30/30/30

f 29/29/29 31/31/31 30/30/30

f 31/31/31 29/29/29 32/32/32

f 33/33/33 31/31/31 32/32/32

f 31/31/31 33/33/33 34/34/34

f 35/35/35 34/34/34 33/33/33

f 36/36/36 34/34/34 35/35/35

f 37/37/37 38/38/38 39/39/39

f 39/39/39 38/38/38 40/40/40

f 38/38/38 41/41/41 40/40/40

f 41/41/41 38/38/38 42/42/42

f 43/43/43 44/44/44 45/45/45

f 43/43/43 46/46/46 44/44/44

f 47/47/47 44/44/44 46/46/46

f 44/44/44 47/47/47 48/48/48

f 49/49/49 50/50/50 51/51/51

f 50/50/50 49/49/49 52/52/52

f 53/53/53 50/50/50 52/52/52

f 50/50/50 53/53/53 54/54/54

f 55/55/55 56/56/56 57/57/57

f 56/56/56 55/55/55 58/58/58

f 58/58/58 59/59/59 56/56/56

f 56/56/56 59/59/59 60/60/60

f 61/61/61 62/62/62 63/63/63

f 62/62/62 61/61/61 64/64/64

f 64/64/64 61/61/61 65/65/65

f 61/61/61 66/66/66 65/65/65

f 66/66/66 61/61/61 67/67/67

f 68/68/68 69/69/69 70/70/70

f 71/71/71 68/68/68 70/70/70

f 68/68/68 71/71/71 72/72/72

f 73/73/73 68/68/68 72/72/72

f 68/68/68 73/73/73 74/74/74

f 75/75/75 68/68/68 74/74/74

f 68/68/68 75/75/75 76/76/76

f 77/77/77 78/78/78 79/79/79

f 78/78/78 77/77/77 80/80/80

f 79/79/79 78/78/78 81/81/81

f 80/80/80 82/82/82 78/78/78

f 81/81/81 78/78/78 83/83/83

f 78/78/78 82/82/82 84/84/84

f 78/78/78 85/85/85 83/83/83

f 85/85/85 78/78/78 84/84/84

f 86/86/86 87/87/87 88/88/88

f 89/89/89 88/88/88 87/87/87

f 86/86/86 88/88/88 90/90/90

f 88/88/88 89/89/89 91/91/91

f 92/92/92 86/86/86 90/90/90

f 91/91/91 89/89/89 93/93/93

f 86/86/86 92/92/92 94/94/94

f 89/89/89 95/95/95 93/93/93

f 92/92/92 96/96/96 94/94/94

f 97/97/97 93/93/93 95/95/95

f 96/96/96 92/92/92 98/98/98

f 93/93/93 97/97/97 99/99/99

f 100/100/100 96/96/96 98/98/98

f 100/100/100 99/99/99 97/97/97

f 96/96/96 100/100/100 101/101/101

f 97/97/97 101/101/101 100/100/100

