# UnrealEd OBJ exporter (_Internal)



v 2.418579 16.967407 3.913574

v 8.590057 18.096695 -2.988037

v 8.590057 18.096695 2.988525

v 2.418579 16.967407 -3.913330

v 2.418579 26.519730 3.913574

v 8.590057 18.096695 2.988525

v 8.590057 25.390450 2.988525

v 2.418579 16.967407 3.913574

v 8.590057 25.390450 -2.988037

v 2.418579 26.519730 3.913574

v 8.590057 25.390450 2.988525

v 2.418579 26.519730 -3.913330

v 8.590057 18.096695 -2.988037

v 2.418579 16.967407 -3.913330

v 2.418579 26.519730 -3.913330

v 8.590057 25.390450 -2.988037

v -1.685486 1.974739 1.685791

v -2.706635 -0.406639 -2.356689

v -2.706635 -0.406639 2.357422

v -1.685486 1.974739 -1.685059

v 2.418579 26.519730 3.913574

v -2.418610 26.519730 -3.913330

v -2.418610 26.519730 3.913574

v 2.418579 26.519730 -3.913330

v 2.706573 -0.406639 2.357422

v 1.685455 1.974739 -1.685059

v 1.685455 1.974739 1.685791

v 2.706573 -0.406639 -2.356689

v -1.923157 -23.100784 1.674805

v 1.923126 -23.100784 -1.674316

v 1.923126 -23.100784 1.674805

v -1.923157 -23.100784 -1.674316

v 2.706573 -0.406639 2.357422

v -1.685486 1.974739 1.685791

v -2.706635 -0.406639 2.357422

v 1.685455 1.974739 1.685791

v -1.685486 1.974739 -1.685059

v 2.706573 -0.406639 -2.356689

v -2.706635 -0.406639 -2.356689

v 1.685455 1.974739 -1.685059

v -2.706635 -0.406639 2.357422

v -2.706635 -21.534630 -2.356689

v -2.706635 -21.534630 2.357422

v -2.706635 -0.406639 -2.356689

v -2.706635 -0.406639 2.357422

v -2.706635 -21.534630 2.357422

v 2.706573 -0.406639 2.357422

v 2.706573 -21.534630 2.357422

v 2.706573 -21.534630 2.357422

v 2.706573 -0.406639 -2.356689

v 2.706573 -0.406639 2.357422

v 2.706573 -21.534630 -2.356689

v -2.706635 -21.534630 -2.356689

v -2.706635 -0.406639 -2.356689

v 2.706573 -21.534630 -2.356689

v 2.706573 -0.406639 -2.356689

v -1.356079 16.836044 1.356445

v -1.356079 5.454399 1.356689

v 1.356018 16.836044 1.356445

v 1.356018 5.454391 1.356445

v -1.356079 16.836044 1.356445

v -1.356079 5.454399 -1.355713

v -1.356079 5.454399 1.356689

v -1.356079 16.836044 -1.355713

v -1.356079 5.454399 -1.355713

v 1.356018 16.836044 -1.355713

v 1.356018 5.454391 -1.355713

v -1.356079 16.836044 -1.355713

v 1.356018 5.454391 1.356445

v 1.356018 16.836044 -1.355713

v 1.356018 16.836044 1.356445

v 1.356018 5.454391 -1.355713

v -1.923157 -23.100784 1.674805

v -2.706635 -21.534630 -2.356689

v -1.923157 -23.100784 -1.674316

v -2.706635 -21.534630 2.357422

v 2.706573 -21.534630 2.357422

v -2.706635 -21.534630 2.357422

v -1.923157 -23.100784 1.674805

v 1.923126 -23.100784 1.674805

v 1.923126 -23.100784 1.674805

v 2.706573 -21.534630 -2.356689

v 2.706573 -21.534630 2.357422

v 1.923126 -23.100784 -1.674316

v -1.923157 -23.100784 -1.674316

v 2.706573 -21.534630 -2.356689

v 1.923126 -23.100784 -1.674316

v -2.706635 -21.534630 -2.356689

v -2.418610 16.967407 3.913574

v -1.356079 16.836044 -1.355713

v -1.356079 16.836044 1.356445

v -2.418610 16.967407 -3.913330

v -2.418610 16.967407 3.913574

v 1.356018 16.836044 1.356445

v 2.418579 16.967407 3.913574

v -1.356079 16.836044 1.356445

v 2.418579 16.967407 3.913574

v 1.356018 16.836044 -1.355713

v 2.418579 16.967407 -3.913330

v 1.356018 16.836044 1.356445

v -1.356079 16.836044 -1.355713

v -2.418610 16.967407 -3.913330

v 1.356018 16.836044 -1.355713

v 2.418579 16.967407 -3.913330

v -2.418610 26.519730 3.913574

v -2.418610 16.967407 3.913574

v 2.418579 26.519730 3.913574

v 2.418579 16.967407 3.913574

v -2.418610 26.519730 -3.913330

v 2.418579 16.967407 -3.913330

v -2.418610 16.967407 -3.913330

v 2.418579 26.519730 -3.913330

v -1.685486 5.138947 -1.685059

v -1.685486 5.138947 1.686035

v -1.356079 5.454399 1.356689

v -1.356079 5.454399 -1.355713

v 1.685455 5.138939 1.685791

v -1.356079 5.454399 1.356689

v -1.685486 5.138947 1.686035

v 1.356018 5.454391 1.356445

v 1.685455 5.138939 1.685791

v 1.356018 5.454391 -1.355713

v 1.356018 5.454391 1.356445

v 1.685455 5.138939 -1.685059

v -1.685486 5.138947 -1.685059

v 1.356018 5.454391 -1.355713

v 1.685455 5.138939 -1.685059

v -1.356079 5.454399 -1.355713

v -1.685486 1.974739 1.685791

v -1.685486 5.138947 -1.685059

v -1.685486 1.974739 -1.685059

v -1.685486 5.138947 1.686035

v 1.685455 5.138939 1.685791

v -1.685486 5.138947 1.686035

v -1.685486 1.974739 1.685791

v 1.685455 1.974739 1.685791

v 1.685455 1.974739 1.685791

v 1.685455 5.138939 -1.685059

v 1.685455 5.138939 1.685791

v 1.685455 1.974739 -1.685059

v -1.685486 1.974739 -1.685059

v 1.685455 5.138939 -1.685059

v 1.685455 1.974739 -1.685059

v -1.685486 5.138947 -1.685059

v -2.418610 16.967407 3.913574

v -8.590088 18.096695 -2.988037

v -2.418610 16.967407 -3.913330

v -8.590088 18.096695 2.988525

v -2.418610 26.519730 3.913574

v -8.590088 18.096695 2.988525

v -2.418610 16.967407 3.913574

v -8.590088 25.390450 2.988525

v -8.590088 25.390450 2.988525

v -2.418610 26.519730 3.913574

v -8.590088 25.390450 -2.988037

v -2.418610 26.519730 -3.913330

v -8.590088 18.096695 -2.988037

v -2.418610 26.519730 -3.913330

v -2.418610 16.967407 -3.913330

v -8.590088 25.390450 -2.988037

v 8.590057 25.390450 2.988525

v 8.590057 18.096695 2.988525

v 8.590057 25.390450 -2.988037

v 8.590057 18.096695 -2.988037

v -8.590088 25.390450 -2.988037

v -8.590088 18.096695 2.988525

v -8.590088 25.390450 2.988525

v -8.590088 18.096695 -2.988037



vt 0.100830 0.231934

vt 0.100830 0.231934

vt 0.100830 0.231934

vt 0.100830 0.231934

vt 0.100830 0.231934

vt 0.100830 0.231934

vt 0.100830 0.231934

vt 0.100830 0.231934

vt 0.100830 0.231934

vt 0.100830 0.231934

vt 0.100830 0.231934

vt 0.100830 0.231934

vt 0.100830 0.231934

vt 0.100830 0.231934

vt 0.100830 0.231934

vt 0.100830 0.231934

vt 0.101562 0.227539

vt 0.101562 0.227539

vt 0.101562 0.227539

vt 0.101562 0.227539

vt 0.100830 0.231934

vt 0.100830 0.231934

vt 0.100830 0.231934

vt 0.100830 0.231934

vt 0.101562 0.227539

vt 0.101562 0.227539

vt 0.101562 0.227539

vt 0.101562 0.227539

vt 0.102295 0.229004

vt 0.102295 0.229004

vt 0.102295 0.229004

vt 0.102295 0.229004

vt 0.101562 0.227539

vt 0.101562 0.227539

vt 0.101562 0.227539

vt 0.101562 0.227539

vt 0.101562 0.227539

vt 0.101562 0.227539

vt 0.101562 0.227539

vt 0.101562 0.227539

vt 0.102295 0.229004

vt 0.102295 0.229004

vt 0.102295 0.229004

vt 0.102295 0.229004

vt 0.102295 0.229004

vt 0.102295 0.229004

vt 0.102295 0.229004

vt 0.102295 0.229004

vt 0.102295 0.229004

vt 0.102295 0.229004

vt 0.102295 0.229004

vt 0.102295 0.229004

vt 0.102295 0.229004

vt 0.102295 0.229004

vt 0.102295 0.229004

vt 0.102295 0.229004

vt 0.132690 0.381348

vt 0.132690 0.381348

vt 0.132690 0.381348

vt 0.132690 0.381348

vt 0.132690 0.381348

vt 0.132690 0.381348

vt 0.132690 0.381348

vt 0.132690 0.381348

vt 0.132690 0.381348

vt 0.132690 0.381348

vt 0.132690 0.381348

vt 0.132690 0.381348

vt 0.132690 0.381348

vt 0.132690 0.381348

vt 0.132690 0.381348

vt 0.132690 0.381348

vt 0.102295 0.229004

vt 0.102295 0.229004

vt 0.102295 0.229004

vt 0.102295 0.229004

vt 0.102295 0.229004

vt 0.102295 0.229004

vt 0.102295 0.229004

vt 0.102295 0.229004

vt 0.102295 0.229004

vt 0.102295 0.229004

vt 0.102295 0.229004

vt 0.102295 0.229004

vt 0.102295 0.229004

vt 0.102295 0.229004

vt 0.102295 0.229004

vt 0.102295 0.229004

vt 0.100830 0.231934

vt 0.100830 0.231934

vt 0.100830 0.231934

vt 0.100830 0.231934

vt 0.100830 0.231934

vt 0.100830 0.231934

vt 0.100830 0.231934

vt 0.100830 0.231934

vt 0.100830 0.231934

vt 0.100830 0.231934

vt 0.100830 0.231934

vt 0.100830 0.231934

vt 0.100830 0.231934

vt 0.100830 0.231934

vt 0.100830 0.231934

vt 0.100830 0.231934

vt 0.100830 0.231934

vt 0.100830 0.231934

vt 0.100830 0.231934

vt 0.100830 0.231934

vt 0.100830 0.231934

vt 0.100830 0.231934

vt 0.100830 0.231934

vt 0.100830 0.231934

vt 0.101562 0.227539

vt 0.101562 0.227539

vt 0.101562 0.227539

vt 0.101562 0.227539

vt 0.101562 0.227539

vt 0.101562 0.227539

vt 0.101562 0.227539

vt 0.101562 0.227539

vt 0.101562 0.227539

vt 0.101562 0.227539

vt 0.101562 0.227539

vt 0.101562 0.227539

vt 0.101562 0.227539

vt 0.101562 0.227539

vt 0.101562 0.227539

vt 0.101562 0.227539

vt 0.101562 0.227539

vt 0.101562 0.227539

vt 0.101562 0.227539

vt 0.101562 0.227539

vt 0.101562 0.227539

vt 0.101562 0.227539

vt 0.101562 0.227539

vt 0.101562 0.227539

vt 0.101562 0.227539

vt 0.101562 0.227539

vt 0.101562 0.227539

vt 0.101562 0.227539

vt 0.101562 0.227539

vt 0.101562 0.227539

vt 0.101562 0.227539

vt 0.101562 0.227539

vt 0.100830 0.231934

vt 0.100830 0.231934

vt 0.100830 0.231934

vt 0.100830 0.231934

vt 0.100830 0.231934

vt 0.100830 0.231934

vt 0.100830 0.231934

vt 0.100830 0.231934

vt 0.100830 0.231934

vt 0.100830 0.231934

vt 0.100830 0.231934

vt 0.100830 0.231934

vt 0.100830 0.231934

vt 0.100830 0.231934

vt 0.100830 0.231934

vt 0.100830 0.231934

vt 0.100830 0.231934

vt 0.100830 0.231934

vt 0.100830 0.231934

vt 0.100830 0.231934

vt 0.100830 0.231934

vt 0.100830 0.231934

vt 0.100830 0.231934

vt 0.100830 0.231934



vn 0.181102 -0.984252 0.000000

vn 0.181102 -0.984252 0.000000

vn 0.181102 -0.984252 0.000000

vn 0.181102 -0.984252 0.000000

vn 0.149606 0.000000 0.992126

vn 0.149606 0.000000 0.992126

vn 0.149606 0.000000 0.992126

vn 0.149606 0.000000 0.992126

vn 0.181102 0.984252 0.000000

vn 0.181102 0.984252 0.000000

vn 0.181102 0.984252 0.000000

vn 0.181102 0.984252 0.000000

vn 0.149606 0.000000 -0.992126

vn 0.149606 0.000000 -0.992126

vn 0.149606 0.000000 -0.992126

vn 0.149606 0.000000 -0.992126

vn -0.921260 0.393701 0.000000

vn -0.921260 0.393701 0.000000

vn -0.921260 0.393701 0.000000

vn -0.921260 0.393701 0.000000

vn 0.000000 1.000000 0.000000

vn 0.000000 1.000000 0.000000

vn 0.000000 1.000000 0.000000

vn 0.000000 1.000000 0.000000

vn 0.921260 0.393701 0.000000

vn 0.921260 0.393701 0.000000

vn 0.921260 0.393701 0.000000

vn 0.921260 0.393701 0.000000

vn 0.000000 -1.000000 0.000000

vn 0.000000 -1.000000 0.000000

vn 0.000000 -1.000000 0.000000

vn 0.000000 -1.000000 0.000000

vn 0.000000 0.267717 0.960630

vn 0.000000 0.267717 0.960630

vn 0.000000 0.267717 0.960630

vn 0.000000 0.267717 0.960630

vn 0.000000 0.267717 -0.960630

vn 0.000000 0.267717 -0.960630

vn 0.000000 0.267717 -0.960630

vn 0.000000 0.267717 -0.960630

vn -1.000000 0.000000 0.000000

vn -1.000000 0.000000 0.000000

vn -1.000000 0.000000 0.000000

vn -1.000000 0.000000 0.000000

vn 0.000000 0.000000 1.000000

vn 0.000000 0.000000 1.000000

vn 0.000000 0.000000 1.000000

vn 0.000000 0.000000 1.000000

vn 1.000000 0.000000 0.000000

vn 1.000000 0.000000 0.000000

vn 1.000000 0.000000 0.000000

vn 1.000000 0.000000 0.000000

vn 0.000000 0.000000 -1.000000

vn 0.000000 0.000000 -1.000000

vn 0.000000 0.000000 -1.000000

vn 0.000000 0.000000 -1.000000

vn 0.000000 0.000000 1.000000

vn 0.000000 0.000000 1.000000

vn 0.000000 0.000000 1.000000

vn 0.000000 0.000000 1.000000

vn -1.000000 0.000000 0.000000

vn -1.000000 0.000000 0.000000

vn -1.000000 0.000000 0.000000

vn -1.000000 0.000000 0.000000

vn 0.000000 0.000000 -1.000000

vn 0.000000 0.000000 -1.000000

vn 0.000000 0.000000 -1.000000

vn 0.000000 0.000000 -1.000000

vn 1.000000 0.000000 0.000000

vn 1.000000 0.000000 0.000000

vn 1.000000 0.000000 0.000000

vn 1.000000 0.000000 0.000000

vn -0.897638 -0.448819 0.000000

vn -0.897638 -0.448819 0.000000

vn -0.897638 -0.448819 0.000000

vn -0.897638 -0.448819 0.000000

vn 0.000000 -0.401575 0.913386

vn 0.000000 -0.401575 0.913386

vn 0.000000 -0.401575 0.913386

vn 0.000000 -0.401575 0.913386

vn 0.897638 -0.448819 0.000000

vn 0.897638 -0.448819 0.000000

vn 0.897638 -0.448819 0.000000

vn 0.897638 -0.448819 0.000000

vn 0.000000 -0.401575 -0.913386

vn 0.000000 -0.401575 -0.913386

vn 0.000000 -0.401575 -0.913386

vn 0.000000 -0.401575 -0.913386

vn -0.125984 -0.992126 0.000000

vn -0.125984 -0.992126 0.000000

vn -0.125984 -0.992126 0.000000

vn -0.125984 -0.992126 0.000000

vn 0.000000 -1.000000 0.055118

vn 0.000000 -1.000000 0.055118

vn 0.000000 -1.000000 0.055118

vn 0.000000 -1.000000 0.055118

vn 0.125984 -0.992126 0.000000

vn 0.125984 -0.992126 0.000000

vn 0.125984 -0.992126 0.000000

vn 0.125984 -0.992126 0.000000

vn 0.000000 -1.000000 -0.055118

vn 0.000000 -1.000000 -0.055118

vn 0.000000 -1.000000 -0.055118

vn 0.000000 -1.000000 -0.055118

vn 0.000000 0.000000 1.000000

vn 0.000000 0.000000 1.000000

vn 0.000000 0.000000 1.000000

vn 0.000000 0.000000 1.000000

vn 0.000000 0.000000 -1.000000

vn 0.000000 0.000000 -1.000000

vn 0.000000 0.000000 -1.000000

vn 0.000000 0.000000 -1.000000

vn -0.692913 0.724409 0.000000

vn -0.692913 0.724409 0.000000

vn -0.692913 0.724409 0.000000

vn -0.692913 0.724409 0.000000

vn 0.000000 0.724409 0.692913

vn 0.000000 0.724409 0.692913

vn 0.000000 0.724409 0.692913

vn 0.000000 0.724409 0.692913

vn 0.692913 0.724409 0.000000

vn 0.692913 0.724409 0.000000

vn 0.692913 0.724409 0.000000

vn 0.692913 0.724409 0.000000

vn 0.000000 0.724409 -0.692913

vn 0.000000 0.724409 -0.692913

vn 0.000000 0.724409 -0.692913

vn 0.000000 0.724409 -0.692913

vn -1.000000 0.000000 0.000000

vn -1.000000 0.000000 0.000000

vn -1.000000 0.000000 0.000000

vn -1.000000 0.000000 0.000000

vn 0.000000 0.000000 1.000000

vn 0.000000 0.000000 1.000000

vn 0.000000 0.000000 1.000000

vn 0.000000 0.000000 1.000000

vn 1.000000 0.000000 0.000000

vn 1.000000 0.000000 0.000000

vn 1.000000 0.000000 0.000000

vn 1.000000 0.000000 0.000000

vn 0.000000 0.000000 -1.000000

vn 0.000000 0.000000 -1.000000

vn 0.000000 0.000000 -1.000000

vn 0.000000 0.000000 -1.000000

vn -0.181102 -0.984252 0.000000

vn -0.181102 -0.984252 0.000000

vn -0.181102 -0.984252 0.000000

vn -0.181102 -0.984252 0.000000

vn -0.149606 0.000000 0.992126

vn -0.149606 0.000000 0.992126

vn -0.149606 0.000000 0.992126

vn -0.149606 0.000000 0.992126

vn -0.181102 0.984252 0.000000

vn -0.181102 0.984252 0.000000

vn -0.181102 0.984252 0.000000

vn -0.181102 0.984252 0.000000

vn -0.149606 0.000000 -0.992126

vn -0.149606 0.000000 -0.992126

vn -0.149606 0.000000 -0.992126

vn -0.149606 0.000000 -0.992126

vn 1.000000 0.000000 0.000000

vn 1.000000 0.000000 0.000000

vn 1.000000 0.000000 0.000000

vn 1.000000 0.000000 0.000000

vn -1.000000 0.000000 0.000000

vn -1.000000 0.000000 0.000000

vn -1.000000 0.000000 0.000000

vn -1.000000 0.000000 0.000000

f 1/1/1 2/2/2 3/3/3

f 2/2/2 1/1/1 4/4/4

f 5/5/5 6/6/6 7/7/7

f 6/6/6 5/5/5 8/8/8

f 9/9/9 10/10/10 11/11/11

f 10/10/10 9/9/9 12/12/12

f 13/13/13 14/14/14 15/15/15

f 13/13/13 15/15/15 16/16/16

f 17/17/17 18/18/18 19/19/19

f 18/18/18 17/17/17 20/20/20

f 21/21/21 22/22/22 23/23/23

f 22/22/22 21/21/21 24/24/24

f 25/25/25 26/26/26 27/27/27

f 26/26/26 25/25/25 28/28/28

f 29/29/29 30/30/30 31/31/31

f 30/30/30 29/29/29 32/32/32

f 33/33/33 34/34/34 35/35/35

f 34/34/34 33/33/33 36/36/36

f 37/37/37 38/38/38 39/39/39

f 38/38/38 37/37/37 40/40/40

f 41/41/41 42/42/42 43/43/43

f 42/42/42 41/41/41 44/44/44

f 45/45/45 46/46/46 47/47/47

f 47/47/47 46/46/46 48/48/48

f 49/49/49 50/50/50 51/51/51

f 50/50/50 49/49/49 52/52/52

f 53/53/53 54/54/54 55/55/55

f 55/55/55 54/54/54 56/56/56

f 57/57/57 58/58/58 59/59/59

f 59/59/59 58/58/58 60/60/60

f 61/61/61 62/62/62 63/63/63

f 62/62/62 61/61/61 64/64/64

f 65/65/65 66/66/66 67/67/67

f 66/66/66 65/65/65 68/68/68

f 69/69/69 70/70/70 71/71/71

f 70/70/70 69/69/69 72/72/72

f 73/73/73 74/74/74 75/75/75

f 74/74/74 73/73/73 76/76/76

f 77/77/77 78/78/78 79/79/79

f 77/77/77 79/79/79 80/80/80

f 81/81/81 82/82/82 83/83/83

f 82/82/82 81/81/81 84/84/84

f 85/85/85 86/86/86 87/87/87

f 86/86/86 85/85/85 88/88/88

f 89/89/89 90/90/90 91/91/91

f 89/89/89 92/92/92 90/90/90

f 93/93/93 94/94/94 95/95/95

f 94/94/94 93/93/93 96/96/96

f 97/97/97 98/98/98 99/99/99

f 98/98/98 97/97/97 100/100/100

f 101/101/101 102/102/102 103/103/103

f 103/103/103 102/102/102 104/104/104

f 105/105/105 106/106/106 107/107/107

f 107/107/107 106/106/106 108/108/108

f 109/109/109 110/110/110 111/111/111

f 110/110/110 109/109/109 112/112/112

f 113/113/113 114/114/114 115/115/115

f 113/113/113 115/115/115 116/116/116

f 117/117/117 118/118/118 119/119/119

f 118/118/118 117/117/117 120/120/120

f 121/121/121 122/122/122 123/123/123

f 121/121/121 124/124/124 122/122/122

f 125/125/125 126/126/126 127/127/127

f 126/126/126 125/125/125 128/128/128

f 129/129/129 130/130/130 131/131/131

f 130/130/130 129/129/129 132/132/132

f 133/133/133 134/134/134 135/135/135

f 133/133/133 135/135/135 136/136/136

f 137/137/137 138/138/138 139/139/139

f 138/138/138 137/137/137 140/140/140

f 141/141/141 142/142/142 143/143/143

f 142/142/142 141/141/141 144/144/144

f 145/145/145 146/146/146 147/147/147

f 146/146/146 145/145/145 148/148/148

f 149/149/149 150/150/150 151/151/151

f 150/150/150 149/149/149 152/152/152

f 153/153/153 154/154/154 155/155/155

f 154/154/154 156/156/156 155/155/155

f 157/157/157 158/158/158 159/159/159

f 158/158/158 157/157/157 160/160/160

f 161/161/161 162/162/162 163/163/163

f 162/162/162 164/164/164 163/163/163

f 165/165/165 166/166/166 167/167/167

f 166/166/166 165/165/165 168/168/168

