# UnrealEd OBJ exporter (_Internal)



v -11.449585 11.297989 12.307373

v -11.583862 6.493568 10.982910

v -11.449585 5.648994 12.307373

v -11.583862 10.453590 10.982910

v 14.942017 6.493568 8.293823

v 12.759155 5.648994 -13.239868

v 12.759155 6.493568 -13.239868

v 15.076294 5.648994 9.618286

v -11.449585 11.297989 12.307373

v -7.664062 5.648994 11.923584

v -7.664062 11.297989 11.923584

v -11.449585 5.648994 12.307373

v -13.766724 10.453590 -10.550781

v 12.759155 11.297989 -13.239868

v 12.759155 10.453590 -13.239868

v -13.766724 11.297989 -10.550781

v -13.766724 5.648994 -10.550781

v -11.449585 5.648994 12.307373

v -11.583862 6.493568 10.982910

v -13.766724 6.493568 -10.550781

v -11.583862 10.453590 10.982910

v -13.766724 11.297989 -10.550781

v -13.766724 10.453590 -10.550781

v -11.449585 11.297989 12.307373

v -11.583862 10.453590 10.982910

v -13.766724 6.493568 -10.550781

v -11.583862 6.493568 10.982910

v -13.766724 10.453590 -10.550781

v -3.469849 11.297989 11.498413

v 15.076294 5.648994 9.618286

v 15.076294 11.297989 9.618286

v -3.469849 5.648994 11.498413

v -7.664062 11.297989 11.923584

v -3.469849 5.648994 11.498413

v -3.469849 11.297989 11.498413

v -7.664062 5.648994 11.923584

v 12.759155 11.297989 -13.239868

v 15.076294 11.297989 9.618286

v 14.942017 10.453590 8.293823

v 12.759155 10.453590 -13.239868

v 14.942017 6.493568 8.293823

v 12.759155 10.453590 -13.239868

v 14.942017 10.453590 8.293823

v 12.759155 6.493568 -13.239868

v 15.076294 11.297989 9.618286

v 15.076294 5.648994 9.618286

v 14.942017 6.493568 8.293823

v 14.942017 10.453590 8.293823

v 12.759155 5.648994 -13.239868

v -13.766724 5.648994 -10.550781

v -13.766724 6.493568 -10.550781

v 12.759155 6.493568 -13.239868

v 12.759155 6.493568 -13.239868

v -13.766724 6.493568 -10.550781

v -13.766724 10.453590 -10.550781

v 12.759155 10.453590 -13.239868

v -15.076172 5.648994 11.570068

v -14.992798 0.844574 10.241455

v -15.076172 0.000000 11.570068

v -14.992798 4.804596 10.241455

v 11.616577 0.844574 11.911255

v 12.972168 -0.000000 -9.690430

v 12.972168 0.844574 -9.690430

v 11.533203 0.000000 13.239868

v -15.076172 5.648994 11.570068

v -11.278931 0.000000 11.808350

v -11.278931 5.648994 11.808350

v -15.076172 0.000000 11.570068

v -13.637207 4.804596 -11.360229

v 12.972168 5.648994 -9.690430

v 12.972168 4.804596 -9.690430

v -13.637207 5.648994 -11.360229

v -13.637207 -0.000000 -11.360229

v -15.076172 0.000000 11.570068

v -14.992798 0.844574 10.241455

v -13.637207 0.844574 -11.360229

v -14.992798 4.804596 10.241455

v -13.637207 5.648994 -11.360229

v -13.637207 4.804596 -11.360229

v -15.076172 5.648994 11.570068

v -14.992798 4.804596 10.241455

v -13.637207 0.844574 -11.360229

v -14.992798 0.844574 10.241455

v -13.637207 4.804596 -11.360229

v -7.071289 5.648994 12.072388

v 11.533203 0.000000 13.239868

v 11.533203 5.648994 13.239868

v -7.071289 0.000000 12.072388

v -11.278931 5.648994 11.808350

v -7.071289 0.000000 12.072388

v -7.071289 5.648994 12.072388

v -11.278931 0.000000 11.808350

v 12.972168 5.648994 -9.690430

v 11.533203 5.648994 13.239868

v 11.616577 4.804596 11.911255

v 12.972168 4.804596 -9.690430

v 11.616577 0.844574 11.911255

v 12.972168 4.804596 -9.690430

v 11.616577 4.804596 11.911255

v 12.972168 0.844574 -9.690430

v 11.533203 5.648994 13.239868

v 11.533203 0.000000 13.239868

v 11.616577 0.844574 11.911255

v 11.616577 4.804596 11.911255

v 12.972168 -0.000000 -9.690430

v -13.637207 -0.000000 -11.360229

v -13.637207 0.844574 -11.360229

v 12.972168 0.844574 -9.690430

v 12.972168 0.844574 -9.690430

v -13.637207 0.844574 -11.360229

v -13.637207 4.804596 -11.360229

v 12.972168 4.804596 -9.690430

v 12.759155 5.648994 -13.239868

v 15.076294 5.648994 9.618286

v -3.469849 5.648994 11.498413

v -13.766724 5.648994 -10.550781

v -7.664062 5.648994 11.923584

v -11.449585 5.648994 12.307373

v 12.972168 -0.000000 -9.690430

v 11.533203 0.000000 13.239868

v -7.071289 0.000000 12.072388

v -13.637207 -0.000000 -11.360229

v -11.278931 0.000000 11.808350

v -15.076172 0.000000 11.570068

v -13.766724 11.297989 -10.550781

v -11.449585 11.297989 12.307373

v -7.664062 11.297989 11.923584

v -3.469849 11.297989 11.498413

v 12.759155 11.297989 -13.239868

v 15.076294 11.297989 9.618286

v -13.637207 5.648994 -11.360229

v -15.076172 5.648994 11.570068

v -11.278931 5.648994 11.808350

v -7.071289 5.648994 12.072388

v 12.972168 5.648994 -9.690430

v 11.533203 5.648994 13.239868



vt 0.177490 0.306152

vt 0.177490 0.306152

vt 0.177490 0.306152

vt 0.177490 0.306152

vt 0.177124 0.306152

vt 0.177124 0.306152

vt 0.177124 0.306152

vt 0.177124 0.306152

vt 0.177490 0.306152

vt 0.177490 0.306152

vt 0.177490 0.306152

vt 0.177490 0.306152

vt 0.177124 0.306152

vt 0.177124 0.306152

vt 0.177124 0.306152

vt 0.177124 0.306152

vt 0.177490 0.306152

vt 0.177490 0.306152

vt 0.177490 0.306152

vt 0.177490 0.306152

vt 0.177490 0.306152

vt 0.177490 0.306152

vt 0.177490 0.306152

vt 0.177490 0.306152

vt 0.039307 0.372559

vt 0.039307 0.372559

vt 0.039307 0.372559

vt 0.039307 0.372559

vt 0.177490 0.306152

vt 0.177490 0.306152

vt 0.177490 0.306152

vt 0.177490 0.306152

vt 0.173950 0.474121

vt 0.173950 0.474121

vt 0.173950 0.474121

vt 0.173950 0.474121

vt 0.177124 0.306152

vt 0.177124 0.306152

vt 0.177124 0.306152

vt 0.177124 0.306152

vt 0.037598 0.375000

vt 0.037567 0.375000

vt 0.037567 0.375000

vt 0.037598 0.375000

vt 0.177124 0.306152

vt 0.177124 0.306152

vt 0.177124 0.306152

vt 0.177124 0.306152

vt 0.177490 0.306152

vt 0.177490 0.306152

vt 0.177124 0.306152

vt 0.177124 0.306152

vt 0.037598 0.375000

vt 0.037598 0.375000

vt 0.037598 0.375000

vt 0.037567 0.375000

vt 0.177490 0.306152

vt 0.177490 0.306152

vt 0.177490 0.306152

vt 0.177490 0.306152

vt 0.177124 0.306152

vt 0.177124 0.306152

vt 0.177124 0.306152

vt 0.177124 0.306152

vt 0.177490 0.306152

vt 0.177490 0.306152

vt 0.177490 0.306152

vt 0.177490 0.306152

vt 0.177124 0.306152

vt 0.177124 0.306152

vt 0.177124 0.306152

vt 0.177124 0.306152

vt 0.177490 0.306152

vt 0.177490 0.306152

vt 0.177490 0.306152

vt 0.177490 0.306152

vt 0.177490 0.306152

vt 0.177490 0.306152

vt 0.177490 0.306152

vt 0.177490 0.306152

vt 0.039307 0.372559

vt 0.039307 0.372559

vt 0.039307 0.372559

vt 0.039307 0.372559

vt 0.177490 0.306152

vt 0.177490 0.306152

vt 0.177490 0.306152

vt 0.177490 0.306152

vt 0.173950 0.474121

vt 0.173950 0.474121

vt 0.173950 0.474121

vt 0.173950 0.474121

vt 0.177124 0.306152

vt 0.177124 0.306152

vt 0.177124 0.306152

vt 0.177124 0.306152

vt 0.037598 0.375000

vt 0.037567 0.375000

vt 0.037567 0.375000

vt 0.037598 0.375000

vt 0.177124 0.306152

vt 0.177124 0.306152

vt 0.177124 0.306152

vt 0.177124 0.306152

vt 0.177490 0.306152

vt 0.177490 0.306152

vt 0.177124 0.306152

vt 0.177124 0.306152

vt 0.037598 0.375000

vt 0.037598 0.375000

vt 0.037598 0.375000

vt 0.037567 0.375000

vt 0.177490 0.306152

vt 0.177490 0.306152

vt 0.177490 0.306152

vt 0.177490 0.306152

vt 0.177490 0.306152

vt 0.177490 0.306152

vt 0.177490 0.306152

vt 0.177490 0.306152

vt 0.177490 0.306152

vt 0.177490 0.306152

vt 0.177490 0.306152

vt 0.177490 0.306152

vt 0.177490 0.306152

vt 0.177490 0.306152

vt 0.177490 0.306152

vt 0.177490 0.306152

vt 0.177490 0.306152

vt 0.177490 0.306152

vt 0.177490 0.306152

vt 0.177490 0.306152

vt 0.177490 0.306152

vt 0.177490 0.306152

vt 0.177490 0.306152

vt 0.177490 0.306152



vn -0.992126 0.000000 0.102362

vn -0.992126 0.000000 0.102362

vn -0.992126 0.000000 0.102362

vn -0.992126 0.000000 0.102362

vn 0.992126 0.000000 -0.102362

vn 0.992126 0.000000 -0.102362

vn 0.992126 0.000000 -0.102362

vn 0.992126 0.000000 -0.102362

vn 0.102362 0.000000 0.992126

vn 0.102362 0.000000 0.992126

vn 0.102362 0.000000 0.992126

vn 0.102362 0.000000 0.992126

vn -0.102362 0.000000 -0.992126

vn -0.102362 0.000000 -0.992126

vn -0.102362 0.000000 -0.992126

vn -0.102362 0.000000 -0.992126

vn -0.992126 0.000000 0.102362

vn -0.992126 0.000000 0.102362

vn -0.992126 0.000000 0.102362

vn -0.992126 0.000000 0.102362

vn -0.992126 0.000000 0.102362

vn -0.992126 0.000000 0.102362

vn -0.992126 0.000000 0.102362

vn -0.992126 0.000000 0.102362

vn -0.992126 0.000000 0.102362

vn -0.992126 0.000000 0.102362

vn -0.992126 0.000000 0.102362

vn -0.992126 0.000000 0.102362

vn 0.102362 0.000000 0.992126

vn 0.102362 0.000000 0.992126

vn 0.102362 0.000000 0.992126

vn 0.102362 0.000000 0.992126

vn 0.102362 0.000000 0.992126

vn 0.102362 0.000000 0.992126

vn 0.102362 0.000000 0.992126

vn 0.102362 0.000000 0.992126

vn 0.992126 0.000000 -0.102362

vn 0.992126 0.000000 -0.102362

vn 0.992126 0.000000 -0.102362

vn 0.992126 0.000000 -0.102362

vn 0.992126 0.000000 -0.102362

vn 0.992126 0.000000 -0.102362

vn 0.992126 0.000000 -0.102362

vn 0.992126 0.000000 -0.102362

vn 0.992126 0.000000 -0.102362

vn 0.992126 0.000000 -0.102362

vn 0.992126 0.000000 -0.102362

vn 0.992126 0.000000 -0.102362

vn -0.102362 0.000000 -0.992126

vn -0.102362 0.000000 -0.992126

vn -0.102362 0.000000 -0.992126

vn -0.102362 0.000000 -0.992126

vn -0.102362 0.000000 -0.992126

vn -0.102362 0.000000 -0.992126

vn -0.102362 0.000000 -0.992126

vn -0.102362 0.000000 -0.992126

vn -1.000000 0.000000 -0.062992

vn -1.000000 0.000000 -0.062992

vn -1.000000 0.000000 -0.062992

vn -1.000000 0.000000 -0.062992

vn 1.000000 0.000000 0.062992

vn 1.000000 0.000000 0.062992

vn 1.000000 0.000000 0.062992

vn 1.000000 0.000000 0.062992

vn -0.062992 0.000000 1.000000

vn -0.062992 0.000000 1.000000

vn -0.062992 0.000000 1.000000

vn -0.062992 0.000000 1.000000

vn 0.062992 0.000000 -1.000000

vn 0.062992 0.000000 -1.000000

vn 0.062992 0.000000 -1.000000

vn 0.062992 0.000000 -1.000000

vn -1.000000 0.000000 -0.062992

vn -1.000000 0.000000 -0.062992

vn -1.000000 0.000000 -0.062992

vn -1.000000 0.000000 -0.062992

vn -1.000000 0.000000 -0.062992

vn -1.000000 0.000000 -0.062992

vn -1.000000 0.000000 -0.062992

vn -1.000000 0.000000 -0.062992

vn -1.000000 0.000000 -0.062992

vn -1.000000 0.000000 -0.062992

vn -1.000000 0.000000 -0.062992

vn -1.000000 0.000000 -0.062992

vn -0.062992 0.000000 1.000000

vn -0.062992 0.000000 1.000000

vn -0.062992 0.000000 1.000000

vn -0.062992 0.000000 1.000000

vn -0.062992 0.000000 1.000000

vn -0.062992 0.000000 1.000000

vn -0.062992 0.000000 1.000000

vn -0.062992 0.000000 1.000000

vn 1.000000 0.000000 0.062992

vn 1.000000 0.000000 0.062992

vn 1.000000 0.000000 0.062992

vn 1.000000 0.000000 0.062992

vn 1.000000 0.000000 0.062992

vn 1.000000 0.000000 0.062992

vn 1.000000 0.000000 0.062992

vn 1.000000 0.000000 0.062992

vn 1.000000 0.000000 0.062992

vn 1.000000 0.000000 0.062992

vn 1.000000 0.000000 0.062992

vn 1.000000 0.000000 0.062992

vn 0.062992 0.000000 -1.000000

vn 0.062992 0.000000 -1.000000

vn 0.062992 0.000000 -1.000000

vn 0.062992 0.000000 -1.000000

vn 0.062992 0.000000 -1.000000

vn 0.062992 0.000000 -1.000000

vn 0.062992 0.000000 -1.000000

vn 0.062992 0.000000 -1.000000

vn 0.000000 -1.000000 0.000000

vn 0.000000 -1.000000 0.000000

vn 0.000000 -1.000000 0.000000

vn 0.000000 -1.000000 0.000000

vn 0.000000 -1.000000 0.000000

vn 0.000000 -1.000000 0.000000

vn 0.000000 -1.000000 0.000000

vn 0.000000 -1.000000 0.000000

vn 0.000000 -1.000000 0.000000

vn 0.000000 -1.000000 0.000000

vn 0.000000 -1.000000 0.000000

vn 0.000000 -1.000000 0.000000

vn 0.000000 1.000000 0.000000

vn 0.000000 1.000000 0.000000

vn 0.000000 1.000000 0.000000

vn 0.000000 1.000000 0.000000

vn 0.000000 1.000000 0.000000

vn 0.000000 1.000000 0.000000

vn 0.000000 1.000000 0.000000

vn 0.000000 1.000000 0.000000

vn 0.000000 1.000000 0.000000

vn 0.000000 1.000000 0.000000

vn 0.000000 1.000000 0.000000

vn 0.000000 1.000000 0.000000

f 1/1/1 2/2/2 3/3/3

f 2/2/2 1/1/1 4/4/4

f 5/5/5 6/6/6 7/7/7

f 6/6/6 5/5/5 8/8/8

f 9/9/9 10/10/10 11/11/11

f 10/10/10 9/9/9 12/12/12

f 13/13/13 14/14/14 15/15/15

f 14/14/14 13/13/13 16/16/16

f 17/17/17 18/18/18 19/19/19

f 17/17/17 19/19/19 20/20/20

f 21/21/21 22/22/22 23/23/23

f 22/22/22 21/21/21 24/24/24

f 25/25/25 26/26/26 27/27/27

f 26/26/26 25/25/25 28/28/28

f 29/29/29 30/30/30 31/31/31

f 30/30/30 29/29/29 32/32/32

f 33/33/33 34/34/34 35/35/35

f 34/34/34 33/33/33 36/36/36

f 37/37/37 38/38/38 39/39/39

f 37/37/37 39/39/39 40/40/40

f 41/41/41 42/42/42 43/43/43

f 42/42/42 41/41/41 44/44/44

f 45/45/45 46/46/46 47/47/47

f 45/45/45 47/47/47 48/48/48

f 49/49/49 50/50/50 51/51/51

f 49/49/49 51/51/51 52/52/52

f 53/53/53 54/54/54 55/55/55

f 53/53/53 55/55/55 56/56/56

f 57/57/57 58/58/58 59/59/59

f 58/58/58 57/57/57 60/60/60

f 61/61/61 62/62/62 63/63/63

f 62/62/62 61/61/61 64/64/64

f 65/65/65 66/66/66 67/67/67

f 66/66/66 65/65/65 68/68/68

f 69/69/69 70/70/70 71/71/71

f 70/70/70 69/69/69 72/72/72

f 73/73/73 74/74/74 75/75/75

f 73/73/73 75/75/75 76/76/76

f 77/77/77 78/78/78 79/79/79

f 78/78/78 77/77/77 80/80/80

f 81/81/81 82/82/82 83/83/83

f 82/82/82 81/81/81 84/84/84

f 85/85/85 86/86/86 87/87/87

f 86/86/86 85/85/85 88/88/88

f 89/89/89 90/90/90 91/91/91

f 90/90/90 89/89/89 92/92/92

f 93/93/93 94/94/94 95/95/95

f 93/93/93 95/95/95 96/96/96

f 97/97/97 98/98/98 99/99/99

f 98/98/98 97/97/97 100/100/100

f 101/101/101 102/102/102 103/103/103

f 101/101/101 103/103/103 104/104/104

f 105/105/105 106/106/106 107/107/107

f 105/105/105 107/107/107 108/108/108

f 109/109/109 110/110/110 111/111/111

f 109/109/109 111/111/111 112/112/112

f 113/113/113 114/114/114 115/115/115

f 115/115/115 116/116/116 113/113/113

f 116/116/116 115/115/115 117/117/117

f 116/116/116 117/117/117 118/118/118

f 119/119/119 120/120/120 121/121/121

f 121/121/121 122/122/122 119/119/119

f 122/122/122 121/121/121 123/123/123

f 122/122/122 123/123/123 124/124/124

f 125/125/125 126/126/126 127/127/127

f 128/128/128 125/125/125 127/127/127

f 125/125/125 128/128/128 129/129/129

f 129/129/129 128/128/128 130/130/130

f 131/131/131 132/132/132 133/133/133

f 134/134/134 131/131/131 133/133/133

f 131/131/131 134/134/134 135/135/135

f 135/135/135 134/134/134 136/136/136

