# UnrealEd OBJ exporter (_Internal)



v -24.651855 101.058640 14.627197

v -24.045532 102.604492 9.878418

v -37.307861 102.604492 14.627197

v -9.268677 102.604492 14.627197

v -24.045532 102.604492 9.878418

v -24.651855 101.058640 14.627197

v 2.111084 101.164017 14.627197

v 2.635376 102.604492 12.563843

v -2.353516 102.604492 14.627197

v 7.609375 102.604492 14.627197

v 2.635376 102.604492 12.563843

v 2.111084 101.164017 14.627197

v 24.219238 101.194855 -14.627197

v 23.758789 102.604492 -10.937622

v 37.013794 102.604492 -14.627197

v 6.432007 102.604492 -14.627197

v 23.758789 102.604492 -10.937622

v 24.219238 101.194855 -14.627197

v 16.563110 34.957664 12.559082

v 18.027832 36.560234 9.494141

v 4.059204 36.560234 12.559082

v 26.725464 36.560234 12.559082

v 18.027832 36.560234 9.494141

v 16.563110 34.957664 12.559082

v -42.872070 20.777374 14.627197

v -44.391357 20.419422 12.734009

v -44.391479 10.062208 14.627197

v -44.391479 31.193203 14.627197

v -44.391357 20.419422 12.734009

v -42.872070 20.777374 14.627197

v 44.391357 64.732460 14.627197

v 42.569336 59.314102 14.627197

v 44.391357 60.628937 11.050659

v 44.391357 60.628937 11.050659

v 42.569336 59.314102 14.627197

v 44.391357 53.741669 14.627197

v 41.511841 69.582367 12.559082

v -41.511719 69.582367 -12.223633

v -41.511719 69.582367 12.559082

v 41.511841 69.582367 -12.223633

v 41.511841 69.582367 12.559082

v -41.511719 69.582367 12.559082

v -41.511719 66.415466 12.559082

v 41.511841 66.415466 12.559082

v -41.511719 66.415466 -12.223633

v 41.511841 66.415466 12.559082

v -41.511719 66.415466 12.559082

v 41.511841 66.415466 -12.223633

v -41.511719 33.393341 -12.223633

v 41.511841 33.393341 12.559082

v -41.511719 33.393341 12.559082

v 41.511841 33.393341 -12.223633

v -44.391357 0.000000 14.627197

v 44.391357 -0.000000 -14.627197

v 44.391357 0.000000 14.627197

v -44.391357 -0.000000 -14.627197

v 41.511841 99.437599 -12.223511

v -41.511841 99.437599 -12.223511

v -41.511841 3.166895 -12.223511

v 41.511841 3.166895 -12.223511

v -41.511841 3.166895 14.627197

v 41.511841 3.166895 14.627197

v 41.511841 3.166895 -12.223511

v -41.511841 3.166895 -12.223511

v 41.511841 99.437599 -12.223511

v 41.511841 3.166895 14.627197

v 41.511841 99.437599 14.627197

v 41.511841 3.166895 -12.223511

v 41.511841 99.437599 14.627197

v -41.511841 99.437599 14.627197

v -41.511841 99.437599 -12.223511

v 41.511841 99.437599 -12.223511

v -41.511841 3.166895 -12.223511

v -41.511841 99.437599 14.627197

v -41.511841 3.166895 14.627197

v -41.511841 99.437599 -12.223511

v 4.059204 36.560234 12.559082

v -41.511719 36.560234 12.559082

v -41.511719 33.393341 12.559082

v 16.563110 34.957664 12.559082

v 41.511841 33.393341 12.559082

v 26.725464 36.560234 12.559082

v 41.511841 36.560234 12.559082

v 44.391357 53.741669 14.627197

v 44.391357 0.000000 14.627197

v 44.391357 -0.000000 -14.627197

v 44.391357 60.628937 11.050659

v 44.391357 102.604492 -14.627197

v 44.391357 64.732460 14.627197

v 44.391357 102.604492 14.627197

v -44.391479 31.193203 14.627197

v -44.391357 102.604492 14.627197

v -44.391357 102.604492 -14.627197

v -44.391357 20.419422 12.734009

v -44.391357 -0.000000 -14.627197

v -44.391479 10.062208 14.627197

v -44.391357 0.000000 14.627197

v 44.391357 -0.000000 -14.627197

v 37.013794 102.604492 -14.627197

v 44.391357 102.604492 -14.627197

v 24.219238 101.194855 -14.627197

v -44.391357 -0.000000 -14.627197

v 6.432007 102.604492 -14.627197

v -44.391357 102.604492 -14.627197

v 37.013794 102.604492 -14.627197

v 44.391357 102.604492 14.627197

v 44.391357 102.604492 -14.627197

v 23.758789 102.604492 -10.937622

v 7.609375 102.604492 14.627197

v 2.635376 102.604492 12.563843

v 6.432007 102.604492 -14.627197

v -9.268677 102.604492 14.627197

v -2.353516 102.604492 14.627197

v -24.045532 102.604492 9.878418

v -44.391357 102.604492 -14.627197

v -37.307861 102.604492 14.627197

v -44.391357 102.604492 14.627197

v 4.059204 36.560234 12.559082

v -41.511719 36.560234 -12.223633

v -41.511719 36.560234 12.559082

v 18.027832 36.560234 9.494141

v 41.511841 36.560234 -12.223633

v 26.725464 36.560234 12.559082

v 41.511841 36.560234 12.559082

v -9.268677 102.604492 14.627197

v 2.111084 101.164017 14.627197

v -2.353516 102.604492 14.627197

v -24.651855 101.058640 14.627197

v -41.511841 99.437599 14.627197

v -37.307861 102.604492 14.627197

v -44.391357 102.604492 14.627197

v -44.391479 31.193203 14.627197

v -42.872070 20.777374 14.627197

v -41.511841 3.166895 14.627197

v -44.391479 10.062208 14.627197

v -44.391357 0.000000 14.627197

v 41.511841 99.437599 14.627197

v 41.511841 3.166895 14.627197

v 7.609375 102.604492 14.627197

v 44.391357 0.000000 14.627197

v 44.391357 102.604492 14.627197

v 44.391357 53.741669 14.627197

v 44.391357 64.732460 14.627197

v 42.569336 59.314102 14.627197



vt 0.025848 0.307617

vt 0.025848 0.307617

vt 0.025848 0.307617

vt 0.025848 0.307617

vt 0.025848 0.307617

vt 0.025848 0.307617

vt 0.025848 0.307617

vt 0.025848 0.307617

vt 0.025848 0.307617

vt 0.025848 0.307617

vt 0.025848 0.307617

vt 0.025848 0.307617

vt 0.025848 0.307617

vt 0.025848 0.307617

vt 0.025848 0.307617

vt 0.025848 0.307617

vt 0.025848 0.307617

vt 0.025848 0.307617

vt 0.025848 0.307617

vt 0.025848 0.307617

vt 0.025848 0.307617

vt 0.025848 0.307617

vt 0.025848 0.307617

vt 0.025848 0.307617

vt 0.025848 0.307617

vt 0.025848 0.307617

vt 0.025848 0.307617

vt 0.025848 0.307617

vt 0.025848 0.307617

vt 0.025848 0.307617

vt 0.025848 0.307617

vt 0.025848 0.307617

vt 0.025848 0.307617

vt 0.025848 0.307617

vt 0.025848 0.307617

vt 0.025848 0.307617

vt 0.025848 0.307617

vt 0.025848 0.307617

vt 0.025848 0.307617

vt 0.025848 0.307617

vt 0.025848 0.307617

vt 0.025848 0.307617

vt 0.025848 0.307617

vt 0.025848 0.307617

vt 0.025848 0.307617

vt 0.025848 0.307617

vt 0.025848 0.307617

vt 0.025848 0.307617

vt 0.025848 0.307617

vt 0.025848 0.307617

vt 0.025848 0.307617

vt 0.025848 0.307617

vt 0.025848 0.307617

vt 0.025848 0.307617

vt 0.025848 0.307617

vt 0.025848 0.307617

vt 0.025848 0.307617

vt 0.025848 0.307617

vt 0.025848 0.307617

vt 0.025848 0.307617

vt 0.025848 0.307617

vt 0.025848 0.307617

vt 0.025848 0.307617

vt 0.025848 0.307617

vt 0.025848 0.307617

vt 0.025848 0.307617

vt 0.025848 0.307617

vt 0.025848 0.307617

vt 0.025848 0.307617

vt 0.025848 0.307617

vt 0.025848 0.307617

vt 0.025848 0.307617

vt 0.025848 0.307617

vt 0.025848 0.307617

vt 0.025848 0.307617

vt 0.025848 0.307617

vt 0.025848 0.307617

vt 0.025848 0.307617

vt 0.025848 0.307617

vt 0.025848 0.307617

vt 0.025848 0.307617

vt 0.025848 0.307617

vt 0.025848 0.307617

vt 0.025848 0.307617

vt 0.025848 0.307617

vt 0.025848 0.307617

vt 0.025848 0.307617

vt 0.025848 0.307617

vt 0.025848 0.307617

vt 0.025848 0.307617

vt 0.025848 0.307617

vt 0.025848 0.307617

vt 0.025848 0.307617

vt 0.025848 0.307617

vt 0.025848 0.307617

vt 0.025848 0.307617

vt 0.025848 0.307617

vt 0.025848 0.307617

vt 0.025848 0.307617

vt 0.025848 0.307617

vt 0.025848 0.307617

vt 0.025848 0.307617

vt 0.025848 0.307617

vt 0.025848 0.307617

vt 0.025848 0.307617

vt 0.025848 0.307617

vt 0.025848 0.307617

vt 0.025848 0.307617

vt 0.025848 0.307617

vt 0.025848 0.307617

vt 0.025848 0.307617

vt 0.025848 0.307617

vt 0.025848 0.307617

vt 0.025848 0.307617

vt 0.025848 0.307617

vt 0.025848 0.307617

vt 0.025848 0.307617

vt 0.025848 0.307617

vt 0.025848 0.307617

vt 0.025848 0.307617

vt 0.025848 0.307617

vt 0.025848 0.307617

vt 0.025848 0.307617

vt 0.025848 0.307617

vt 0.025848 0.307617

vt 0.025848 0.307617

vt 0.025848 0.307617

vt 0.025848 0.307617

vt 0.025848 0.307617

vt 0.025848 0.307617

vt 0.025848 0.307617

vt 0.025848 0.307617

vt 0.025848 0.307617

vt 0.025848 0.307617

vt 0.025848 0.307617

vt 0.025848 0.307617

vt 0.025848 0.307617

vt 0.025848 0.307617

vt 0.025848 0.307617

vt 0.025848 0.307617

vt 0.025848 0.307617

vt 0.025848 0.307617

vt 0.025848 0.307617

vt 0.025848 0.307617



vn 0.118110 0.937008 0.322835

vn 0.118110 0.937008 0.322835

vn 0.118110 0.937008 0.322835

vn -0.094488 0.952756 0.299213

vn -0.094488 0.952756 0.299213

vn -0.094488 0.952756 0.299213

vn 0.244094 0.763780 0.598425

vn 0.244094 0.763780 0.598425

vn 0.244094 0.763780 0.598425

vn -0.212598 0.826772 0.519685

vn -0.212598 0.826772 0.519685

vn -0.212598 0.826772 0.519685

vn -0.102362 0.921260 -0.362205

vn -0.102362 0.921260 -0.362205

vn -0.102362 0.921260 -0.362205

vn 0.070866 0.937008 -0.346457

vn 0.070866 0.937008 -0.346457

vn 0.070866 0.937008 -0.346457

vn 0.110236 0.858268 0.503937

vn 0.110236 0.858268 0.503937

vn 0.110236 0.858268 0.503937

vn -0.141732 0.905512 0.401575

vn -0.141732 0.905512 0.401575

vn -0.141732 0.905512 0.401575

vn -0.787402 0.110236 0.606299

vn -0.787402 0.110236 0.606299

vn -0.787402 0.110236 0.606299

vn -0.763780 -0.110236 0.637795

vn -0.763780 -0.110236 0.637795

vn -0.763780 -0.110236 0.637795

vn 0.889764 -0.299213 0.346457

vn 0.889764 -0.299213 0.346457

vn 0.889764 -0.299213 0.346457

vn 0.818898 0.267717 0.511811

vn 0.818898 0.267717 0.511811

vn 0.818898 0.267717 0.511811

vn 0.000000 1.000000 0.000000

vn 0.000000 1.000000 0.000000

vn 0.000000 1.000000 0.000000

vn 0.000000 1.000000 0.000000

vn 0.000000 0.000000 1.000000

vn 0.000000 0.000000 1.000000

vn 0.000000 0.000000 1.000000

vn 0.000000 0.000000 1.000000

vn 0.000000 -1.000000 0.000000

vn 0.000000 -1.000000 0.000000

vn 0.000000 -1.000000 0.000000

vn 0.000000 -1.000000 0.000000

vn 0.000000 -1.000000 0.000000

vn 0.000000 -1.000000 0.000000

vn 0.000000 -1.000000 0.000000

vn 0.000000 -1.000000 0.000000

vn 0.000000 -1.000000 0.000000

vn 0.000000 -1.000000 0.000000

vn 0.000000 -1.000000 0.000000

vn 0.000000 -1.000000 0.000000

vn 0.000000 0.000000 1.000000

vn 0.000000 0.000000 1.000000

vn 0.000000 0.000000 1.000000

vn 0.000000 0.000000 1.000000

vn 0.000000 1.000000 0.000000

vn 0.000000 1.000000 0.000000

vn 0.000000 1.000000 0.000000

vn 0.000000 1.000000 0.000000

vn -1.000000 0.000000 0.000000

vn -1.000000 0.000000 0.000000

vn -1.000000 0.000000 0.000000

vn -1.000000 0.000000 0.000000

vn 0.000000 -1.000000 0.000000

vn 0.000000 -1.000000 0.000000

vn 0.000000 -1.000000 0.000000

vn 0.000000 -1.000000 0.000000

vn 1.000000 0.000000 0.000000

vn 1.000000 0.000000 0.000000

vn 1.000000 0.000000 0.000000

vn 1.000000 0.000000 0.000000

vn 0.000000 0.000000 1.000000

vn 0.000000 0.000000 1.000000

vn 0.000000 0.000000 1.000000

vn 0.000000 0.000000 1.000000

vn 0.000000 0.000000 1.000000

vn 0.000000 0.000000 1.000000

vn 0.000000 0.000000 1.000000

vn 1.000000 0.000000 0.000000

vn 1.000000 0.000000 0.000000

vn 1.000000 0.000000 0.000000

vn 1.000000 0.000000 0.000000

vn 1.000000 0.000000 0.000000

vn 1.000000 0.000000 0.000000

vn 1.000000 0.000000 0.000000

vn -1.000000 0.000000 0.000000

vn -1.000000 0.000000 0.000000

vn -1.000000 0.000000 0.000000

vn -1.000000 0.000000 0.000000

vn -1.000000 0.000000 0.000000

vn -1.000000 0.000000 0.000000

vn -1.000000 0.000000 0.000000

vn 0.000000 0.000000 -1.000000

vn 0.000000 0.000000 -1.000000

vn 0.000000 0.000000 -1.000000

vn 0.000000 0.000000 -1.000000

vn 0.000000 0.000000 -1.000000

vn 0.000000 0.000000 -1.000000

vn 0.000000 0.000000 -1.000000

vn 0.000000 1.000000 0.000000

vn 0.000000 1.000000 0.000000

vn 0.000000 1.000000 0.000000

vn 0.000000 1.000000 0.000000

vn 0.000000 1.000000 0.000000

vn 0.000000 1.000000 0.000000

vn 0.000000 1.000000 0.000000

vn 0.000000 1.000000 0.000000

vn 0.000000 1.000000 0.000000

vn 0.000000 1.000000 0.000000

vn 0.000000 1.000000 0.000000

vn 0.000000 1.000000 0.000000

vn 0.000000 1.000000 0.000000

vn 0.000000 1.000000 0.000000

vn 0.000000 1.000000 0.000000

vn 0.000000 1.000000 0.000000

vn 0.000000 1.000000 0.000000

vn 0.000000 1.000000 0.000000

vn 0.000000 1.000000 0.000000

vn 0.000000 1.000000 0.000000

vn 0.000000 0.000000 1.000000

vn 0.000000 0.000000 1.000000

vn 0.000000 0.000000 1.000000

vn 0.000000 0.000000 1.000000

vn 0.000000 0.000000 1.000000

vn 0.000000 0.000000 1.000000

vn 0.000000 0.000000 1.000000

vn 0.000000 0.000000 1.000000

vn 0.000000 0.000000 1.000000

vn 0.000000 0.000000 1.000000

vn 0.000000 0.000000 1.000000

vn 0.000000 0.000000 1.000000

vn 0.000000 0.000000 1.000000

vn 0.000000 0.000000 1.000000

vn 0.000000 0.000000 1.000000

vn 0.000000 0.000000 1.000000

vn 0.000000 0.000000 1.000000

vn 0.000000 0.000000 1.000000

vn 0.000000 0.000000 1.000000

vn 0.000000 0.000000 1.000000

f 1/1/1 2/2/2 3/3/3

f 4/4/4 5/5/5 6/6/6

f 7/7/7 8/8/8 9/9/9

f 10/10/10 11/11/11 12/12/12

f 13/13/13 14/14/14 15/15/15

f 16/16/16 17/17/17 18/18/18

f 19/19/19 20/20/20 21/21/21

f 22/22/22 23/23/23 24/24/24

f 25/25/25 26/26/26 27/27/27

f 28/28/28 29/29/29 30/30/30

f 31/31/31 32/32/32 33/33/33

f 34/34/34 35/35/35 36/36/36

f 37/37/37 38/38/38 39/39/39

f 38/38/38 37/37/37 40/40/40

f 41/41/41 42/42/42 43/43/43

f 41/41/41 43/43/43 44/44/44

f 45/45/45 46/46/46 47/47/47

f 46/46/46 45/45/45 48/48/48

f 49/49/49 50/50/50 51/51/51

f 50/50/50 49/49/49 52/52/52

f 53/53/53 54/54/54 55/55/55

f 54/54/54 53/53/53 56/56/56

f 57/57/57 58/58/58 59/59/59

f 57/57/57 59/59/59 60/60/60

f 61/61/61 62/62/62 63/63/63

f 61/61/61 63/63/63 64/64/64

f 65/65/65 66/66/66 67/67/67

f 66/66/66 65/65/65 68/68/68

f 69/69/69 70/70/70 71/71/71

f 69/69/69 71/71/71 72/72/72

f 73/73/73 74/74/74 75/75/75

f 74/74/74 73/73/73 76/76/76

f 77/77/77 78/78/78 79/79/79

f 79/79/79 80/80/80 77/77/77

f 81/81/81 80/80/80 79/79/79

f 80/80/80 81/81/81 82/82/82

f 83/83/83 82/82/82 81/81/81

f 84/84/84 85/85/85 86/86/86

f 86/86/86 87/87/87 84/84/84

f 88/88/88 87/87/87 86/86/86

f 87/87/87 88/88/88 89/89/89

f 89/89/89 88/88/88 90/90/90

f 91/91/91 92/92/92 93/93/93

f 93/93/93 94/94/94 91/91/91

f 95/95/95 94/94/94 93/93/93

f 94/94/94 95/95/95 96/96/96

f 96/96/96 95/95/95 97/97/97

f 98/98/98 99/99/99 100/100/100

f 98/98/98 101/101/101 99/99/99

f 98/98/98 102/102/102 101/101/101

f 102/102/102 103/103/103 101/101/101

f 103/103/103 102/102/102 104/104/104

f 105/105/105 106/106/106 107/107/107

f 106/106/106 105/105/105 108/108/108

f 109/109/109 106/106/106 108/108/108

f 108/108/108 110/110/110 109/109/109

f 111/111/111 110/110/110 108/108/108

f 110/110/110 112/112/112 113/113/113

f 112/112/112 110/110/110 111/111/111

f 111/111/111 114/114/114 112/112/112

f 115/115/115 114/114/114 111/111/111

f 114/114/114 115/115/115 116/116/116

f 116/116/116 115/115/115 117/117/117

f 118/118/118 119/119/119 120/120/120

f 121/121/121 119/119/119 118/118/118

f 119/119/119 121/121/121 122/122/122

f 122/122/122 121/121/121 123/123/123

f 124/124/124 122/122/122 123/123/123

f 125/125/125 126/126/126 127/127/127

f 128/128/128 126/126/126 125/125/125

f 129/129/129 126/126/126 128/128/128

f 129/129/129 128/128/128 130/130/130

f 130/130/130 131/131/131 129/129/129

f 131/131/131 132/132/132 129/129/129

f 133/133/133 129/129/129 132/132/132

f 129/129/129 133/133/133 134/134/134

f 134/134/134 133/133/133 135/135/135

f 135/135/135 136/136/136 134/134/134

f 126/126/126 129/129/129 137/137/137

f 136/136/136 138/138/138 134/134/134

f 126/126/126 137/137/137 139/139/139

f 136/136/136 140/140/140 138/138/138

f 141/141/141 139/139/139 137/137/137

f 140/140/140 142/142/142 138/138/138

f 143/143/143 141/141/141 137/137/137

f 144/144/144 138/138/138 142/142/142

f 137/137/137 144/144/144 143/143/143

f 138/138/138 144/144/144 137/137/137

