# UnrealEd OBJ exporter (_Internal)



v 4.753418 8.247879 18.385498

v -4.753479 8.247879 18.385498

v -4.753479 5.556129 18.528076

v 4.753418 5.556129 18.528076

v 25.000000 -0.000000 -17.507568

v -25.000000 -0.000000 -17.507568

v -25.000000 24.768700 -17.507568

v 25.000000 24.768700 -17.507568

v 25.000000 24.768700 -0.000000

v -25.000000 24.768700 -17.507568

v -25.000000 24.768700 -0.000000

v 25.000000 24.768700 -17.507568

v 21.695007 19.775597 10.897949

v -21.695007 19.775597 10.897949

v -21.695007 10.762627 16.252441

v 21.695007 10.762627 16.252441

v 25.000000 10.875511 17.145508

v 22.138733 2.175102 17.435059

v 25.000000 0.000000 17.507568

v 22.138733 10.875511 17.145508

v 22.138733 21.031456 11.410156

v 25.000000 10.875511 17.145508

v 25.000000 21.031456 11.410156

v 22.138733 10.875511 17.145508

v -22.138733 10.875511 17.145508

v -22.138733 21.031456 11.410156

v -25.000000 21.031456 11.410156

v -25.000000 10.875511 17.145508

v -21.695007 19.775597 10.897949

v 21.695007 19.775597 10.897949

v 21.695007 22.428917 2.375732

v -21.695068 22.428917 2.375732

v -25.000000 0.000000 17.507568

v 25.000000 0.000000 17.507568

v 22.138733 2.175102 17.435059

v -22.138794 2.175102 17.435059

v -22.138794 2.175102 17.435059

v -22.138733 10.875511 17.145508

v -25.000000 10.875511 17.145508

v -25.000000 0.000000 17.507568

v 21.695007 3.041382 16.522705

v -22.138794 2.175102 17.435059

v 22.138733 2.175102 17.435059

v -21.695068 3.041382 16.522705

v 22.138733 10.875511 17.145508

v 21.695007 3.041382 16.522705

v 22.138733 2.175102 17.435059

v 21.695007 10.762627 16.252441

v -22.138733 10.875511 17.145508

v -22.138794 2.175102 17.435059

v -21.695068 3.041382 16.522705

v -21.695007 10.762627 16.252441

v 21.695007 19.775597 10.897949

v 22.138733 10.875511 17.145508

v 22.138733 21.031456 11.410156

v 21.695007 10.762627 16.252441

v -21.695007 19.775597 10.897949

v -22.138733 10.875511 17.145508

v -21.695007 10.762627 16.252441

v -22.138733 21.031456 11.410156

v 22.138733 24.021248 2.281982

v -22.138794 24.021248 2.281982

v -21.695068 22.428917 2.375732

v 21.695007 22.428917 2.375732

v -21.695068 22.428917 2.375732

v -22.138733 21.031456 11.410156

v -21.695007 19.775597 10.897949

v -22.138794 24.021248 2.281982

v 21.695007 22.428917 2.375732

v 21.695007 19.775597 10.897949

v 22.138733 21.031456 11.410156

v 22.138733 24.021248 2.281982

v 21.695007 3.041382 16.522705

v -4.961609 4.776161 16.461914

v -21.695068 3.041382 16.522705

v 4.961548 4.776161 16.461914

v 4.961548 9.027847 16.313232

v 21.695007 3.041382 16.522705

v 21.695007 10.762627 16.252441

v 4.961548 4.776161 16.461914

v -21.695007 10.762627 16.252441

v 4.961548 9.027847 16.313232

v 21.695007 10.762627 16.252441

v -4.961609 9.027847 16.313232

v -21.695068 3.041382 16.522705

v -4.961609 4.776161 16.461914

v -21.695007 10.762627 16.252441

v -4.961609 9.027847 16.313232

v 4.753418 5.556129 18.528076

v -4.753479 5.556129 18.528076

v -4.961609 4.776161 16.461914

v 4.961548 4.776161 16.461914

v 4.961548 4.776161 16.461914

v 4.961548 9.027847 16.313232

v 4.753418 8.247879 18.385498

v 4.753418 5.556129 18.528076

v -4.753479 8.247879 18.385498

v 4.753418 8.247879 18.385498

v 4.961548 9.027847 16.313232

v -4.961609 9.027847 16.313232

v -4.961609 4.776161 16.461914

v -4.753479 8.247879 18.385498

v -4.961609 9.027847 16.313232

v -4.753479 5.556129 18.528076

v -25.000000 -0.000000 -17.507568

v -25.000000 24.768700 -0.000000

v -25.000000 24.768700 -17.507568

v -25.000000 0.000000 -0.000000

v -25.000000 21.031456 11.410156

v -25.000000 10.875511 17.145508

v -25.000000 0.000000 17.507568

v -22.138794 24.021248 2.281982

v -25.000000 21.031456 11.410156

v -22.138733 21.031456 11.410156

v -25.000000 24.768700 -0.000000

v 22.138733 24.021248 2.281982

v 25.000000 24.768700 -0.000000

v 25.000000 21.031456 11.410156

v 22.138733 21.031456 11.410156

v 25.000000 0.000000 17.507568

v -25.000000 0.000000 17.507568

v -25.000000 0.000000 -0.000000

v 25.000000 0.000000 -0.000000

v 25.000000 -0.000000 -17.507568

v -25.000000 -0.000000 -17.507568

v 25.000000 24.768700 -17.507568

v 25.000000 0.000000 -0.000000

v 25.000000 -0.000000 -17.507568

v 25.000000 24.768700 -0.000000

v 25.000000 21.031456 11.410156

v 25.000000 10.875511 17.145508

v 25.000000 0.000000 17.507568



vt 0.004150 0.327148

vt 0.004150 0.327148

vt 0.004150 0.327148

vt 0.004150 0.327148

vt 0.004875 0.352051

vt 0.004875 0.352051

vt 0.004875 0.352051

vt 0.004875 0.352051

vt 0.004875 0.352051

vt 0.004875 0.352051

vt 0.004875 0.352051

vt 0.004875 0.352051

vt 0.007324 0.383301

vt 0.007324 0.383301

vt 0.007324 0.383301

vt 0.007324 0.383301

vt 0.004875 0.352051

vt 0.004875 0.352051

vt 0.004875 0.352051

vt 0.004875 0.352051

vt 0.004875 0.352051

vt 0.004875 0.352051

vt 0.004875 0.352051

vt 0.004875 0.352051

vt 0.004875 0.352051

vt 0.004875 0.352051

vt 0.004875 0.352051

vt 0.004875 0.352051

vt 0.007324 0.383301

vt 0.007324 0.383301

vt 0.007324 0.383301

vt 0.007324 0.383301

vt 0.004875 0.352051

vt 0.004875 0.352051

vt 0.004875 0.352051

vt 0.004875 0.352051

vt 0.004875 0.352051

vt 0.004875 0.352051

vt 0.004875 0.352051

vt 0.004875 0.352051

vt 0.004875 0.352051

vt 0.004875 0.352051

vt 0.004875 0.352051

vt 0.004875 0.352051

vt 0.004875 0.352051

vt 0.004875 0.352051

vt 0.004875 0.352051

vt 0.004875 0.352051

vt 0.004875 0.352051

vt 0.004875 0.352051

vt 0.004875 0.352051

vt 0.004875 0.352051

vt 0.004875 0.352051

vt 0.004875 0.352051

vt 0.004875 0.352051

vt 0.004875 0.352051

vt 0.004875 0.352051

vt 0.004875 0.352051

vt 0.004875 0.352051

vt 0.004875 0.352051

vt 0.004875 0.352051

vt 0.004875 0.352051

vt 0.004875 0.352051

vt 0.004875 0.352051

vt 0.004875 0.352051

vt 0.004875 0.352051

vt 0.004875 0.352051

vt 0.004875 0.352051

vt 0.004875 0.352051

vt 0.004875 0.352051

vt 0.004875 0.352051

vt 0.004875 0.352051

vt 0.007324 0.383301

vt 0.007324 0.383301

vt 0.007324 0.383301

vt 0.007324 0.383301

vt 0.007324 0.383301

vt 0.007324 0.383301

vt 0.007324 0.383301

vt 0.007324 0.383301

vt 0.007324 0.383301

vt 0.007324 0.383301

vt 0.007324 0.383301

vt 0.007324 0.383301

vt 0.007324 0.383301

vt 0.007324 0.383301

vt 0.007324 0.383301

vt 0.007324 0.383301

vt 0.004150 0.327148

vt 0.004150 0.327148

vt 0.004150 0.327148

vt 0.004150 0.327148

vt 0.004150 0.327148

vt 0.004150 0.327148

vt 0.004150 0.327148

vt 0.004150 0.327148

vt 0.004150 0.327148

vt 0.004150 0.327148

vt 0.004150 0.327148

vt 0.004150 0.327148

vt 0.004150 0.327148

vt 0.004150 0.327148

vt 0.004150 0.327148

vt 0.004150 0.327148

vt 0.004875 0.352051

vt 0.004875 0.352051

vt 0.004875 0.352051

vt 0.004875 0.352051

vt 0.004875 0.352051

vt 0.004875 0.352051

vt 0.004875 0.352051

vt 0.004875 0.352051

vt 0.004875 0.352051

vt 0.004875 0.352051

vt 0.004875 0.352051

vt 0.004875 0.352051

vt 0.004875 0.352051

vt 0.004875 0.352051

vt 0.004875 0.352051

vt 0.004875 0.352051

vt 0.004875 0.352051

vt 0.004875 0.352051

vt 0.004875 0.352051

vt 0.004875 0.352051

vt 0.004875 0.352051

vt 0.004875 0.352051

vt 0.004875 0.352051

vt 0.004875 0.352051

vt 0.004875 0.352051

vt 0.004875 0.352051

vt 0.004875 0.352051

vt 0.004875 0.352051



vn 0.000000 0.055118 1.000000

vn 0.000000 0.055118 1.000000

vn 0.000000 0.055118 1.000000

vn 0.000000 0.055118 1.000000

vn 0.000000 0.000000 -1.000000

vn 0.000000 0.000000 -1.000000

vn 0.000000 0.000000 -1.000000

vn 0.000000 0.000000 -1.000000

vn 0.000000 1.000000 0.000000

vn 0.000000 1.000000 0.000000

vn 0.000000 1.000000 0.000000

vn 0.000000 1.000000 0.000000

vn 0.000000 0.511811 0.858268

vn 0.000000 0.511811 0.858268

vn 0.000000 0.511811 0.858268

vn 0.000000 0.511811 0.858268

vn 0.000000 0.031496 1.000000

vn 0.000000 0.031496 1.000000

vn 0.000000 0.031496 1.000000

vn 0.000000 0.031496 1.000000

vn 0.000000 0.488189 0.874016

vn 0.000000 0.488189 0.874016

vn 0.000000 0.488189 0.874016

vn 0.000000 0.488189 0.874016

vn 0.000000 0.488189 0.874016

vn 0.000000 0.488189 0.874016

vn 0.000000 0.488189 0.874016

vn 0.000000 0.488189 0.874016

vn 0.000000 0.952756 0.299213

vn 0.000000 0.952756 0.299213

vn 0.000000 0.952756 0.299213

vn 0.000000 0.952756 0.299213

vn 0.000000 0.031496 1.000000

vn 0.000000 0.031496 1.000000

vn 0.000000 0.031496 1.000000

vn 0.000000 0.031496 1.000000

vn 0.000000 0.031496 1.000000

vn 0.000000 0.031496 1.000000

vn 0.000000 0.031496 1.000000

vn 0.000000 0.031496 1.000000

vn 0.000000 0.724409 0.685039

vn 0.000000 0.724409 0.685039

vn 0.000000 0.724409 0.685039

vn 0.000000 0.724409 0.685039

vn -0.897638 0.015748 0.448819

vn -0.897638 0.015748 0.448819

vn -0.897638 0.015748 0.448819

vn -0.897638 0.015748 0.448819

vn 0.897638 0.015748 0.448819

vn 0.897638 0.015748 0.448819

vn 0.897638 0.015748 0.448819

vn 0.897638 0.015748 0.448819

vn -0.905512 0.212598 0.362205

vn -0.905512 0.212598 0.362205

vn -0.905512 0.212598 0.362205

vn -0.905512 0.212598 0.362205

vn 0.905512 0.212598 0.362205

vn 0.905512 0.212598 0.362205

vn 0.905512 0.212598 0.362205

vn 0.905512 0.212598 0.362205

vn 0.000000 0.055118 1.000000

vn 0.000000 0.055118 1.000000

vn 0.000000 0.055118 1.000000

vn 0.000000 0.055118 1.000000

vn 0.952756 0.283465 0.094488

vn 0.952756 0.283465 0.094488

vn 0.952756 0.283465 0.094488

vn 0.952756 0.283465 0.094488

vn -0.952756 0.283465 0.094488

vn -0.952756 0.283465 0.094488

vn -0.952756 0.283465 0.094488

vn -0.952756 0.283465 0.094488

vn 0.000000 0.031496 1.000000

vn 0.000000 0.031496 1.000000

vn 0.000000 0.031496 1.000000

vn 0.000000 0.031496 1.000000

vn 0.000000 0.031496 1.000000

vn 0.000000 0.031496 1.000000

vn 0.000000 0.031496 1.000000

vn 0.000000 0.031496 1.000000

vn 0.000000 0.031496 1.000000

vn 0.000000 0.031496 1.000000

vn 0.000000 0.031496 1.000000

vn 0.000000 0.031496 1.000000

vn 0.000000 0.031496 1.000000

vn 0.000000 0.031496 1.000000

vn 0.000000 0.031496 1.000000

vn 0.000000 0.031496 1.000000

vn 0.000000 -0.937008 0.354331

vn 0.000000 -0.937008 0.354331

vn 0.000000 -0.937008 0.354331

vn 0.000000 -0.937008 0.354331

vn 0.992126 0.007874 0.102362

vn 0.992126 0.007874 0.102362

vn 0.992126 0.007874 0.102362

vn 0.992126 0.007874 0.102362

vn 0.000000 0.937008 0.354331

vn 0.000000 0.937008 0.354331

vn 0.000000 0.937008 0.354331

vn 0.000000 0.937008 0.354331

vn -0.992126 0.007874 0.102362

vn -0.992126 0.007874 0.102362

vn -0.992126 0.007874 0.102362

vn -0.992126 0.007874 0.102362

vn -1.000000 0.000000 0.000000

vn -1.000000 0.000000 0.000000

vn -1.000000 0.000000 0.000000

vn -1.000000 0.000000 0.000000

vn -1.000000 0.000000 0.000000

vn -1.000000 0.000000 0.000000

vn -1.000000 0.000000 0.000000

vn 0.000000 0.952756 0.314961

vn 0.000000 0.952756 0.314961

vn 0.000000 0.952756 0.314961

vn 0.000000 0.952756 0.314961

vn 0.000000 0.952756 0.314961

vn 0.000000 0.952756 0.314961

vn 0.000000 0.952756 0.314961

vn 0.000000 0.952756 0.314961

vn 0.000000 -1.000000 0.000000

vn 0.000000 -1.000000 0.000000

vn 0.000000 -1.000000 0.000000

vn 0.000000 -1.000000 0.000000

vn 0.000000 -1.000000 0.000000

vn 0.000000 -1.000000 0.000000

vn 1.000000 0.000000 0.000000

vn 1.000000 0.000000 0.000000

vn 1.000000 0.000000 0.000000

vn 1.000000 0.000000 0.000000

vn 1.000000 0.000000 0.000000

vn 1.000000 0.000000 0.000000

vn 1.000000 0.000000 0.000000

f 1/1/1 2/2/2 3/3/3

f 1/1/1 3/3/3 4/4/4

f 5/5/5 6/6/6 7/7/7

f 5/5/5 7/7/7 8/8/8

f 9/9/9 10/10/10 11/11/11

f 10/10/10 9/9/9 12/12/12

f 13/13/13 14/14/14 15/15/15

f 13/13/13 15/15/15 16/16/16

f 17/17/17 18/18/18 19/19/19

f 18/18/18 17/17/17 20/20/20

f 21/21/21 22/22/22 23/23/23

f 22/22/22 21/21/21 24/24/24

f 25/25/25 26/26/26 27/27/27

f 27/27/27 28/28/28 25/25/25

f 29/29/29 30/30/30 31/31/31

f 29/29/29 31/31/31 32/32/32

f 33/33/33 34/34/34 35/35/35

f 33/33/33 35/35/35 36/36/36

f 37/37/37 38/38/38 39/39/39

f 39/39/39 40/40/40 37/37/37

f 41/41/41 42/42/42 43/43/43

f 42/42/42 41/41/41 44/44/44

f 45/45/45 46/46/46 47/47/47

f 46/46/46 45/45/45 48/48/48

f 49/49/49 50/50/50 51/51/51

f 49/49/49 51/51/51 52/52/52

f 53/53/53 54/54/54 55/55/55

f 54/54/54 53/53/53 56/56/56

f 57/57/57 58/58/58 59/59/59

f 58/58/58 57/57/57 60/60/60

f 61/61/61 62/62/62 63/63/63

f 61/61/61 63/63/63 64/64/64

f 65/65/65 66/66/66 67/67/67

f 66/66/66 65/65/65 68/68/68

f 69/69/69 70/70/70 71/71/71

f 71/71/71 72/72/72 69/69/69

f 73/73/73 74/74/74 75/75/75

f 74/74/74 73/73/73 76/76/76

f 77/77/77 78/78/78 79/79/79

f 78/78/78 77/77/77 80/80/80

f 81/81/81 82/82/82 83/83/83

f 82/82/82 81/81/81 84/84/84

f 85/85/85 86/86/86 87/87/87

f 88/88/88 87/87/87 86/86/86

f 89/89/89 90/90/90 91/91/91

f 89/89/89 91/91/91 92/92/92

f 93/93/93 94/94/94 95/95/95

f 93/93/93 95/95/95 96/96/96

f 97/97/97 98/98/98 99/99/99

f 97/97/97 99/99/99 100/100/100

f 101/101/101 102/102/102 103/103/103

f 102/102/102 101/101/101 104/104/104

f 105/105/105 106/106/106 107/107/107

f 106/106/106 105/105/105 108/108/108

f 106/106/106 108/108/108 109/109/109

f 109/109/109 108/108/108 110/110/110

f 110/110/110 108/108/108 111/111/111

f 112/112/112 113/113/113 114/114/114

f 113/113/113 112/112/112 115/115/115

f 116/116/116 115/115/115 112/112/112

f 115/115/115 116/116/116 117/117/117

f 118/118/118 117/117/117 116/116/116

f 116/116/116 119/119/119 118/118/118

f 120/120/120 121/121/121 122/122/122

f 120/120/120 122/122/122 123/123/123

f 122/122/122 124/124/124 123/123/123

f 124/124/124 122/122/122 125/125/125

f 126/126/126 127/127/127 128/128/128

f 127/127/127 126/126/126 129/129/129

f 127/127/127 129/129/129 130/130/130

f 127/127/127 130/130/130 131/131/131

f 127/127/127 131/131/131 132/132/132

