# UnrealEd OBJ exporter (_Internal)



v 62.984451 -10.870905 35.170994

v 64.371376 -13.967069 34.106255

v 71.771988 -13.967069 35.170994

v 64.371376 -13.967069 34.106255

v 62.984451 -10.870905 35.170994

v 62.984451 -13.967069 29.606302

v 71.931107 178.270157 28.514536

v 74.712357 178.270157 22.997147

v 74.712357 197.310303 28.514536

v 74.712357 156.601242 28.514536

v 74.712357 178.270157 22.997147

v 71.931107 178.270157 28.514536

v 86.154419 -5.241373 32.691555

v 190.967697 -7.492758 35.170994

v 188.040298 -3.010870 28.514536

v 0.000000 -10.000001 19.999992

v 69.901581 -7.273747 19.999990

v 73.596893 0.000000 19.999992

v 180.098297 0.000000 19.999990

v 176.225311 -10.000001 19.999990

v 249.999908 -10.000001 19.999989

v 73.596893 0.000000 19.999992

v 176.225311 -10.000001 19.999990

v 69.901581 -7.273747 19.999990

v 190.967697 -13.967069 35.170994

v 190.967697 -13.967069 -1.563374

v 190.967697 -7.492758 35.170994

v 190.967697 -5.008432 -1.563374

v 190.967697 -7.492758 35.170994

v 190.967697 -5.008432 -1.563374

v 188.040298 -3.010870 28.514536

v 188.040298 -3.010870 -1.563374

v 65.911087 -3.010870 28.514536

v 86.154419 -5.241373 32.691555

v 188.040298 -3.010870 28.514536

v 62.984451 -7.153631 35.170994

v 62.984451 -5.008432 -1.563374

v 65.911087 -3.010870 28.514536

v 65.911087 -3.010870 -1.563374

v 62.984451 -7.153631 35.170994

v 190.967697 -13.967069 -1.563374

v 67.940506 -13.967069 15.439089

v 62.984451 -13.967069 -1.563374

v 186.011642 -13.967069 15.439089

v 186.011642 -13.967069 15.439089

v 190.967697 -13.967069 35.170994

v 186.011642 -13.967069 30.314310

v 190.967697 -13.967069 -1.563374

v 75.814041 222.736008 -1.563374

v 178.138107 222.736008 28.514536

v 75.200638 224.070572 28.514536

v 178.138107 222.736008 -1.563374

v 179.239792 178.270157 28.514536

v 178.138107 222.736008 28.514536

v 178.138107 222.736008 -1.563374

v 179.239792 178.270157 -1.563374

v 75.814041 0.136015 28.514536

v 178.138107 1.386190 28.514536

v 178.138107 1.386190 -1.563374

v 75.814041 1.386190 -1.563374

v 178.138107 1.386190 28.514536

v 179.239792 178.270157 28.514536

v 179.239792 178.270157 -1.563374

v 178.138107 1.386190 -1.563374

v 189.368576 178.270157 28.514536

v 188.040298 -3.010870 28.514536

v 188.040298 -3.010870 -1.563374

v 189.368576 178.270157 -1.563374

v 188.040298 230.864563 28.514536

v 189.368576 178.270157 28.514536

v 189.368576 178.270157 -1.563374

v 188.040298 230.864563 -1.563374

v 188.040298 230.864563 28.514536

v 65.911079 230.864578 -1.563374

v 65.911079 230.864578 28.514538

v 188.040298 230.864563 -1.563374

v 65.911087 -3.010870 28.514536

v 64.583572 178.270157 28.514536

v 64.583572 178.270157 -1.563374

v 65.911087 -3.010870 -1.563374

v 64.583572 178.270157 28.514536

v 65.911079 230.864578 28.514538

v 65.911079 230.864578 -1.563374

v 64.583572 178.270157 -1.563374

v 75.814041 222.736008 -1.563374

v 188.040298 230.864563 -1.563374

v 178.138107 222.736008 -1.563374

v 65.911079 230.864578 -1.563374

v 75.814041 1.386190 -1.563374

v 188.040298 -3.010870 -1.563374

v 65.911087 -3.010870 -1.563374

v 178.138107 1.386190 -1.563374

v 178.138107 1.386190 -1.563374

v 189.368576 178.270157 -1.563374

v 188.040298 -3.010870 -1.563374

v 179.239792 178.270157 -1.563374

v 75.814041 1.386190 -1.563374

v 64.583572 178.270157 -1.563374

v 74.712357 178.270157 -1.563374

v 65.911087 -3.010870 -1.563374

v 188.040298 -3.010870 -1.563374

v 62.984451 -5.008432 -1.563374

v 190.967697 -5.008432 -1.563374

v 62.984451 -13.967069 -1.563374

v 190.967697 -13.967069 -1.563374

v 75.814041 222.736008 -1.563374

v 74.712357 178.270157 -1.563374

v 64.583572 178.270157 -1.563374

v 65.911079 230.864578 -1.563374

v 178.138107 222.736008 -1.563374

v 189.368576 178.270157 -1.563374

v 179.239792 178.270157 -1.563374

v 188.040298 230.864563 -1.563374

v 0.000000 290.000000 19.999998

v 0.000000 -10.000001 19.999992

v 73.596497 228.416718 19.999998

v 73.596893 0.000000 19.999992

v 249.999908 290.000000 20.000000

v 180.098297 228.416718 20.000002

v 249.999908 -10.000001 19.999989

v 180.098297 0.000000 19.999990

v 249.999908 290.000000 20.000000

v 0.000000 290.000000 19.999998

v 73.596497 228.416718 19.999998

v 180.098297 228.416718 20.000002

v 249.999908 -10.000001 19.999989

v 176.225311 -10.000001 19.999990

v 176.940430 -12.547111 13.344203

v 249.999908 -10.000001 13.344202

v 0.000000 -10.000001 13.344205

v 69.901581 -7.273747 19.999990

v 0.000000 -10.000001 19.999992

v 77.046875 -10.000001 13.344204

v 176.225311 -10.000001 19.999990

v 77.046875 -10.000001 13.344204

v 176.940430 -12.547111 13.344203

v 69.901581 -7.273747 19.999990

v 74.712357 197.310303 28.514536

v 75.814041 222.736008 -1.563374

v 75.200638 224.070572 28.514536

v 74.712357 178.270157 -1.563374

v 74.712357 178.270157 22.997147

v 75.814041 1.386190 -1.563374

v 74.712357 156.601242 28.514536

v 75.814041 0.136015 28.514536

v 74.712357 178.270157 -1.563374

v 74.712357 178.270157 22.997147

v 86.154419 -5.241373 32.691555

v 190.967697 -13.967069 35.170994

v 190.967697 -7.492758 35.170994

v 71.771988 -13.967069 35.170994

v 62.984451 -7.153631 35.170994

v 62.984451 -10.870905 35.170994

v 67.940506 -13.967069 30.314310

v 71.771988 -13.967069 35.170994

v 64.371376 -13.967069 34.106255

v 186.011642 -13.967069 30.314310

v 190.967697 -13.967069 35.170994

v 62.984451 -13.967069 29.606302

v 67.940506 -13.967069 30.314310

v 64.371376 -13.967069 34.106255

v 67.940506 -13.967069 15.439089

v 62.984451 -13.967069 -1.563374

v 62.984451 -7.153631 35.170994

v 62.984451 -13.967069 29.606302

v 62.984451 -10.870905 35.170994

v 62.984451 -5.008432 -1.563374

v 62.984451 -13.967069 -1.563374

v 0.000000 -50.000008 13.344205

v 77.046875 -10.000001 13.344204

v 0.000000 -10.000001 13.344205

v 81.668579 -47.610935 13.344205

v 0.000000 -104.278465 13.344205

v 176.940430 -12.547111 13.344203

v 87.939850 -104.278465 13.344204

v 249.999908 -50.000008 13.344202

v 249.999908 -10.000001 13.344202

v 171.653595 -52.623341 13.344203

v 164.479706 -104.278465 13.344203

v 249.999908 -104.278465 13.344202

v 189.368576 178.270157 28.514536

v 178.138107 222.736008 28.514536

v 179.239792 178.270157 28.514536

v 178.138107 1.386190 28.514536

v 188.040298 230.864563 28.514536

v 188.040298 -3.010870 28.514536

v 75.200638 224.070572 28.514536

v 75.814041 0.136015 28.514536

v 65.911079 230.864578 28.514538

v 65.911087 -3.010870 28.514536

v 74.712357 197.310303 28.514536

v 74.712357 156.601242 28.514536

v 64.583572 178.270157 28.514536

v 71.931107 178.270157 28.514536

v -0.000031 290.000000 -0.000006

v 73.596497 228.416718 -0.000010

v 0.000000 0.000000 -0.000015

v 73.596893 0.000000 -0.000016

v 250.000000 290.000000 -0.000003

v 249.999908 0.000000 -0.000018

v 180.098297 228.416718 -0.000010

v 180.098297 0.000000 -0.000017

v 250.000000 290.000000 -0.000003

v 73.596497 228.416718 -0.000010

v -0.000031 290.000000 -0.000006

v 180.098297 228.416718 -0.000010



vt 0.059052 0.327637

vt 0.059052 0.327637

vt 0.059052 0.327637

vt 0.059052 0.327637

vt 0.059052 0.327637

vt 0.059052 0.327637

vt 0.059052 0.327637

vt 0.059052 0.327637

vt 0.059052 0.327637

vt 0.059052 0.327637

vt 0.059052 0.327637

vt 0.059052 0.327637

vt 0.059052 0.327637

vt 0.059052 0.327637

vt 0.059052 0.327637

vt 0.668457 0.799072

vt 0.708984 0.799072

vt 0.715332 0.804932

vt 0.785156 0.804932

vt 0.789551 0.799072

vt 0.831055 0.799072

vt 0.715332 0.804932

vt 0.789551 0.799072

vt 0.708984 0.799072

vt 0.059052 0.327637

vt 0.059052 0.327637

vt 0.059052 0.327637

vt 0.059052 0.327637

vt 0.059052 0.327637

vt 0.059052 0.327637

vt 0.059052 0.327637

vt 0.059052 0.327637

vt 0.059052 0.327637

vt 0.059052 0.327637

vt 0.059052 0.327637

vt 0.059052 0.327637

vt 0.059052 0.327637

vt 0.059052 0.327637

vt 0.059052 0.327637

vt 0.059052 0.327637

vt 0.059052 0.327637

vt 0.059052 0.327637

vt 0.059052 0.327637

vt 0.059052 0.327637

vt 0.059052 0.327637

vt 0.059052 0.327637

vt 0.059052 0.327637

vt 0.059052 0.327637

vt 0.059052 0.327637

vt 0.059052 0.327637

vt 0.059052 0.327637

vt 0.059052 0.327637

vt 0.059052 0.327637

vt 0.059052 0.327637

vt 0.059052 0.327637

vt 0.059052 0.327637

vt 0.059052 0.327637

vt 0.059052 0.327637

vt 0.059052 0.327637

vt 0.059052 0.327637

vt 0.059052 0.327637

vt 0.059052 0.327637

vt 0.059052 0.327637

vt 0.059052 0.327637

vt 0.059052 0.327637

vt 0.059052 0.327637

vt 0.059052 0.327637

vt 0.059052 0.327637

vt 0.059052 0.327637

vt 0.059052 0.327637

vt 0.059052 0.327637

vt 0.059052 0.327637

vt 0.059052 0.327637

vt 0.059052 0.327637

vt 0.059052 0.327637

vt 0.059052 0.327637

vt 0.059052 0.327637

vt 0.059052 0.327637

vt 0.059052 0.327637

vt 0.059052 0.327637

vt 0.059052 0.327637

vt 0.059052 0.327637

vt 0.059052 0.327637

vt 0.059052 0.327637

vt 0.058563 0.327637

vt 0.059509 0.327148

vt 0.059418 0.327637

vt 0.058502 0.327148

vt 0.059418 0.327637

vt 0.058502 0.327148

vt 0.059509 0.327148

vt 0.058563 0.327637

vt 0.059052 0.327637

vt 0.059052 0.327637

vt 0.058502 0.327148

vt 0.059052 0.327637

vt 0.059418 0.327637

vt 0.059052 0.327637

vt 0.059052 0.327637

vt 0.059052 0.327637

vt 0.059052 0.327637

vt 0.059052 0.327637

vt 0.059052 0.327637

vt 0.059052 0.327637

vt 0.059052 0.327637

vt 0.059052 0.327637

vt 0.059052 0.327637

vt 0.059052 0.327637

vt 0.058502 0.327148

vt 0.059418 0.327637

vt 0.059052 0.327637

vt 0.059052 0.327637

vt 0.059052 0.327637

vt 0.668457 0.992844

vt 0.668457 0.799072

vt 0.715332 0.952820

vt 0.715332 0.804932

vt 0.831055 0.992844

vt 0.785156 0.952820

vt 0.831055 0.799072

vt 0.785156 0.804932

vt 0.831055 0.992844

vt 0.668457 0.992844

vt 0.715332 0.952820

vt 0.785156 0.952820

vt 0.417480 0.446777

vt 0.417480 0.446777

vt 0.417480 0.446777

vt 0.417480 0.446777

vt 0.417480 0.446777

vt 0.417480 0.446777

vt 0.417480 0.446777

vt 0.417480 0.446777

vt 0.417480 0.446777

vt 0.417480 0.446777

vt 0.417480 0.446777

vt 0.417480 0.446777

vt 0.059052 0.327637

vt 0.059052 0.327637

vt 0.059052 0.327637

vt 0.059052 0.327637

vt 0.059052 0.327637

vt 0.059052 0.327637

vt 0.059052 0.327637

vt 0.059052 0.327637

vt 0.059052 0.327637

vt 0.059052 0.327637

vt 0.059052 0.327637

vt 0.059052 0.327637

vt 0.059052 0.327637

vt 0.059052 0.327637

vt 0.059052 0.327637

vt 0.059052 0.327637

vt 0.059052 0.327637

vt 0.059052 0.327637

vt 0.059052 0.327637

vt 0.059052 0.327637

vt 0.059052 0.327637

vt 0.059052 0.327637

vt 0.059052 0.327637

vt 0.059052 0.327637

vt 0.059052 0.327637

vt 0.059052 0.327637

vt 0.059052 0.327637

vt 0.059052 0.327637

vt 0.059052 0.327637

vt 0.059052 0.327637

vt 0.059052 0.327637

vt 0.417480 0.446777

vt 0.417480 0.446777

vt 0.417480 0.446777

vt 0.417480 0.446777

vt 0.417480 0.446777

vt 0.417480 0.446777

vt 0.417480 0.446777

vt 0.417480 0.446777

vt 0.417480 0.446777

vt 0.417480 0.446777

vt 0.417480 0.446777

vt 0.417480 0.446777

vt 0.059052 0.327637

vt 0.059052 0.327637

vt 0.059052 0.327637

vt 0.059052 0.327637

vt 0.059052 0.327637

vt 0.059052 0.327637

vt 0.059052 0.327637

vt 0.059052 0.327637

vt 0.059052 0.327637

vt 0.059052 0.327637

vt 0.059052 0.327637

vt 0.059052 0.327637

vt 0.059052 0.327637

vt 0.059052 0.327637

vt 0.331055 0.992844

vt 0.290283 0.941833

vt 0.331055 0.750000

vt 0.290039 0.750000

vt 0.168823 0.992844

vt 0.168823 0.750000

vt 0.211426 0.941833

vt 0.211304 0.750000

vt 0.168823 0.992844

vt 0.290283 0.941833

vt 0.331055 0.992844

vt 0.211426 0.941833



vn -0.409449 -0.574803 0.708661

vn -0.409449 -0.574803 0.708661

vn -0.409449 -0.574803 0.708661

vn -0.480315 -0.582677 0.653543

vn -0.480315 -0.582677 0.653543

vn -0.480315 -0.582677 0.653543

vn 0.685039 -0.204724 0.700787

vn 0.685039 -0.204724 0.700787

vn 0.685039 -0.204724 0.700787

vn 0.685039 0.181102 0.708661

vn 0.685039 0.181102 0.708661

vn 0.685039 0.181102 0.708661

vn 0.047244 0.929134 0.362205

vn 0.047244 0.929134 0.362205

vn 0.047244 0.929134 0.362205

vn 0.000000 0.000000 1.000000

vn 0.000000 0.000000 1.000000

vn 0.000000 0.000000 1.000000

vn 0.000000 0.000000 1.000000

vn 0.000000 0.000000 1.000000

vn 0.000000 0.000000 1.000000

vn 0.000000 0.000000 1.000000

vn 0.000000 0.000000 1.000000

vn 0.000000 0.000000 1.000000

vn 1.000000 0.000000 0.000000

vn 1.000000 0.000000 0.000000

vn 1.000000 0.000000 0.000000

vn 1.000000 0.000000 0.000000

vn 0.716535 0.692913 0.047244

vn 0.716535 0.692913 0.047244

vn 0.716535 0.692913 0.047244

vn 0.716535 0.692913 0.047244

vn 0.000000 0.874016 0.488189

vn 0.000000 0.874016 0.488189

vn 0.000000 0.874016 0.488189

vn -0.007874 0.929134 0.377953

vn -0.700787 0.708661 0.039370

vn -0.700787 0.708661 0.039370

vn -0.700787 0.708661 0.039370

vn -0.700787 0.708661 0.039370

vn 0.000000 -1.000000 0.000000

vn 0.000000 -1.000000 0.000000

vn 0.000000 -1.000000 0.000000

vn 0.000000 -1.000000 0.000000

vn 0.000000 -1.000000 0.000000

vn 0.000000 -1.000000 0.000000

vn 0.000000 -1.000000 0.000000

vn 0.000000 -1.000000 0.000000

vn -0.007874 -1.000000 0.047244

vn -0.007874 -1.000000 0.047244

vn -0.007874 -1.000000 0.047244

vn -0.007874 -1.000000 0.047244

vn -1.000000 -0.015748 0.000000

vn -1.000000 -0.015748 0.000000

vn -1.000000 -0.015748 0.000000

vn -1.000000 -0.015748 0.000000

vn -0.007874 1.000000 0.039370

vn -0.007874 1.000000 0.039370

vn -0.007874 1.000000 0.039370

vn -0.007874 1.000000 0.039370

vn -1.000000 0.007874 0.000000

vn -1.000000 0.007874 0.000000

vn -1.000000 0.007874 0.000000

vn -1.000000 0.007874 0.000000

vn 1.000000 -0.007874 0.000000

vn 1.000000 -0.007874 0.000000

vn 1.000000 -0.007874 0.000000

vn 1.000000 -0.007874 0.000000

vn 1.000000 0.023622 0.000000

vn 1.000000 0.023622 0.000000

vn 1.000000 0.023622 0.000000

vn 1.000000 0.023622 0.000000

vn 0.000000 1.000000 0.000000

vn 0.000000 1.000000 0.000000

vn 0.000000 1.000000 0.000000

vn 0.000000 1.000000 0.000000

vn -1.000000 -0.007874 0.000000

vn -1.000000 -0.007874 0.000000

vn -1.000000 -0.007874 0.000000

vn -1.000000 -0.007874 0.000000

vn -1.000000 0.023622 0.000000

vn -1.000000 0.023622 0.000000

vn -1.000000 0.023622 0.000000

vn -1.000000 0.023622 0.000000

vn 0.000000 0.000000 -1.000000

vn 0.000000 0.000000 -1.000000

vn 0.000000 0.000000 -1.000000

vn 0.000000 0.000000 -1.000000

vn 0.000000 0.000000 -1.000000

vn 0.000000 0.000000 -1.000000

vn 0.000000 0.000000 -1.000000

vn 0.000000 0.000000 -1.000000

vn 0.000000 0.000000 -1.000000

vn 0.000000 0.000000 -1.000000

vn 0.000000 0.000000 -1.000000

vn 0.000000 0.000000 -1.000000

vn 0.000000 0.000000 -1.000000

vn 0.000000 0.000000 -1.000000

vn 0.000000 0.000000 -1.000000

vn 0.000000 0.000000 -1.000000

vn 0.000000 0.000000 -1.000000

vn 0.000000 0.000000 -1.000000

vn 0.000000 0.000000 -1.000000

vn 0.000000 0.000000 -1.000000

vn 0.000000 0.000000 -1.000000

vn 0.000000 0.000000 -1.000000

vn 0.000000 0.000000 -1.000000

vn 0.000000 0.000000 -1.000000

vn 0.000000 0.000000 -1.000000

vn 0.000000 0.000000 -1.000000

vn 0.000000 0.000000 -1.000000

vn 0.000000 0.000000 -1.000000

vn 0.000000 0.000000 -1.000000

vn 0.000000 0.000000 1.000000

vn 0.000000 0.000000 1.000000

vn 0.000000 0.000000 1.000000

vn 0.000000 0.000000 1.000000

vn 0.000000 0.000000 1.000000

vn 0.000000 0.000000 1.000000

vn 0.000000 0.000000 1.000000

vn 0.000000 0.000000 1.000000

vn 0.000000 0.000000 1.000000

vn 0.000000 0.000000 1.000000

vn 0.000000 0.000000 1.000000

vn 0.000000 0.000000 1.000000

vn 0.015748 -0.984252 0.188976

vn 0.015748 -0.984252 0.188976

vn 0.015748 -0.984252 0.188976

vn 0.015748 -0.984252 0.188976

vn 0.015748 -0.976378 0.212598

vn 0.015748 -0.976378 0.212598

vn 0.015748 -0.976378 0.212598

vn 0.015748 -0.976378 0.212598

vn -0.023622 -0.937008 0.354331

vn -0.023622 -0.937008 0.354331

vn -0.023622 -0.937008 0.354331

vn -0.023622 -0.937008 0.354331

vn 1.000000 -0.015748 0.031496

vn 1.000000 -0.015748 0.031496

vn 1.000000 -0.015748 0.031496

vn 1.000000 -0.015748 0.031496

vn 1.000000 -0.015748 0.031496

vn 1.000000 0.007874 0.007874

vn 1.000000 0.007874 0.007874

vn 1.000000 0.007874 0.007874

vn 1.000000 0.007874 0.007874

vn 1.000000 0.007874 0.007874

vn -0.275591 0.299213 0.913386

vn 0.000000 0.000000 1.000000

vn 0.000000 0.000000 1.000000

vn 0.000000 0.000000 1.000000

vn 0.000000 0.000000 1.000000

vn 0.000000 0.000000 1.000000

vn 0.000000 -1.000000 0.000000

vn 0.000000 -1.000000 0.000000

vn 0.000000 -1.000000 0.000000

vn 0.000000 -1.000000 0.000000

vn 0.000000 -1.000000 0.000000

vn 0.000000 -1.000000 0.000000

vn 0.000000 -1.000000 0.000000

vn 0.000000 -1.000000 0.000000

vn 0.000000 -1.000000 0.000000

vn 0.000000 -1.000000 0.000000

vn -1.000000 0.000000 0.000000

vn -1.000000 0.000000 0.000000

vn -1.000000 0.000000 0.000000

vn -1.000000 0.000000 0.000000

vn -1.000000 0.000000 0.000000

vn 0.000000 0.000000 1.000000

vn 0.000000 0.000000 1.000000

vn 0.000000 0.000000 1.000000

vn 0.000000 0.000000 1.000000

vn 0.000000 0.000000 1.000000

vn 0.000000 0.000000 1.000000

vn 0.000000 0.000000 1.000000

vn 0.000000 0.000000 1.000000

vn 0.000000 0.000000 1.000000

vn 0.000000 0.000000 1.000000

vn 0.000000 0.000000 1.000000

vn 0.000000 0.000000 1.000000

vn 0.000000 0.000000 1.000000

vn 0.000000 0.000000 1.000000

vn 0.000000 0.000000 1.000000

vn 0.000000 0.000000 1.000000

vn 0.000000 0.000000 1.000000

vn 0.000000 0.000000 1.000000

vn 0.000000 0.000000 1.000000

vn 0.000000 0.000000 1.000000

vn 0.000000 0.000000 1.000000

vn 0.000000 0.000000 1.000000

vn 0.000000 0.000000 1.000000

vn 0.000000 0.000000 1.000000

vn 0.000000 0.000000 1.000000

vn 0.000000 0.000000 1.000000

vn 0.000000 0.000000 -1.000000

vn 0.000000 0.000000 -1.000000

vn 0.000000 0.000000 -1.000000

vn 0.000000 0.000000 -1.000000

vn 0.000000 0.000000 -1.000000

vn 0.000000 0.000000 -1.000000

vn 0.000000 0.000000 -1.000000

vn 0.000000 0.000000 -1.000000

vn 0.000000 0.000000 -1.000000

vn 0.000000 0.000000 -1.000000

vn 0.000000 0.000000 -1.000000

vn 0.000000 0.000000 -1.000000

f 1/1/1 2/2/2 3/3/3

f 4/4/4 5/5/5 6/6/6

f 7/7/7 8/8/8 9/9/9

f 10/10/10 11/11/11 12/12/12

f 13/13/13 14/14/14 15/15/15

f 16/16/16 17/17/17 18/18/18

f 19/19/19 20/20/20 21/21/21

f 19/19/19 22/22/22 23/23/23

f 24/24/24 23/23/23 22/22/22

f 25/25/25 26/26/26 27/27/27

f 26/26/26 28/28/28 27/27/27

f 29/29/29 30/30/30 31/31/31

f 31/31/31 30/30/30 32/32/32

f 33/33/33 34/34/34 35/35/35

f 33/33/33 36/36/36 34/34/34

f 37/37/37 38/38/38 39/39/39

f 38/38/38 37/37/37 40/40/40

f 41/41/41 42/42/42 43/43/43

f 42/42/42 41/41/41 44/44/44

f 45/45/45 46/46/46 47/47/47

f 48/48/48 46/46/46 45/45/45

f 49/49/49 50/50/50 51/51/51

f 50/50/50 49/49/49 52/52/52

f 53/53/53 54/54/54 55/55/55

f 53/53/53 55/55/55 56/56/56

f 57/57/57 58/58/58 59/59/59

f 57/57/57 59/59/59 60/60/60

f 61/61/61 62/62/62 63/63/63

f 61/61/61 63/63/63 64/64/64

f 65/65/65 66/66/66 67/67/67

f 65/65/65 67/67/67 68/68/68

f 69/69/69 70/70/70 71/71/71

f 69/69/69 71/71/71 72/72/72

f 73/73/73 74/74/74 75/75/75

f 74/74/74 73/73/73 76/76/76

f 77/77/77 78/78/78 79/79/79

f 77/77/77 79/79/79 80/80/80

f 81/81/81 82/82/82 83/83/83

f 81/81/81 83/83/83 84/84/84

f 85/85/85 86/86/86 87/87/87

f 86/86/86 85/85/85 88/88/88

f 89/89/89 90/90/90 91/91/91

f 90/90/90 89/89/89 92/92/92

f 93/93/93 94/94/94 95/95/95

f 94/94/94 93/93/93 96/96/96

f 97/97/97 98/98/98 99/99/99

f 100/100/100 98/98/98 97/97/97

f 101/101/101 102/102/102 100/100/100

f 103/103/103 102/102/102 101/101/101

f 103/103/103 104/104/104 102/102/102

f 104/104/104 103/103/103 105/105/105

f 106/106/106 107/107/107 108/108/108

f 108/108/108 109/109/109 106/106/106

f 110/110/110 111/111/111 112/112/112

f 113/113/113 111/111/111 110/110/110

f 114/114/114 115/115/115 116/116/116

f 116/116/116 115/115/115 117/117/117

f 118/118/118 119/119/119 120/120/120

f 120/120/120 119/119/119 121/121/121

f 122/122/122 123/123/123 124/124/124

f 122/122/122 124/124/124 125/125/125

f 126/126/126 127/127/127 128/128/128

f 126/126/126 128/128/128 129/129/129

f 130/130/130 131/131/131 132/132/132

f 131/131/131 130/130/130 133/133/133

f 134/134/134 135/135/135 136/136/136

f 135/135/135 134/134/134 137/137/137

f 138/138/138 139/139/139 140/140/140

f 138/138/138 141/141/141 139/139/139

f 141/141/141 138/138/138 142/142/142

f 143/143/143 144/144/144 145/145/145

f 146/146/146 144/144/144 143/143/143

f 144/144/144 146/146/146 147/147/147

f 148/148/148 149/149/149 150/150/150

f 148/148/148 151/151/151 149/149/149

f 152/152/152 151/151/151 148/148/148

f 151/151/151 152/152/152 153/153/153

f 154/154/154 155/155/155 156/156/156

f 155/155/155 154/154/154 157/157/157

f 155/155/155 157/157/157 158/158/158

f 159/159/159 160/160/160 161/161/161

f 160/160/160 159/159/159 162/162/162

f 162/162/162 159/159/159 163/163/163

f 164/164/164 165/165/165 166/166/166

f 165/165/165 164/164/164 167/167/167

f 165/165/165 167/167/167 168/168/168

f 169/169/169 170/170/170 171/171/171

f 170/170/170 169/169/169 172/172/172

f 173/173/173 172/172/172 169/169/169

f 172/172/172 174/174/174 170/170/170

f 172/172/172 173/173/173 175/175/175

f 174/174/174 176/176/176 177/177/177

f 175/175/175 178/178/178 172/172/172

f 174/174/174 172/172/172 178/178/178

f 176/176/176 174/174/174 178/178/178

f 178/178/178 175/175/175 179/179/179

f 178/178/178 180/180/180 176/176/176

f 180/180/180 178/178/178 179/179/179

f 181/181/181 182/182/182 183/183/183

f 184/184/184 181/181/181 183/183/183

f 182/182/182 181/181/181 185/185/185

f 186/186/186 181/181/181 184/184/184

f 185/185/185 187/187/187 182/182/182

f 188/188/188 186/186/186 184/184/184

f 187/187/187 185/185/185 189/189/189

f 190/190/190 186/186/186 188/188/188

f 189/189/189 191/191/191 187/187/187

f 192/192/192 190/190/190 188/188/188

f 191/191/191 189/189/189 193/193/193

f 193/193/193 190/190/190 192/192/192

f 191/191/191 193/193/193 194/194/194

f 193/193/193 192/192/192 194/194/194

f 195/195/195 196/196/196 197/197/197

f 197/197/197 196/196/196 198/198/198

f 199/199/199 200/200/200 201/201/201

f 201/201/201 200/200/200 202/202/202

f 203/203/203 204/204/204 205/205/205

f 204/204/204 203/203/203 206/206/206

