# UnrealEd OBJ exporter (_Internal)



v 250.000000 290.000000 20.000093

v 0.000000 290.000000 20.000093

v 178.101990 227.912476 20.000011

v 71.897720 227.912476 20.000008

v 178.101990 58.742210 19.999998

v 250.000000 290.000000 20.000093

v 178.101990 227.912476 20.000011

v 250.000000 -10.000001 20.000048

v 0.000000 290.000000 20.000093

v 0.000000 -10.000001 20.000002

v 71.898209 58.742210 20.000002

v 71.897720 227.912476 20.000008

v 71.898209 58.742210 20.000002

v 250.000000 -10.000001 20.000048

v 178.101990 58.742210 19.999998

v 0.000000 -10.000001 20.000002

v 249.999969 290.000000 0.000006

v 250.000000 0.000000 -0.000009

v 178.101974 227.912476 -0.000001

v 178.101974 58.742210 -0.000004

v -0.000030 290.000000 0.000003

v 71.897964 227.912476 -0.000001

v 0.000000 0.000000 -0.000006

v 71.897964 58.742210 -0.000004

v 250.000000 0.000000 -0.000009

v 0.000000 0.000000 -0.000006

v 178.101974 58.742210 -0.000004

v 71.897964 58.742210 -0.000004

v -0.000030 290.000000 0.000003

v 249.999969 290.000000 0.000006

v 178.101974 227.912476 -0.000001

v 71.897964 227.912476 -0.000001



vt 0.668457 0.992844

vt 0.506836 0.992844

vt 0.620117 0.953033

vt 0.550293 0.953033

vt 0.620117 0.843872

vt 0.668457 0.992844

vt 0.620117 0.953033

vt 0.668457 0.799072

vt 0.506836 0.992844

vt 0.506836 0.799072

vt 0.550293 0.843872

vt 0.550293 0.953033

vt 0.550293 0.843872

vt 0.668457 0.799072

vt 0.620117 0.843872

vt 0.506836 0.799072

vt 0.006989 0.992844

vt 0.006989 0.750000

vt 0.050598 0.940430

vt 0.050598 0.798706

vt 0.168823 0.992844

vt 0.120361 0.940430

vt 0.168823 0.750000

vt 0.120361 0.798706

vt 0.006989 0.750000

vt 0.168823 0.750000

vt 0.050598 0.798706

vt 0.120361 0.798706

vt 0.168823 0.992844

vt 0.006989 0.992844

vt 0.050598 0.940430

vt 0.120361 0.940430



vn 0.000000 0.000000 1.000000

vn 0.000000 0.000000 1.000000

vn 0.000000 0.000000 1.000000

vn 0.000000 0.000000 1.000000

vn 0.000000 0.000000 1.000000

vn 0.000000 0.000000 1.000000

vn 0.000000 0.000000 1.000000

vn 0.000000 0.000000 1.000000

vn 0.000000 0.000000 1.000000

vn 0.000000 0.000000 1.000000

vn 0.000000 0.000000 1.000000

vn 0.000000 0.000000 1.000000

vn 0.000000 0.000000 1.000000

vn 0.000000 0.000000 1.000000

vn 0.000000 0.000000 1.000000

vn 0.000000 0.000000 1.000000

vn 0.000000 0.000000 -1.000000

vn 0.000000 0.000000 -1.000000

vn 0.000000 0.000000 -1.000000

vn 0.000000 0.000000 -1.000000

vn 0.000000 0.000000 -1.000000

vn 0.000000 0.000000 -1.000000

vn 0.000000 0.000000 -1.000000

vn 0.000000 0.000000 -1.000000

vn 0.000000 0.000000 -1.000000

vn 0.000000 0.000000 -1.000000

vn 0.000000 0.000000 -1.000000

vn 0.000000 0.000000 -1.000000

vn 0.000000 0.000000 -1.000000

vn 0.000000 0.000000 -1.000000

vn 0.000000 0.000000 -1.000000

vn 0.000000 0.000000 -1.000000

f 1/1/1 2/2/2 3/3/3

f 3/3/3 2/2/2 4/4/4

f 5/5/5 6/6/6 7/7/7

f 8/8/8 6/6/6 5/5/5

f 9/9/9 10/10/10 11/11/11

f 9/9/9 11/11/11 12/12/12

f 13/13/13 14/14/14 15/15/15

f 14/14/14 13/13/13 16/16/16

f 17/17/17 18/18/18 19/19/19

f 19/19/19 18/18/18 20/20/20

f 21/21/21 22/22/22 23/23/23

f 23/23/23 22/22/22 24/24/24

f 25/25/25 26/26/26 27/27/27

f 27/27/27 26/26/26 28/28/28

f 29/29/29 30/30/30 31/31/31

f 29/29/29 31/31/31 32/32/32

