# UnrealEd OBJ exporter (_Internal)



v 250.000000 290.000000 20.000095

v 0.000000 290.000000 20.000095

v 250.000000 -10.000001 20.000048

v 0.000000 -10.000001 20.000002

v 0.000000 0.000000 0.000066

v 250.000000 290.000000 0.000072

v 250.000000 -0.000000 0.000072

v 0.000000 290.000000 0.000066



vt 0.831055 0.992844

vt 0.668457 0.992844

vt 0.831055 0.799072

vt 0.668457 0.799072

vt 0.331055 0.750000

vt 0.168823 0.992844

vt 0.168823 0.750000

vt 0.331055 0.992844



vn 0.000000 0.000000 1.000000

vn 0.000000 0.000000 1.000000

vn 0.000000 0.000000 1.000000

vn 0.000000 0.000000 1.000000

vn 0.000000 0.000000 -1.000000

vn 0.000000 0.000000 -1.000000

vn 0.000000 0.000000 -1.000000

vn 0.000000 0.000000 -1.000000

f 1/1/1 2/2/2 3/3/3

f 2/2/2 4/4/4 3/3/3

f 5/5/5 6/6/6 7/7/7

f 6/6/6 5/5/5 8/8/8

