# UnrealEd OBJ exporter (_Internal)



v 250.000000 290.000000 20.000095

v 0.000000 290.000000 20.000095

v 250.000000 -10.000001 20.000048

v 0.000000 -10.000001 20.000002

v 0.000000 -10.000001 20.000002

v 250.000000 -10.000001 13.344212

v 250.000000 -10.000001 20.000048

v 0.000000 -10.000001 13.344214

v 0.000000 -50.000008 13.344214

v 250.000000 -10.000001 13.344212

v 0.000000 -10.000001 13.344214

v 250.000000 -50.000008 13.344212

v 0.000000 -104.278496 13.344214

v 250.000000 -104.278496 13.344212

v 0.000000 0.000000 0.000066

v 250.000000 290.000000 0.000072

v 250.000000 -0.000000 0.000072

v 0.000000 290.000000 0.000066



vt 0.992676 0.992844

vt 0.831055 0.992844

vt 0.992676 0.799072

vt 0.831055 0.799072

vt 0.417969 0.445312

vt 0.417969 0.445312

vt 0.417969 0.445312

vt 0.417969 0.445312

vt 0.417969 0.445312

vt 0.417969 0.445312

vt 0.417969 0.445312

vt 0.417969 0.445312

vt 0.417969 0.445312

vt 0.417969 0.445312

vt 0.492920 0.750000

vt 0.331055 0.992825

vt 0.331055 0.750000

vt 0.492920 0.992825



vn 0.000000 0.000000 1.000000

vn 0.000000 0.000000 1.000000

vn 0.000000 0.000000 1.000000

vn 0.000000 0.000000 1.000000

vn 0.000000 -1.000000 0.000000

vn 0.000000 -1.000000 0.000000

vn 0.000000 -1.000000 0.000000

vn 0.000000 -1.000000 0.000000

vn 0.000000 0.000000 1.000000

vn 0.000000 0.000000 1.000000

vn 0.000000 0.000000 1.000000

vn 0.000000 0.000000 1.000000

vn 0.000000 0.000000 1.000000

vn 0.000000 0.000000 1.000000

vn 0.000000 0.000000 -1.000000

vn 0.000000 0.000000 -1.000000

vn 0.000000 0.000000 -1.000000

vn 0.000000 0.000000 -1.000000

f 1/1/1 2/2/2 3/3/3

f 2/2/2 4/4/4 3/3/3

f 5/5/5 6/6/6 7/7/7

f 6/6/6 5/5/5 8/8/8

f 9/9/9 10/10/10 11/11/11

f 10/10/10 9/9/9 12/12/12

f 13/13/13 12/12/12 9/9/9

f 12/12/12 13/13/13 14/14/14

f 15/15/15 16/16/16 17/17/17

f 16/16/16 15/15/15 18/18/18

