# UnrealEd OBJ exporter (_Internal)



v 184.310791 232.265671 22.000664

v 73.596512 228.416718 22.000668

v 179.931519 228.416718 22.000666

v 68.996735 232.265671 22.000668

v 68.996735 232.265671 0.000054

v 184.310791 232.265671 0.000055

v 184.310791 232.265671 -2.000612

v 68.996735 232.265671 -2.000614

v 68.996735 232.265671 22.000668

v 68.996735 -0.000000 22.000668

v 73.596512 228.416718 22.000668

v 73.596512 -0.000000 22.000668

v 184.310791 232.265671 0.000055

v 184.310791 -0.000000 -2.000612

v 184.310791 232.265671 -2.000612

v 184.310791 -0.000000 0.000055

v 68.996735 -0.000000 0.000054

v 68.996735 232.265671 0.000054

v 68.996735 232.265671 -2.000614

v 68.996735 -0.000000 -2.000614

v 184.310791 -0.000000 22.000664

v 184.310791 232.265671 22.000664

v 179.931519 228.416718 22.000666

v 179.931519 -0.000000 22.000666

v 73.596512 -0.000000 -2.000613

v 73.596512 228.416718 22.000668

v 73.596512 -0.000000 22.000668

v 73.596512 228.416718 -2.000613

v 179.931519 -0.000000 22.000666

v 179.931519 228.416718 22.000666

v 179.931519 228.416718 -2.000612

v 179.931519 -0.000000 -2.000612

v 179.931519 228.416718 22.000666

v 73.596512 228.416718 22.000668

v 73.596512 228.416718 -2.000613

v 179.931519 228.416718 -2.000612

v 0.000000 290.000000 0.000050

v 68.996735 232.265671 0.000054

v 0.000000 0.000000 0.000050

v 68.996735 -0.000000 0.000054

v 250.000000 290.000000 0.000056

v 68.996735 232.265671 0.000054

v 0.000000 290.000000 0.000050

v 184.310791 232.265671 0.000055

v 184.310791 -0.000000 0.000055

v 184.310791 232.265671 0.000055

v 250.000000 -0.000000 0.000056

v 250.000000 290.000000 0.000056

v 179.931519 -0.000000 -2.000612

v 179.931519 228.416718 -2.000612

v 184.310791 -0.000000 -2.000612

v 184.310791 232.265671 -2.000612

v 73.596512 228.416718 -2.000613

v 184.310791 232.265671 -2.000612

v 179.931519 228.416718 -2.000612

v 68.996735 232.265671 -2.000614

v 73.596512 228.416718 -2.000613

v 73.596512 -0.000000 -2.000613

v 68.996735 -0.000000 -2.000614

v 68.996735 232.265671 -2.000614

v 184.310791 -0.000000 22.000664

v 184.310791 232.265671 19.999996

v 184.310791 232.265671 22.000664

v 184.310791 -0.000000 19.999996

v 184.310791 232.265671 22.000664

v 68.996735 232.265671 20.000000

v 68.996735 232.265671 22.000668

v 184.310791 232.265671 19.999996

v 68.996735 232.265671 22.000668

v 68.996735 -0.000000 20.000000

v 68.996735 -0.000000 22.000668

v 68.996735 232.265671 20.000000

v 250.000000 290.000000 19.999996

v 184.310791 232.265671 19.999996

v 250.000000 -0.000000 19.999996

v 184.310791 -0.000000 19.999996

v 68.996735 232.265671 20.000000

v 250.000000 290.000000 19.999996

v 0.000000 290.000000 20.000002

v 184.310791 232.265671 19.999996

v 68.996735 -0.000000 20.000000

v 68.996735 232.265671 20.000000

v 0.000000 0.000000 20.000002

v 0.000000 290.000000 20.000002



vt 0.069580 0.379395

vt 0.069580 0.379395

vt 0.069580 0.379395

vt 0.069580 0.379395

vt 0.069580 0.379395

vt 0.069580 0.379395

vt 0.069580 0.379395

vt 0.069580 0.379395

vt 0.069580 0.379395

vt 0.069580 0.379395

vt 0.069580 0.379395

vt 0.069580 0.379395

vt 0.069580 0.379395

vt 0.069580 0.379395

vt 0.069580 0.379395

vt 0.069580 0.379395

vt 0.069580 0.379395

vt 0.069580 0.379395

vt 0.069580 0.379395

vt 0.069580 0.379395

vt 0.069580 0.379395

vt 0.069580 0.379395

vt 0.069580 0.379395

vt 0.069580 0.379395

vt 0.069580 0.379395

vt 0.069580 0.379395

vt 0.069580 0.379395

vt 0.069580 0.379395

vt 0.069580 0.379395

vt 0.069580 0.379395

vt 0.069580 0.379395

vt 0.069580 0.379395

vt 0.069580 0.379395

vt 0.069580 0.379395

vt 0.069580 0.379395

vt 0.069580 0.379395

vt 0.167725 0.992825

vt 0.131226 0.944275

vt 0.167725 0.750122

vt 0.131226 0.750122

vt 0.006966 0.992825

vt 0.131226 0.944275

vt 0.167725 0.992825

vt 0.044128 0.944275

vt 0.044128 0.750122

vt 0.044128 0.944275

vt 0.006966 0.750122

vt 0.006966 0.992825

vt 0.069580 0.379395

vt 0.069580 0.379395

vt 0.069580 0.379395

vt 0.069580 0.379395

vt 0.069580 0.379395

vt 0.069580 0.379395

vt 0.069580 0.379395

vt 0.069580 0.379395

vt 0.069580 0.379395

vt 0.069580 0.379395

vt 0.069580 0.379395

vt 0.069580 0.379395

vt 0.069580 0.379395

vt 0.069580 0.379395

vt 0.069580 0.379395

vt 0.069580 0.379395

vt 0.069580 0.379395

vt 0.069580 0.379395

vt 0.069580 0.379395

vt 0.069580 0.379395

vt 0.069580 0.379395

vt 0.069580 0.379395

vt 0.069580 0.379395

vt 0.069580 0.379395

vt 0.006966 0.992825

vt 0.044128 0.944275

vt 0.006966 0.750122

vt 0.044128 0.750122

vt 0.131226 0.944275

vt 0.006966 0.992825

vt 0.167725 0.992825

vt 0.044128 0.944275

vt 0.131226 0.750122

vt 0.131226 0.944275

vt 0.167725 0.750122

vt 0.167725 0.992825



vn 0.000000 0.000000 1.000000

vn 0.000000 0.000000 1.000000

vn 0.000000 0.000000 1.000000

vn 0.000000 0.000000 1.000000

vn 0.000000 1.000000 0.000000

vn 0.000000 1.000000 0.000000

vn 0.000000 1.000000 0.000000

vn 0.000000 1.000000 0.000000

vn 0.000000 0.000000 1.000000

vn 0.000000 0.000000 1.000000

vn 0.000000 0.000000 1.000000

vn 0.000000 0.000000 1.000000

vn 1.000000 0.000000 0.000000

vn 1.000000 0.000000 0.000000

vn 1.000000 0.000000 0.000000

vn 1.000000 0.000000 0.000000

vn -1.000000 0.000000 0.000000

vn -1.000000 0.000000 0.000000

vn -1.000000 0.000000 0.000000

vn -1.000000 0.000000 0.000000

vn 0.000000 0.000000 1.000000

vn 0.000000 0.000000 1.000000

vn 0.000000 0.000000 1.000000

vn 0.000000 0.000000 1.000000

vn 1.000000 0.000000 0.000000

vn 1.000000 0.000000 0.000000

vn 1.000000 0.000000 0.000000

vn 1.000000 0.000000 0.000000

vn -1.000000 0.000000 0.000000

vn -1.000000 0.000000 0.000000

vn -1.000000 0.000000 0.000000

vn -1.000000 0.000000 0.000000

vn 0.000000 -1.000000 0.000000

vn 0.000000 -1.000000 0.000000

vn 0.000000 -1.000000 0.000000

vn 0.000000 -1.000000 0.000000

vn 0.000000 0.000000 -1.000000

vn 0.000000 0.000000 -1.000000

vn 0.000000 0.000000 -1.000000

vn 0.000000 0.000000 -1.000000

vn 0.000000 0.000000 -1.000000

vn 0.000000 0.000000 -1.000000

vn 0.000000 0.000000 -1.000000

vn 0.000000 0.000000 -1.000000

vn 0.000000 0.000000 -1.000000

vn 0.000000 0.000000 -1.000000

vn 0.000000 0.000000 -1.000000

vn 0.000000 0.000000 -1.000000

vn 0.000000 0.000000 -1.000000

vn 0.000000 0.000000 -1.000000

vn 0.000000 0.000000 -1.000000

vn 0.000000 0.000000 -1.000000

vn 0.000000 0.000000 -1.000000

vn 0.000000 0.000000 -1.000000

vn 0.000000 0.000000 -1.000000

vn 0.000000 0.000000 -1.000000

vn 0.000000 0.000000 -1.000000

vn 0.000000 0.000000 -1.000000

vn 0.000000 0.000000 -1.000000

vn 0.000000 0.000000 -1.000000

vn 1.000000 0.000000 0.000000

vn 1.000000 0.000000 0.000000

vn 1.000000 0.000000 0.000000

vn 1.000000 0.000000 0.000000

vn 0.000000 1.000000 0.000000

vn 0.000000 1.000000 0.000000

vn 0.000000 1.000000 0.000000

vn 0.000000 1.000000 0.000000

vn -1.000000 0.000000 0.000000

vn -1.000000 0.000000 0.000000

vn -1.000000 0.000000 0.000000

vn -1.000000 0.000000 0.000000

vn 0.000000 0.000000 1.000000

vn 0.000000 0.000000 1.000000

vn 0.000000 0.000000 1.000000

vn 0.000000 0.000000 1.000000

vn 0.000000 0.000000 1.000000

vn 0.000000 0.000000 1.000000

vn 0.000000 0.000000 1.000000

vn 0.000000 0.000000 1.000000

vn 0.000000 0.000000 1.000000

vn 0.000000 0.000000 1.000000

vn 0.000000 0.000000 1.000000

vn 0.000000 0.000000 1.000000

f 1/1/1 2/2/2 3/3/3

f 2/2/2 1/1/1 4/4/4

f 5/5/5 6/6/6 7/7/7

f 5/5/5 7/7/7 8/8/8

f 9/9/9 10/10/10 11/11/11

f 11/11/11 10/10/10 12/12/12

f 13/13/13 14/14/14 15/15/15

f 14/14/14 13/13/13 16/16/16

f 17/17/17 18/18/18 19/19/19

f 17/17/17 19/19/19 20/20/20

f 21/21/21 22/22/22 23/23/23

f 21/21/21 23/23/23 24/24/24

f 25/25/25 26/26/26 27/27/27

f 26/26/26 25/25/25 28/28/28

f 29/29/29 30/30/30 31/31/31

f 29/29/29 31/31/31 32/32/32

f 33/33/33 34/34/34 35/35/35

f 33/33/33 35/35/35 36/36/36

f 37/37/37 38/38/38 39/39/39

f 39/39/39 38/38/38 40/40/40

f 41/41/41 42/42/42 43/43/43

f 42/42/42 41/41/41 44/44/44

f 45/45/45 46/46/46 47/47/47

f 47/47/47 46/46/46 48/48/48

f 49/49/49 50/50/50 51/51/51

f 51/51/51 50/50/50 52/52/52

f 53/53/53 54/54/54 55/55/55

f 54/54/54 53/53/53 56/56/56

f 57/57/57 58/58/58 59/59/59

f 59/59/59 60/60/60 57/57/57

f 61/61/61 62/62/62 63/63/63

f 62/62/62 61/61/61 64/64/64

f 65/65/65 66/66/66 67/67/67

f 66/66/66 65/65/65 68/68/68

f 69/69/69 70/70/70 71/71/71

f 70/70/70 69/69/69 72/72/72

f 73/73/73 74/74/74 75/75/75

f 75/75/75 74/74/74 76/76/76

f 77/77/77 78/78/78 79/79/79

f 78/78/78 77/77/77 80/80/80

f 81/81/81 82/82/82 83/83/83

f 83/83/83 82/82/82 84/84/84

