# UnrealEd OBJ exporter (_Internal)



v -1.715500 1.715499 6.883423

v -1.715500 -1.715499 4.456909

v -1.715500 -1.715499 6.883423

v -1.715500 1.715499 4.456909

v 1.715508 1.715499 6.883423

v -1.715500 1.715499 4.456909

v -1.715500 1.715499 6.883423

v 1.715508 1.715499 4.456909

v 1.715508 -1.715499 6.883423

v 1.715508 1.715499 4.456909

v 1.715508 1.715499 6.883423

v 1.715508 -1.715499 4.456909

v -1.715500 -1.715499 6.883423

v 1.715508 -1.715499 4.456909

v 1.715508 -1.715499 6.883423

v -1.715500 -1.715499 4.456909

v 1.715508 1.715499 21.939026

v -1.715500 1.715499 21.939026

v -1.715500 -1.715499 21.939026

v 1.715508 -1.715499 21.939026

v 1.715508 -1.715499 4.456909

v -1.715500 -1.715499 4.456909

v -1.078499 -1.078512 3.997925

v 1.078514 -1.078512 3.997925

v -1.715500 -1.715499 4.456909

v -1.715500 1.715499 4.456909

v -1.078499 1.078511 3.997925

v -1.078499 -1.078512 3.997925

v 1.715508 1.715499 4.456909

v -1.078499 1.078511 3.997925

v -1.715500 1.715499 4.456909

v 1.078514 1.078511 3.997925

v 1.715508 -1.715499 4.456909

v 1.078514 1.078511 3.997925

v 1.715508 1.715499 4.456909

v 1.078514 -1.078512 3.997925

v -1.078499 -1.078512 3.997925

v -1.078499 -1.078512 2.182983

v 1.078514 -1.078512 3.997925

v 1.078514 -1.078512 2.182983

v -1.078499 1.078511 3.997925

v -1.078499 1.078511 2.182983

v -1.078499 -1.078512 3.997925

v -1.078499 -1.078512 2.182983

v 1.078514 1.078511 3.997925

v 1.078514 1.078511 2.182983

v -1.078499 1.078511 3.997925

v -1.078499 1.078511 2.182983

v 1.078514 -1.078512 3.997925

v 1.078514 -1.078512 2.182983

v 1.078514 1.078511 3.997925

v 1.078514 1.078511 2.182983

v -1.078499 -1.078512 2.182983

v 0.687851 -0.687844 2.132385

v 1.078514 -1.078512 2.182983

v -0.687843 -0.687844 2.132385

v -1.078499 1.078511 2.182983

v -0.687843 -0.687844 2.132385

v -1.078499 -1.078512 2.182983

v -0.687843 0.687844 2.132385

v -1.078499 1.078511 2.182983

v 1.078514 1.078511 2.182983

v 0.687851 0.687844 2.132385

v -0.687843 0.687844 2.132385

v 1.078514 1.078511 2.182983

v 1.078514 -1.078512 2.182983

v 0.687851 -0.687844 2.132385

v 0.687851 0.687844 2.132385

v 1.249542 1.279795 8.724304

v -1.249535 1.279795 7.283386

v -1.249535 1.279795 8.724304

v 1.249542 1.279795 7.283386

v 1.249542 1.279795 8.724304

v 1.249542 -1.279795 8.724304

v 1.249542 -1.279795 7.283386

v 1.249542 1.279795 7.283386

v 1.249542 -1.279795 8.724304

v -1.249535 -1.279795 8.724304

v -1.249535 -1.279795 7.283386

v 1.249542 -1.279795 7.283386

v -1.249535 -1.279795 8.724304

v -1.249535 1.279795 8.724304

v -1.249535 1.279795 7.283386

v -1.249535 -1.279795 7.283386

v 1.715508 1.715499 21.939026

v -1.715500 1.715499 10.104614

v -1.715500 1.715499 21.939026

v 1.715508 1.715499 10.104614

v 1.715508 -1.715499 21.939026

v 1.715508 -1.715499 10.104614

v 1.715508 1.715499 21.939026

v 1.715508 1.715499 10.104614

v -1.715500 -1.715499 21.939026

v -1.715500 -1.715499 10.104614

v 1.715508 -1.715499 21.939026

v 1.715508 -1.715499 10.104614

v -1.715500 1.715499 21.939026

v -1.715500 1.715499 10.104614

v -1.715500 -1.715499 21.939026

v -1.715500 -1.715499 10.104614

v -1.715500 1.715499 10.104614

v 1.715508 1.715499 10.104614

v 1.249542 1.279795 8.724304

v -1.249535 1.279795 8.724304

v 1.715508 1.715499 6.883423

v -1.715500 1.715499 6.883423

v -1.249535 1.279795 7.283386

v 1.249542 1.279795 7.283386

v 1.715508 -1.715499 6.883423

v 1.715508 1.715499 6.883423

v 1.249542 1.279795 7.283386

v 1.249542 -1.279795 7.283386

v 1.715508 -1.715499 10.104614

v 1.249542 1.279795 8.724304

v 1.715508 1.715499 10.104614

v 1.249542 -1.279795 8.724304

v -1.715500 -1.715499 6.883423

v 1.715508 -1.715499 6.883423

v 1.249542 -1.279795 7.283386

v -1.249535 -1.279795 7.283386

v 1.715508 -1.715499 10.104614

v -1.715500 -1.715499 10.104614

v -1.249535 -1.279795 8.724304

v 1.249542 -1.279795 8.724304

v -1.715500 -1.715499 6.883423

v -1.249535 1.279795 7.283386

v -1.715500 1.715499 6.883423

v -1.249535 -1.279795 7.283386

v -1.249535 1.279795 8.724304

v -1.715500 -1.715499 10.104614

v -1.715500 1.715499 10.104614

v -1.249535 -1.279795 8.724304

v -0.687843 -0.687844 2.132385

v 0.675194 -0.687845 -18.136841

v 0.687851 -0.687844 2.132385

v -0.700500 -0.687845 -18.136841

v -0.687843 0.687844 2.132385

v -0.700500 0.687843 -18.136841

v -0.687843 -0.687844 2.132385

v -0.700500 -0.687845 -18.136841

v 0.687851 0.687844 2.132385

v 0.675194 0.687843 -18.136841

v -0.687843 0.687844 2.132385

v -0.700500 0.687843 -18.136841

v 0.687851 -0.687844 2.132385

v 0.675194 0.687843 -18.136841

v 0.687851 0.687844 2.132385

v 0.675194 -0.687845 -18.136841

v -0.674896 0.234174 -22.682800

v -1.589020 -0.480102 -21.064453

v -1.589020 0.480100 -21.064453

v -0.674896 -0.234176 -22.682800

v 0.649582 -0.234176 -22.682800

v 1.563705 0.480100 -21.064453

v 1.563705 -0.480102 -21.064453

v 0.649582 0.234174 -22.682800

v -0.674896 0.234174 -22.682800

v 0.649582 0.234174 -22.682800

v -0.674896 -0.234176 -22.682800

v 0.649582 -0.234176 -22.682800

v 1.563705 0.480100 -21.064453

v 0.649582 0.234174 -22.682800

v -1.589020 0.480100 -21.064453

v -0.674896 0.234174 -22.682800

v -1.589020 -0.480102 -21.064453

v -0.674896 -0.234176 -22.682800

v 1.563705 -0.480102 -21.064453

v 0.649582 -0.234176 -22.682800

v 0.675194 0.687843 -18.136841

v 1.563705 0.480100 -21.064453

v -0.700500 0.687843 -18.136841

v -1.589020 0.480100 -21.064453

v 0.675194 -0.687845 -18.136841

v 1.563705 -0.480102 -21.064453

v 0.675194 0.687843 -18.136841

v 1.563705 0.480100 -21.064453

v -0.700500 -0.687845 -18.136841

v -1.589020 -0.480102 -21.064453

v 1.563705 -0.480102 -21.064453

v 0.675194 -0.687845 -18.136841

v -0.700500 0.687843 -18.136841

v -1.589020 0.480100 -21.064453

v -0.700500 -0.687845 -18.136841

v -1.589020 -0.480102 -21.064453



vt 0.138062 0.469727

vt 0.138062 0.469727

vt 0.138062 0.469727

vt 0.138062 0.469727

vt 0.138062 0.469727

vt 0.138062 0.469727

vt 0.138062 0.469727

vt 0.138062 0.469727

vt 0.138062 0.469727

vt 0.138062 0.469727

vt 0.138062 0.469727

vt 0.138062 0.469727

vt 0.138062 0.469727

vt 0.138062 0.469727

vt 0.138062 0.469727

vt 0.138062 0.469727

vt 0.138062 0.469727

vt 0.138062 0.469727

vt 0.138062 0.469727

vt 0.138062 0.469727

vt 0.138062 0.469727

vt 0.138062 0.469727

vt 0.138062 0.469727

vt 0.138062 0.469727

vt 0.138062 0.469727

vt 0.138062 0.469727

vt 0.138062 0.469727

vt 0.138062 0.469727

vt 0.138062 0.469727

vt 0.138062 0.469727

vt 0.138062 0.469727

vt 0.138062 0.469727

vt 0.138062 0.469727

vt 0.138062 0.469727

vt 0.138062 0.469727

vt 0.138062 0.469727

vt 0.387207 0.491211

vt 0.387207 0.491211

vt 0.387207 0.491211

vt 0.387207 0.491211

vt 0.387207 0.491211

vt 0.387207 0.491211

vt 0.387207 0.491211

vt 0.387207 0.491211

vt 0.387207 0.491211

vt 0.387207 0.491211

vt 0.387207 0.491211

vt 0.387207 0.491211

vt 0.387207 0.491211

vt 0.387207 0.491211

vt 0.387207 0.491211

vt 0.387207 0.491211

vt 0.416504 0.417969

vt 0.416504 0.417969

vt 0.416504 0.417969

vt 0.416504 0.417969

vt 0.416504 0.417969

vt 0.416504 0.417969

vt 0.416504 0.417969

vt 0.416504 0.417969

vt 0.416504 0.417969

vt 0.416504 0.417969

vt 0.416504 0.417969

vt 0.416504 0.417969

vt 0.416504 0.417969

vt 0.416504 0.417969

vt 0.416504 0.417969

vt 0.416504 0.417969

vt 0.081238 0.195801

vt 0.081238 0.195801

vt 0.081238 0.195801

vt 0.081238 0.195801

vt 0.081238 0.195801

vt 0.081238 0.195801

vt 0.081238 0.195801

vt 0.081238 0.195801

vt 0.081238 0.195801

vt 0.081238 0.195801

vt 0.081238 0.195801

vt 0.081238 0.195801

vt 0.081238 0.195801

vt 0.081238 0.195801

vt 0.081238 0.195801

vt 0.081238 0.195801

vt 0.138062 0.469727

vt 0.138062 0.469727

vt 0.138062 0.469727

vt 0.138062 0.469727

vt 0.138062 0.469727

vt 0.138062 0.469727

vt 0.138062 0.469727

vt 0.138062 0.469727

vt 0.138062 0.469727

vt 0.138062 0.469727

vt 0.138062 0.469727

vt 0.138062 0.469727

vt 0.138062 0.469727

vt 0.138062 0.469727

vt 0.138062 0.469727

vt 0.138062 0.469727

vt 0.138062 0.469727

vt 0.138062 0.469727

vt 0.138062 0.469727

vt 0.138062 0.469727

vt 0.138062 0.469727

vt 0.138062 0.469727

vt 0.138062 0.469727

vt 0.138062 0.469727

vt 0.138062 0.469727

vt 0.138062 0.469727

vt 0.138062 0.469727

vt 0.138062 0.469727

vt 0.138062 0.469727

vt 0.138062 0.469727

vt 0.138062 0.469727

vt 0.138062 0.469727

vt 0.138062 0.469727

vt 0.138062 0.469727

vt 0.138062 0.469727

vt 0.138062 0.469727

vt 0.138062 0.469727

vt 0.138062 0.469727

vt 0.138062 0.469727

vt 0.138062 0.469727

vt 0.138062 0.469727

vt 0.138062 0.469727

vt 0.138062 0.469727

vt 0.138062 0.469727

vt 0.138062 0.469727

vt 0.138062 0.469727

vt 0.138062 0.469727

vt 0.138062 0.469727

vt 0.417480 0.399902

vt 0.417480 0.399902

vt 0.417480 0.399902

vt 0.417480 0.399902

vt 0.417480 0.399902

vt 0.417480 0.399902

vt 0.417480 0.399902

vt 0.417480 0.399902

vt 0.417480 0.399902

vt 0.417480 0.399902

vt 0.417480 0.399902

vt 0.417480 0.399902

vt 0.417480 0.399902

vt 0.417480 0.399902

vt 0.417480 0.399902

vt 0.417480 0.399902

vt 0.417480 0.445801

vt 0.417480 0.445801

vt 0.417480 0.445801

vt 0.417480 0.445801

vt 0.417480 0.445801

vt 0.417480 0.445801

vt 0.417480 0.445801

vt 0.417480 0.445801

vt 0.417480 0.445801

vt 0.417480 0.445801

vt 0.417480 0.445801

vt 0.417480 0.445801

vt 0.417480 0.445801

vt 0.417480 0.445801

vt 0.417480 0.445801

vt 0.417480 0.445801

vt 0.417480 0.445801

vt 0.417480 0.445801

vt 0.417480 0.445801

vt 0.417480 0.445801

vt 0.417480 0.399902

vt 0.417480 0.399902

vt 0.417480 0.399902

vt 0.417480 0.399902

vt 0.417480 0.399902

vt 0.417480 0.399902

vt 0.417480 0.399902

vt 0.417480 0.399902

vt 0.417480 0.399902

vt 0.417480 0.399902

vt 0.417480 0.399902

vt 0.417480 0.399902

vt 0.417480 0.399902

vt 0.417480 0.399902

vt 0.417480 0.399902

vt 0.417480 0.399902



vn -1.000000 0.000000 0.000000

vn -1.000000 0.000000 0.000000

vn -1.000000 0.000000 0.000000

vn -1.000000 0.000000 0.000000

vn 0.000000 1.000000 0.000000

vn 0.000000 1.000000 0.000000

vn 0.000000 1.000000 0.000000

vn 0.000000 1.000000 0.000000

vn 1.000000 0.000000 0.000000

vn 1.000000 0.000000 0.000000

vn 1.000000 0.000000 0.000000

vn 1.000000 0.000000 0.000000

vn 0.000000 -1.000000 0.000000

vn 0.000000 -1.000000 0.000000

vn 0.000000 -1.000000 0.000000

vn 0.000000 -1.000000 0.000000

vn 0.000000 0.000000 1.000000

vn 0.000000 0.000000 1.000000

vn 0.000000 0.000000 1.000000

vn 0.000000 0.000000 1.000000

vn 0.000000 -0.582677 -0.811024

vn 0.000000 -0.582677 -0.811024

vn 0.000000 -0.582677 -0.811024

vn 0.000000 -0.582677 -0.811024

vn -0.582677 0.000000 -0.811024

vn -0.582677 0.000000 -0.811024

vn -0.582677 0.000000 -0.811024

vn -0.582677 0.000000 -0.811024

vn 0.000000 0.582677 -0.811024

vn 0.000000 0.582677 -0.811024

vn 0.000000 0.582677 -0.811024

vn 0.000000 0.582677 -0.811024

vn 0.582677 0.000000 -0.811024

vn 0.582677 0.000000 -0.811024

vn 0.582677 0.000000 -0.811024

vn 0.582677 0.000000 -0.811024

vn 0.000000 -1.000000 0.000000

vn 0.000000 -1.000000 0.000000

vn 0.000000 -1.000000 0.000000

vn 0.000000 -1.000000 0.000000

vn -1.000000 0.000000 0.000000

vn -1.000000 0.000000 0.000000

vn -1.000000 0.000000 0.000000

vn -1.000000 0.000000 0.000000

vn 0.000000 1.000000 0.000000

vn 0.000000 1.000000 0.000000

vn 0.000000 1.000000 0.000000

vn 0.000000 1.000000 0.000000

vn 1.000000 0.000000 0.000000

vn 1.000000 0.000000 0.000000

vn 1.000000 0.000000 0.000000

vn 1.000000 0.000000 0.000000

vn 0.000000 -0.125984 -0.992126

vn 0.000000 -0.125984 -0.992126

vn 0.000000 -0.125984 -0.992126

vn 0.000000 -0.125984 -0.992126

vn -0.125984 0.000000 -0.992126

vn -0.125984 0.000000 -0.992126

vn -0.125984 0.000000 -0.992126

vn -0.125984 0.000000 -0.992126

vn 0.000000 0.125984 -0.992126

vn 0.000000 0.125984 -0.992126

vn 0.000000 0.125984 -0.992126

vn 0.000000 0.125984 -0.992126

vn 0.125984 0.000000 -0.992126

vn 0.125984 0.000000 -0.992126

vn 0.125984 0.000000 -0.992126

vn 0.125984 0.000000 -0.992126

vn 0.000000 1.000000 0.000000

vn 0.000000 1.000000 0.000000

vn 0.000000 1.000000 0.000000

vn 0.000000 1.000000 0.000000

vn 1.000000 0.000000 0.000000

vn 1.000000 0.000000 0.000000

vn 1.000000 0.000000 0.000000

vn 1.000000 0.000000 0.000000

vn 0.000000 -1.000000 0.000000

vn 0.000000 -1.000000 0.000000

vn 0.000000 -1.000000 0.000000

vn 0.000000 -1.000000 0.000000

vn -1.000000 0.000000 0.000000

vn -1.000000 0.000000 0.000000

vn -1.000000 0.000000 0.000000

vn -1.000000 0.000000 0.000000

vn 0.000000 1.000000 0.000000

vn 0.000000 1.000000 0.000000

vn 0.000000 1.000000 0.000000

vn 0.000000 1.000000 0.000000

vn 1.000000 0.000000 0.000000

vn 1.000000 0.000000 0.000000

vn 1.000000 0.000000 0.000000

vn 1.000000 0.000000 0.000000

vn 0.000000 -1.000000 0.000000

vn 0.000000 -1.000000 0.000000

vn 0.000000 -1.000000 0.000000

vn 0.000000 -1.000000 0.000000

vn -1.000000 0.000000 0.000000

vn -1.000000 0.000000 0.000000

vn -1.000000 0.000000 0.000000

vn -1.000000 0.000000 0.000000

vn 0.000000 0.952756 -0.299213

vn 0.000000 0.952756 -0.299213

vn 0.000000 0.952756 -0.299213

vn 0.000000 0.952756 -0.299213

vn 0.000000 0.677165 0.740157

vn 0.000000 0.677165 0.740157

vn 0.000000 0.677165 0.740157

vn 0.000000 0.677165 0.740157

vn 0.653543 0.000000 0.755906

vn 0.653543 0.000000 0.755906

vn 0.653543 0.000000 0.755906

vn 0.653543 0.000000 0.755906

vn 0.944882 0.000000 -0.322835

vn 0.944882 0.000000 -0.322835

vn 0.944882 0.000000 -0.322835

vn 0.944882 0.000000 -0.322835

vn 0.000000 -0.677165 0.740157

vn 0.000000 -0.677165 0.740157

vn 0.000000 -0.677165 0.740157

vn 0.000000 -0.677165 0.740157

vn 0.000000 -0.952756 -0.299213

vn 0.000000 -0.952756 -0.299213

vn 0.000000 -0.952756 -0.299213

vn 0.000000 -0.952756 -0.299213

vn -0.653543 0.000000 0.755906

vn -0.653543 0.000000 0.755906

vn -0.653543 0.000000 0.755906

vn -0.653543 0.000000 0.755906

vn -0.944882 0.000000 -0.322835

vn -0.944882 0.000000 -0.322835

vn -0.944882 0.000000 -0.322835

vn -0.944882 0.000000 -0.322835

vn 0.000000 -1.000000 0.000000

vn 0.000000 -1.000000 0.000000

vn 0.000000 -1.000000 0.000000

vn 0.000000 -1.000000 0.000000

vn -1.000000 0.000000 0.000000

vn -1.000000 0.000000 0.000000

vn -1.000000 0.000000 0.000000

vn -1.000000 0.000000 0.000000

vn 0.000000 1.000000 0.000000

vn 0.000000 1.000000 0.000000

vn 0.000000 1.000000 0.000000

vn 0.000000 1.000000 0.000000

vn 1.000000 0.000000 0.000000

vn 1.000000 0.000000 0.000000

vn 1.000000 0.000000 0.000000

vn 1.000000 0.000000 0.000000

vn -0.874016 0.000000 -0.488189

vn -0.874016 0.000000 -0.488189

vn -0.874016 0.000000 -0.488189

vn -0.874016 0.000000 -0.488189

vn 0.874016 0.000000 -0.488189

vn 0.874016 0.000000 -0.488189

vn 0.874016 0.000000 -0.488189

vn 0.874016 0.000000 -0.488189

vn 0.000000 0.000000 -1.000000

vn 0.000000 0.000000 -1.000000

vn 0.000000 0.000000 -1.000000

vn 0.000000 0.000000 -1.000000

vn 0.000000 0.992126 -0.149606

vn 0.000000 0.992126 -0.149606

vn 0.000000 0.992126 -0.149606

vn 0.000000 0.992126 -0.149606

vn 0.000000 -0.992126 -0.149606

vn 0.000000 -0.992126 -0.149606

vn 0.000000 -0.992126 -0.149606

vn 0.000000 -0.992126 -0.149606

vn 0.000000 1.000000 -0.070866

vn 0.000000 1.000000 -0.070866

vn 0.000000 1.000000 -0.070866

vn 0.000000 1.000000 -0.070866

vn 0.960630 0.000000 0.291339

vn 0.960630 0.000000 0.291339

vn 0.960630 0.000000 0.291339

vn 0.960630 0.000000 0.291339

vn 0.000000 -1.000000 -0.070866

vn 0.000000 -1.000000 -0.070866

vn 0.000000 -1.000000 -0.070866

vn 0.000000 -1.000000 -0.070866

vn -0.960630 0.000000 0.291339

vn -0.960630 0.000000 0.291339

vn -0.960630 0.000000 0.291339

vn -0.960630 0.000000 0.291339

f 1/1/1 2/2/2 3/3/3

f 2/2/2 1/1/1 4/4/4

f 5/5/5 6/6/6 7/7/7

f 6/6/6 5/5/5 8/8/8

f 9/9/9 10/10/10 11/11/11

f 10/10/10 9/9/9 12/12/12

f 13/13/13 14/14/14 15/15/15

f 14/14/14 13/13/13 16/16/16

f 17/17/17 18/18/18 19/19/19

f 17/17/17 19/19/19 20/20/20

f 21/21/21 22/22/22 23/23/23

f 21/21/21 23/23/23 24/24/24

f 25/25/25 26/26/26 27/27/27

f 25/25/25 27/27/27 28/28/28

f 29/29/29 30/30/30 31/31/31

f 30/30/30 29/29/29 32/32/32

f 33/33/33 34/34/34 35/35/35

f 34/34/34 33/33/33 36/36/36

f 37/37/37 38/38/38 39/39/39

f 39/39/39 38/38/38 40/40/40

f 41/41/41 42/42/42 43/43/43

f 43/43/43 42/42/42 44/44/44

f 45/45/45 46/46/46 47/47/47

f 47/47/47 46/46/46 48/48/48

f 49/49/49 50/50/50 51/51/51

f 51/51/51 50/50/50 52/52/52

f 53/53/53 54/54/54 55/55/55

f 54/54/54 53/53/53 56/56/56

f 57/57/57 58/58/58 59/59/59

f 58/58/58 57/57/57 60/60/60

f 61/61/61 62/62/62 63/63/63

f 61/61/61 63/63/63 64/64/64

f 65/65/65 66/66/66 67/67/67

f 65/65/65 67/67/67 68/68/68

f 69/69/69 70/70/70 71/71/71

f 70/70/70 69/69/69 72/72/72

f 73/73/73 74/74/74 75/75/75

f 73/73/73 75/75/75 76/76/76

f 77/77/77 78/78/78 79/79/79

f 77/77/77 79/79/79 80/80/80

f 81/81/81 82/82/82 83/83/83

f 81/81/81 83/83/83 84/84/84

f 85/85/85 86/86/86 87/87/87

f 86/86/86 85/85/85 88/88/88

f 89/89/89 90/90/90 91/91/91

f 91/91/91 90/90/90 92/92/92

f 93/93/93 94/94/94 95/95/95

f 95/95/95 94/94/94 96/96/96

f 97/97/97 98/98/98 99/99/99

f 99/99/99 98/98/98 100/100/100

f 101/101/101 102/102/102 103/103/103

f 101/101/101 103/103/103 104/104/104

f 105/105/105 106/106/106 107/107/107

f 105/105/105 107/107/107 108/108/108

f 109/109/109 110/110/110 111/111/111

f 109/109/109 111/111/111 112/112/112

f 113/113/113 114/114/114 115/115/115

f 114/114/114 113/113/113 116/116/116

f 117/117/117 118/118/118 119/119/119

f 117/117/117 119/119/119 120/120/120

f 121/121/121 122/122/122 123/123/123

f 121/121/121 123/123/123 124/124/124

f 125/125/125 126/126/126 127/127/127

f 126/126/126 125/125/125 128/128/128

f 129/129/129 130/130/130 131/131/131

f 130/130/130 129/129/129 132/132/132

f 133/133/133 134/134/134 135/135/135

f 134/134/134 133/133/133 136/136/136

f 137/137/137 138/138/138 139/139/139

f 139/139/139 138/138/138 140/140/140

f 141/141/141 142/142/142 143/143/143

f 143/143/143 142/142/142 144/144/144

f 145/145/145 146/146/146 147/147/147

f 146/146/146 145/145/145 148/148/148

f 149/149/149 150/150/150 151/151/151

f 150/150/150 149/149/149 152/152/152

f 153/153/153 154/154/154 155/155/155

f 154/154/154 153/153/153 156/156/156

f 157/157/157 158/158/158 159/159/159

f 160/160/160 159/159/159 158/158/158

f 161/161/161 162/162/162 163/163/163

f 163/163/163 162/162/162 164/164/164

f 165/165/165 166/166/166 167/167/167

f 167/167/167 166/166/166 168/168/168

f 169/169/169 170/170/170 171/171/171

f 171/171/171 170/170/170 172/172/172

f 173/173/173 174/174/174 175/175/175

f 175/175/175 174/174/174 176/176/176

f 177/177/177 178/178/178 179/179/179

f 177/177/177 179/179/179 180/180/180

f 181/181/181 182/182/182 183/183/183

f 183/183/183 182/182/182 184/184/184

