# UnrealEd OBJ exporter (_Internal)



v -5.635544 3.575848 4.029675

v 5.591149 3.575848 4.121966

v 3.829443 4.118514 3.034834

v -4.022799 4.118514 2.822624

v -5.241572 3.575848 -4.604080

v 4.006166 4.118514 -2.957955

v 5.839473 3.575848 -4.512109

v -4.022799 4.118514 -2.957955

v -6.770966 3.575848 -3.397201

v -5.066479 4.118514 -2.020344

v -5.241572 3.575848 -4.604080

v -4.022799 4.118514 -2.957955

v -6.770966 3.575848 3.257726

v -5.066479 4.118514 -2.020344

v -6.770966 3.575848 -3.397201

v -4.751883 4.118514 2.097244

v -4.751883 4.118514 2.097244

v -5.635544 3.575848 4.029675

v -4.022799 4.118514 2.822624

v -6.770966 3.575848 3.257726

v 4.735248 4.118514 2.097243

v 5.591149 3.575848 4.121966

v 6.770967 3.575848 3.257726

v 3.829443 4.118514 3.034834

v 4.906384 4.118514 -2.175151

v 4.735248 4.118514 2.097243

v 6.770967 3.575848 3.257726

v 6.770966 3.575848 -3.397201

v 5.839473 3.575848 -4.512109

v 4.906384 4.118514 -2.175151

v 6.770966 3.575848 -3.397201

v 4.006166 4.118514 -2.957955

v 3.829443 4.118514 3.034834

v -3.001666 3.539470 1.904686

v -4.022799 4.118514 2.822624

v 2.985032 3.539470 1.904686

v -4.022799 4.118514 -2.957955

v 2.810505 3.539470 -2.277668

v 4.006166 4.118514 -2.957955

v -3.001666 3.539470 -2.040017

v -5.066479 4.118514 -2.020344

v -3.565409 3.539470 -1.545013

v -4.022799 4.118514 -2.957955

v -3.001666 3.539470 -2.040017

v -5.066479 4.118514 -2.020344

v -4.751883 4.118514 2.097244

v -3.840897 3.539470 1.260525

v -3.565409 3.539470 -1.545013

v -3.840897 3.539470 1.260525

v -4.022799 4.118514 2.822624

v -3.001666 3.539470 1.904686

v -4.751883 4.118514 2.097244

v 3.829443 4.118514 3.034834

v 3.548773 3.539470 1.409682

v 2.985032 3.539470 1.904686

v 4.735248 4.118514 2.097243

v 3.548773 3.539470 1.409682

v 4.906384 4.118514 -2.175151

v 3.548773 3.539470 -1.545014

v 4.735248 4.118514 2.097243

v 4.006166 4.118514 -2.957955

v 3.548773 3.539470 -1.545014

v 4.906384 4.118514 -2.175151

v 2.810505 3.539470 -2.277668

v -6.770966 3.575848 3.257726

v -5.571679 2.394573 4.881089

v -5.635544 3.575848 4.029675

v -7.054570 2.059257 3.534102

v -6.770966 3.575848 3.257726

v -7.054570 2.059257 -3.673577

v -7.054570 2.059257 3.534102

v -6.770966 3.575848 -3.397201

v -5.294899 2.077980 -4.881088

v -6.770966 3.575848 -3.397201

v -5.241572 3.575848 -4.604080

v -7.054570 2.059257 -3.673577

v -5.294899 2.077980 -4.881088

v 5.839473 3.575848 -4.512109

v 6.078033 2.059257 -4.881089

v -5.241572 3.575848 -4.604080

v 6.078033 2.059257 -4.881089

v 5.839473 3.575848 -4.512109

v 7.054569 2.059257 -3.673577

v 6.770966 3.575848 -3.397201

v 6.770967 3.575848 3.257726

v 7.054569 2.059257 -3.673577

v 6.770966 3.575848 -3.397201

v 7.054569 2.394573 3.534101

v 6.078033 2.059257 4.741613

v 6.770967 3.575848 3.257726

v 5.591149 3.575848 4.121966

v 7.054569 2.394573 3.534101

v 5.591149 3.575848 4.121966

v -5.635544 3.575848 4.029675

v -5.571679 2.394573 4.881089

v 6.078033 2.059257 4.741613

v 3.829443 -0.000000 3.034834

v -5.635544 0.542666 4.029675

v -4.022799 -0.000000 2.822624

v 5.591149 0.542666 4.121966

v -5.241572 0.542666 -4.604081

v 4.006166 -0.000000 -2.957955

v -4.022799 -0.000000 -2.957955

v 5.839473 0.542666 -4.512109

v -5.241572 0.542666 -4.604081

v -4.022799 -0.000000 -2.957955

v -5.066478 -0.000000 -2.020344

v -6.770967 0.542666 -3.397201

v -6.770967 0.542666 3.257726

v -5.066478 -0.000000 -2.020344

v -4.751883 -0.000000 2.097244

v -6.770967 0.542666 -3.397201

v -4.751883 -0.000000 2.097244

v -5.635544 0.542666 4.029675

v -6.770967 0.542666 3.257726

v -4.022799 -0.000000 2.822624

v 4.735248 -0.000000 2.097243

v 5.591149 0.542666 4.121966

v 3.829443 -0.000000 3.034834

v 6.770967 0.542666 3.257726

v 4.906384 -0.000000 -2.175151

v 6.770967 0.542666 3.257726

v 4.735248 -0.000000 2.097243

v 6.770966 0.542666 -3.397201

v 5.839473 0.542666 -4.512109

v 4.906384 -0.000000 -2.175151

v 4.006166 -0.000000 -2.957955

v 6.770966 0.542666 -3.397201

v -3.001666 0.579044 1.904686

v 3.829443 -0.000000 3.034834

v -4.022799 -0.000000 2.822624

v 2.985032 0.579044 1.904686

v -4.022799 -0.000000 -2.957955

v 2.810505 0.579044 -2.277668

v -3.001666 0.579044 -2.040017

v 4.006166 -0.000000 -2.957955

v -5.066478 -0.000000 -2.020344

v -4.022799 -0.000000 -2.957955

v -3.565409 0.579044 -1.545013

v -3.001666 0.579044 -2.040017

v -4.751883 -0.000000 2.097244

v -5.066478 -0.000000 -2.020344

v -3.840896 0.579044 1.260525

v -3.565409 0.579044 -1.545013

v -3.840896 0.579044 1.260525

v -4.022799 -0.000000 2.822624

v -4.751883 -0.000000 2.097244

v -3.001666 0.579044 1.904686

v 3.829443 -0.000000 3.034834

v 3.548774 0.579044 1.409682

v 4.735248 -0.000000 2.097243

v 2.985032 0.579044 1.904686

v 3.548774 0.579044 1.409682

v 4.906384 -0.000000 -2.175151

v 4.735248 -0.000000 2.097243

v 3.548774 0.579044 -1.545014

v 4.006166 -0.000000 -2.957955

v 3.548774 0.579044 -1.545014

v 2.810505 0.579044 -2.277668

v 4.906384 -0.000000 -2.175151

v -7.054570 2.059257 3.534102

v -5.635544 0.542666 4.029675

v -5.571679 2.394573 4.881089

v -6.770967 0.542666 3.257726

v -7.054570 2.059257 3.534102

v -7.054570 2.059257 -3.673577

v -6.770967 0.542666 3.257726

v -6.770967 0.542666 -3.397201

v -6.770967 0.542666 -3.397201

v -5.294899 2.077980 -4.881088

v -5.241572 0.542666 -4.604081

v -7.054570 2.059257 -3.673577

v 5.839473 0.542666 -4.512109

v -5.294899 2.077980 -4.881088

v 6.078033 2.059257 -4.881089

v -5.241572 0.542666 -4.604081

v 7.054569 2.059257 -3.673577

v 6.770966 0.542666 -3.397201

v 5.839473 0.542666 -4.512109

v 6.078033 2.059257 -4.881089

v 6.770967 0.542666 3.257726

v 7.054569 2.059257 -3.673577

v 7.054569 2.394573 3.534101

v 6.770966 0.542666 -3.397201

v 6.770967 0.542666 3.257726

v 7.054569 2.394573 3.534101

v 5.591149 0.542666 4.121966

v 6.078033 2.059257 4.741613

v -5.635544 0.542666 4.029675

v 5.591149 0.542666 4.121966

v -5.571679 2.394573 4.881089

v 6.078033 2.059257 4.741613

v 3.548773 3.539470 -1.545014

v 2.985032 3.539470 1.904686

v 3.548773 3.539470 1.409682

v 2.810505 3.539470 -2.277668

v -3.001666 3.539470 1.904686

v -3.001666 3.539470 -2.040017

v -3.565409 3.539470 -1.545013

v -3.840897 3.539470 1.260525

v 2.985032 0.579044 1.904686

v 3.548774 0.579044 -1.545014

v 3.548774 0.579044 1.409682

v 2.810505 0.579044 -2.277668

v -3.001666 0.579044 1.904686

v -3.001666 0.579044 -2.040017

v -3.565409 0.579044 -1.545013

v -3.840896 0.579044 1.260525



vt 0.112305 0.470215

vt 0.112305 0.470215

vt 0.112305 0.470215

vt 0.112305 0.470215

vt 0.112305 0.470215

vt 0.112305 0.470215

vt 0.112305 0.470215

vt 0.112305 0.470215

vt 0.112305 0.470215

vt 0.112305 0.470215

vt 0.112305 0.470215

vt 0.112305 0.470215

vt 0.112305 0.470215

vt 0.112305 0.470215

vt 0.112305 0.470215

vt 0.112305 0.470215

vt 0.112305 0.470215

vt 0.112305 0.470215

vt 0.112305 0.470215

vt 0.112305 0.470215

vt 0.112305 0.470215

vt 0.112305 0.470215

vt 0.112305 0.470215

vt 0.112305 0.470215

vt 0.112305 0.470215

vt 0.112305 0.470215

vt 0.112305 0.470215

vt 0.112305 0.470215

vt 0.112305 0.470215

vt 0.112305 0.470215

vt 0.112305 0.470215

vt 0.112305 0.470215

vt 0.112305 0.470215

vt 0.112305 0.470215

vt 0.112305 0.470215

vt 0.112305 0.470215

vt 0.112305 0.470215

vt 0.112305 0.470215

vt 0.112305 0.470215

vt 0.112305 0.470215

vt 0.112305 0.470215

vt 0.112305 0.470215

vt 0.112305 0.470215

vt 0.112305 0.470215

vt 0.112305 0.470215

vt 0.112305 0.470215

vt 0.112305 0.470215

vt 0.112305 0.470215

vt 0.112305 0.470215

vt 0.112305 0.470215

vt 0.112305 0.470215

vt 0.112305 0.470215

vt 0.112305 0.470215

vt 0.112305 0.470215

vt 0.112305 0.470215

vt 0.112305 0.470215

vt 0.112305 0.470215

vt 0.112305 0.470215

vt 0.112305 0.470215

vt 0.112305 0.470215

vt 0.112305 0.470215

vt 0.112305 0.470215

vt 0.112305 0.470215

vt 0.112305 0.470215

vt 0.112305 0.470215

vt 0.112305 0.470215

vt 0.112305 0.470215

vt 0.112305 0.470215

vt 0.112305 0.470215

vt 0.112305 0.470215

vt 0.112305 0.470215

vt 0.112305 0.470215

vt 0.112305 0.470215

vt 0.112305 0.470215

vt 0.112305 0.470215

vt 0.112305 0.470215

vt 0.112305 0.470215

vt 0.112305 0.470215

vt 0.112305 0.470215

vt 0.112305 0.470215

vt 0.112305 0.470215

vt 0.112305 0.470215

vt 0.112305 0.470215

vt 0.112305 0.470215

vt 0.112305 0.470215

vt 0.112305 0.470215

vt 0.112305 0.470215

vt 0.112305 0.470215

vt 0.112305 0.470215

vt 0.112305 0.470215

vt 0.112305 0.470215

vt 0.112305 0.470215

vt 0.112305 0.470215

vt 0.112305 0.470215

vt 0.112305 0.470215

vt 0.112305 0.470215

vt 0.112305 0.470215

vt 0.112305 0.470215

vt 0.112305 0.470215

vt 0.112305 0.470215

vt 0.112305 0.470215

vt 0.112305 0.470215

vt 0.112305 0.470215

vt 0.112305 0.470215

vt 0.112305 0.470215

vt 0.112305 0.470215

vt 0.112305 0.470215

vt 0.112305 0.470215

vt 0.112305 0.470215

vt 0.112305 0.470215

vt 0.112305 0.470215

vt 0.112305 0.470215

vt 0.112305 0.470215

vt 0.112305 0.470215

vt 0.112305 0.470215

vt 0.112305 0.470215

vt 0.112305 0.470215

vt 0.112305 0.470215

vt 0.112305 0.470215

vt 0.112305 0.470215

vt 0.112305 0.470215

vt 0.112305 0.470215

vt 0.112305 0.470215

vt 0.112305 0.470215

vt 0.112305 0.470215

vt 0.112305 0.470215

vt 0.112305 0.470215

vt 0.112305 0.470215

vt 0.112305 0.470215

vt 0.112305 0.470215

vt 0.112305 0.470215

vt 0.112305 0.470215

vt 0.112305 0.470215

vt 0.112305 0.470215

vt 0.112305 0.470215

vt 0.112305 0.470215

vt 0.112305 0.470215

vt 0.112305 0.470215

vt 0.112305 0.470215

vt 0.112305 0.470215

vt 0.112305 0.470215

vt 0.112305 0.470215

vt 0.112305 0.470215

vt 0.112305 0.470215

vt 0.112305 0.470215

vt 0.112305 0.470215

vt 0.112305 0.470215

vt 0.112305 0.470215

vt 0.112305 0.470215

vt 0.112305 0.470215

vt 0.112305 0.470215

vt 0.112305 0.470215

vt 0.112305 0.470215

vt 0.112305 0.470215

vt 0.112305 0.470215

vt 0.112305 0.470215

vt 0.112305 0.470215

vt 0.112305 0.470215

vt 0.112305 0.470215

vt 0.112305 0.470215

vt 0.112305 0.470215

vt 0.112305 0.470215

vt 0.112305 0.470215

vt 0.112305 0.470215

vt 0.112305 0.470215

vt 0.112305 0.470215

vt 0.112305 0.470215

vt 0.112305 0.470215

vt 0.112305 0.470215

vt 0.112305 0.470215

vt 0.112305 0.470215

vt 0.112305 0.470215

vt 0.112305 0.470215

vt 0.112305 0.470215

vt 0.112305 0.470215

vt 0.112305 0.470215

vt 0.112305 0.470215

vt 0.112305 0.470215

vt 0.112305 0.470215

vt 0.112305 0.470215

vt 0.112305 0.470215

vt 0.112305 0.470215

vt 0.112305 0.470215

vt 0.112305 0.470215

vt 0.112305 0.470215

vt 0.112305 0.470215

vt 0.112305 0.470215

vt 0.112305 0.470215

vt 0.112305 0.470215

vt 0.112305 0.470215

vt 0.112305 0.470215

vt 0.112305 0.470215

vt 0.112305 0.470215

vt 0.112305 0.470215

vt 0.112305 0.470215

vt 0.112305 0.470215

vt 0.112305 0.470215

vt 0.112305 0.470215

vt 0.112305 0.470215

vt 0.112305 0.470215

vt 0.112305 0.470215

vt 0.112305 0.470215

vt 0.112305 0.470215

vt 0.112305 0.470215

vt 0.112305 0.470215

vt 0.112305 0.470215

vt 0.112305 0.470215

vt 0.112305 0.470215



vn -0.007874 0.905512 0.425197

vn -0.007874 0.905512 0.425197

vn -0.007874 0.905512 0.425197

vn -0.007874 0.905512 0.425197

vn 0.000000 0.944882 -0.322835

vn 0.000000 0.944882 -0.322835

vn 0.000000 0.944882 -0.322835

vn 0.000000 0.944882 -0.322835

vn -0.157480 0.968504 -0.188976

vn -0.157480 0.968504 -0.188976

vn -0.157480 0.968504 -0.188976

vn -0.157480 0.968504 -0.188976

vn -0.283465 0.960630 0.007874

vn -0.283465 0.960630 0.007874

vn -0.283465 0.960630 0.007874

vn -0.283465 0.960630 0.007874

vn -0.157480 0.968504 0.196850

vn -0.157480 0.968504 0.196850

vn -0.157480 0.968504 0.196850

vn -0.157480 0.968504 0.196850

vn 0.165354 0.968504 0.188976

vn 0.165354 0.968504 0.188976

vn 0.165354 0.968504 0.188976

vn 0.165354 0.968504 0.188976

vn 0.267717 0.960630 0.007874

vn 0.267717 0.960630 0.007874

vn 0.267717 0.960630 0.007874

vn 0.267717 0.960630 0.007874

vn 0.165354 0.976378 -0.157480

vn 0.165354 0.976378 -0.157480

vn 0.165354 0.976378 -0.157480

vn 0.165354 0.976378 -0.157480

vn 0.007874 0.874016 -0.488189

vn 0.007874 0.874016 -0.488189

vn 0.007874 0.874016 -0.488189

vn 0.007874 0.874016 -0.488189

vn 0.007874 0.811024 0.590551

vn 0.007874 0.811024 0.590551

vn 0.007874 0.811024 0.590551

vn 0.007874 0.811024 0.590551

vn 0.259843 0.921260 0.291339

vn 0.259843 0.921260 0.291339

vn 0.259843 0.921260 0.291339

vn 0.259843 0.921260 0.291339

vn 0.433071 0.905512 0.000000

vn 0.433071 0.905512 0.000000

vn 0.433071 0.905512 0.000000

vn 0.433071 0.905512 0.000000

vn 0.267717 0.913386 -0.307087

vn 0.267717 0.913386 -0.307087

vn 0.267717 0.913386 -0.307087

vn 0.267717 0.913386 -0.307087

vn -0.275591 0.921260 -0.283465

vn -0.275591 0.921260 -0.283465

vn -0.275591 0.921260 -0.283465

vn -0.275591 0.921260 -0.283465

vn -0.417323 0.913386 -0.007874

vn -0.417323 0.913386 -0.007874

vn -0.417323 0.913386 -0.007874

vn -0.417323 0.913386 -0.007874

vn -0.267717 0.921260 0.291339

vn -0.267717 0.921260 0.291339

vn -0.267717 0.921260 0.291339

vn -0.267717 0.921260 0.291339

vn -0.614173 0.346457 0.708661

vn -0.614173 0.346457 0.708661

vn -0.614173 0.346457 0.708661

vn -0.614173 0.346457 0.708661

vn -0.984252 0.181102 0.000000

vn -0.984252 0.181102 0.000000

vn -0.984252 0.181102 0.000000

vn -0.984252 0.181102 0.000000

vn -0.582677 0.212598 -0.787402

vn -0.582677 0.212598 -0.787402

vn -0.582677 0.212598 -0.787402

vn -0.582677 0.212598 -0.787402

vn 0.007874 0.212598 -0.976378

vn 0.007874 0.212598 -0.976378

vn 0.007874 0.212598 -0.976378

vn 0.007874 0.212598 -0.976378

vn 0.748031 0.259843 -0.614173

vn 0.748031 0.259843 -0.614173

vn 0.748031 0.259843 -0.614173

vn 0.748031 0.259843 -0.614173

vn 0.976378 0.204724 -0.007874

vn 0.976378 0.204724 -0.007874

vn 0.976378 0.204724 -0.007874

vn 0.976378 0.204724 -0.007874

vn 0.598425 0.401575 0.692913

vn 0.598425 0.401575 0.692913

vn 0.598425 0.401575 0.692913

vn 0.598425 0.401575 0.692913

vn 0.007874 0.480315 0.874016

vn 0.007874 0.480315 0.874016

vn 0.007874 0.480315 0.874016

vn 0.007874 0.480315 0.874016

vn -0.007874 -0.905512 0.425197

vn -0.007874 -0.905512 0.425197

vn -0.007874 -0.905512 0.425197

vn -0.007874 -0.905512 0.425197

vn 0.000000 -0.944882 -0.322835

vn 0.000000 -0.944882 -0.322835

vn 0.000000 -0.944882 -0.322835

vn 0.000000 -0.944882 -0.322835

vn -0.157480 -0.968504 -0.188976

vn -0.157480 -0.968504 -0.188976

vn -0.157480 -0.968504 -0.188976

vn -0.157480 -0.968504 -0.188976

vn -0.283465 -0.960630 0.007874

vn -0.283465 -0.960630 0.007874

vn -0.283465 -0.960630 0.007874

vn -0.283465 -0.960630 0.007874

vn -0.157480 -0.968504 0.196850

vn -0.157480 -0.968504 0.196850

vn -0.157480 -0.968504 0.196850

vn -0.157480 -0.968504 0.196850

vn 0.165354 -0.968504 0.188976

vn 0.165354 -0.968504 0.188976

vn 0.165354 -0.968504 0.188976

vn 0.165354 -0.968504 0.188976

vn 0.267717 -0.960630 0.007874

vn 0.267717 -0.960630 0.007874

vn 0.267717 -0.960630 0.007874

vn 0.267717 -0.960630 0.007874

vn 0.165354 -0.976378 -0.157480

vn 0.165354 -0.976378 -0.157480

vn 0.165354 -0.976378 -0.157480

vn 0.165354 -0.976378 -0.157480

vn 0.007874 -0.874016 -0.488189

vn 0.007874 -0.874016 -0.488189

vn 0.007874 -0.874016 -0.488189

vn 0.007874 -0.874016 -0.488189

vn 0.007874 -0.811024 0.590551

vn 0.007874 -0.811024 0.590551

vn 0.007874 -0.811024 0.590551

vn 0.007874 -0.811024 0.590551

vn 0.259843 -0.921260 0.291339

vn 0.259843 -0.921260 0.291339

vn 0.259843 -0.921260 0.291339

vn 0.259843 -0.921260 0.291339

vn 0.433071 -0.905512 0.000000

vn 0.433071 -0.905512 0.000000

vn 0.433071 -0.905512 0.000000

vn 0.433071 -0.905512 0.000000

vn 0.267717 -0.913386 -0.307087

vn 0.267717 -0.913386 -0.307087

vn 0.267717 -0.913386 -0.307087

vn 0.267717 -0.913386 -0.307087

vn -0.275591 -0.921260 -0.283465

vn -0.275591 -0.921260 -0.283465

vn -0.275591 -0.921260 -0.283465

vn -0.275591 -0.921260 -0.283465

vn -0.417323 -0.913386 -0.007874

vn -0.417323 -0.913386 -0.007874

vn -0.417323 -0.913386 -0.007874

vn -0.417323 -0.913386 -0.007874

vn -0.267717 -0.921260 0.291339

vn -0.267717 -0.921260 0.291339

vn -0.267717 -0.921260 0.291339

vn -0.267717 -0.921260 0.291339

vn -0.574803 -0.291339 0.763780

vn -0.574803 -0.291339 0.763780

vn -0.574803 -0.291339 0.763780

vn -0.574803 -0.291339 0.763780

vn -0.984252 -0.181102 0.000000

vn -0.984252 -0.181102 0.000000

vn -0.984252 -0.181102 0.000000

vn -0.984252 -0.181102 0.000000

vn -0.574803 -0.204724 -0.787402

vn -0.574803 -0.204724 -0.787402

vn -0.574803 -0.204724 -0.787402

vn -0.574803 -0.204724 -0.787402

vn 0.000000 -0.204724 -0.976378

vn 0.000000 -0.204724 -0.976378

vn 0.000000 -0.204724 -0.976378

vn 0.000000 -0.204724 -0.976378

vn 0.748031 -0.259843 -0.614173

vn 0.748031 -0.259843 -0.614173

vn 0.748031 -0.259843 -0.614173

vn 0.748031 -0.259843 -0.614173

vn 0.984252 -0.165354 0.007874

vn 0.984252 -0.165354 0.007874

vn 0.984252 -0.165354 0.007874

vn 0.984252 -0.165354 0.007874

vn 0.677165 -0.330709 0.653543

vn 0.677165 -0.330709 0.653543

vn 0.677165 -0.330709 0.653543

vn 0.677165 -0.330709 0.653543

vn -0.007874 -0.401575 0.913386

vn -0.007874 -0.401575 0.913386

vn -0.007874 -0.401575 0.913386

vn -0.007874 -0.401575 0.913386

vn 0.000000 1.000000 0.000000

vn 0.000000 1.000000 0.000000

vn 0.000000 1.000000 0.000000

vn 0.000000 1.000000 0.000000

vn 0.000000 1.000000 0.000000

vn 0.000000 1.000000 0.000000

vn 0.000000 1.000000 0.000000

vn 0.000000 1.000000 0.000000

vn 0.000000 -1.000000 0.000000

vn 0.000000 -1.000000 0.000000

vn 0.000000 -1.000000 0.000000

vn 0.000000 -1.000000 0.000000

vn 0.000000 -1.000000 0.000000

vn 0.000000 -1.000000 0.000000

vn 0.000000 -1.000000 0.000000

vn 0.000000 -1.000000 0.000000

f 1/1/1 2/2/2 3/3/3

f 1/1/1 3/3/3 4/4/4

f 5/5/5 6/6/6 7/7/7

f 6/6/6 5/5/5 8/8/8

f 9/9/9 10/10/10 11/11/11

f 11/11/11 10/10/10 12/12/12

f 13/13/13 14/14/14 15/15/15

f 14/14/14 13/13/13 16/16/16

f 17/17/17 18/18/18 19/19/19

f 18/18/18 17/17/17 20/20/20

f 21/21/21 22/22/22 23/23/23

f 21/21/21 24/24/24 22/22/22

f 25/25/25 26/26/26 27/27/27

f 27/27/27 28/28/28 25/25/25

f 29/29/29 30/30/30 31/31/31

f 30/30/30 29/29/29 32/32/32

f 33/33/33 34/34/34 35/35/35

f 34/34/34 33/33/33 36/36/36

f 37/37/37 38/38/38 39/39/39

f 38/38/38 37/37/37 40/40/40

f 41/41/41 42/42/42 43/43/43

f 43/43/43 42/42/42 44/44/44

f 45/45/45 46/46/46 47/47/47

f 45/45/45 47/47/47 48/48/48

f 49/49/49 50/50/50 51/51/51

f 50/50/50 49/49/49 52/52/52

f 53/53/53 54/54/54 55/55/55

f 54/54/54 53/53/53 56/56/56

f 57/57/57 58/58/58 59/59/59

f 58/58/58 57/57/57 60/60/60

f 61/61/61 62/62/62 63/63/63

f 62/62/62 61/61/61 64/64/64

f 65/65/65 66/66/66 67/67/67

f 66/66/66 65/65/65 68/68/68

f 69/69/69 70/70/70 71/71/71

f 70/70/70 69/69/69 72/72/72

f 73/73/73 74/74/74 75/75/75

f 74/74/74 73/73/73 76/76/76

f 77/77/77 78/78/78 79/79/79

f 78/78/78 77/77/77 80/80/80

f 81/81/81 82/82/82 83/83/83

f 84/84/84 83/83/83 82/82/82

f 85/85/85 86/86/86 87/87/87

f 86/86/86 85/85/85 88/88/88

f 89/89/89 90/90/90 91/91/91

f 90/90/90 89/89/89 92/92/92

f 93/93/93 94/94/94 95/95/95

f 95/95/95 96/96/96 93/93/93

f 97/97/97 98/98/98 99/99/99

f 100/100/100 98/98/98 97/97/97

f 101/101/101 102/102/102 103/103/103

f 102/102/102 101/101/101 104/104/104

f 105/105/105 106/106/106 107/107/107

f 105/105/105 107/107/107 108/108/108

f 109/109/109 110/110/110 111/111/111

f 110/110/110 109/109/109 112/112/112

f 113/113/113 114/114/114 115/115/115

f 114/114/114 113/113/113 116/116/116

f 117/117/117 118/118/118 119/119/119

f 117/117/117 120/120/120 118/118/118

f 121/121/121 122/122/122 123/123/123

f 124/124/124 122/122/122 121/121/121

f 125/125/125 126/126/126 127/127/127

f 126/126/126 125/125/125 128/128/128

f 129/129/129 130/130/130 131/131/131

f 130/130/130 129/129/129 132/132/132

f 133/133/133 134/134/134 135/135/135

f 134/134/134 133/133/133 136/136/136

f 137/137/137 138/138/138 139/139/139

f 138/138/138 140/140/140 139/139/139

f 141/141/141 142/142/142 143/143/143

f 142/142/142 144/144/144 143/143/143

f 145/145/145 146/146/146 147/147/147

f 146/146/146 145/145/145 148/148/148

f 149/149/149 150/150/150 151/151/151

f 150/150/150 149/149/149 152/152/152

f 153/153/153 154/154/154 155/155/155

f 154/154/154 153/153/153 156/156/156

f 157/157/157 158/158/158 159/159/159

f 158/158/158 157/157/157 160/160/160

f 161/161/161 162/162/162 163/163/163

f 162/162/162 161/161/161 164/164/164

f 165/165/165 166/166/166 167/167/167

f 167/167/167 166/166/166 168/168/168

f 169/169/169 170/170/170 171/171/171

f 170/170/170 169/169/169 172/172/172

f 173/173/173 174/174/174 175/175/175

f 174/174/174 173/173/173 176/176/176

f 177/177/177 178/178/178 179/179/179

f 177/177/177 179/179/179 180/180/180

f 181/181/181 182/182/182 183/183/183

f 182/182/182 181/181/181 184/184/184

f 185/185/185 186/186/186 187/187/187

f 187/187/187 186/186/186 188/188/188

f 189/189/189 190/190/190 191/191/191

f 192/192/192 191/191/191 190/190/190

f 193/193/193 194/194/194 195/195/195

f 194/194/194 193/193/193 196/196/196

f 196/196/196 197/197/197 194/194/194

f 197/197/197 196/196/196 198/198/198

f 197/197/197 198/198/198 199/199/199

f 199/199/199 200/200/200 197/197/197

f 201/201/201 202/202/202 203/203/203

f 202/202/202 201/201/201 204/204/204

f 205/205/205 204/204/204 201/201/201

f 204/204/204 205/205/205 206/206/206

f 206/206/206 205/205/205 207/207/207

f 207/207/207 205/205/205 208/208/208

