# UnrealEd OBJ exporter (_Internal)



v 18.171885 2.422725 4.815203

v 18.171885 3.242863 4.815207

v 17.588621 2.832794 5.867828

v -18.171885 4.509665 0.968140

v -18.171885 4.509665 -0.968143

v -17.271048 2.832794 -0.000004

v -18.171885 4.509665 -0.968143

v -18.171885 2.832794 -1.936285

v -17.271048 2.832794 -0.000004

v -18.171885 2.832794 -1.936285

v -18.171885 1.155922 -0.968143

v -17.271048 2.832794 -0.000004

v -18.171885 1.155922 -0.968143

v -18.171885 1.155922 0.968138

v -17.271048 2.832794 -0.000004

v -18.171885 1.155922 0.968138

v -18.171885 2.832794 1.936279

v -17.271048 2.832794 -0.000004

v -18.171885 2.832794 1.936279

v -18.171885 4.509665 0.968140

v -17.271048 2.832794 -0.000004

v 4.695132 2.832794 -4.229605

v 4.695133 4.737441 -2.114801

v 15.987294 2.832794 -5.396918

v 4.695132 0.928147 -2.114804

v 4.695132 2.832794 -4.229605

v 15.987294 2.832794 -5.396918

v 8.034232 2.832794 4.229600

v 8.034231 1.161213 2.114799

v 15.987293 2.832794 5.396915

v 8.034232 4.504374 2.114799

v 15.987293 2.832794 5.396915

v 16.570557 3.242863 4.428770

v 8.034232 4.504374 2.114799

v 8.034232 2.832794 4.229600

v 15.987293 2.832794 5.396915

v 15.987294 2.832794 -5.396918

v 4.695133 4.737441 -2.114801

v 16.570557 3.242863 -4.428771

v 4.695132 0.928147 -2.114804

v 15.987294 2.832794 -5.396918

v 16.570557 2.422725 -4.428772

v 15.987293 2.832794 5.396915

v 8.034231 1.161213 2.114799

v 16.570557 2.422725 4.428768

v 18.171885 3.242863 -4.815207

v 18.171883 2.422725 -4.815207

v 17.588621 2.832794 -5.867828

v 3.466385 4.795702 -1.028531

v -11.028318 5.577057 0.910158

v 3.466385 4.770508 1.157876

v -11.028698 5.570168 -0.780815

v -12.699032 2.832794 -3.271029

v 4.695133 4.737441 -2.114801

v 4.695132 2.832794 -4.229605

v -12.699032 5.665588 -1.635516

v 4.695132 0.928147 -2.114804

v -12.699032 2.832794 -3.271029

v 4.695132 2.832794 -4.229605

v -12.699032 -0.000000 -1.635516

v -11.028319 0.088531 0.910157

v 3.466384 0.869886 -1.028534

v 3.466385 0.894863 1.157875

v -11.028693 0.095421 -0.780818

v -12.699032 2.832794 3.271026

v 8.034231 1.161213 2.114799

v 8.034232 2.832794 4.229600

v -12.699032 0.000000 1.635512

v -12.460855 5.676297 1.650850

v 8.034232 2.832794 4.229600

v 8.034232 4.504374 2.114799

v -12.699032 2.832794 3.271026

v 16.570557 3.242863 -4.428771

v 8.034232 4.504374 2.114799

v 16.570557 3.242863 4.428770

v 4.695133 4.737441 -2.114801

v 16.570557 2.422725 4.428768

v 8.034231 1.161213 2.114799

v 16.570557 2.422725 -4.428772

v 4.695132 0.928147 -2.114804

v -13.851026 4.430320 0.922330

v -12.699032 5.665588 -1.635516

v -13.851026 4.430320 -0.922335

v -12.460855 5.676297 1.650850

v -12.699032 2.832794 -3.271029

v -13.851026 4.430320 -0.922335

v -12.699032 5.665588 -1.635516

v -13.851026 2.832794 -1.844666

v -13.851025 1.235268 -0.922335

v -13.851026 2.832794 -1.844666

v -12.699032 2.832794 -3.271029

v -12.699032 -0.000000 -1.635516

v -13.851025 1.235268 0.922330

v -12.699032 -0.000000 -1.635516

v -12.699032 0.000000 1.635512

v -13.851025 1.235268 -0.922335

v -13.851025 1.235268 0.922330

v -12.699032 2.832794 3.271026

v -13.851025 2.832794 1.844661

v -12.699032 0.000000 1.635512

v -13.851026 4.430320 0.922330

v -12.699032 2.832794 3.271026

v -12.460855 5.676297 1.650850

v -13.851025 2.832794 1.844661

v -14.524021 5.002060 1.235196

v -13.851026 4.430320 -0.922335

v -14.283022 5.006717 -1.255117

v -13.851026 4.430320 0.922330

v -14.461708 2.845840 -2.529031

v -13.851026 4.430320 -0.922335

v -13.851026 2.832794 -1.844666

v -14.283022 5.006717 -1.255117

v -14.283022 0.658871 -1.255117

v -14.461708 2.845840 -2.529031

v -13.851026 2.832794 -1.844666

v -13.851025 1.235268 -0.922335

v -14.283022 0.658871 1.255112

v -13.851025 1.235268 -0.922335

v -13.851025 1.235268 0.922330

v -14.283022 0.658871 -1.255117

v -14.283022 2.832794 2.510225

v -14.283022 0.658871 1.255112

v -13.851025 1.235268 0.922330

v -13.851025 2.832794 1.844661

v -13.851026 4.430320 0.922330

v -14.283022 2.832794 2.510225

v -13.851025 2.832794 1.844661

v -14.524021 5.002060 1.235196

v -14.283022 5.006717 -1.255117

v -18.171885 4.509665 -0.968143

v -14.524021 5.002060 1.235196

v -18.171885 4.509665 0.968140

v -14.461708 2.845840 -2.529031

v -18.171885 4.509665 -0.968143

v -14.283022 5.006717 -1.255117

v -18.171885 2.832794 -1.936285

v -18.171885 1.155922 -0.968143

v -14.461708 2.845840 -2.529031

v -14.283022 0.658871 -1.255117

v -18.171885 2.832794 -1.936285

v -18.171885 1.155922 0.968138

v -14.283022 0.658871 -1.255117

v -14.283022 0.658871 1.255112

v -18.171885 1.155922 -0.968143

v -14.283022 2.832794 2.510225

v -18.171885 1.155922 0.968138

v -14.283022 0.658871 1.255112

v -18.171885 2.832794 1.936279

v -18.171885 4.509665 0.968140

v -14.283022 2.832794 2.510225

v -14.524021 5.002060 1.235196

v -18.171885 2.832794 1.936279

v 18.171885 3.242863 -4.815207

v 18.171885 3.242863 4.815207

v 18.171885 2.422725 4.815203

v 18.171883 2.422725 -4.815207

v 15.987293 2.832794 5.396915

v 17.588621 2.832794 5.867828

v 16.570557 3.242863 4.428770

v 18.171885 3.242863 4.815207

v 16.570557 2.422725 4.428768

v 17.588621 2.832794 5.867828

v 15.987293 2.832794 5.396915

v 18.171885 2.422725 4.815203

v 18.171883 2.422725 -4.815207

v 16.570557 2.422725 -4.428772

v 17.588621 2.832794 -5.867828

v 15.987294 2.832794 -5.396918

v 17.588621 2.832794 -5.867828

v 16.570557 3.242863 -4.428771

v 18.171885 3.242863 -4.815207

v 15.987294 2.832794 -5.396918

v 18.171885 2.422725 4.815203

v 16.570557 2.422725 -4.428772

v 18.171883 2.422725 -4.815207

v 16.570557 2.422725 4.428768

v 16.570557 3.242863 4.428770

v 18.171885 3.242863 -4.815207

v 16.570557 3.242863 -4.428771

v 18.171885 3.242863 4.815207

v 4.695133 4.737441 -2.114801

v 3.466385 4.770508 1.157876

v 8.034232 4.504374 2.114799

v 3.466385 4.795702 -1.028531

v 4.695133 4.737441 -2.114801

v -12.699032 5.665588 -1.635516

v -11.028698 5.570168 -0.780815

v 3.466385 4.795702 -1.028531

v -12.460855 5.676297 1.650850

v -11.028698 5.570168 -0.780815

v -12.699032 5.665588 -1.635516

v -11.028318 5.577057 0.910158

v -12.460855 5.676297 1.650850

v 8.034232 4.504374 2.114799

v 3.466385 4.770508 1.157876

v -11.028318 5.577057 0.910158

v 8.034231 1.161213 2.114799

v 3.466385 0.894863 1.157875

v 4.695132 0.928147 -2.114804

v 3.466384 0.869886 -1.028534

v 8.034231 1.161213 2.114799

v -12.699032 0.000000 1.635512

v 3.466385 0.894863 1.157875

v -11.028319 0.088531 0.910157

v -11.028319 0.088531 0.910157

v -12.699032 0.000000 1.635512

v -11.028693 0.095421 -0.780818

v -12.699032 -0.000000 -1.635516

v 4.695132 0.928147 -2.114804

v -11.028693 0.095421 -0.780818

v -12.699032 -0.000000 -1.635516

v 3.466384 0.869886 -1.028534



vt 0.133301 0.376953

vt 0.133301 0.376953

vt 0.133301 0.376953

vt 0.419189 0.013672

vt 0.419189 0.013672

vt 0.419189 0.013672

vt 0.419189 0.013672

vt 0.419189 0.013672

vt 0.419189 0.013672

vt 0.419189 0.013672

vt 0.419189 0.013672

vt 0.419189 0.013672

vt 0.419189 0.013672

vt 0.419189 0.013672

vt 0.419189 0.013672

vt 0.419189 0.013672

vt 0.419189 0.013672

vt 0.419189 0.013672

vt 0.419189 0.013672

vt 0.419189 0.013672

vt 0.419189 0.013672

vt 0.126709 0.449219

vt 0.126709 0.449219

vt 0.126709 0.449219

vt 0.126709 0.449219

vt 0.126709 0.449219

vt 0.126709 0.449219

vt 0.126709 0.449219

vt 0.126709 0.449219

vt 0.126709 0.449219

vt 0.126709 0.449219

vt 0.126709 0.449219

vt 0.126709 0.449219

vt 0.126709 0.449219

vt 0.126709 0.449219

vt 0.126709 0.449219

vt 0.126709 0.449219

vt 0.126709 0.449219

vt 0.126709 0.449219

vt 0.126709 0.449219

vt 0.126709 0.449219

vt 0.126709 0.449219

vt 0.126709 0.449219

vt 0.126709 0.449219

vt 0.126709 0.449219

vt 0.133301 0.376953

vt 0.133301 0.376953

vt 0.133301 0.376953

vt 0.335938 0.448730

vt 0.335938 0.448730

vt 0.335938 0.448730

vt 0.335938 0.448730

vt 0.133301 0.376953

vt 0.133301 0.376953

vt 0.133301 0.376953

vt 0.133301 0.376953

vt 0.133301 0.376953

vt 0.133301 0.376953

vt 0.133301 0.376953

vt 0.133301 0.376953

vt 0.335938 0.448730

vt 0.335938 0.448730

vt 0.335938 0.448730

vt 0.335938 0.448730

vt 0.133301 0.376953

vt 0.133301 0.376953

vt 0.133301 0.376953

vt 0.133301 0.376953

vt 0.133301 0.376953

vt 0.133301 0.376953

vt 0.133301 0.376953

vt 0.133301 0.376953

vt 0.126709 0.449219

vt 0.126709 0.449219

vt 0.126709 0.449219

vt 0.126709 0.449219

vt 0.126709 0.449219

vt 0.126709 0.449219

vt 0.126709 0.449219

vt 0.126709 0.449219

vt 0.133301 0.376953

vt 0.133301 0.376953

vt 0.133301 0.376953

vt 0.133301 0.376953

vt 0.133301 0.376953

vt 0.133301 0.376953

vt 0.133301 0.376953

vt 0.133301 0.376953

vt 0.133301 0.376953

vt 0.133301 0.376953

vt 0.133301 0.376953

vt 0.133301 0.376953

vt 0.133301 0.376953

vt 0.133301 0.376953

vt 0.133301 0.376953

vt 0.133301 0.376953

vt 0.133301 0.376953

vt 0.133301 0.376953

vt 0.133301 0.376953

vt 0.133301 0.376953

vt 0.133301 0.376953

vt 0.133301 0.376953

vt 0.133301 0.376953

vt 0.133301 0.376953

vt 0.419189 0.013672

vt 0.419189 0.013672

vt 0.419189 0.013672

vt 0.419189 0.013672

vt 0.419189 0.013672

vt 0.419189 0.013672

vt 0.419189 0.013672

vt 0.419189 0.013672

vt 0.419189 0.013672

vt 0.419189 0.013672

vt 0.419189 0.013672

vt 0.419189 0.013672

vt 0.419189 0.013672

vt 0.419189 0.013672

vt 0.419189 0.013672

vt 0.419189 0.013672

vt 0.419189 0.013672

vt 0.419189 0.013672

vt 0.419189 0.013672

vt 0.419189 0.013672

vt 0.419189 0.013672

vt 0.419189 0.013672

vt 0.419189 0.013672

vt 0.419189 0.013672

vt 0.419189 0.013672

vt 0.419189 0.013672

vt 0.419189 0.013672

vt 0.419189 0.013672

vt 0.419189 0.013672

vt 0.419189 0.013672

vt 0.419189 0.013672

vt 0.419189 0.013672

vt 0.419189 0.013672

vt 0.419189 0.013672

vt 0.419189 0.013672

vt 0.419189 0.013672

vt 0.419189 0.013672

vt 0.419189 0.013672

vt 0.419189 0.013672

vt 0.419189 0.013672

vt 0.419189 0.013672

vt 0.419189 0.013672

vt 0.419189 0.013672

vt 0.419189 0.013672

vt 0.419189 0.013672

vt 0.419189 0.013672

vt 0.419189 0.013672

vt 0.419189 0.013672

vt 0.133301 0.376953

vt 0.133301 0.376953

vt 0.133301 0.376953

vt 0.133301 0.376953

vt 0.133301 0.376953

vt 0.133301 0.376953

vt 0.133301 0.376953

vt 0.133301 0.376953

vt 0.133301 0.376953

vt 0.133301 0.376953

vt 0.133301 0.376953

vt 0.133301 0.376953

vt 0.133301 0.376953

vt 0.133301 0.376953

vt 0.133301 0.376953

vt 0.133301 0.376953

vt 0.133301 0.376953

vt 0.133301 0.376953

vt 0.133301 0.376953

vt 0.133301 0.376953

vt 0.133301 0.376953

vt 0.133301 0.376953

vt 0.133301 0.376953

vt 0.133301 0.376953

vt 0.133301 0.376953

vt 0.133301 0.376953

vt 0.133301 0.376953

vt 0.133301 0.376953

vt 0.133301 0.376953

vt 0.133301 0.376953

vt 0.133301 0.376953

vt 0.133301 0.376953

vt 0.133301 0.376953

vt 0.133301 0.376953

vt 0.133301 0.376953

vt 0.133301 0.376953

vt 0.133301 0.376953

vt 0.133301 0.376953

vt 0.133301 0.376953

vt 0.133301 0.376953

vt 0.133301 0.376953

vt 0.133301 0.376953

vt 0.133301 0.376953

vt 0.133301 0.376953

vt 0.133301 0.376953

vt 0.133301 0.376953

vt 0.133301 0.376953

vt 0.133301 0.376953

vt 0.133301 0.376953

vt 0.133301 0.376953

vt 0.133301 0.376953

vt 0.133301 0.376953

vt 0.133301 0.376953

vt 0.133301 0.376953

vt 0.133301 0.376953

vt 0.133301 0.376953

vt 0.133301 0.376953

vt 0.133301 0.376953

vt 0.133301 0.376953

vt 0.133301 0.376953



vn 0.874016 0.000000 0.488189

vn 0.874016 0.000000 0.488189

vn 0.874016 0.000000 0.488189

vn -0.881890 -0.472441 0.000000

vn -0.881890 -0.472441 0.000000

vn -0.881890 -0.472441 0.000000

vn -0.881890 -0.236220 0.409449

vn -0.881890 -0.236220 0.409449

vn -0.881890 -0.236220 0.409449

vn -0.881890 0.236220 0.409449

vn -0.881890 0.236220 0.409449

vn -0.881890 0.236220 0.409449

vn -0.881890 0.472441 0.000000

vn -0.881890 0.472441 0.000000

vn -0.881890 0.472441 0.000000

vn -0.881890 0.236220 -0.409449

vn -0.881890 0.236220 -0.409449

vn -0.881890 0.236220 -0.409449

vn -0.881890 -0.236220 -0.409449

vn -0.881890 -0.236220 -0.409449

vn -0.881890 -0.236220 -0.409449

vn -0.070866 0.740157 -0.669291

vn -0.070866 0.740157 -0.669291

vn -0.070866 0.740157 -0.669291

vn -0.070866 -0.740157 -0.669291

vn -0.070866 -0.740157 -0.669291

vn -0.070866 -0.740157 -0.669291

vn -0.094488 -0.779528 0.614173

vn -0.094488 -0.779528 0.614173

vn -0.094488 -0.779528 0.614173

vn 0.023622 0.913386 0.401575

vn 0.023622 0.913386 0.401575

vn 0.023622 0.913386 0.401575

vn -0.094488 0.779528 0.614173

vn -0.094488 0.779528 0.614173

vn -0.094488 0.779528 0.614173

vn 0.031496 0.913386 -0.409449

vn 0.031496 0.913386 -0.409449

vn 0.031496 0.913386 -0.409449

vn 0.031496 -0.913386 -0.409449

vn 0.031496 -0.913386 -0.409449

vn 0.031496 -0.913386 -0.409449

vn 0.023622 -0.913386 0.401575

vn 0.023622 -0.913386 0.401575

vn 0.023622 -0.913386 0.401575

vn 0.874016 0.000000 -0.488189

vn 0.874016 0.000000 -0.488189

vn 0.874016 0.000000 -0.488189

vn 0.055118 1.000000 0.007874

vn 0.055118 1.000000 0.007874

vn 0.055118 1.000000 0.007874

vn 0.055118 1.000000 0.007874

vn -0.015748 0.622047 -0.787402

vn -0.015748 0.622047 -0.787402

vn -0.015748 0.622047 -0.787402

vn -0.015748 0.622047 -0.787402

vn -0.015748 -0.622047 -0.787402

vn -0.015748 -0.622047 -0.787402

vn -0.015748 -0.622047 -0.787402

vn -0.015748 -0.622047 -0.787402

vn 0.055118 -1.000000 0.007874

vn 0.055118 -1.000000 0.007874

vn 0.055118 -1.000000 0.007874

vn 0.055118 -1.000000 0.007874

vn -0.007874 -0.637795 0.771654

vn -0.007874 -0.637795 0.771654

vn -0.007874 -0.637795 0.771654

vn -0.007874 -0.637795 0.771654

vn -0.007874 0.637795 0.771654

vn -0.007874 0.637795 0.771654

vn -0.007874 0.637795 0.771654

vn -0.007874 0.637795 0.771654

vn 0.133858 0.992126 -0.015748

vn 0.133858 0.992126 -0.015748

vn 0.133858 0.992126 -0.015748

vn 0.133858 0.992126 -0.015748

vn 0.133858 -0.992126 -0.015748

vn 0.133858 -0.992126 -0.015748

vn 0.133858 -0.992126 -0.015748

vn 0.133858 -0.992126 -0.015748

vn -0.700787 0.716535 0.031496

vn -0.700787 0.716535 0.031496

vn -0.700787 0.716535 0.031496

vn -0.700787 0.716535 0.031496

vn -0.732283 0.338583 -0.590551

vn -0.732283 0.338583 -0.590551

vn -0.732283 0.338583 -0.590551

vn -0.732283 0.338583 -0.590551

vn -0.732283 -0.338583 -0.590551

vn -0.732283 -0.338583 -0.590551

vn -0.732283 -0.338583 -0.590551

vn -0.732283 -0.338583 -0.590551

vn -0.732283 -0.685039 0.000000

vn -0.732283 -0.685039 0.000000

vn -0.732283 -0.685039 0.000000

vn -0.732283 -0.685039 0.000000

vn -0.732283 -0.338583 0.590551

vn -0.732283 -0.338583 0.590551

vn -0.732283 -0.338583 0.590551

vn -0.732283 -0.338583 0.590551

vn -0.700787 0.385827 0.606299

vn -0.700787 0.385827 0.606299

vn -0.700787 0.385827 0.606299

vn -0.700787 0.385827 0.606299

vn 0.716535 0.692913 0.039370

vn 0.716535 0.692913 0.039370

vn 0.716535 0.692913 0.039370

vn 0.716535 0.692913 0.039370

vn 0.748031 0.307087 -0.590551

vn 0.748031 0.307087 -0.590551

vn 0.748031 0.307087 -0.590551

vn 0.748031 0.307087 -0.590551

vn 0.748031 -0.307087 -0.590551

vn 0.748031 -0.307087 -0.590551

vn 0.748031 -0.307087 -0.590551

vn 0.748031 -0.307087 -0.590551

vn 0.803150 -0.598425 0.000000

vn 0.803150 -0.598425 0.000000

vn 0.803150 -0.598425 0.000000

vn 0.803150 -0.598425 0.000000

vn 0.803150 -0.299213 0.519685

vn 0.803150 -0.299213 0.519685

vn 0.803150 -0.299213 0.519685

vn 0.803150 -0.299213 0.519685

vn 0.716535 0.385827 0.582677

vn 0.716535 0.385827 0.582677

vn 0.716535 0.385827 0.582677

vn 0.716535 0.385827 0.582677

vn -0.133858 0.992126 -0.007874

vn -0.133858 0.992126 -0.007874

vn -0.133858 0.992126 -0.007874

vn -0.133858 0.992126 -0.007874

vn -0.133858 0.503937 -0.850394

vn -0.133858 0.503937 -0.850394

vn -0.133858 0.503937 -0.850394

vn -0.133858 0.503937 -0.850394

vn -0.133858 -0.503937 -0.858268

vn -0.133858 -0.503937 -0.858268

vn -0.133858 -0.503937 -0.858268

vn -0.133858 -0.503937 -0.858268

vn -0.125984 -0.992126 0.000000

vn -0.125984 -0.992126 0.000000

vn -0.125984 -0.992126 0.000000

vn -0.125984 -0.992126 0.000000

vn -0.125984 -0.496063 0.858268

vn -0.125984 -0.496063 0.858268

vn -0.125984 -0.496063 0.858268

vn -0.125984 -0.496063 0.858268

vn -0.125984 0.496063 0.858268

vn -0.125984 0.496063 0.858268

vn -0.125984 0.496063 0.858268

vn -0.125984 0.496063 0.858268

vn 1.000000 0.000000 0.000000

vn 1.000000 0.000000 0.000000

vn 1.000000 0.000000 0.000000

vn 1.000000 0.000000 0.000000

vn -0.086614 0.937008 0.330709

vn -0.086614 0.937008 0.330709

vn -0.086614 0.937008 0.330709

vn -0.086614 0.937008 0.330709

vn -0.086614 -0.937008 0.330709

vn -0.086614 -0.937008 0.330709

vn -0.086614 -0.937008 0.330709

vn -0.086614 -0.937008 0.330709

vn -0.086614 -0.937008 -0.330709

vn -0.086614 -0.937008 -0.330709

vn -0.086614 -0.937008 -0.330709

vn -0.086614 -0.937008 -0.330709

vn -0.086614 0.937008 -0.330709

vn -0.086614 0.937008 -0.330709

vn -0.086614 0.937008 -0.330709

vn -0.086614 0.937008 -0.330709

vn 0.000000 -1.000000 0.000000

vn 0.000000 -1.000000 0.000000

vn 0.000000 -1.000000 0.000000

vn 0.000000 -1.000000 0.000000

vn 0.000000 1.000000 0.000000

vn 0.000000 1.000000 0.000000

vn 0.000000 1.000000 0.000000

vn 0.000000 1.000000 0.000000

vn 0.055118 1.000000 0.007874

vn 0.055118 1.000000 0.007874

vn 0.055118 1.000000 0.007874

vn 0.055118 1.000000 0.007874

vn 0.055118 1.000000 0.007874

vn 0.055118 1.000000 0.007874

vn 0.055118 1.000000 0.007874

vn 0.055118 1.000000 0.007874

vn 0.062992 1.000000 -0.007874

vn 0.062992 1.000000 -0.007874

vn 0.062992 1.000000 -0.007874

vn 0.062992 1.000000 -0.007874

vn 0.055118 1.000000 -0.007874

vn 0.055118 1.000000 -0.007874

vn 0.055118 1.000000 -0.007874

vn 0.055118 1.000000 -0.007874

vn 0.055118 -1.000000 0.007874

vn 0.055118 -1.000000 0.007874

vn 0.055118 -1.000000 0.007874

vn 0.055118 -1.000000 0.007874

vn 0.055118 -1.000000 0.007874

vn 0.055118 -1.000000 0.007874

vn 0.055118 -1.000000 0.007874

vn 0.055118 -1.000000 0.007874

vn 0.055118 -1.000000 0.000000

vn 0.055118 -1.000000 0.000000

vn 0.055118 -1.000000 0.000000

vn 0.055118 -1.000000 0.000000

vn 0.055118 -1.000000 0.007874

vn 0.055118 -1.000000 0.007874

vn 0.055118 -1.000000 0.007874

vn 0.055118 -1.000000 0.007874

f 1/1/1 2/2/2 3/3/3

f 4/4/4 5/5/5 6/6/6

f 7/7/7 8/8/8 9/9/9

f 10/10/10 11/11/11 12/12/12

f 13/13/13 14/14/14 15/15/15

f 16/16/16 17/17/17 18/18/18

f 19/19/19 20/20/20 21/21/21

f 22/22/22 23/23/23 24/24/24

f 25/25/25 26/26/26 27/27/27

f 28/28/28 29/29/29 30/30/30

f 31/31/31 32/32/32 33/33/33

f 34/34/34 35/35/35 36/36/36

f 37/37/37 38/38/38 39/39/39

f 40/40/40 41/41/41 42/42/42

f 43/43/43 44/44/44 45/45/45

f 46/46/46 47/47/47 48/48/48

f 49/49/49 50/50/50 51/51/51

f 50/50/50 49/49/49 52/52/52

f 53/53/53 54/54/54 55/55/55

f 54/54/54 53/53/53 56/56/56

f 57/57/57 58/58/58 59/59/59

f 58/58/58 57/57/57 60/60/60

f 61/61/61 62/62/62 63/63/63

f 62/62/62 61/61/61 64/64/64

f 65/65/65 66/66/66 67/67/67

f 66/66/66 65/65/65 68/68/68

f 69/69/69 70/70/70 71/71/71

f 70/70/70 69/69/69 72/72/72

f 73/73/73 74/74/74 75/75/75

f 74/74/74 73/73/73 76/76/76

f 77/77/77 78/78/78 79/79/79

f 78/78/78 80/80/80 79/79/79

f 81/81/81 82/82/82 83/83/83

f 82/82/82 81/81/81 84/84/84

f 85/85/85 86/86/86 87/87/87

f 86/86/86 85/85/85 88/88/88

f 89/89/89 90/90/90 91/91/91

f 91/91/91 92/92/92 89/89/89

f 93/93/93 94/94/94 95/95/95

f 94/94/94 93/93/93 96/96/96

f 97/97/97 98/98/98 99/99/99

f 98/98/98 97/97/97 100/100/100

f 101/101/101 102/102/102 103/103/103

f 102/102/102 101/101/101 104/104/104

f 105/105/105 106/106/106 107/107/107

f 106/106/106 105/105/105 108/108/108

f 109/109/109 110/110/110 111/111/111

f 109/109/109 112/112/112 110/110/110

f 113/113/113 114/114/114 115/115/115

f 113/113/113 115/115/115 116/116/116

f 117/117/117 118/118/118 119/119/119

f 117/117/117 120/120/120 118/118/118

f 121/121/121 122/122/122 123/123/123

f 121/121/121 123/123/123 124/124/124

f 125/125/125 126/126/126 127/127/127

f 126/126/126 125/125/125 128/128/128

f 129/129/129 130/130/130 131/131/131

f 132/132/132 131/131/131 130/130/130

f 133/133/133 134/134/134 135/135/135

f 134/134/134 133/133/133 136/136/136

f 137/137/137 138/138/138 139/139/139

f 138/138/138 137/137/137 140/140/140

f 141/141/141 142/142/142 143/143/143

f 142/142/142 141/141/141 144/144/144

f 145/145/145 146/146/146 147/147/147

f 146/146/146 145/145/145 148/148/148

f 149/149/149 150/150/150 151/151/151

f 150/150/150 149/149/149 152/152/152

f 153/153/153 154/154/154 155/155/155

f 155/155/155 156/156/156 153/153/153

f 157/157/157 158/158/158 159/159/159

f 159/159/159 158/158/158 160/160/160

f 161/161/161 162/162/162 163/163/163

f 162/162/162 161/161/161 164/164/164

f 165/165/165 166/166/166 167/167/167

f 166/166/166 168/168/168 167/167/167

f 169/169/169 170/170/170 171/171/171

f 170/170/170 169/169/169 172/172/172

f 173/173/173 174/174/174 175/175/175

f 174/174/174 173/173/173 176/176/176

f 177/177/177 178/178/178 179/179/179

f 178/178/178 177/177/177 180/180/180

f 181/181/181 182/182/182 183/183/183

f 182/182/182 181/181/181 184/184/184

f 185/185/185 186/186/186 187/187/187

f 185/185/185 187/187/187 188/188/188

f 189/189/189 190/190/190 191/191/191

f 190/190/190 189/189/189 192/192/192

f 193/193/193 194/194/194 195/195/195

f 193/193/193 195/195/195 196/196/196

f 197/197/197 198/198/198 199/199/199

f 199/199/199 198/198/198 200/200/200

f 201/201/201 202/202/202 203/203/203

f 203/203/203 202/202/202 204/204/204

f 205/205/205 206/206/206 207/207/207

f 206/206/206 208/208/208 207/207/207

f 209/209/209 210/210/210 211/211/211

f 210/210/210 209/209/209 212/212/212

