# UnrealEd OBJ exporter (_Internal)



v 1.524597 -22.258194 -1.387695

v 1.127502 -25.202438 -1.387695

v -0.339355 -24.986053 -1.387695

v 4.392273 -22.561035 -1.387695

v -4.839020 -22.689743 -1.387695

v -4.834686 -18.355713 -1.387695

v -1.833984 -19.279099 -1.387695

v -3.971313 -23.200760 -1.387695

v 1.524597 -22.258194 -1.387695

v 4.099335 -18.291306 -1.387695

v 4.392273 -22.561035 -1.387695

v 0.814301 -19.355316 -1.387695

v -3.115265 -15.945389 1.256836

v -4.834686 -18.355713 -1.387695

v -4.834686 -18.355713 1.387939

v -3.115265 -15.945389 -1.256592

v 2.772430 20.729279 1.256836

v -3.115265 20.729279 -1.256592

v -3.115265 20.729279 1.256836

v 2.772430 20.729279 -1.256592

v 4.099335 -18.291306 1.387939

v 4.392273 -22.561035 1.387939

v 4.392273 -22.561035 -1.387695

v 4.099335 -18.291306 -1.387695

v -0.339355 -24.986053 1.387939

v 1.127502 -25.202438 -1.387695

v 1.127502 -25.202438 1.387939

v -0.339355 -24.986053 -1.387695

v 4.099335 -18.291306 1.387939

v 2.772430 -15.945404 -1.256592

v 2.772430 -15.945404 1.256836

v 4.099335 -18.291306 -1.387695

v -4.870636 16.848602 1.256836

v -3.178864 12.855667 -1.256592

v -3.178864 12.855667 1.256836

v -4.870636 16.848602 -1.256592

v 2.836151 12.855682 1.256836

v 4.527924 16.848602 -1.256592

v 4.527924 16.848602 1.256836

v 2.836151 12.855682 -1.256592

v -3.115265 20.729279 1.256836

v -4.870636 16.848602 -1.256592

v -4.870636 16.848602 1.256836

v -3.115265 20.729279 -1.256592

v 4.527924 16.848602 1.256836

v 2.772430 20.729279 -1.256592

v 2.772430 20.729279 1.256836

v 4.527924 16.848602 -1.256592

v -1.609131 14.436783 1.256836

v 1.266449 14.436783 1.256836

v 1.266449 14.436783 -1.256592

v -1.609131 14.436783 -1.256592

v -2.824219 16.846527 1.256836

v -1.609131 14.436783 1.256836

v -1.609131 14.436783 -1.256592

v -2.824219 16.846527 -1.256592

v 1.266449 14.436783 1.256836

v 2.481354 16.846527 1.256836

v 2.481354 16.846527 -1.256592

v 1.266449 14.436783 -1.256592

v -1.650146 19.288925 1.256836

v -2.824219 16.846527 1.256836

v -2.824219 16.846527 -1.256592

v -1.650146 19.288925 -1.256592

v 1.307404 19.288925 1.256836

v -1.650146 19.288925 1.256836

v -1.650146 19.288925 -1.256592

v 1.307404 19.288925 -1.256592

v 2.481354 16.846527 1.256836

v 1.307404 19.288925 1.256836

v 1.307404 19.288925 -1.256592

v 2.481354 16.846527 -1.256592

v 1.127502 -25.202438 1.387939

v 4.392273 -22.561035 -1.387695

v 4.392273 -22.561035 1.387939

v 1.127502 -25.202438 -1.387695

v -4.834686 -18.355713 1.387939

v -4.839020 -22.689743 -1.387695

v -4.839020 -22.689743 1.387939

v -4.834686 -18.355713 -1.387695

v 1.524597 -22.258194 1.387939

v 1.127502 -25.202438 1.387939

v 4.392273 -22.561035 1.387939

v -0.339355 -24.986053 1.387939

v -1.833984 -19.279099 1.387939

v -4.839020 -22.689743 1.387939

v -3.971313 -23.200760 1.387939

v -4.834686 -18.355713 1.387939

v 4.099335 -18.291306 1.387939

v 1.524597 -22.258194 1.387939

v 4.392273 -22.561035 1.387939

v 0.814301 -19.355316 1.387939

v -4.839020 -22.689743 1.387939

v -4.839020 -22.689743 -1.387695

v -3.971313 -23.200760 1.387939

v -3.971313 -23.200760 -1.387695

v -1.833984 -19.279099 1.387939

v -3.971313 -23.200760 1.387939

v -1.833984 -19.279099 -1.387695

v -3.971313 -23.200760 -1.387695

v 0.814301 -19.355316 1.387939

v -1.833984 -19.279099 1.387939

v 0.814301 -19.355316 -1.387695

v -1.833984 -19.279099 -1.387695

v 1.524597 -22.258194 1.387939

v 0.814301 -19.355316 1.387939

v 1.524597 -22.258194 -1.387695

v 0.814301 -19.355316 -1.387695

v -0.339355 -24.986053 1.387939

v 1.524597 -22.258194 1.387939

v -0.339355 -24.986053 -1.387695

v 1.524597 -22.258194 -1.387695

v -3.178864 12.855667 1.256836

v -3.115265 -15.945389 -1.256592

v -3.115265 -15.945389 1.256836

v -3.178864 12.855667 -1.256592

v -2.212189 12.855667 1.256836

v -2.169037 -14.868134 1.256836

v 1.869476 12.855667 1.256836

v 1.826202 -14.868164 1.256836

v 2.772430 -15.945404 1.256836

v 2.836151 12.855682 -1.256592

v 2.836151 12.855682 1.256836

v 2.772430 -15.945404 -1.256592

v -2.169037 -14.868134 -1.256592

v 1.869476 12.855667 -1.256592

v 1.826202 -14.868164 -1.256592

v -2.212189 12.855667 -1.256592

v 2.772430 -15.945404 -1.256592

v 4.099335 -18.291306 -1.387695

v 0.814301 -19.355316 -1.387695

v -3.115265 -15.945389 -1.256592

v -1.833984 -19.279099 -1.387695

v -4.834686 -18.355713 -1.387695

v 2.772430 -15.945404 1.256836

v 0.814301 -19.355316 1.387939

v 4.099335 -18.291306 1.387939

v -3.115265 -15.945389 1.256836

v -1.833984 -19.279099 1.387939

v -4.834686 -18.355713 1.387939

v 2.772430 20.729279 1.256836

v -1.650146 19.288925 1.256836

v 1.307404 19.288925 1.256836

v 2.481354 16.846527 1.256836

v -3.115265 20.729279 1.256836

v 4.527924 16.848602 1.256836

v -2.824219 16.846527 1.256836

v 2.836151 12.855682 1.256836

v -4.870636 16.848602 1.256836

v 1.266449 14.436783 1.256836

v -3.178864 12.855667 1.256836

v -1.609131 14.436783 1.256836

v 1.869476 12.855667 1.256836

v 1.826202 -14.868164 1.256836

v -2.212189 12.855667 1.256836

v 2.772430 -15.945404 1.256836

v -2.169037 -14.868134 1.256836

v -3.115265 -15.945389 1.256836

v -3.115265 20.729279 -1.256592

v -2.824219 16.846527 -1.256592

v -4.870636 16.848602 -1.256592

v -3.178864 12.855667 -1.256592

v -1.650146 19.288925 -1.256592

v 2.772430 20.729279 -1.256592

v 1.307404 19.288925 -1.256592

v 2.481354 16.846527 -1.256592

v 4.527924 16.848602 -1.256592

v 2.836151 12.855682 -1.256592

v 1.266449 14.436783 -1.256592

v -1.609131 14.436783 -1.256592

v 1.869476 12.855667 -1.256592

v 1.826202 -14.868164 -1.256592

v -2.212189 12.855667 -1.256592

v 2.772430 -15.945404 -1.256592

v -2.169037 -14.868134 -1.256592

v -3.115265 -15.945389 -1.256592



vt 0.133423 0.380859

vt 0.133423 0.380859

vt 0.133423 0.380859

vt 0.133423 0.380859

vt 0.133423 0.380859

vt 0.133423 0.380859

vt 0.133423 0.380859

vt 0.133423 0.380859

vt 0.133423 0.380859

vt 0.133423 0.380859

vt 0.133423 0.380859

vt 0.133423 0.380859

vt 0.133423 0.380859

vt 0.133423 0.380859

vt 0.133423 0.380859

vt 0.133423 0.380859

vt 0.133423 0.380859

vt 0.133423 0.380859

vt 0.133423 0.380859

vt 0.133423 0.380859

vt 0.133423 0.380859

vt 0.133423 0.380859

vt 0.133423 0.380859

vt 0.133423 0.380859

vt 0.133423 0.380859

vt 0.133423 0.380859

vt 0.133423 0.380859

vt 0.133423 0.380859

vt 0.133423 0.380859

vt 0.133423 0.380859

vt 0.133423 0.380859

vt 0.133423 0.380859

vt 0.133423 0.380859

vt 0.133423 0.380859

vt 0.133423 0.380859

vt 0.133423 0.380859

vt 0.133423 0.380859

vt 0.133423 0.380859

vt 0.133423 0.380859

vt 0.133423 0.380859

vt 0.133423 0.380859

vt 0.133423 0.380859

vt 0.133423 0.380859

vt 0.133423 0.380859

vt 0.133423 0.380859

vt 0.133423 0.380859

vt 0.133423 0.380859

vt 0.133423 0.380859

vt 0.133423 0.380859

vt 0.133423 0.380859

vt 0.133423 0.380859

vt 0.133423 0.380859

vt 0.133423 0.380859

vt 0.133423 0.380859

vt 0.133423 0.380859

vt 0.133423 0.380859

vt 0.133423 0.380859

vt 0.133423 0.380859

vt 0.133423 0.380859

vt 0.133423 0.380859

vt 0.133423 0.380859

vt 0.133423 0.380859

vt 0.133423 0.380859

vt 0.133423 0.380859

vt 0.133423 0.380859

vt 0.133423 0.380859

vt 0.133423 0.380859

vt 0.133423 0.380859

vt 0.133423 0.380859

vt 0.133423 0.380859

vt 0.133423 0.380859

vt 0.133423 0.380859

vt 0.133423 0.380859

vt 0.133423 0.380859

vt 0.133423 0.380859

vt 0.133423 0.380859

vt 0.133423 0.380859

vt 0.133423 0.380859

vt 0.133423 0.380859

vt 0.133423 0.380859

vt 0.133423 0.380859

vt 0.133423 0.380859

vt 0.133423 0.380859

vt 0.133423 0.380859

vt 0.133423 0.380859

vt 0.133423 0.380859

vt 0.133423 0.380859

vt 0.133423 0.380859

vt 0.133423 0.380859

vt 0.133423 0.380859

vt 0.133423 0.380859

vt 0.133423 0.380859

vt 0.133423 0.380859

vt 0.133423 0.380859

vt 0.133423 0.380859

vt 0.133423 0.380859

vt 0.133423 0.380859

vt 0.133423 0.380859

vt 0.133423 0.380859

vt 0.133423 0.380859

vt 0.133423 0.380859

vt 0.133423 0.380859

vt 0.133423 0.380859

vt 0.133423 0.380859

vt 0.133423 0.380859

vt 0.133423 0.380859

vt 0.133423 0.380859

vt 0.133423 0.380859

vt 0.133423 0.380859

vt 0.133423 0.380859

vt 0.133423 0.380859

vt 0.133423 0.380859

vt 0.133423 0.380859

vt 0.133423 0.380859

vt 0.133423 0.380859

vt 0.133423 0.380859

vt 0.133545 0.327148

vt 0.133545 0.327148

vt 0.133545 0.327148

vt 0.133545 0.327148

vt 0.133423 0.380859

vt 0.133423 0.380859

vt 0.133423 0.380859

vt 0.133423 0.380859

vt 0.133545 0.327148

vt 0.133545 0.327148

vt 0.133545 0.327148

vt 0.133545 0.327148

vt 0.133423 0.380859

vt 0.133423 0.380859

vt 0.133423 0.380859

vt 0.133423 0.380859

vt 0.133423 0.380859

vt 0.133423 0.380859

vt 0.133423 0.380859

vt 0.133423 0.380859

vt 0.133423 0.380859

vt 0.133423 0.380859

vt 0.133423 0.380859

vt 0.133423 0.380859

vt 0.133423 0.380859

vt 0.133423 0.380859

vt 0.133423 0.380859

vt 0.133423 0.380859

vt 0.133423 0.380859

vt 0.133423 0.380859

vt 0.133423 0.380859

vt 0.133423 0.380859

vt 0.133423 0.380859

vt 0.133423 0.380859

vt 0.133423 0.380859

vt 0.133423 0.380859

vt 0.133423 0.380859

vt 0.133423 0.380859

vt 0.133423 0.380859

vt 0.133423 0.380859

vt 0.133423 0.380859

vt 0.133423 0.380859

vt 0.133423 0.380859

vt 0.133423 0.380859

vt 0.133423 0.380859

vt 0.133423 0.380859

vt 0.133423 0.380859

vt 0.133423 0.380859

vt 0.133423 0.380859

vt 0.133423 0.380859

vt 0.133423 0.380859

vt 0.133423 0.380859

vt 0.133423 0.380859

vt 0.133423 0.380859

vt 0.133423 0.380859

vt 0.133423 0.380859

vt 0.133423 0.380859

vt 0.133423 0.380859

vt 0.133423 0.380859

vt 0.133423 0.380859



vn 0.000000 0.000000 -1.000000

vn 0.000000 0.000000 -1.000000

vn 0.000000 0.000000 -1.000000

vn 0.000000 0.000000 -1.000000

vn 0.000000 0.000000 -1.000000

vn 0.000000 0.000000 -1.000000

vn 0.000000 0.000000 -1.000000

vn 0.000000 0.000000 -1.000000

vn 0.000000 0.000000 -1.000000

vn 0.000000 0.000000 -1.000000

vn 0.000000 0.000000 -1.000000

vn 0.000000 0.000000 -1.000000

vn -0.811024 0.582677 0.000000

vn -0.811024 0.582677 0.000000

vn -0.811024 0.582677 0.000000

vn -0.811024 0.582677 0.000000

vn 0.000000 1.000000 0.000000

vn 0.000000 1.000000 0.000000

vn 0.000000 1.000000 0.000000

vn 0.000000 1.000000 0.000000

vn 1.000000 0.070866 0.000000

vn 1.000000 0.070866 0.000000

vn 1.000000 0.070866 0.000000

vn 1.000000 0.070866 0.000000

vn -0.149606 -0.992126 0.000000

vn -0.149606 -0.992126 0.000000

vn -0.149606 -0.992126 0.000000

vn -0.149606 -0.992126 0.000000

vn 0.874016 0.496063 0.000000

vn 0.874016 0.496063 0.000000

vn 0.874016 0.496063 0.000000

vn 0.874016 0.496063 0.000000

vn -0.921260 -0.393701 0.000000

vn -0.921260 -0.393701 0.000000

vn -0.921260 -0.393701 0.000000

vn -0.921260 -0.393701 0.000000

vn 0.921260 -0.393701 0.000000

vn 0.921260 -0.393701 0.000000

vn 0.921260 -0.393701 0.000000

vn 0.921260 -0.393701 0.000000

vn -0.913386 0.409449 0.000000

vn -0.913386 0.409449 0.000000

vn -0.913386 0.409449 0.000000

vn -0.913386 0.409449 0.000000

vn 0.913386 0.409449 0.000000

vn 0.913386 0.409449 0.000000

vn 0.913386 0.409449 0.000000

vn 0.913386 0.409449 0.000000

vn 0.000000 1.000000 0.000000

vn 0.000000 1.000000 0.000000

vn 0.000000 1.000000 0.000000

vn 0.000000 1.000000 0.000000

vn 0.889764 0.448819 0.000000

vn 0.889764 0.448819 0.000000

vn 0.889764 0.448819 0.000000

vn 0.889764 0.448819 0.000000

vn -0.889764 0.448819 0.000000

vn -0.889764 0.448819 0.000000

vn -0.889764 0.448819 0.000000

vn -0.889764 0.448819 0.000000

vn 0.897638 -0.433071 0.000000

vn 0.897638 -0.433071 0.000000

vn 0.897638 -0.433071 0.000000

vn 0.897638 -0.433071 0.000000

vn 0.000000 -1.000000 0.000000

vn 0.000000 -1.000000 0.000000

vn 0.000000 -1.000000 0.000000

vn 0.000000 -1.000000 0.000000

vn -0.897638 -0.433071 0.000000

vn -0.897638 -0.433071 0.000000

vn -0.897638 -0.433071 0.000000

vn -0.897638 -0.433071 0.000000

vn 0.629921 -0.779528 0.000000

vn 0.629921 -0.779528 0.000000

vn 0.629921 -0.779528 0.000000

vn 0.629921 -0.779528 0.000000

vn -1.000000 0.000000 0.000000

vn -1.000000 0.000000 0.000000

vn -1.000000 0.000000 0.000000

vn -1.000000 0.000000 0.000000

vn 0.000000 0.000000 1.000000

vn 0.000000 0.000000 1.000000

vn 0.000000 0.000000 1.000000

vn 0.000000 0.000000 1.000000

vn 0.000000 0.000000 1.000000

vn 0.000000 0.000000 1.000000

vn 0.000000 0.000000 1.000000

vn 0.000000 0.000000 1.000000

vn 0.000000 0.000000 1.000000

vn 0.000000 0.000000 1.000000

vn 0.000000 0.000000 1.000000

vn 0.000000 0.000000 1.000000

vn -0.503937 -0.858268 0.000000

vn -0.503937 -0.858268 0.000000

vn -0.503937 -0.858268 0.000000

vn -0.503937 -0.858268 0.000000

vn 0.881890 -0.480315 0.000000

vn 0.881890 -0.480315 0.000000

vn 0.881890 -0.480315 0.000000

vn 0.881890 -0.480315 0.000000

vn -0.031496 -1.000000 0.000000

vn -0.031496 -1.000000 0.000000

vn -0.031496 -1.000000 0.000000

vn -0.031496 -1.000000 0.000000

vn -0.968504 -0.236220 0.000000

vn -0.968504 -0.236220 0.000000

vn -0.968504 -0.236220 0.000000

vn -0.968504 -0.236220 0.000000

vn -0.826772 0.566929 0.000000

vn -0.826772 0.566929 0.000000

vn -0.826772 0.566929 0.000000

vn -0.826772 0.566929 0.000000

vn -1.000000 0.000000 0.000000

vn -1.000000 0.000000 0.000000

vn -1.000000 0.000000 0.000000

vn -1.000000 0.000000 0.000000

vn 0.000000 0.000000 1.000000

vn 0.000000 0.000000 1.000000

vn 0.000000 0.000000 1.000000

vn 0.000000 0.000000 1.000000

vn 1.000000 0.000000 0.000000

vn 1.000000 0.000000 0.000000

vn 1.000000 0.000000 0.000000

vn 1.000000 0.000000 0.000000

vn 0.000000 0.000000 -1.000000

vn 0.000000 0.000000 -1.000000

vn 0.000000 0.000000 -1.000000

vn 0.000000 0.000000 -1.000000

vn 0.000000 0.039370 -1.000000

vn 0.000000 0.039370 -1.000000

vn 0.000000 0.039370 -1.000000

vn 0.000000 0.039370 -1.000000

vn 0.000000 0.039370 -1.000000

vn 0.000000 0.039370 -1.000000

vn 0.000000 0.039370 1.000000

vn 0.000000 0.039370 1.000000

vn 0.000000 0.039370 1.000000

vn 0.000000 0.039370 1.000000

vn 0.000000 0.039370 1.000000

vn 0.000000 0.039370 1.000000

vn 0.000000 0.000000 1.000000

vn 0.000000 0.000000 1.000000

vn 0.000000 0.000000 1.000000

vn 0.000000 0.000000 1.000000

vn 0.000000 0.000000 1.000000

vn 0.000000 0.000000 1.000000

vn 0.000000 0.000000 1.000000

vn 0.000000 0.000000 1.000000

vn 0.000000 0.000000 1.000000

vn 0.000000 0.000000 1.000000

vn 0.000000 0.000000 1.000000

vn 0.000000 0.000000 1.000000

vn 0.000000 0.000000 1.000000

vn 0.000000 0.000000 1.000000

vn 0.000000 0.000000 1.000000

vn 0.000000 0.000000 1.000000

vn 0.000000 0.000000 1.000000

vn 0.000000 0.000000 1.000000

vn 0.000000 0.000000 -1.000000

vn 0.000000 0.000000 -1.000000

vn 0.000000 0.000000 -1.000000

vn 0.000000 0.000000 -1.000000

vn 0.000000 0.000000 -1.000000

vn 0.000000 0.000000 -1.000000

vn 0.000000 0.000000 -1.000000

vn 0.000000 0.000000 -1.000000

vn 0.000000 0.000000 -1.000000

vn 0.000000 0.000000 -1.000000

vn 0.000000 0.000000 -1.000000

vn 0.000000 0.000000 -1.000000

vn 0.000000 0.000000 -1.000000

vn 0.000000 0.000000 -1.000000

vn 0.000000 0.000000 -1.000000

vn 0.000000 0.000000 -1.000000

vn 0.000000 0.000000 -1.000000

vn 0.000000 0.000000 -1.000000

f 1/1/1 2/2/2 3/3/3

f 2/2/2 1/1/1 4/4/4

f 5/5/5 6/6/6 7/7/7

f 5/5/5 7/7/7 8/8/8

f 9/9/9 10/10/10 11/11/11

f 10/10/10 9/9/9 12/12/12

f 13/13/13 14/14/14 15/15/15

f 14/14/14 13/13/13 16/16/16

f 17/17/17 18/18/18 19/19/19

f 18/18/18 17/17/17 20/20/20

f 21/21/21 22/22/22 23/23/23

f 21/21/21 23/23/23 24/24/24

f 25/25/25 26/26/26 27/27/27

f 26/26/26 25/25/25 28/28/28

f 29/29/29 30/30/30 31/31/31

f 30/30/30 29/29/29 32/32/32

f 33/33/33 34/34/34 35/35/35

f 34/34/34 33/33/33 36/36/36

f 37/37/37 38/38/38 39/39/39

f 38/38/38 37/37/37 40/40/40

f 41/41/41 42/42/42 43/43/43

f 42/42/42 41/41/41 44/44/44

f 45/45/45 46/46/46 47/47/47

f 46/46/46 45/45/45 48/48/48

f 49/49/49 50/50/50 51/51/51

f 49/49/49 51/51/51 52/52/52

f 53/53/53 54/54/54 55/55/55

f 53/53/53 55/55/55 56/56/56

f 57/57/57 58/58/58 59/59/59

f 57/57/57 59/59/59 60/60/60

f 61/61/61 62/62/62 63/63/63

f 61/61/61 63/63/63 64/64/64

f 65/65/65 66/66/66 67/67/67

f 65/65/65 67/67/67 68/68/68

f 69/69/69 70/70/70 71/71/71

f 69/69/69 71/71/71 72/72/72

f 73/73/73 74/74/74 75/75/75

f 74/74/74 73/73/73 76/76/76

f 77/77/77 78/78/78 79/79/79

f 78/78/78 77/77/77 80/80/80

f 81/81/81 82/82/82 83/83/83

f 82/82/82 81/81/81 84/84/84

f 85/85/85 86/86/86 87/87/87

f 85/85/85 88/88/88 86/86/86

f 89/89/89 90/90/90 91/91/91

f 90/90/90 89/89/89 92/92/92

f 93/93/93 94/94/94 95/95/95

f 95/95/95 94/94/94 96/96/96

f 97/97/97 98/98/98 99/99/99

f 98/98/98 100/100/100 99/99/99

f 101/101/101 102/102/102 103/103/103

f 102/102/102 104/104/104 103/103/103

f 105/105/105 106/106/106 107/107/107

f 106/106/106 108/108/108 107/107/107

f 109/109/109 110/110/110 111/111/111

f 110/110/110 112/112/112 111/111/111

f 113/113/113 114/114/114 115/115/115

f 114/114/114 113/113/113 116/116/116

f 117/117/117 118/118/118 119/119/119

f 119/119/119 118/118/118 120/120/120

f 121/121/121 122/122/122 123/123/123

f 122/122/122 121/121/121 124/124/124

f 125/125/125 126/126/126 127/127/127

f 126/126/126 125/125/125 128/128/128

f 129/129/129 130/130/130 131/131/131

f 131/131/131 132/132/132 129/129/129

f 133/133/133 132/132/132 131/131/131

f 132/132/132 133/133/133 134/134/134

f 135/135/135 136/136/136 137/137/137

f 138/138/138 136/136/136 135/135/135

f 136/136/136 138/138/138 139/139/139

f 139/139/139 138/138/138 140/140/140

f 141/141/141 142/142/142 143/143/143

f 144/144/144 141/141/141 143/143/143

f 141/141/141 145/145/145 142/142/142

f 141/141/141 144/144/144 146/146/146

f 145/145/145 147/147/147 142/142/142

f 144/144/144 148/148/148 146/146/146

f 145/145/145 149/149/149 147/147/147

f 148/148/148 144/144/144 150/150/150

f 151/151/151 147/147/147 149/149/149

f 147/147/147 151/151/151 152/152/152

f 153/153/153 148/148/148 150/150/150

f 152/152/152 153/153/153 150/150/150

f 154/154/154 148/148/148 153/153/153

f 153/153/153 152/152/152 155/155/155

f 155/155/155 152/152/152 151/151/151

f 148/148/148 154/154/154 156/156/156

f 151/151/151 157/157/157 155/155/155

f 158/158/158 156/156/156 154/154/154

f 157/157/157 151/151/151 158/158/158

f 158/158/158 154/154/154 157/157/157

f 159/159/159 160/160/160 161/161/161

f 162/162/162 161/161/161 160/160/160

f 160/160/160 159/159/159 163/163/163

f 164/164/164 163/163/163 159/159/159

f 163/163/163 164/164/164 165/165/165

f 164/164/164 166/166/166 165/165/165

f 166/166/166 164/164/164 167/167/167

f 168/168/168 166/166/166 167/167/167

f 166/166/166 168/168/168 169/169/169

f 162/162/162 160/160/160 170/170/170

f 171/171/171 169/169/169 168/168/168

f 171/171/171 170/170/170 169/169/169

f 168/168/168 172/172/172 171/171/171

f 171/171/171 173/173/173 170/170/170

f 173/173/173 162/162/162 170/170/170

f 172/172/172 168/168/168 174/174/174

f 175/175/175 162/162/162 173/173/173

f 176/176/176 172/172/172 174/174/174

f 162/162/162 175/175/175 176/176/176

f 172/172/172 176/176/176 175/175/175

