# UnrealEd OBJ exporter (_Internal)



v 2.987183 -0.000000 -5.174316

v 2.987183 19.339409 -5.174316

v 5.974487 0.000000 -0.000000

v 5.974487 19.339409 -0.000000

v -2.987305 -0.000000 -5.174316

v -2.987305 19.339409 -5.174316

v 2.987183 -0.000000 -5.174316

v 2.987183 19.339409 -5.174316

v -5.974548 19.339409 -0.000000

v -2.987305 -0.000000 -5.174316

v -5.974548 0.000000 -0.000000

v -2.987305 19.339409 -5.174316

v -2.987305 19.339409 5.174072

v -5.974548 0.000000 -0.000000

v -2.987305 0.000000 5.174072

v -5.974548 19.339409 -0.000000

v -2.987305 19.339409 5.174072

v -2.987305 0.000000 5.174072

v 2.987183 19.339409 5.174072

v 2.987183 0.000000 5.174072

v 5.974487 0.000000 -0.000000

v 5.974487 19.339409 -0.000000

v 2.987183 0.000000 5.174072

v 2.987183 19.339409 5.174072

v 2.306335 19.339409 -3.994873

v 2.127991 2.594223 -3.685791

v 4.612793 19.339409 -0.000000

v 4.256042 2.594223 -0.000000

v -2.306396 19.339409 -3.994873

v 2.127991 2.594223 -3.685791

v 2.306335 19.339409 -3.994873

v -2.128113 2.594223 -3.685791

v -4.612854 19.339409 -0.000000

v -2.128113 2.594223 -3.685791

v -2.306396 19.339409 -3.994873

v -4.256104 2.594223 -0.000000

v -2.128113 2.594223 3.685791

v -4.612854 19.339409 -0.000000

v -2.306396 19.339409 3.994629

v -4.256104 2.594223 -0.000000

v -2.128113 2.594223 3.685791

v -2.306396 19.339409 3.994629

v 2.127991 2.594223 3.685791

v 2.306335 19.339409 3.994629

v 4.612793 19.339409 -0.000000

v 2.127991 2.594223 3.685791

v 2.306335 19.339409 3.994629

v 4.256042 2.594223 -0.000000

v 2.987183 -0.000000 -5.174316

v 5.974487 0.000000 -0.000000

v -0.000061 0.000000 -0.000000

v -2.987305 -0.000000 -5.174316

v 2.987183 0.000000 5.174072

v -5.974548 0.000000 -0.000000

v -2.987305 0.000000 5.174072

v 4.256042 2.594223 -0.000000

v 2.127991 2.594223 -3.685791

v -0.000061 2.594223 -0.000000

v 2.127991 2.594223 3.685791

v -2.128113 2.594223 -3.685791

v -2.128113 2.594223 3.685791

v -4.256104 2.594223 -0.000000

v 5.974487 19.339409 -0.000000

v 2.306335 19.339409 -3.994873

v 4.612793 19.339409 -0.000000

v 2.306335 19.339409 3.994629

v 2.987183 19.339409 -5.174316

v 2.987183 19.339409 5.174072

v -2.306396 19.339409 -3.994873

v -2.306396 19.339409 3.994629

v -2.987305 19.339409 -5.174316

v -2.987305 19.339409 5.174072

v -5.974548 19.339409 -0.000000

v -4.612854 19.339409 -0.000000



vt 0.132690 0.377441

vt 0.132690 0.377441

vt 0.132690 0.377441

vt 0.132690 0.377441

vt 0.132690 0.377441

vt 0.132690 0.377441

vt 0.132690 0.377441

vt 0.132690 0.377441

vt 0.132690 0.377441

vt 0.132690 0.377441

vt 0.132690 0.377441

vt 0.132690 0.377441

vt 0.132690 0.377441

vt 0.132690 0.377441

vt 0.132690 0.377441

vt 0.132690 0.377441

vt 0.132690 0.377441

vt 0.132690 0.377441

vt 0.132690 0.377441

vt 0.132690 0.377441

vt 0.132690 0.377441

vt 0.132690 0.377441

vt 0.132690 0.377441

vt 0.132690 0.377441

vt 0.132690 0.377441

vt 0.132690 0.377441

vt 0.132690 0.377441

vt 0.132690 0.377441

vt 0.132690 0.377441

vt 0.132690 0.377441

vt 0.132690 0.377441

vt 0.132690 0.377441

vt 0.132690 0.377441

vt 0.132690 0.377441

vt 0.132690 0.377441

vt 0.132690 0.377441

vt 0.132690 0.377441

vt 0.132690 0.377441

vt 0.132690 0.377441

vt 0.132690 0.377441

vt 0.132690 0.377441

vt 0.132690 0.377441

vt 0.132690 0.377441

vt 0.132690 0.377441

vt 0.132690 0.377441

vt 0.132690 0.377441

vt 0.132690 0.377441

vt 0.132690 0.377441

vt 0.132690 0.377441

vt 0.132690 0.377441

vt 0.132690 0.377441

vt 0.132690 0.377441

vt 0.132690 0.377441

vt 0.132690 0.377441

vt 0.132690 0.377441

vt 0.132690 0.377441

vt 0.132690 0.377441

vt 0.132690 0.377441

vt 0.132690 0.377441

vt 0.132690 0.377441

vt 0.132690 0.377441

vt 0.132690 0.377441

vt 0.132690 0.377441

vt 0.132690 0.377441

vt 0.132690 0.377441

vt 0.132690 0.377441

vt 0.132690 0.377441

vt 0.132690 0.377441

vt 0.132690 0.377441

vt 0.132690 0.377441

vt 0.132690 0.377441

vt 0.132690 0.377441

vt 0.132690 0.377441

vt 0.132690 0.377441



vn 0.866142 0.000000 -0.496063

vn 0.866142 0.000000 -0.496063

vn 0.866142 0.000000 -0.496063

vn 0.866142 0.000000 -0.496063

vn 0.000000 0.000000 -1.000000

vn 0.000000 0.000000 -1.000000

vn 0.000000 0.000000 -1.000000

vn 0.000000 0.000000 -1.000000

vn -0.866142 0.000000 -0.496063

vn -0.866142 0.000000 -0.496063

vn -0.866142 0.000000 -0.496063

vn -0.866142 0.000000 -0.496063

vn -0.866142 0.000000 0.496063

vn -0.866142 0.000000 0.496063

vn -0.866142 0.000000 0.496063

vn -0.866142 0.000000 0.496063

vn 0.000000 0.000000 1.000000

vn 0.000000 0.000000 1.000000

vn 0.000000 0.000000 1.000000

vn 0.000000 0.000000 1.000000

vn 0.866142 0.000000 0.503937

vn 0.866142 0.000000 0.503937

vn 0.866142 0.000000 0.503937

vn 0.866142 0.000000 0.503937

vn -0.866142 0.015748 0.496063

vn -0.866142 0.015748 0.496063

vn -0.866142 0.015748 0.496063

vn -0.866142 0.015748 0.496063

vn 0.000000 0.015748 1.000000

vn 0.000000 0.015748 1.000000

vn 0.000000 0.015748 1.000000

vn 0.000000 0.015748 1.000000

vn 0.866142 0.015748 0.496063

vn 0.866142 0.015748 0.496063

vn 0.866142 0.015748 0.496063

vn 0.866142 0.015748 0.496063

vn 0.866142 0.015748 -0.496063

vn 0.866142 0.015748 -0.496063

vn 0.866142 0.015748 -0.496063

vn 0.866142 0.015748 -0.496063

vn 0.000000 0.015748 -1.000000

vn 0.000000 0.015748 -1.000000

vn 0.000000 0.015748 -1.000000

vn 0.000000 0.015748 -1.000000

vn -0.866142 0.015748 -0.496063

vn -0.866142 0.015748 -0.496063

vn -0.866142 0.015748 -0.496063

vn -0.866142 0.015748 -0.496063

vn 0.000000 -1.000000 0.000000

vn 0.000000 -1.000000 0.000000

vn 0.000000 -1.000000 0.000000

vn 0.000000 -1.000000 0.000000

vn 0.000000 -1.000000 0.000000

vn 0.000000 -1.000000 0.000000

vn 0.000000 -1.000000 0.000000

vn 0.000000 1.000000 0.000000

vn 0.000000 1.000000 0.000000

vn 0.000000 1.000000 0.000000

vn 0.000000 1.000000 0.000000

vn 0.000000 1.000000 0.000000

vn 0.000000 1.000000 0.000000

vn 0.000000 1.000000 0.000000

vn 0.000000 1.000000 0.000000

vn 0.000000 1.000000 0.000000

vn 0.000000 1.000000 0.000000

vn 0.000000 1.000000 0.000000

vn 0.000000 1.000000 0.000000

vn 0.000000 1.000000 0.000000

vn 0.000000 1.000000 0.000000

vn 0.000000 1.000000 0.000000

vn 0.000000 1.000000 0.000000

vn 0.000000 1.000000 0.000000

vn 0.000000 1.000000 0.000000

vn 0.000000 1.000000 0.000000

f 1/1/1 2/2/2 3/3/3

f 4/4/4 3/3/3 2/2/2

f 5/5/5 6/6/6 7/7/7

f 7/7/7 6/6/6 8/8/8

f 9/9/9 10/10/10 11/11/11

f 10/10/10 9/9/9 12/12/12

f 13/13/13 14/14/14 15/15/15

f 14/14/14 13/13/13 16/16/16

f 17/17/17 18/18/18 19/19/19

f 19/19/19 18/18/18 20/20/20

f 21/21/21 22/22/22 23/23/23

f 24/24/24 23/23/23 22/22/22

f 25/25/25 26/26/26 27/27/27

f 28/28/28 27/27/27 26/26/26

f 29/29/29 30/30/30 31/31/31

f 30/30/30 29/29/29 32/32/32

f 33/33/33 34/34/34 35/35/35

f 34/34/34 33/33/33 36/36/36

f 37/37/37 38/38/38 39/39/39

f 38/38/38 37/37/37 40/40/40

f 41/41/41 42/42/42 43/43/43

f 43/43/43 42/42/42 44/44/44

f 45/45/45 46/46/46 47/47/47

f 46/46/46 45/45/45 48/48/48

f 49/49/49 50/50/50 51/51/51

f 52/52/52 49/49/49 51/51/51

f 50/50/50 53/53/53 51/51/51

f 54/54/54 52/52/52 51/51/51

f 53/53/53 55/55/55 51/51/51

f 55/55/55 54/54/54 51/51/51

f 56/56/56 57/57/57 58/58/58

f 59/59/59 56/56/56 58/58/58

f 57/57/57 60/60/60 58/58/58

f 61/61/61 59/59/59 58/58/58

f 60/60/60 62/62/62 58/58/58

f 62/62/62 61/61/61 58/58/58

f 63/63/63 64/64/64 65/65/65

f 66/66/66 63/63/63 65/65/65

f 64/64/64 63/63/63 67/67/67

f 63/63/63 66/66/66 68/68/68

f 67/67/67 69/69/69 64/64/64

f 70/70/70 68/68/68 66/66/66

f 67/67/67 71/71/71 69/69/69

f 68/68/68 70/70/70 72/72/72

f 73/73/73 69/69/69 71/71/71

f 74/74/74 72/72/72 70/70/70

f 69/69/69 73/73/73 74/74/74

f 72/72/72 74/74/74 73/73/73

