# UnrealEd OBJ exporter (_Internal)



v -99.226685 70.240753 9.834473

v -100.000122 67.881546 3.706543

v -99.226685 67.881546 9.834473

v -100.000122 71.344086 3.706543

v -99.226685 70.240753 9.834473

v -0.000122 71.344086 3.706543

v -100.000122 71.344086 3.706543

v -0.773071 70.240753 9.834473

v -0.000122 67.881546 3.706543

v -0.773071 70.240753 9.834473

v -0.773071 67.881546 9.834473

v -0.000122 71.344086 3.706543

v -99.226685 -70.240730 9.834473

v -0.000122 -71.344086 3.706543

v -0.773071 -70.240730 9.834473

v -100.000122 -71.344086 3.706543

v -0.000122 67.881546 3.706543

v -100.000122 67.881546 3.706543

v -100.000122 71.344086 3.706543

v -0.000122 71.344086 3.706543

v -99.226685 -70.240730 9.834473

v -100.000122 67.881546 3.706543

v -100.000122 -71.344086 3.706543

v -99.226685 67.881546 9.834473

v -0.000122 -71.344086 3.706543

v -0.000122 67.881546 3.706543

v -0.773071 -70.240730 9.834473

v -0.773071 67.881546 9.834473

v -9.758423 -8.848579 -2.086914

v -90.241333 -8.848579 -2.086914

v -90.241333 22.325714 -2.086914

v -9.758423 22.325714 -2.086914

v -5.811157 -65.709572 3.706543

v -94.189087 -65.709572 3.706543

v -90.241333 -62.842163 -2.086914

v -9.758423 -62.842163 -2.086914

v -5.811157 66.906723 3.706543

v -90.241333 64.039246 -2.086914

v -94.189087 66.906662 3.706543

v -9.758423 64.039307 -2.086914

v -90.241333 -21.357704 -2.086914

v -9.758423 -51.059181 -2.086914

v -90.241333 -51.059181 -2.086914

v -9.758423 -21.357704 -2.086914

v -15.652222 26.815338 -9.834717

v -84.348022 26.815338 -9.834717

v -84.348022 34.834846 -9.834717

v -15.652222 34.834846 -9.834717

v -15.652222 -58.352535 -9.834717

v -84.348022 -58.352535 -9.834717

v -84.348022 -51.059181 -9.834717

v -15.652222 -51.059181 -9.834717

v -15.652222 -16.868076 -9.834717

v -84.348022 -16.868076 -9.834717

v -84.348022 -8.848579 -9.834717

v -15.652222 -8.848579 -9.834717

v -9.758423 34.834846 -2.086914

v -90.241333 34.834846 -2.086914

v -90.241333 64.039246 -2.086914

v -9.758423 64.039307 -2.086914

v -90.241333 22.325714 -2.086914

v -15.652222 26.815338 -9.834717

v -9.758423 22.325714 -2.086914

v -84.348022 26.815338 -9.834717

v -90.241333 34.834846 -2.086914

v -84.348022 26.815338 -9.834717

v -90.241333 22.325714 -2.086914

v -84.348022 34.834846 -9.834717

v -90.241333 34.834846 -2.086914

v -9.758423 34.834846 -2.086914

v -15.652222 34.834846 -9.834717

v -84.348022 34.834846 -9.834717

v -9.758423 22.325714 -2.086914

v -15.652222 26.815338 -9.834717

v -9.758423 34.834846 -2.086914

v -15.652222 34.834846 -9.834717

v -90.241333 -62.842163 -2.086914

v -15.652222 -58.352535 -9.834717

v -9.758423 -62.842163 -2.086914

v -84.348022 -58.352535 -9.834717

v -90.241333 -51.059181 -2.086914

v -84.348022 -58.352535 -9.834717

v -90.241333 -62.842163 -2.086914

v -84.348022 -51.059181 -9.834717

v -90.241333 -51.059181 -2.086914

v -9.758423 -51.059181 -2.086914

v -15.652222 -51.059181 -9.834717

v -84.348022 -51.059181 -9.834717

v -9.758423 -62.842163 -2.086914

v -15.652222 -58.352535 -9.834717

v -9.758423 -51.059181 -2.086914

v -15.652222 -51.059181 -9.834717

v -90.241333 -21.357704 -2.086914

v -15.652222 -16.868076 -9.834717

v -9.758423 -21.357704 -2.086914

v -84.348022 -16.868076 -9.834717

v -90.241333 -8.848579 -2.086914

v -84.348022 -16.868076 -9.834717

v -90.241333 -21.357704 -2.086914

v -84.348022 -8.848579 -9.834717

v -90.241333 -8.848579 -2.086914

v -9.758423 -8.848579 -2.086914

v -15.652222 -8.848579 -9.834717

v -84.348022 -8.848579 -9.834717

v -9.758423 -21.357704 -2.086914

v -15.652222 -16.868076 -9.834717

v -9.758423 -8.848579 -2.086914

v -15.652222 -8.848579 -9.834717

v -87.539185 64.473282 9.834473

v -72.916138 67.881546 9.834473

v -89.380981 67.881546 9.834473

v -74.680054 64.473282 9.834473

v -99.226685 67.881546 9.834473

v -89.380981 67.881546 9.834473

v -99.226685 70.240753 9.834473

v -72.916138 67.881546 9.834473

v -0.773071 70.240753 9.834473

v -0.773071 67.881546 9.834473

v -99.226685 67.881546 9.834473

v -87.539185 64.473282 9.834473

v -89.380981 67.881546 9.834473

v -99.226685 -70.240730 9.834473

v -74.680054 64.473282 9.834473

v -0.773071 -70.240730 9.834473

v -0.773071 67.881546 9.834473

v -72.916138 67.881546 9.834473

v -5.811157 66.906723 3.706543

v -9.758423 34.834846 -2.086914

v -9.758423 64.039307 -2.086914

v -5.811157 0.598572 3.706543

v -9.758423 22.325714 -2.086914

v -9.758423 -8.848579 -2.086914

v -9.758423 -21.357704 -2.086914

v -5.811157 -65.709572 3.706543

v -9.758423 -51.059181 -2.086914

v -9.758423 -62.842163 -2.086914

v -90.241333 34.834846 -2.086914

v -94.189087 66.906662 3.706543

v -90.241333 64.039246 -2.086914

v -94.189087 0.598541 3.706543

v -90.241333 22.325714 -2.086914

v -90.241333 -8.848579 -2.086914

v -90.241333 -21.357704 -2.086914

v -94.189087 -65.709572 3.706543

v -90.241333 -51.059181 -2.086914

v -90.241333 -62.842163 -2.086914

v -0.000122 -71.344086 3.706543

v -94.189087 -65.709572 3.706543

v -5.811157 -65.709572 3.706543

v -5.811157 0.598572 3.706543

v -100.000122 -71.344086 3.706543

v -0.000122 67.881546 3.706543

v -94.189087 0.598541 3.706543

v -5.811157 66.906723 3.706543

v -100.000122 67.881546 3.706543

v -94.189087 66.906662 3.706543



vt 0.111572 0.329102

vt 0.111572 0.329102

vt 0.111572 0.329102

vt 0.111572 0.329102

vt 0.111572 0.329102

vt 0.111572 0.329102

vt 0.111572 0.329102

vt 0.111572 0.329102

vt 0.111572 0.329102

vt 0.111572 0.329102

vt 0.111572 0.329102

vt 0.111572 0.329102

vt 0.113281 0.376953

vt 0.113281 0.376953

vt 0.113281 0.376953

vt 0.113281 0.376953

vt 0.111572 0.329102

vt 0.111572 0.329102

vt 0.111572 0.329102

vt 0.111572 0.329102

vt 0.113281 0.376953

vt 0.113281 0.376953

vt 0.113281 0.376953

vt 0.113281 0.376953

vt 0.113281 0.376953

vt 0.113281 0.376953

vt 0.113281 0.376953

vt 0.113281 0.376953

vt 0.134766 0.377930

vt 0.134766 0.377930

vt 0.134766 0.377930

vt 0.134766 0.377930

vt 0.134766 0.377930

vt 0.134766 0.377930

vt 0.134766 0.377930

vt 0.134766 0.377930

vt 0.134766 0.377930

vt 0.134766 0.377930

vt 0.134766 0.377930

vt 0.134766 0.377930

vt 0.134766 0.377930

vt 0.134766 0.377930

vt 0.134766 0.377930

vt 0.134766 0.377930

vt 0.134766 0.377930

vt 0.134766 0.377930

vt 0.134766 0.377930

vt 0.134766 0.377930

vt 0.134766 0.377930

vt 0.134766 0.377930

vt 0.134766 0.377930

vt 0.134766 0.377930

vt 0.134766 0.377930

vt 0.134766 0.377930

vt 0.134766 0.377930

vt 0.134766 0.377930

vt 0.134766 0.377930

vt 0.134766 0.377930

vt 0.134766 0.377930

vt 0.134766 0.377930

vt 0.134766 0.377930

vt 0.134766 0.377930

vt 0.134766 0.377930

vt 0.134766 0.377930

vt 0.134766 0.377930

vt 0.134766 0.377930

vt 0.134766 0.377930

vt 0.134766 0.377930

vt 0.134766 0.377930

vt 0.134766 0.377930

vt 0.134766 0.377930

vt 0.134766 0.377930

vt 0.134766 0.377930

vt 0.134766 0.377930

vt 0.134766 0.377930

vt 0.134766 0.377930

vt 0.134766 0.377930

vt 0.134766 0.377930

vt 0.134766 0.377930

vt 0.134766 0.377930

vt 0.134766 0.377930

vt 0.134766 0.377930

vt 0.134766 0.377930

vt 0.134766 0.377930

vt 0.134766 0.377930

vt 0.134766 0.377930

vt 0.134766 0.377930

vt 0.134766 0.377930

vt 0.134766 0.377930

vt 0.134766 0.377930

vt 0.134766 0.377930

vt 0.134766 0.377930

vt 0.134766 0.377930

vt 0.134766 0.377930

vt 0.134766 0.377930

vt 0.134766 0.377930

vt 0.134766 0.377930

vt 0.134766 0.377930

vt 0.134766 0.377930

vt 0.134766 0.377930

vt 0.134766 0.377930

vt 0.134766 0.377930

vt 0.134766 0.377930

vt 0.134766 0.377930

vt 0.134766 0.377930

vt 0.134766 0.377930

vt 0.134766 0.377930

vt 0.134766 0.377930

vt 0.112305 0.328125

vt 0.112305 0.328125

vt 0.112305 0.328125

vt 0.112305 0.328125

vt 0.111572 0.329102

vt 0.111572 0.329102

vt 0.111572 0.329102

vt 0.111572 0.329102

vt 0.111572 0.329102

vt 0.111572 0.329102

vt 0.113281 0.376953

vt 0.113281 0.376953

vt 0.113281 0.376953

vt 0.113281 0.376953

vt 0.113281 0.376953

vt 0.113281 0.376953

vt 0.113281 0.376953

vt 0.113281 0.376953

vt 0.134766 0.377930

vt 0.134766 0.377930

vt 0.134766 0.377930

vt 0.134766 0.377930

vt 0.134766 0.377930

vt 0.134766 0.377930

vt 0.134766 0.377930

vt 0.134766 0.377930

vt 0.134766 0.377930

vt 0.134766 0.377930

vt 0.134766 0.377930

vt 0.134766 0.377930

vt 0.134766 0.377930

vt 0.134766 0.377930

vt 0.134766 0.377930

vt 0.134766 0.377930

vt 0.134766 0.377930

vt 0.134766 0.377930

vt 0.134766 0.377930

vt 0.134766 0.377930

vt 0.113281 0.376953

vt 0.113281 0.376953

vt 0.113281 0.376953

vt 0.113281 0.376953

vt 0.113281 0.376953

vt 0.113281 0.376953

vt 0.113281 0.376953

vt 0.113281 0.376953

vt 0.113281 0.376953

vt 0.113281 0.376953



vn -0.992126 0.000000 0.125984

vn -0.992126 0.000000 0.125984

vn -0.992126 0.000000 0.125984

vn -0.992126 0.000000 0.125984

vn 0.000000 0.984252 0.181102

vn 0.000000 0.984252 0.181102

vn 0.000000 0.984252 0.181102

vn 0.000000 0.984252 0.181102

vn 0.992126 0.000000 0.125984

vn 0.992126 0.000000 0.125984

vn 0.992126 0.000000 0.125984

vn 0.992126 0.000000 0.125984

vn 0.000000 -0.984252 0.181102

vn 0.000000 -0.984252 0.181102

vn 0.000000 -0.984252 0.181102

vn 0.000000 -0.984252 0.181102

vn 0.000000 0.000000 -1.000000

vn 0.000000 0.000000 -1.000000

vn 0.000000 0.000000 -1.000000

vn 0.000000 0.000000 -1.000000

vn -0.992126 0.000000 0.125984

vn -0.992126 0.000000 0.125984

vn -0.992126 0.000000 0.125984

vn -0.992126 0.000000 0.125984

vn 0.992126 0.000000 0.125984

vn 0.992126 0.000000 0.125984

vn 0.992126 0.000000 0.125984

vn 0.992126 0.000000 0.125984

vn 0.000000 0.000000 -1.000000

vn 0.000000 0.000000 -1.000000

vn 0.000000 0.000000 -1.000000

vn 0.000000 0.000000 -1.000000

vn 0.000000 -0.897638 -0.440945

vn 0.000000 -0.897638 -0.440945

vn 0.000000 -0.897638 -0.440945

vn 0.000000 -0.897638 -0.440945

vn 0.000000 0.897638 -0.440945

vn 0.000000 0.897638 -0.440945

vn 0.000000 0.897638 -0.440945

vn 0.000000 0.897638 -0.440945

vn 0.000000 0.000000 -1.000000

vn 0.000000 0.000000 -1.000000

vn 0.000000 0.000000 -1.000000

vn 0.000000 0.000000 -1.000000

vn 0.000000 0.000000 -1.000000

vn 0.000000 0.000000 -1.000000

vn 0.000000 0.000000 -1.000000

vn 0.000000 0.000000 -1.000000

vn 0.000000 0.000000 -1.000000

vn 0.000000 0.000000 -1.000000

vn 0.000000 0.000000 -1.000000

vn 0.000000 0.000000 -1.000000

vn 0.000000 0.000000 -1.000000

vn 0.000000 0.000000 -1.000000

vn 0.000000 0.000000 -1.000000

vn 0.000000 0.000000 -1.000000

vn 0.000000 0.000000 -1.000000

vn 0.000000 0.000000 -1.000000

vn 0.000000 0.000000 -1.000000

vn 0.000000 0.000000 -1.000000

vn 0.000000 -0.866142 -0.503937

vn 0.000000 -0.866142 -0.503937

vn 0.000000 -0.866142 -0.503937

vn 0.000000 -0.866142 -0.503937

vn -0.795276 0.000000 -0.606299

vn -0.795276 0.000000 -0.606299

vn -0.795276 0.000000 -0.606299

vn -0.795276 0.000000 -0.606299

vn 0.000000 1.000000 0.000000

vn 0.000000 1.000000 0.000000

vn 0.000000 1.000000 0.000000

vn 0.000000 1.000000 0.000000

vn 0.795276 0.000000 -0.606299

vn 0.795276 0.000000 -0.606299

vn 0.795276 0.000000 -0.606299

vn 0.795276 0.000000 -0.606299

vn 0.000000 -0.866142 -0.503937

vn 0.000000 -0.866142 -0.503937

vn 0.000000 -0.866142 -0.503937

vn 0.000000 -0.866142 -0.503937

vn -0.795276 0.000000 -0.606299

vn -0.795276 0.000000 -0.606299

vn -0.795276 0.000000 -0.606299

vn -0.795276 0.000000 -0.606299

vn 0.000000 1.000000 0.000000

vn 0.000000 1.000000 0.000000

vn 0.000000 1.000000 0.000000

vn 0.000000 1.000000 0.000000

vn 0.795276 0.000000 -0.606299

vn 0.795276 0.000000 -0.606299

vn 0.795276 0.000000 -0.606299

vn 0.795276 0.000000 -0.606299

vn 0.000000 -0.866142 -0.503937

vn 0.000000 -0.866142 -0.503937

vn 0.000000 -0.866142 -0.503937

vn 0.000000 -0.866142 -0.503937

vn -0.795276 0.000000 -0.606299

vn -0.795276 0.000000 -0.606299

vn -0.795276 0.000000 -0.606299

vn -0.795276 0.000000 -0.606299

vn 0.000000 1.000000 0.000000

vn 0.000000 1.000000 0.000000

vn 0.000000 1.000000 0.000000

vn 0.000000 1.000000 0.000000

vn 0.795276 0.000000 -0.606299

vn 0.795276 0.000000 -0.606299

vn 0.795276 0.000000 -0.606299

vn 0.795276 0.000000 -0.606299

vn 0.000000 0.000000 1.000000

vn 0.000000 0.000000 1.000000

vn 0.000000 0.000000 1.000000

vn 0.000000 0.000000 1.000000

vn 0.000000 0.000000 1.000000

vn 0.000000 0.000000 1.000000

vn 0.000000 0.000000 1.000000

vn 0.000000 0.000000 1.000000

vn 0.000000 0.000000 1.000000

vn 0.000000 0.000000 1.000000

vn 0.000000 0.000000 1.000000

vn 0.000000 0.000000 1.000000

vn 0.000000 0.000000 1.000000

vn 0.000000 0.000000 1.000000

vn 0.000000 0.000000 1.000000

vn 0.000000 0.000000 1.000000

vn 0.000000 0.000000 1.000000

vn 0.000000 0.000000 1.000000

vn 0.826772 0.000000 -0.566929

vn 0.826772 0.000000 -0.566929

vn 0.826772 0.000000 -0.566929

vn 0.826772 0.000000 -0.566929

vn 0.826772 0.000000 -0.566929

vn 0.826772 0.000000 -0.566929

vn 0.826772 0.000000 -0.566929

vn 0.826772 0.000000 -0.566929

vn 0.826772 0.000000 -0.566929

vn 0.826772 0.000000 -0.566929

vn -0.826772 0.000000 -0.566929

vn -0.826772 0.000000 -0.566929

vn -0.826772 0.000000 -0.566929

vn -0.826772 0.000000 -0.566929

vn -0.826772 0.000000 -0.566929

vn -0.826772 0.000000 -0.566929

vn -0.826772 0.000000 -0.566929

vn -0.826772 0.000000 -0.566929

vn -0.826772 0.000000 -0.566929

vn -0.826772 0.000000 -0.566929

vn 0.000000 0.000000 -1.000000

vn 0.000000 0.000000 -1.000000

vn 0.000000 0.000000 -1.000000

vn 0.000000 0.000000 -1.000000

vn 0.000000 0.000000 -1.000000

vn 0.000000 0.000000 -1.000000

vn 0.000000 0.000000 -1.000000

vn 0.000000 0.000000 -1.000000

vn 0.000000 0.000000 -1.000000

vn 0.000000 0.000000 -1.000000

f 1/1/1 2/2/2 3/3/3

f 2/2/2 1/1/1 4/4/4

f 5/5/5 6/6/6 7/7/7

f 6/6/6 5/5/5 8/8/8

f 9/9/9 10/10/10 11/11/11

f 10/10/10 9/9/9 12/12/12

f 13/13/13 14/14/14 15/15/15

f 14/14/14 13/13/13 16/16/16

f 17/17/17 18/18/18 19/19/19

f 17/17/17 19/19/19 20/20/20

f 21/21/21 22/22/22 23/23/23

f 22/22/22 21/21/21 24/24/24

f 25/25/25 26/26/26 27/27/27

f 28/28/28 27/27/27 26/26/26

f 29/29/29 30/30/30 31/31/31

f 29/29/29 31/31/31 32/32/32

f 33/33/33 34/34/34 35/35/35

f 33/33/33 35/35/35 36/36/36

f 37/37/37 38/38/38 39/39/39

f 38/38/38 37/37/37 40/40/40

f 41/41/41 42/42/42 43/43/43

f 42/42/42 41/41/41 44/44/44

f 45/45/45 46/46/46 47/47/47

f 45/45/45 47/47/47 48/48/48

f 49/49/49 50/50/50 51/51/51

f 49/49/49 51/51/51 52/52/52

f 53/53/53 54/54/54 55/55/55

f 53/53/53 55/55/55 56/56/56

f 57/57/57 58/58/58 59/59/59

f 57/57/57 59/59/59 60/60/60

f 61/61/61 62/62/62 63/63/63

f 62/62/62 61/61/61 64/64/64

f 65/65/65 66/66/66 67/67/67

f 66/66/66 65/65/65 68/68/68

f 69/69/69 70/70/70 71/71/71

f 69/69/69 71/71/71 72/72/72

f 73/73/73 74/74/74 75/75/75

f 75/75/75 74/74/74 76/76/76

f 77/77/77 78/78/78 79/79/79

f 78/78/78 77/77/77 80/80/80

f 81/81/81 82/82/82 83/83/83

f 82/82/82 81/81/81 84/84/84

f 85/85/85 86/86/86 87/87/87

f 85/85/85 87/87/87 88/88/88

f 89/89/89 90/90/90 91/91/91

f 91/91/91 90/90/90 92/92/92

f 93/93/93 94/94/94 95/95/95

f 94/94/94 93/93/93 96/96/96

f 97/97/97 98/98/98 99/99/99

f 98/98/98 97/97/97 100/100/100

f 101/101/101 102/102/102 103/103/103

f 101/101/101 103/103/103 104/104/104

f 105/105/105 106/106/106 107/107/107

f 107/107/107 106/106/106 108/108/108

f 109/109/109 110/110/110 111/111/111

f 110/110/110 109/109/109 112/112/112

f 113/113/113 114/114/114 115/115/115

f 116/116/116 115/115/115 114/114/114

f 117/117/117 115/115/115 116/116/116

f 117/117/117 116/116/116 118/118/118

f 119/119/119 120/120/120 121/121/121

f 122/122/122 120/120/120 119/119/119

f 122/122/122 123/123/123 120/120/120

f 123/123/123 122/122/122 124/124/124

f 124/124/124 125/125/125 123/123/123

f 123/123/123 125/125/125 126/126/126

f 127/127/127 128/128/128 129/129/129

f 130/130/130 128/128/128 127/127/127

f 130/130/130 131/131/131 128/128/128

f 130/130/130 132/132/132 131/131/131

f 130/130/130 133/133/133 132/132/132

f 134/134/134 133/133/133 130/130/130

f 134/134/134 135/135/135 133/133/133

f 134/134/134 136/136/136 135/135/135

f 137/137/137 138/138/138 139/139/139

f 137/137/137 140/140/140 138/138/138

f 137/137/137 141/141/141 140/140/140

f 140/140/140 141/141/141 142/142/142

f 140/140/140 142/142/142 143/143/143

f 140/140/140 143/143/143 144/144/144

f 144/144/144 143/143/143 145/145/145

f 144/144/144 145/145/145 146/146/146

f 147/147/147 148/148/148 149/149/149

f 150/150/150 147/147/147 149/149/149

f 148/148/148 147/147/147 151/151/151

f 152/152/152 147/147/147 150/150/150

f 151/151/151 153/153/153 148/148/148

f 150/150/150 154/154/154 152/152/152

f 151/151/151 155/155/155 153/153/153

f 154/154/154 155/155/155 152/152/152

f 153/153/153 155/155/155 156/156/156

f 155/155/155 154/154/154 156/156/156

