# UnrealEd OBJ exporter (_Internal)



v -45.319759 55.062408 -0.000000

v -45.319759 -0.000000 -3.572998

v -45.319759 0.000000 -0.000000

v -45.319759 55.062408 -3.572998

v 45.319645 55.062408 -0.000000

v -45.319759 55.062408 -3.572998

v -45.319759 55.062408 -0.000000

v 45.319645 55.062408 -3.572998

v 45.319645 0.000000 -0.000000

v 45.319645 55.062408 -3.572998

v 45.319645 55.062408 -0.000000

v 45.319645 -0.000000 -3.572998

v -45.319759 0.000000 -0.000000

v 45.319645 -0.000000 -3.572998

v 45.319645 0.000000 -0.000000

v -45.319759 -0.000000 -3.572998

v 49.090885 -2.563152 1.745605

v -49.091000 -2.563152 1.745605

v -45.319759 0.000000 -0.000000

v 45.319645 0.000000 -0.000000

v 49.090885 57.624390 1.745605

v 49.090885 -2.563152 1.745605

v 45.319645 0.000000 -0.000000

v 45.319645 55.062408 -0.000000

v -49.091000 57.624390 1.745605

v 49.090885 57.624390 1.745605

v 45.319645 55.062408 -0.000000

v -45.319759 55.062408 -0.000000

v -45.319759 0.000000 -0.000000

v -49.091000 57.624390 1.745605

v -45.319759 55.062408 -0.000000

v -49.091000 -2.563152 1.745605

v 49.090885 -2.563152 5.082520

v -49.091000 -2.563152 5.082520

v -49.091000 -2.563152 1.745605

v 49.090885 -2.563152 1.745605

v 49.090885 57.624390 5.082520

v 49.090885 -2.563152 5.082520

v 49.090885 -2.563152 1.745605

v 49.090885 57.624390 1.745605

v -49.091000 57.624390 5.082520

v 49.090885 57.624390 5.082520

v 49.090885 57.624390 1.745605

v -49.091000 57.624390 1.745605

v -49.091000 -2.563152 5.082520

v -49.091000 57.624390 5.082520

v -49.091000 57.624390 1.745605

v -49.091000 -2.563152 1.745605

v 26.794985 54.914291 11.846680

v 22.667543 55.483948 5.082520

v 21.756655 54.914291 9.445068

v 32.382145 55.483948 5.082520

v 21.756655 51.501076 9.445068

v 21.756655 54.914291 9.445068

v 22.667543 55.483948 5.082520

v 22.667543 50.931419 5.082520

v 21.756655 51.501076 9.445068

v 22.667543 50.931419 5.082520

v 26.795107 51.501076 11.846680

v 32.382267 50.931419 5.082520

v 26.795107 51.501076 11.846680

v 32.382267 50.931419 5.082520

v 26.794985 54.914291 11.846680

v 32.382145 55.483948 5.082520

v -21.756407 54.914291 9.445068

v -21.756407 51.501076 9.445068

v -22.667540 50.931419 5.082520

v -22.667540 55.483948 5.082520

v -21.756407 54.914291 9.445068

v -22.667540 55.483948 5.082520

v -26.794859 54.914291 11.846680

v -32.382137 55.483948 5.082520

v -26.794859 54.914291 11.846680

v -32.382137 55.483948 5.082520

v -26.794981 51.501076 11.846680

v -32.382259 50.931419 5.082520

v -26.794981 51.501076 11.846680

v -22.667540 50.931419 5.082520

v -21.756407 51.501076 9.445068

v -32.382259 50.931419 5.082520

v 21.756655 54.914291 9.445068

v 0.000063 54.712029 12.385254

v 26.794985 54.914291 11.846680

v 0.000063 54.712029 10.528564

v 0.000063 51.703346 10.528564

v 21.756655 54.914291 9.445068

v 21.756655 51.501076 9.445068

v 0.000063 54.712029 10.528564

v 26.795107 51.501076 11.846680

v 0.000063 51.703346 12.385254

v 21.756655 51.501076 9.445068

v 0.000063 51.703346 10.528564

v 26.794985 54.914291 11.846680

v 0.000063 51.703346 12.385254

v 26.795107 51.501076 11.846680

v 0.000063 54.712029 12.385254

v -21.756407 54.914291 9.445068

v 0.000063 51.703346 10.528564

v -21.756407 51.501076 9.445068

v 0.000063 54.712029 10.528564

v -26.794859 54.914291 11.846680

v 0.000063 54.712029 12.385254

v -21.756407 54.914291 9.445068

v 0.000063 54.712029 10.528564

v -26.794981 51.501076 11.846680

v 0.000063 51.703346 12.385254

v -26.794859 54.914291 11.846680

v 0.000063 54.712029 12.385254

v -21.756407 51.501076 9.445068

v 0.000063 51.703346 12.385254

v -26.794981 51.501076 11.846680

v 0.000063 51.703346 10.528564

v -34.896542 11.801155 5.082520

v 34.896549 11.801155 5.082520

v 34.896549 11.801155 -0.000000

v -34.896542 11.801155 -0.000000

v 34.896549 11.801155 5.082520

v 34.896549 48.790977 5.082520

v 34.896549 48.790977 -0.000000

v 34.896549 11.801155 -0.000000

v 34.896549 48.790977 5.082520

v -34.896542 48.790977 5.082520

v -34.896542 48.790977 -0.000000

v 34.896549 48.790977 -0.000000

v -34.896542 48.790977 5.082520

v -34.896542 11.801155 5.082520

v -34.896542 11.801155 -0.000000

v -34.896542 48.790977 -0.000000

v 39.467960 8.165810 -3.572998

v 34.896549 48.790977 -0.000000

v 39.467960 52.426331 -3.572998

v 34.896549 11.801155 -0.000000

v 39.467960 8.165810 -3.572998

v -39.467953 8.165810 -3.572998

v -34.896542 11.801155 -0.000000

v 34.896549 11.801155 -0.000000

v -34.896542 48.790977 -0.000000

v -34.896542 11.801155 -0.000000

v -39.467953 8.165810 -3.572998

v -39.467953 52.426331 -3.572998

v -39.467953 52.426331 -3.572998

v 39.467960 52.426331 -3.572998

v 34.896549 48.790977 -0.000000

v -34.896542 48.790977 -0.000000

v 49.090885 -2.563152 5.082520

v -34.896542 11.801155 5.082520

v -49.091000 -2.563152 5.082520

v -49.091000 57.624390 5.082520

v 34.896549 11.801155 5.082520

v 49.090885 57.624390 5.082520

v -34.896542 48.790977 5.082520

v 34.896549 48.790977 5.082520

v -32.382137 55.483948 5.082520

v -32.382259 50.931419 5.082520

v -22.667540 55.483948 5.082520

v -22.667540 50.931419 5.082520

v 22.667543 55.483948 5.082520

v 22.667543 50.931419 5.082520

v 32.382145 55.483948 5.082520

v 32.382267 50.931419 5.082520

v 45.319645 -0.000000 -3.572998

v -45.319759 -0.000000 -3.572998

v -39.467953 8.165810 -3.572998

v -45.319759 55.062408 -3.572998

v 39.467960 8.165810 -3.572998

v -39.467953 52.426331 -3.572998

v 45.319645 55.062408 -3.572998

v 39.467960 52.426331 -3.572998

v 26.621889 41.742493 2.687012

v -26.621763 41.742493 2.687012

v -26.621763 18.109852 2.687012

v 26.621889 18.109852 2.687012

v 34.896549 48.790977 2.687012

v -34.896664 48.790977 2.687012

v -26.621763 41.742493 2.687012

v -34.896664 11.801159 2.687012

v 26.621889 41.742493 2.687012

v -26.621763 18.109852 2.687012

v 34.896549 11.801159 2.687012

v 26.621889 18.109852 2.687012



vt 0.102783 0.231445

vt 0.102783 0.231445

vt 0.102783 0.231445

vt 0.102783 0.231445

vt 0.102783 0.231445

vt 0.102783 0.231445

vt 0.102783 0.231445

vt 0.102783 0.231445

vt 0.102783 0.231445

vt 0.102783 0.231445

vt 0.102783 0.231445

vt 0.102783 0.231445

vt 0.102783 0.231445

vt 0.102783 0.231445

vt 0.102783 0.231445

vt 0.102783 0.231445

vt 0.090027 0.354004

vt 0.090027 0.354004

vt 0.090027 0.354004

vt 0.090027 0.354004

vt 0.090027 0.354004

vt 0.090027 0.354004

vt 0.090027 0.354004

vt 0.090027 0.354004

vt 0.090027 0.354004

vt 0.090027 0.354004

vt 0.090027 0.354004

vt 0.090027 0.354004

vt 0.090027 0.354004

vt 0.090027 0.354004

vt 0.090027 0.354004

vt 0.090027 0.354004

vt 0.090027 0.354004

vt 0.090027 0.354004

vt 0.090027 0.354004

vt 0.090027 0.354004

vt 0.090027 0.354004

vt 0.090027 0.354004

vt 0.090027 0.354004

vt 0.090027 0.354004

vt 0.090027 0.354004

vt 0.090027 0.354004

vt 0.090027 0.354004

vt 0.090027 0.354004

vt 0.090027 0.354004

vt 0.090027 0.354004

vt 0.090027 0.354004

vt 0.090027 0.354004

vt 0.090027 0.327637

vt 0.090027 0.327637

vt 0.090027 0.327637

vt 0.090027 0.327637

vt 0.090027 0.327637

vt 0.090027 0.327637

vt 0.090027 0.327637

vt 0.090027 0.327637

vt 0.090027 0.327637

vt 0.090027 0.327637

vt 0.090027 0.327637

vt 0.090027 0.327637

vt 0.090027 0.327637

vt 0.090027 0.327637

vt 0.090027 0.327637

vt 0.090027 0.327637

vt 0.090027 0.327637

vt 0.090027 0.327637

vt 0.090027 0.327637

vt 0.090027 0.327637

vt 0.090027 0.327637

vt 0.090027 0.327637

vt 0.090027 0.327637

vt 0.090027 0.327637

vt 0.090027 0.327637

vt 0.090027 0.327637

vt 0.090027 0.327637

vt 0.090027 0.327637

vt 0.090027 0.327637

vt 0.090027 0.327637

vt 0.090027 0.327637

vt 0.090027 0.327637

vt 0.090027 0.327637

vt 0.090027 0.327637

vt 0.090027 0.327637

vt 0.090027 0.327637

vt 0.090027 0.327637

vt 0.090027 0.327637

vt 0.090027 0.327637

vt 0.090027 0.327637

vt 0.090027 0.327637

vt 0.090027 0.327637

vt 0.090027 0.327637

vt 0.090027 0.327637

vt 0.090027 0.327637

vt 0.090027 0.327637

vt 0.090027 0.327637

vt 0.090027 0.327637

vt 0.090027 0.327637

vt 0.090027 0.327637

vt 0.090027 0.327637

vt 0.090027 0.327637

vt 0.090027 0.327637

vt 0.090027 0.327637

vt 0.090027 0.327637

vt 0.090027 0.327637

vt 0.090027 0.327637

vt 0.090027 0.327637

vt 0.090027 0.327637

vt 0.090027 0.327637

vt 0.090027 0.327637

vt 0.090027 0.327637

vt 0.090027 0.327637

vt 0.090027 0.327637

vt 0.090027 0.354004

vt 0.090027 0.354004

vt 0.090027 0.354004

vt 0.090027 0.354004

vt 0.090027 0.354004

vt 0.090027 0.354004

vt 0.090027 0.354004

vt 0.090027 0.354004

vt 0.090027 0.354004

vt 0.090027 0.354004

vt 0.090027 0.354004

vt 0.090027 0.354004

vt 0.090027 0.354004

vt 0.090027 0.354004

vt 0.090027 0.354004

vt 0.090027 0.354004

vt 0.102783 0.231445

vt 0.102783 0.231445

vt 0.102783 0.231445

vt 0.102783 0.231445

vt 0.102783 0.231445

vt 0.102783 0.231445

vt 0.102783 0.231445

vt 0.102783 0.231445

vt 0.102783 0.231445

vt 0.102783 0.231445

vt 0.102783 0.231445

vt 0.102783 0.231445

vt 0.102783 0.231445

vt 0.102783 0.231445

vt 0.102783 0.231445

vt 0.102783 0.231445

vt 0.090027 0.354004

vt 0.090027 0.354004

vt 0.090027 0.354004

vt 0.090027 0.354004

vt 0.090027 0.354004

vt 0.090027 0.354004

vt 0.090027 0.354004

vt 0.090027 0.354004

vt 0.090027 0.354004

vt 0.090027 0.354004

vt 0.090027 0.354004

vt 0.090027 0.354004

vt 0.090027 0.354004

vt 0.090027 0.354004

vt 0.090027 0.354004

vt 0.090027 0.354004

vt 0.102783 0.231445

vt 0.102783 0.231445

vt 0.102783 0.231445

vt 0.102783 0.231445

vt 0.102783 0.231445

vt 0.102783 0.231445

vt 0.102783 0.231445

vt 0.102783 0.231445

vt 0.102966 0.303711

vt 0.102966 0.303711

vt 0.102966 0.303711

vt 0.102966 0.303711

vt 0.079834 0.229492

vt 0.079834 0.229492

vt 0.079834 0.229492

vt 0.079834 0.229492

vt 0.079834 0.229492

vt 0.079834 0.229492

vt 0.079834 0.229492

vt 0.079834 0.229492



vn -1.000000 0.000000 0.000000

vn -1.000000 0.000000 0.000000

vn -1.000000 0.000000 0.000000

vn -1.000000 0.000000 0.000000

vn 0.000000 1.000000 0.000000

vn 0.000000 1.000000 0.000000

vn 0.000000 1.000000 0.000000

vn 0.000000 1.000000 0.000000

vn 1.000000 0.000000 0.000000

vn 1.000000 0.000000 0.000000

vn 1.000000 0.000000 0.000000

vn 1.000000 0.000000 0.000000

vn 0.000000 -1.000000 0.000000

vn 0.000000 -1.000000 0.000000

vn 0.000000 -1.000000 0.000000

vn 0.000000 -1.000000 0.000000

vn 0.000000 -0.559055 -0.826772

vn 0.000000 -0.559055 -0.826772

vn 0.000000 -0.559055 -0.826772

vn 0.000000 -0.559055 -0.826772

vn 0.417323 0.000000 -0.905512

vn 0.417323 0.000000 -0.905512

vn 0.417323 0.000000 -0.905512

vn 0.417323 0.000000 -0.905512

vn 0.000000 0.566929 -0.826772

vn 0.000000 0.566929 -0.826772

vn 0.000000 0.566929 -0.826772

vn 0.000000 0.566929 -0.826772

vn -0.417323 0.000000 -0.905512

vn -0.417323 0.000000 -0.905512

vn -0.417323 0.000000 -0.905512

vn -0.417323 0.000000 -0.905512

vn 0.000000 -1.000000 0.000000

vn 0.000000 -1.000000 0.000000

vn 0.000000 -1.000000 0.000000

vn 0.000000 -1.000000 0.000000

vn 1.000000 0.000000 0.000000

vn 1.000000 0.000000 0.000000

vn 1.000000 0.000000 0.000000

vn 1.000000 0.000000 0.000000

vn 0.000000 1.000000 0.000000

vn 0.000000 1.000000 0.000000

vn 0.000000 1.000000 0.000000

vn 0.000000 1.000000 0.000000

vn -1.000000 0.000000 0.000000

vn -1.000000 0.000000 0.000000

vn -1.000000 0.000000 0.000000

vn -1.000000 0.000000 0.000000

vn -0.015748 0.992126 0.094488

vn -0.015748 0.992126 0.094488

vn -0.015748 0.992126 0.094488

vn -0.015748 0.992126 0.094488

vn -0.976378 0.000000 -0.204724

vn -0.976378 0.000000 -0.204724

vn -0.976378 0.000000 -0.204724

vn -0.976378 0.000000 -0.204724

vn -0.015748 -0.992126 0.094488

vn -0.015748 -0.992126 0.094488

vn -0.015748 -0.992126 0.094488

vn -0.015748 -0.992126 0.094488

vn 0.771654 0.000000 0.637795

vn 0.771654 0.000000 0.637795

vn 0.771654 0.000000 0.637795

vn 0.771654 0.000000 0.637795

vn 0.976378 0.000000 -0.204724

vn 0.976378 0.000000 -0.204724

vn 0.976378 0.000000 -0.204724

vn 0.976378 0.000000 -0.204724

vn 0.015748 0.992126 0.094488

vn 0.015748 0.992126 0.094488

vn 0.015748 0.992126 0.094488

vn 0.015748 0.992126 0.094488

vn -0.771654 0.000000 0.637795

vn -0.771654 0.000000 0.637795

vn -0.771654 0.000000 0.637795

vn -0.771654 0.000000 0.637795

vn 0.015748 -0.992126 0.094488

vn 0.015748 -0.992126 0.094488

vn 0.015748 -0.992126 0.094488

vn 0.015748 -0.992126 0.094488

vn -0.007874 1.000000 0.007874

vn -0.007874 1.000000 0.007874

vn -0.007874 1.000000 0.007874

vn -0.007874 1.000000 0.007874

vn -0.047244 0.000000 -1.000000

vn -0.047244 0.000000 -1.000000

vn -0.047244 0.000000 -1.000000

vn -0.047244 0.000000 -1.000000

vn -0.007874 -1.000000 0.007874

vn -0.007874 -1.000000 0.007874

vn -0.007874 -1.000000 0.007874

vn -0.007874 -1.000000 0.007874

vn 0.023622 0.000000 1.000000

vn 0.023622 0.000000 1.000000

vn 0.023622 0.000000 1.000000

vn 0.023622 0.000000 1.000000

vn 0.047244 0.000000 -1.000000

vn 0.047244 0.000000 -1.000000

vn 0.047244 0.000000 -1.000000

vn 0.047244 0.000000 -1.000000

vn 0.007874 1.000000 0.007874

vn 0.007874 1.000000 0.007874

vn 0.007874 1.000000 0.007874

vn 0.007874 1.000000 0.007874

vn -0.023622 0.000000 1.000000

vn -0.023622 0.000000 1.000000

vn -0.023622 0.000000 1.000000

vn -0.023622 0.000000 1.000000

vn 0.007874 -1.000000 0.007874

vn 0.007874 -1.000000 0.007874

vn 0.007874 -1.000000 0.007874

vn 0.007874 -1.000000 0.007874

vn 0.000000 1.000000 0.000000

vn 0.000000 1.000000 0.000000

vn 0.000000 1.000000 0.000000

vn 0.000000 1.000000 0.000000

vn -1.000000 0.000000 0.000000

vn -1.000000 0.000000 0.000000

vn -1.000000 0.000000 0.000000

vn -1.000000 0.000000 0.000000

vn 0.000000 -1.000000 0.000000

vn 0.000000 -1.000000 0.000000

vn 0.000000 -1.000000 0.000000

vn 0.000000 -1.000000 0.000000

vn 1.000000 0.000000 0.000000

vn 1.000000 0.000000 0.000000

vn 1.000000 0.000000 0.000000

vn 1.000000 0.000000 0.000000

vn -0.614173 0.000000 -0.787402

vn -0.614173 0.000000 -0.787402

vn -0.614173 0.000000 -0.787402

vn -0.614173 0.000000 -0.787402

vn 0.000000 0.700787 -0.716535

vn 0.000000 0.700787 -0.716535

vn 0.000000 0.700787 -0.716535

vn 0.000000 0.700787 -0.716535

vn 0.614173 0.000000 -0.787402

vn 0.614173 0.000000 -0.787402

vn 0.614173 0.000000 -0.787402

vn 0.614173 0.000000 -0.787402

vn 0.000000 -0.700787 -0.716535

vn 0.000000 -0.700787 -0.716535

vn 0.000000 -0.700787 -0.716535

vn 0.000000 -0.700787 -0.716535

vn 0.000000 0.000000 1.000000

vn 0.000000 0.000000 1.000000

vn 0.000000 0.000000 1.000000

vn 0.000000 0.000000 1.000000

vn 0.000000 0.000000 1.000000

vn 0.000000 0.000000 1.000000

vn 0.000000 0.000000 1.000000

vn 0.000000 0.000000 1.000000

vn 0.000000 0.000000 1.000000

vn 0.000000 0.000000 1.000000

vn 0.000000 0.000000 1.000000

vn 0.000000 0.000000 1.000000

vn 0.000000 0.000000 1.000000

vn 0.000000 0.000000 1.000000

vn 0.000000 0.000000 1.000000

vn 0.000000 0.000000 1.000000

vn 0.000000 0.000000 -1.000000

vn 0.000000 0.000000 -1.000000

vn 0.000000 0.000000 -1.000000

vn 0.000000 0.000000 -1.000000

vn 0.000000 0.000000 -1.000000

vn 0.000000 0.000000 -1.000000

vn 0.000000 0.000000 -1.000000

vn 0.000000 0.000000 -1.000000

vn 0.000000 0.000000 1.000000

vn 0.000000 0.000000 1.000000

vn 0.000000 0.000000 1.000000

vn 0.000000 0.000000 1.000000

vn 0.000000 0.000000 1.000000

vn 0.000000 0.000000 1.000000

vn 0.000000 0.000000 1.000000

vn 0.000000 0.000000 1.000000

vn 0.000000 0.000000 1.000000

vn 0.000000 0.000000 1.000000

vn 0.000000 0.000000 1.000000

vn 0.000000 0.000000 1.000000

f 1/1/1 2/2/2 3/3/3

f 2/2/2 1/1/1 4/4/4

f 5/5/5 6/6/6 7/7/7

f 6/6/6 5/5/5 8/8/8

f 9/9/9 10/10/10 11/11/11

f 10/10/10 9/9/9 12/12/12

f 13/13/13 14/14/14 15/15/15

f 14/14/14 13/13/13 16/16/16

f 17/17/17 18/18/18 19/19/19

f 17/17/17 19/19/19 20/20/20

f 21/21/21 22/22/22 23/23/23

f 21/21/21 23/23/23 24/24/24

f 25/25/25 26/26/26 27/27/27

f 25/25/25 27/27/27 28/28/28

f 29/29/29 30/30/30 31/31/31

f 30/30/30 29/29/29 32/32/32

f 33/33/33 34/34/34 35/35/35

f 33/33/33 35/35/35 36/36/36

f 37/37/37 38/38/38 39/39/39

f 37/37/37 39/39/39 40/40/40

f 41/41/41 42/42/42 43/43/43

f 41/41/41 43/43/43 44/44/44

f 45/45/45 46/46/46 47/47/47

f 45/45/45 47/47/47 48/48/48

f 49/49/49 50/50/50 51/51/51

f 50/50/50 49/49/49 52/52/52

f 53/53/53 54/54/54 55/55/55

f 53/53/53 55/55/55 56/56/56

f 57/57/57 58/58/58 59/59/59

f 58/58/58 60/60/60 59/59/59

f 61/61/61 62/62/62 63/63/63

f 63/63/63 62/62/62 64/64/64

f 65/65/65 66/66/66 67/67/67

f 65/65/65 67/67/67 68/68/68

f 69/69/69 70/70/70 71/71/71

f 70/70/70 72/72/72 71/71/71

f 73/73/73 74/74/74 75/75/75

f 75/75/75 74/74/74 76/76/76

f 77/77/77 78/78/78 79/79/79

f 78/78/78 77/77/77 80/80/80

f 81/81/81 82/82/82 83/83/83

f 82/82/82 81/81/81 84/84/84

f 85/85/85 86/86/86 87/87/87

f 86/86/86 85/85/85 88/88/88

f 89/89/89 90/90/90 91/91/91

f 91/91/91 90/90/90 92/92/92

f 93/93/93 94/94/94 95/95/95

f 94/94/94 93/93/93 96/96/96

f 97/97/97 98/98/98 99/99/99

f 98/98/98 97/97/97 100/100/100

f 101/101/101 102/102/102 103/103/103

f 103/103/103 102/102/102 104/104/104

f 105/105/105 106/106/106 107/107/107

f 108/108/108 107/107/107 106/106/106

f 109/109/109 110/110/110 111/111/111

f 110/110/110 109/109/109 112/112/112

f 113/113/113 114/114/114 115/115/115

f 113/113/113 115/115/115 116/116/116

f 117/117/117 118/118/118 119/119/119

f 117/117/117 119/119/119 120/120/120

f 121/121/121 122/122/122 123/123/123

f 121/121/121 123/123/123 124/124/124

f 125/125/125 126/126/126 127/127/127

f 125/125/125 127/127/127 128/128/128

f 129/129/129 130/130/130 131/131/131

f 130/130/130 129/129/129 132/132/132

f 133/133/133 134/134/134 135/135/135

f 133/133/133 135/135/135 136/136/136

f 137/137/137 138/138/138 139/139/139

f 139/139/139 140/140/140 137/137/137

f 141/141/141 142/142/142 143/143/143

f 141/141/141 143/143/143 144/144/144

f 145/145/145 146/146/146 147/147/147

f 148/148/148 147/147/147 146/146/146

f 146/146/146 145/145/145 149/149/149

f 150/150/150 149/149/149 145/145/145

f 146/146/146 151/151/151 148/148/148

f 149/149/149 150/150/150 152/152/152

f 151/151/151 153/153/153 148/148/148

f 153/153/153 151/151/151 154/154/154

f 155/155/155 148/148/148 153/153/153

f 155/155/155 150/150/150 148/148/148

f 151/151/151 156/156/156 154/154/154

f 157/157/157 150/150/150 155/155/155

f 151/151/151 158/158/158 156/156/156

f 158/158/158 155/155/155 156/156/156

f 155/155/155 158/158/158 157/157/157

f 158/158/158 151/151/151 152/152/152

f 150/150/150 157/157/157 159/159/159

f 150/150/150 159/159/159 152/152/152

f 158/158/158 152/152/152 160/160/160

f 152/152/152 159/159/159 160/160/160

f 161/161/161 162/162/162 163/163/163

f 164/164/164 163/163/163 162/162/162

f 161/161/161 163/163/163 165/165/165

f 163/163/163 164/164/164 166/166/166

f 167/167/167 161/161/161 165/165/165

f 167/167/167 166/166/166 164/164/164

f 167/167/167 165/165/165 168/168/168

f 166/166/166 167/167/167 168/168/168

f 169/169/169 170/170/170 171/171/171

f 169/169/169 171/171/171 172/172/172

f 173/173/173 174/174/174 175/175/175

f 174/174/174 176/176/176 175/175/175

f 173/173/173 175/175/175 177/177/177

f 175/175/175 176/176/176 178/178/178

f 177/177/177 179/179/179 173/173/173

f 176/176/176 179/179/179 178/178/178

f 179/179/179 177/177/177 180/180/180

f 178/178/178 179/179/179 180/180/180

