# UnrealEd OBJ exporter (_Internal)



v 0.000000 0.000000 -0.000000

v -47.382751 0.000000 -0.000000

v -47.382751 73.744148 -0.000000

v 0.000000 73.744148 -0.000000

v -47.264038 0.000000 3.182373

v 0.000000 0.000000 -0.000000

v 0.000000 0.000000 3.182373

v -47.382751 0.000000 -0.000000

v -47.264038 73.744148 3.182373

v -47.382751 0.000000 -0.000000

v -47.264038 0.000000 3.182373

v -47.382751 73.744148 -0.000000

v -47.264038 73.744148 3.182373

v 0.000000 73.744148 -0.000000

v -47.382751 73.744148 -0.000000

v 0.000000 73.744148 3.182373

v 0.000000 0.000000 3.182373

v 0.000000 73.744148 -0.000000

v 0.000000 73.744148 3.182373

v 0.000000 0.000000 -0.000000

v -2.496582 2.167388 3.182373

v -41.173462 5.141133 1.419189

v -44.886230 2.167388 3.182373

v -6.209229 5.141133 1.419189

v -44.886230 71.576752 3.182373

v -41.173462 5.141133 1.419189

v -41.173462 68.603012 1.419189

v -44.886230 2.167388 3.182373

v -41.173462 68.603012 1.419189

v -2.496582 71.576752 3.182373

v -44.886230 71.576752 3.182373

v -6.209229 68.603012 1.419189

v -6.209229 5.141133 1.419189

v -2.496582 71.576752 3.182373

v -6.209229 68.603012 1.419189

v -2.496582 2.167388 3.182373

v -35.342651 64.515198 1.419189

v -38.352783 64.021965 4.559814

v -38.933350 64.515198 1.419189

v -35.923218 64.021965 4.559814

v -38.352783 64.021965 4.559814

v -38.933350 66.519737 1.419189

v -38.933350 64.515198 1.419189

v -38.352783 65.855804 5.660645

v -38.933350 66.519737 1.419189

v -35.923218 65.855804 5.660645

v -35.342651 66.519737 1.419189

v -38.352783 65.855804 5.660645

v -35.342651 66.519737 1.419189

v -35.923218 64.021965 4.559814

v -35.342651 64.515198 1.419189

v -35.923218 65.855804 5.660645

v -35.342651 50.926243 1.419189

v -38.352783 51.590176 5.660645

v -38.933350 50.926243 1.419189

v -35.923218 51.590176 5.660645

v -38.933350 50.926243 1.419189

v -38.352783 53.424015 4.559814

v -38.933350 52.930782 1.419189

v -38.352783 51.590176 5.660645

v -38.933350 52.930782 1.419189

v -35.923218 53.424015 4.559814

v -35.342651 52.930782 1.419189

v -38.352783 53.424015 4.559814

v -35.923218 53.424015 4.559814

v -35.342651 50.926243 1.419189

v -35.342651 52.930782 1.419189

v -35.923218 51.590176 5.660645

v -38.089355 58.722988 4.887207

v -35.923218 64.021965 4.559814

v -36.186646 58.722988 4.887207

v -38.352783 64.021965 4.559814

v -38.089355 58.722988 6.478027

v -38.352783 65.855804 5.660645

v -38.352783 64.021965 4.559814

v -38.089355 58.722988 4.887207

v -36.186646 58.722988 6.478027

v -35.923218 65.855804 5.660645

v -38.352783 65.855804 5.660645

v -38.089355 58.722988 6.478027

v -36.186646 58.722988 6.478027

v -35.923218 64.021965 4.559814

v -35.923218 65.855804 5.660645

v -36.186646 58.722988 4.887207

v -38.089355 58.722988 6.478027

v -35.923218 51.590176 5.660645

v -36.186646 58.722988 6.478027

v -38.352783 51.590176 5.660645

v -38.089355 58.722988 6.478027

v -38.352783 53.424015 4.559814

v -38.352783 51.590176 5.660645

v -38.089355 58.722988 4.887207

v -36.186646 58.722988 4.887207

v -35.923218 53.424015 4.559814

v -38.352783 53.424015 4.559814

v -38.089355 58.722988 4.887207

v -36.186646 58.722988 6.478027

v -35.923218 51.590176 5.660645

v -35.923218 53.424015 4.559814

v -36.186646 58.722988 4.887207

v -47.264038 0.000000 3.182373

v -2.496582 2.167388 3.182373

v -44.886230 2.167388 3.182373

v -44.886230 71.576752 3.182373

v 0.000000 0.000000 3.182373

v -47.264038 73.744148 3.182373

v -2.496582 71.576752 3.182373

v 0.000000 73.744148 3.182373

v -35.342651 50.926243 1.419189

v -41.173462 5.141133 1.419189

v -6.209229 5.141133 1.419189

v -6.209229 68.603012 1.419189

v -38.933350 50.926243 1.419189

v -35.342651 52.930782 1.419189

v -41.173462 68.603012 1.419189

v -38.933350 52.930782 1.419189

v -35.342651 64.515198 1.419189

v -35.342651 66.519737 1.419189

v -38.933350 64.515198 1.419189

v -38.933350 66.519737 1.419189



vt 0.037109 0.350098

vt 0.037109 0.350098

vt 0.037109 0.350098

vt 0.037109 0.350098

vt 0.069763 0.378906

vt 0.069763 0.378906

vt 0.069763 0.378906

vt 0.069763 0.378906

vt 0.069763 0.378906

vt 0.069763 0.378906

vt 0.069763 0.378906

vt 0.069763 0.378906

vt 0.069763 0.378906

vt 0.069763 0.378906

vt 0.069763 0.378906

vt 0.069763 0.378906

vt 0.069763 0.378906

vt 0.069763 0.378906

vt 0.069763 0.378906

vt 0.069763 0.378906

vt 0.069763 0.378906

vt 0.069763 0.378906

vt 0.069763 0.378906

vt 0.069763 0.378906

vt 0.069763 0.378906

vt 0.069763 0.378906

vt 0.069763 0.378906

vt 0.069763 0.378906

vt 0.069763 0.378906

vt 0.069763 0.378906

vt 0.069763 0.378906

vt 0.069763 0.378906

vt 0.069763 0.378906

vt 0.069763 0.378906

vt 0.069763 0.378906

vt 0.069763 0.378906

vt 0.101807 0.229004

vt 0.101807 0.229004

vt 0.101807 0.229004

vt 0.101807 0.229004

vt 0.101807 0.229004

vt 0.101807 0.229004

vt 0.101807 0.229004

vt 0.101807 0.229004

vt 0.101807 0.229004

vt 0.101807 0.229004

vt 0.101807 0.229004

vt 0.101807 0.229004

vt 0.101807 0.229004

vt 0.101807 0.229004

vt 0.101807 0.229004

vt 0.101807 0.229004

vt 0.101807 0.229004

vt 0.101807 0.229004

vt 0.101807 0.229004

vt 0.101807 0.229004

vt 0.101807 0.229004

vt 0.101807 0.229004

vt 0.101807 0.229004

vt 0.101807 0.229004

vt 0.101807 0.229004

vt 0.101807 0.229004

vt 0.101807 0.229004

vt 0.101807 0.229004

vt 0.101807 0.229004

vt 0.101807 0.229004

vt 0.101807 0.229004

vt 0.101807 0.229004

vt 0.101807 0.229004

vt 0.101807 0.229004

vt 0.101807 0.229004

vt 0.101807 0.229004

vt 0.101807 0.229004

vt 0.101807 0.229004

vt 0.101807 0.229004

vt 0.101807 0.229004

vt 0.101807 0.229004

vt 0.101807 0.229004

vt 0.101807 0.229004

vt 0.101807 0.229004

vt 0.101807 0.229004

vt 0.101807 0.229004

vt 0.101807 0.229004

vt 0.101807 0.229004

vt 0.101807 0.229004

vt 0.101807 0.229004

vt 0.101807 0.229004

vt 0.101807 0.229004

vt 0.101807 0.229004

vt 0.101807 0.229004

vt 0.101807 0.229004

vt 0.101807 0.229004

vt 0.101807 0.229004

vt 0.101807 0.229004

vt 0.101807 0.229004

vt 0.101807 0.229004

vt 0.101807 0.229004

vt 0.101807 0.229004

vt 0.101807 0.229004

vt 0.101807 0.229004

vt 0.069763 0.378906

vt 0.069763 0.378906

vt 0.069763 0.378906

vt 0.069763 0.378906

vt 0.069763 0.378906

vt 0.069763 0.378906

vt 0.069763 0.378906

vt 0.069763 0.378906

vt 0.069763 0.378906

vt 0.069763 0.378906

vt 0.069763 0.378906

vt 0.069763 0.378906

vt 0.069763 0.378906

vt 0.069763 0.378906

vt 0.069763 0.378906

vt 0.069763 0.378906

vt 0.069763 0.378906

vt 0.069763 0.378906

vt 0.069763 0.378906

vt 0.069763 0.378906



vn 0.000000 0.000000 -1.000000

vn 0.000000 0.000000 -1.000000

vn 0.000000 0.000000 -1.000000

vn 0.000000 0.000000 -1.000000

vn 0.000000 -1.000000 0.000000

vn 0.000000 -1.000000 0.000000

vn 0.000000 -1.000000 0.000000

vn 0.000000 -1.000000 0.000000

vn -1.000000 0.000000 0.039370

vn -1.000000 0.000000 0.039370

vn -1.000000 0.000000 0.039370

vn -1.000000 0.000000 0.039370

vn 0.000000 1.000000 0.000000

vn 0.000000 1.000000 0.000000

vn 0.000000 1.000000 0.000000

vn 0.000000 1.000000 0.000000

vn 1.000000 0.000000 0.000000

vn 1.000000 0.000000 0.000000

vn 1.000000 0.000000 0.000000

vn 1.000000 0.000000 0.000000

vn 0.000000 0.511811 0.858268

vn 0.000000 0.511811 0.858268

vn 0.000000 0.511811 0.858268

vn 0.000000 0.511811 0.858268

vn 0.425197 0.000000 0.905512

vn 0.425197 0.000000 0.905512

vn 0.425197 0.000000 0.905512

vn 0.425197 0.000000 0.905512

vn 0.000000 -0.511811 0.858268

vn 0.000000 -0.511811 0.858268

vn 0.000000 -0.511811 0.858268

vn 0.000000 -0.511811 0.858268

vn -0.425197 0.000000 0.905512

vn -0.425197 0.000000 0.905512

vn -0.425197 0.000000 0.905512

vn -0.425197 0.000000 0.905512

vn 0.000000 -0.984252 -0.157480

vn 0.000000 -0.984252 -0.157480

vn 0.000000 -0.984252 -0.157480

vn 0.000000 -0.984252 -0.157480

vn -0.984252 -0.039370 0.149606

vn -0.984252 -0.039370 0.149606

vn -0.984252 -0.039370 0.149606

vn -0.984252 -0.039370 0.149606

vn 0.000000 0.984252 0.157480

vn 0.000000 0.984252 0.157480

vn 0.000000 0.984252 0.157480

vn 0.000000 0.984252 0.157480

vn 0.984252 -0.039370 0.149606

vn 0.984252 -0.039370 0.149606

vn 0.984252 -0.039370 0.149606

vn 0.984252 -0.039370 0.149606

vn 0.000000 -0.984252 0.157480

vn 0.000000 -0.984252 0.157480

vn 0.000000 -0.984252 0.157480

vn 0.000000 -0.984252 0.157480

vn -0.984252 0.039370 0.149606

vn -0.984252 0.039370 0.149606

vn -0.984252 0.039370 0.149606

vn -0.984252 0.039370 0.149606

vn 0.000000 0.984252 -0.157480

vn 0.000000 0.984252 -0.157480

vn 0.000000 0.984252 -0.157480

vn 0.000000 0.984252 -0.157480

vn 0.984252 0.039370 0.149606

vn 0.984252 0.039370 0.149606

vn 0.984252 0.039370 0.149606

vn 0.984252 0.039370 0.149606

vn 0.000000 -0.062992 -1.000000

vn 0.000000 -0.062992 -1.000000

vn 0.000000 -0.062992 -1.000000

vn 0.000000 -0.062992 -1.000000

vn -1.000000 -0.039370 0.023622

vn -1.000000 -0.039370 0.023622

vn -1.000000 -0.039370 0.023622

vn -1.000000 -0.039370 0.023622

vn 0.000000 0.110236 0.992126

vn 0.000000 0.110236 0.992126

vn 0.000000 0.110236 0.992126

vn 0.000000 0.110236 0.992126

vn 1.000000 -0.039370 0.023622

vn 1.000000 -0.039370 0.023622

vn 1.000000 -0.039370 0.023622

vn 1.000000 -0.039370 0.023622

vn 0.000000 -0.110236 0.992126

vn 0.000000 -0.110236 0.992126

vn 0.000000 -0.110236 0.992126

vn 0.000000 -0.110236 0.992126

vn -1.000000 0.039370 0.023622

vn -1.000000 0.039370 0.023622

vn -1.000000 0.039370 0.023622

vn -1.000000 0.039370 0.023622

vn 0.000000 0.062992 -1.000000

vn 0.000000 0.062992 -1.000000

vn 0.000000 0.062992 -1.000000

vn 0.000000 0.062992 -1.000000

vn 1.000000 0.039370 0.023622

vn 1.000000 0.039370 0.023622

vn 1.000000 0.039370 0.023622

vn 1.000000 0.039370 0.023622

vn 0.000000 0.000000 1.000000

vn 0.000000 0.000000 1.000000

vn 0.000000 0.000000 1.000000

vn 0.000000 0.000000 1.000000

vn 0.000000 0.000000 1.000000

vn 0.000000 0.000000 1.000000

vn 0.000000 0.000000 1.000000

vn 0.000000 0.000000 1.000000

vn 0.000000 0.000000 1.000000

vn 0.000000 0.000000 1.000000

vn 0.000000 0.000000 1.000000

vn 0.000000 0.000000 1.000000

vn 0.000000 0.000000 1.000000

vn 0.000000 0.000000 1.000000

vn 0.000000 0.000000 1.000000

vn 0.000000 0.000000 1.000000

vn 0.000000 0.000000 1.000000

vn 0.000000 0.000000 1.000000

vn 0.000000 0.000000 1.000000

vn 0.000000 0.000000 1.000000

f 1/1/1 2/2/2 3/3/3

f 1/1/1 3/3/3 4/4/4

f 5/5/5 6/6/6 7/7/7

f 6/6/6 5/5/5 8/8/8

f 9/9/9 10/10/10 11/11/11

f 10/10/10 9/9/9 12/12/12

f 13/13/13 14/14/14 15/15/15

f 14/14/14 13/13/13 16/16/16

f 17/17/17 18/18/18 19/19/19

f 18/18/18 17/17/17 20/20/20

f 21/21/21 22/22/22 23/23/23

f 22/22/22 21/21/21 24/24/24

f 25/25/25 26/26/26 27/27/27

f 26/26/26 25/25/25 28/28/28

f 29/29/29 30/30/30 31/31/31

f 30/30/30 29/29/29 32/32/32

f 33/33/33 34/34/34 35/35/35

f 36/36/36 34/34/34 33/33/33

f 37/37/37 38/38/38 39/39/39

f 38/38/38 37/37/37 40/40/40

f 41/41/41 42/42/42 43/43/43

f 42/42/42 41/41/41 44/44/44

f 45/45/45 46/46/46 47/47/47

f 46/46/46 45/45/45 48/48/48

f 49/49/49 50/50/50 51/51/51

f 50/50/50 49/49/49 52/52/52

f 53/53/53 54/54/54 55/55/55

f 54/54/54 53/53/53 56/56/56

f 57/57/57 58/58/58 59/59/59

f 58/58/58 57/57/57 60/60/60

f 61/61/61 62/62/62 63/63/63

f 62/62/62 61/61/61 64/64/64

f 65/65/65 66/66/66 67/67/67

f 66/66/66 65/65/65 68/68/68

f 69/69/69 70/70/70 71/71/71

f 70/70/70 69/69/69 72/72/72

f 73/73/73 74/74/74 75/75/75

f 73/73/73 75/75/75 76/76/76

f 77/77/77 78/78/78 79/79/79

f 79/79/79 80/80/80 77/77/77

f 81/81/81 82/82/82 83/83/83

f 82/82/82 81/81/81 84/84/84

f 85/85/85 86/86/86 87/87/87

f 86/86/86 85/85/85 88/88/88

f 89/89/89 90/90/90 91/91/91

f 90/90/90 89/89/89 92/92/92

f 93/93/93 94/94/94 95/95/95

f 95/95/95 96/96/96 93/93/93

f 97/97/97 98/98/98 99/99/99

f 97/97/97 99/99/99 100/100/100

f 101/101/101 102/102/102 103/103/103

f 104/104/104 101/101/101 103/103/103

f 102/102/102 101/101/101 105/105/105

f 106/106/106 101/101/101 104/104/104

f 105/105/105 107/107/107 102/102/102

f 107/107/107 106/106/106 104/104/104

f 107/107/107 105/105/105 108/108/108

f 108/108/108 106/106/106 107/107/107

f 109/109/109 110/110/110 111/111/111

f 112/112/112 109/109/109 111/111/111

f 110/110/110 109/109/109 113/113/113

f 109/109/109 112/112/112 114/114/114

f 115/115/115 110/110/110 113/113/113

f 115/115/115 113/113/113 116/116/116

f 114/114/114 112/112/112 117/117/117

f 117/117/117 112/112/112 118/118/118

f 112/112/112 115/115/115 118/118/118

f 119/119/119 114/114/114 117/117/117

f 114/114/114 119/119/119 116/116/116

f 115/115/115 116/116/116 119/119/119

f 118/118/118 115/115/115 120/120/120

f 120/120/120 115/115/115 119/119/119

