# UnrealEd OBJ exporter (_Internal)



v -24.461548 0.531668 -24.324097

v -25.000000 -0.000000 -19.339722

v -25.000000 5.637020 -24.999878

v -18.097046 -0.000000 -24.999878

v -25.000000 -0.000000 -19.339722

v -24.461548 0.531668 -24.324097

v -24.461548 0.531668 -24.324097

v -25.000000 5.637020 -24.999878

v -18.097046 -0.000000 -24.999878

v 7.667480 46.508095 25.000122

v -19.848145 46.508095 19.776489

v -17.510315 45.695564 24.479858

v -14.072388 42.526081 25.000122

v 7.667480 46.508095 25.000122

v -17.510315 45.695564 24.479858

v -23.734009 45.644386 23.974243

v -25.000000 36.323917 25.000122

v -21.567871 42.180634 25.000122

v -25.000000 46.508095 10.512085

v -25.000000 36.323917 25.000122

v -23.734009 45.644386 23.974243

v -17.510315 45.695564 24.479858

v -19.848145 46.508095 19.776489

v -23.734009 45.644386 23.974243

v -23.734009 45.644386 23.974243

v -19.848145 46.508095 19.776489

v -25.000000 46.508095 10.512085

v 19.777893 46.508095 -24.999878

v 25.000000 46.508095 -18.074585

v 24.406616 46.017025 -24.277222

v 24.406616 46.017025 -24.277222

v 25.000000 42.392921 -24.999878

v 19.777893 46.508095 -24.999878

v 24.406616 46.017025 -24.277222

v 25.000000 46.508095 -18.074585

v 25.000000 42.392921 -24.999878

v 25.000000 46.508095 -4.918335

v -25.000000 46.508095 -0.390747

v 25.000000 46.508095 -0.390747

v -25.000000 46.508095 -4.918335

v 25.000000 0.000000 4.918335

v -25.000000 0.000000 4.918335

v -25.000000 -0.000000 -4.918335

v 25.000000 -0.000000 -4.918335

v 25.000000 0.000000 25.000122

v -25.000000 0.000000 25.000122

v -25.000000 0.000000 4.918335

v 25.000000 0.000000 4.918335

v 25.000000 0.000000 4.918335

v 25.000000 11.161942 -4.918335

v 25.000000 11.161942 4.918579

v 25.000000 -0.000000 -4.918335

v -25.000000 7.441295 4.918579

v -25.000000 7.441295 -4.918335

v -25.000000 0.000000 4.918335

v -25.000000 -0.000000 -4.918335

v -21.567871 42.180634 25.000122

v -17.510315 45.695564 24.479858

v -23.734009 45.644386 23.974243

v -14.072388 42.526081 25.000122

v -25.000000 46.508095 4.918335

v 25.000000 46.508095 4.918335

v 25.000000 46.508095 0.783325

v -25.000000 46.508095 0.783325

v -25.000000 46.508095 0.783325

v 25.000000 46.508095 0.783325

v 25.000000 46.508095 -0.390747

v -25.000000 46.508095 -0.390747

v -25.000000 37.206490 -4.918335

v -25.000000 46.508095 -0.390747

v -25.000000 46.508095 -4.918335

v -25.000000 37.206490 4.918335

v -25.000000 46.508095 0.783325

v -25.000000 46.508095 4.918335

v 25.000000 46.508095 -0.390747

v 25.000000 37.206490 -4.918335

v 25.000000 46.508095 -4.918335

v 25.000000 37.206490 4.918579

v 25.000000 46.508095 0.783325

v 25.000000 46.508095 4.918335

v 25.000000 46.508095 4.918335

v 7.667480 46.508095 25.000122

v 25.000000 46.508095 25.000122

v -25.000000 46.508095 4.918335

v -19.848145 46.508095 19.776489

v -25.000000 46.508095 10.512085

v -25.000000 46.508095 -4.918335

v 19.777893 46.508095 -24.999878

v -25.000000 46.508095 -24.999878

v 25.000000 46.508095 -4.918335

v 25.000000 46.508095 -18.074585

v 25.000000 -0.000000 -4.918335

v -18.097046 -0.000000 -24.999878

v 25.000000 -0.000000 -24.999878

v -25.000000 -0.000000 -4.918335

v -25.000000 -0.000000 -19.339722

v 25.000000 -0.000000 -24.999878

v 25.000000 11.161942 -4.918335

v 25.000000 -0.000000 -4.918335

v 25.000000 42.392921 -24.999878

v 25.000000 37.206490 -4.918335

v 25.000000 46.508095 -18.074585

v 25.000000 46.508095 -4.918335

v 25.000000 11.161942 4.918579

v 25.000000 37.206490 4.918579

v 25.000000 46.508095 25.000122

v 25.000000 46.508095 4.918335

v 25.000000 0.000000 25.000122

v 25.000000 0.000000 4.918335

v 3.851013 26.931505 25.000122

v -3.850952 9.109976 25.000122

v 3.851013 9.109976 25.000122

v -3.850952 26.931505 25.000122

v 0.000000 37.398140 25.000122

v 9.473816 26.931505 25.000122

v -9.473816 26.931505 25.000122

v -3.850952 26.931505 -24.999878

v 3.851013 9.109976 -24.999878

v -3.850952 9.109976 -24.999878

v 3.851013 26.931505 -24.999878

v 0.000000 37.398140 -24.999878

v -9.473816 26.931505 -24.999878

v 9.473816 26.931505 -24.999878

v -25.000000 46.508095 -24.999878

v -25.000000 37.206490 -4.918335

v -25.000000 46.508095 -4.918335

v -25.000000 5.637020 -24.999878

v -25.000000 7.441295 -4.918335

v -25.000000 -0.000000 -19.339722

v -25.000000 -0.000000 -4.918335

v -25.000000 37.206490 4.918335

v -25.000000 7.441295 4.918579

v -25.000000 46.508095 4.918335

v -25.000000 46.508095 10.512085

v -25.000000 36.323917 25.000122

v -25.000000 0.000000 25.000122

v -25.000000 0.000000 4.918335

v 3.851013 9.109976 25.000122

v 9.473816 26.931505 25.000122

v 3.851013 26.931505 25.000122

v 25.000000 0.000000 25.000122

v -3.850952 9.109976 25.000122

v 25.000000 46.508095 25.000122

v -25.000000 0.000000 25.000122

v 0.000000 37.398140 25.000122

v 7.667480 46.508095 25.000122

v -14.072388 42.526081 25.000122

v -9.473816 26.931505 25.000122

v -3.850952 26.931505 25.000122

v -25.000000 36.323917 25.000122

v -21.567871 42.180634 25.000122

v -3.850952 9.109976 -24.999878

v -9.473816 26.931505 -24.999878

v -3.850952 26.931505 -24.999878

v -25.000000 5.637020 -24.999878

v -18.097046 -0.000000 -24.999878

v -25.000000 46.508095 -24.999878

v 3.851013 9.109976 -24.999878

v 0.000000 37.398140 -24.999878

v 25.000000 -0.000000 -24.999878

v 19.777893 46.508095 -24.999878

v 9.473816 26.931505 -24.999878

v 3.851013 26.931505 -24.999878

v 25.000000 42.392921 -24.999878



vt 0.050751 0.330566

vt 0.050751 0.330566

vt 0.050751 0.330566

vt 0.050751 0.330566

vt 0.050751 0.330566

vt 0.050751 0.330566

vt 0.050751 0.330566

vt 0.050751 0.330566

vt 0.050751 0.330566

vt 0.050751 0.330566

vt 0.050751 0.330566

vt 0.050751 0.330566

vt 0.050751 0.330566

vt 0.050751 0.330566

vt 0.050751 0.330566

vt 0.050751 0.330566

vt 0.050751 0.330566

vt 0.050751 0.330566

vt 0.050751 0.330566

vt 0.050751 0.330566

vt 0.050751 0.330566

vt 0.050751 0.330566

vt 0.050751 0.330566

vt 0.050751 0.330566

vt 0.050751 0.330566

vt 0.050751 0.330566

vt 0.050751 0.330566

vt 0.050751 0.330566

vt 0.050751 0.330566

vt 0.050751 0.330566

vt 0.050751 0.330566

vt 0.050751 0.330566

vt 0.050751 0.330566

vt 0.050751 0.330566

vt 0.050751 0.330566

vt 0.050751 0.330566

vt 0.049561 0.379395

vt 0.049561 0.379395

vt 0.049561 0.379395

vt 0.049561 0.379395

vt 0.049561 0.379395

vt 0.049561 0.379395

vt 0.049561 0.379395

vt 0.049561 0.379395

vt 0.050751 0.330566

vt 0.050751 0.330566

vt 0.050751 0.330566

vt 0.050751 0.330566

vt 0.049561 0.379395

vt 0.049561 0.379395

vt 0.049561 0.379395

vt 0.049561 0.379395

vt 0.049561 0.379395

vt 0.049561 0.379395

vt 0.049561 0.379395

vt 0.049561 0.379395

vt 0.050751 0.330566

vt 0.050751 0.330566

vt 0.050751 0.330566

vt 0.050751 0.330566

vt 0.049561 0.379395

vt 0.049561 0.379395

vt 0.049561 0.379395

vt 0.049561 0.379395

vt 0.049316 0.354492

vt 0.049316 0.354492

vt 0.049316 0.354492

vt 0.049316 0.354492

vt 0.049561 0.379395

vt 0.049561 0.379395

vt 0.049561 0.379395

vt 0.049561 0.379395

vt 0.049561 0.379395

vt 0.049561 0.379395

vt 0.049561 0.379395

vt 0.049561 0.379395

vt 0.049561 0.379395

vt 0.049561 0.379395

vt 0.049561 0.379395

vt 0.049561 0.379395

vt 0.050751 0.330566

vt 0.050751 0.330566

vt 0.050751 0.330566

vt 0.050751 0.330566

vt 0.050751 0.330566

vt 0.050751 0.330566

vt 0.050751 0.330566

vt 0.050751 0.330566

vt 0.050751 0.330566

vt 0.050751 0.330566

vt 0.050751 0.330566

vt 0.050751 0.330566

vt 0.050751 0.330566

vt 0.050751 0.330566

vt 0.050751 0.330566

vt 0.050751 0.330566

vt 0.050751 0.330566

vt 0.050751 0.330566

vt 0.050751 0.330566

vt 0.050751 0.330566

vt 0.050751 0.330566

vt 0.050751 0.330566

vt 0.050751 0.330566

vt 0.050751 0.330566

vt 0.050751 0.330566

vt 0.050751 0.330566

vt 0.050751 0.330566

vt 0.050751 0.330566

vt 0.050751 0.330566

vt 0.102295 0.229004

vt 0.102295 0.229004

vt 0.102295 0.229004

vt 0.102295 0.229004

vt 0.102295 0.229004

vt 0.102295 0.229004

vt 0.102295 0.229004

vt 0.102295 0.229004

vt 0.102295 0.229004

vt 0.102295 0.229004

vt 0.102295 0.229004

vt 0.102295 0.229004

vt 0.102295 0.229004

vt 0.102295 0.229004

vt 0.050751 0.330566

vt 0.050751 0.330566

vt 0.050751 0.330566

vt 0.050751 0.330566

vt 0.050751 0.330566

vt 0.050751 0.330566

vt 0.050751 0.330566

vt 0.050751 0.330566

vt 0.050751 0.330566

vt 0.050751 0.330566

vt 0.050751 0.330566

vt 0.050751 0.330566

vt 0.050751 0.330566

vt 0.050751 0.330566

vt 0.050751 0.330566

vt 0.050751 0.330566

vt 0.050751 0.330566

vt 0.050751 0.330566

vt 0.050751 0.330566

vt 0.050751 0.330566

vt 0.050751 0.330566

vt 0.050751 0.330566

vt 0.050751 0.330566

vt 0.050751 0.330566

vt 0.050751 0.330566

vt 0.050751 0.330566

vt 0.050751 0.330566

vt 0.050751 0.330566

vt 0.050751 0.330566

vt 0.050751 0.330566

vt 0.050751 0.330566

vt 0.050751 0.330566

vt 0.050751 0.330566

vt 0.050751 0.330566

vt 0.050751 0.330566

vt 0.050751 0.330566

vt 0.050751 0.330566

vt 0.050751 0.330566

vt 0.050751 0.330566

vt 0.050751 0.330566

vt 0.050751 0.330566



vn -0.984252 -0.118110 -0.118110

vn -0.984252 -0.118110 -0.118110

vn -0.984252 -0.118110 -0.118110

vn -0.094488 -0.992126 -0.118110

vn -0.094488 -0.992126 -0.118110

vn -0.094488 -0.992126 -0.118110

vn -0.118110 -0.141732 -0.984252

vn -0.118110 -0.141732 -0.984252

vn -0.118110 -0.141732 -0.984252

vn -0.039370 0.984252 0.188976

vn -0.039370 0.984252 0.188976

vn -0.039370 0.984252 0.188976

vn -0.023622 0.133858 0.992126

vn -0.023622 0.133858 0.992126

vn -0.023622 0.133858 0.992126

vn -0.236220 0.141732 0.960630

vn -0.236220 0.141732 0.960630

vn -0.236220 0.141732 0.960630

vn -0.984252 0.141732 0.102362

vn -0.984252 0.141732 0.102362

vn -0.984252 0.141732 0.102362

vn -0.023622 0.984252 0.181102

vn -0.023622 0.984252 0.181102

vn -0.023622 0.984252 0.181102

vn -0.133858 0.984252 0.078740

vn -0.133858 0.984252 0.078740

vn -0.133858 0.984252 0.078740

vn 0.118110 0.992126 -0.086614

vn 0.118110 0.992126 -0.086614

vn 0.118110 0.992126 -0.086614

vn 0.173228 0.220472 -0.960630

vn 0.173228 0.220472 -0.960630

vn 0.173228 0.220472 -0.960630

vn 0.976378 0.181102 -0.110236

vn 0.976378 0.181102 -0.110236

vn 0.976378 0.181102 -0.110236

vn 0.000000 1.000000 0.000000

vn 0.000000 1.000000 0.000000

vn 0.000000 1.000000 0.000000

vn 0.000000 1.000000 0.000000

vn 0.000000 -1.000000 0.000000

vn 0.000000 -1.000000 0.000000

vn 0.000000 -1.000000 0.000000

vn 0.000000 -1.000000 0.000000

vn 0.000000 -1.000000 0.000000

vn 0.000000 -1.000000 0.000000

vn 0.000000 -1.000000 0.000000

vn 0.000000 -1.000000 0.000000

vn 1.000000 0.000000 0.000000

vn 1.000000 0.000000 0.000000

vn 1.000000 0.000000 0.000000

vn 1.000000 0.000000 0.000000

vn -1.000000 0.000000 0.000000

vn -1.000000 0.000000 0.000000

vn -1.000000 0.000000 0.000000

vn -1.000000 0.000000 0.000000

vn -0.039370 0.196850 0.976378

vn -0.039370 0.196850 0.976378

vn -0.039370 0.196850 0.976378

vn -0.039370 0.196850 0.976378

vn 0.000000 1.000000 0.000000

vn 0.000000 1.000000 0.000000

vn 0.000000 1.000000 0.000000

vn 0.000000 1.000000 0.000000

vn 0.000000 1.000000 0.000000

vn 0.000000 1.000000 0.000000

vn 0.000000 1.000000 0.000000

vn 0.000000 1.000000 0.000000

vn -1.000000 0.000000 0.000000

vn -1.000000 0.000000 0.000000

vn -1.000000 0.000000 0.000000

vn -1.000000 0.000000 0.000000

vn -1.000000 0.000000 0.000000

vn -1.000000 0.000000 0.000000

vn 1.000000 0.000000 0.000000

vn 1.000000 0.000000 0.000000

vn 1.000000 0.000000 0.000000

vn 1.000000 0.000000 0.000000

vn 1.000000 0.000000 0.000000

vn 1.000000 0.000000 0.000000

vn 0.000000 1.000000 0.000000

vn 0.000000 1.000000 0.000000

vn 0.000000 1.000000 0.000000

vn 0.000000 1.000000 0.000000

vn 0.000000 1.000000 0.000000

vn 0.000000 1.000000 0.000000

vn 0.000000 1.000000 0.000000

vn 0.000000 1.000000 0.000000

vn 0.000000 1.000000 0.000000

vn 0.000000 1.000000 0.000000

vn 0.000000 1.000000 0.000000

vn 0.000000 -1.000000 0.000000

vn 0.000000 -1.000000 0.000000

vn 0.000000 -1.000000 0.000000

vn 0.000000 -1.000000 0.000000

vn 0.000000 -1.000000 0.000000

vn 1.000000 0.000000 0.000000

vn 1.000000 0.000000 0.000000

vn 1.000000 0.000000 0.000000

vn 1.000000 0.000000 0.000000

vn 1.000000 0.000000 0.000000

vn 1.000000 0.000000 0.000000

vn 1.000000 0.000000 0.000000

vn 1.000000 0.000000 0.000000

vn 1.000000 0.000000 0.000000

vn 1.000000 0.000000 0.000000

vn 1.000000 0.000000 0.000000

vn 1.000000 0.000000 0.000000

vn 1.000000 0.000000 0.000000

vn 0.000000 0.000000 1.000000

vn 0.000000 0.000000 1.000000

vn 0.000000 0.000000 1.000000

vn 0.000000 0.000000 1.000000

vn 0.000000 0.000000 1.000000

vn 0.000000 0.000000 1.000000

vn 0.000000 0.000000 1.000000

vn 0.000000 0.000000 -1.000000

vn 0.000000 0.000000 -1.000000

vn 0.000000 0.000000 -1.000000

vn 0.000000 0.000000 -1.000000

vn 0.000000 0.000000 -1.000000

vn 0.000000 0.000000 -1.000000

vn 0.000000 0.000000 -1.000000

vn -1.000000 0.000000 0.000000

vn -1.000000 0.000000 0.000000

vn -1.000000 0.000000 0.000000

vn -1.000000 0.000000 0.000000

vn -1.000000 0.000000 0.000000

vn -1.000000 0.000000 0.000000

vn -1.000000 0.000000 0.000000

vn -1.000000 0.000000 0.000000

vn -1.000000 0.000000 0.000000

vn -1.000000 0.000000 0.000000

vn -1.000000 0.000000 0.000000

vn -1.000000 0.000000 0.000000

vn -1.000000 0.000000 0.000000

vn -1.000000 0.000000 0.000000

vn 0.000000 0.000000 1.000000

vn 0.000000 0.000000 1.000000

vn 0.000000 0.000000 1.000000

vn 0.000000 0.000000 1.000000

vn 0.000000 0.000000 1.000000

vn 0.000000 0.000000 1.000000

vn 0.000000 0.000000 1.000000

vn 0.000000 0.000000 1.000000

vn 0.000000 0.000000 1.000000

vn 0.000000 0.000000 1.000000

vn 0.000000 0.000000 1.000000

vn 0.000000 0.000000 1.000000

vn 0.000000 0.000000 1.000000

vn 0.000000 0.000000 1.000000

vn 0.000000 0.000000 -1.000000

vn 0.000000 0.000000 -1.000000

vn 0.000000 0.000000 -1.000000

vn 0.000000 0.000000 -1.000000

vn 0.000000 0.000000 -1.000000

vn 0.000000 0.000000 -1.000000

vn 0.000000 0.000000 -1.000000

vn 0.000000 0.000000 -1.000000

vn 0.000000 0.000000 -1.000000

vn 0.000000 0.000000 -1.000000

vn 0.000000 0.000000 -1.000000

vn 0.000000 0.000000 -1.000000

vn 0.000000 0.000000 -1.000000

f 1/1/1 2/2/2 3/3/3

f 4/4/4 5/5/5 6/6/6

f 7/7/7 8/8/8 9/9/9

f 10/10/10 11/11/11 12/12/12

f 13/13/13 14/14/14 15/15/15

f 16/16/16 17/17/17 18/18/18

f 19/19/19 20/20/20 21/21/21

f 22/22/22 23/23/23 24/24/24

f 25/25/25 26/26/26 27/27/27

f 28/28/28 29/29/29 30/30/30

f 31/31/31 32/32/32 33/33/33

f 34/34/34 35/35/35 36/36/36

f 37/37/37 38/38/38 39/39/39

f 38/38/38 37/37/37 40/40/40

f 41/41/41 42/42/42 43/43/43

f 41/41/41 43/43/43 44/44/44

f 45/45/45 46/46/46 47/47/47

f 45/45/45 47/47/47 48/48/48

f 49/49/49 50/50/50 51/51/51

f 50/50/50 49/49/49 52/52/52

f 53/53/53 54/54/54 55/55/55

f 55/55/55 54/54/54 56/56/56

f 57/57/57 58/58/58 59/59/59

f 58/58/58 57/57/57 60/60/60

f 61/61/61 62/62/62 63/63/63

f 61/61/61 63/63/63 64/64/64

f 65/65/65 66/66/66 67/67/67

f 65/65/65 67/67/67 68/68/68

f 69/69/69 70/70/70 71/71/71

f 72/72/72 70/70/70 69/69/69

f 70/70/70 72/72/72 73/73/73

f 73/73/73 72/72/72 74/74/74

f 75/75/75 76/76/76 77/77/77

f 75/75/75 78/78/78 76/76/76

f 78/78/78 75/75/75 79/79/79

f 80/80/80 78/78/78 79/79/79

f 81/81/81 82/82/82 83/83/83

f 84/84/84 82/82/82 81/81/81

f 82/82/82 84/84/84 85/85/85

f 85/85/85 84/84/84 86/86/86

f 87/87/87 88/88/88 89/89/89

f 90/90/90 88/88/88 87/87/87

f 88/88/88 90/90/90 91/91/91

f 92/92/92 93/93/93 94/94/94

f 95/95/95 93/93/93 92/92/92

f 93/93/93 95/95/95 96/96/96

f 97/97/97 98/98/98 99/99/99

f 100/100/100 98/98/98 97/97/97

f 98/98/98 100/100/100 101/101/101

f 102/102/102 101/101/101 100/100/100

f 101/101/101 102/102/102 103/103/103

f 101/101/101 104/104/104 98/98/98

f 104/104/104 101/101/101 105/105/105

f 106/106/106 105/105/105 107/107/107

f 106/106/106 104/104/104 105/105/105

f 104/104/104 106/106/106 108/108/108

f 109/109/109 104/104/104 108/108/108

f 110/110/110 111/111/111 112/112/112

f 113/113/113 111/111/111 110/110/110

f 110/110/110 114/114/114 113/113/113

f 114/114/114 110/110/110 115/115/115

f 113/113/113 114/114/114 116/116/116

f 117/117/117 118/118/118 119/119/119

f 118/118/118 117/117/117 120/120/120

f 117/117/117 121/121/121 120/120/120

f 121/121/121 117/117/117 122/122/122

f 121/121/121 123/123/123 120/120/120

f 124/124/124 125/125/125 126/126/126

f 127/127/127 125/125/125 124/124/124

f 125/125/125 127/127/127 128/128/128

f 129/129/129 128/128/128 127/127/127

f 128/128/128 129/129/129 130/130/130

f 128/128/128 131/131/131 125/125/125

f 131/131/131 128/128/128 132/132/132

f 133/133/133 131/131/131 134/134/134

f 131/131/131 135/135/135 134/134/134

f 135/135/135 131/131/131 132/132/132

f 132/132/132 136/136/136 135/135/135

f 136/136/136 132/132/132 137/137/137

f 138/138/138 139/139/139 140/140/140

f 139/139/139 138/138/138 141/141/141

f 142/142/142 141/141/141 138/138/138

f 141/141/141 143/143/143 139/139/139

f 141/141/141 142/142/142 144/144/144

f 139/139/139 143/143/143 145/145/145

f 145/145/145 143/143/143 146/146/146

f 146/146/146 147/147/147 145/145/145

f 148/148/148 145/145/145 147/147/147

f 148/148/148 144/144/144 142/142/142

f 142/142/142 149/149/149 148/148/148

f 148/148/148 150/150/150 144/144/144

f 151/151/151 148/148/148 147/147/147

f 150/150/150 148/148/148 151/151/151

f 152/152/152 153/153/153 154/154/154

f 152/152/152 155/155/155 153/153/153

f 155/155/155 152/152/152 156/156/156

f 155/155/155 157/157/157 153/153/153

f 158/158/158 156/156/156 152/152/152

f 153/153/153 157/157/157 159/159/159

f 156/156/156 158/158/158 160/160/160

f 157/157/157 161/161/161 159/159/159

f 161/161/161 162/162/162 159/159/159

f 160/160/160 158/158/158 162/162/162

f 162/162/162 158/158/158 163/163/163

f 164/164/164 160/160/160 162/162/162

f 164/164/164 162/162/162 161/161/161

