# UnrealEd OBJ exporter (_Internal)



v 0.000000 0.000000 -0.000000

v 47.382812 73.744148 -0.000000

v 47.382812 0.000000 -0.000000

v 0.000000 73.744148 -0.000000

v 47.263916 0.000000 3.182373

v 0.000000 0.000000 3.182373

v 0.000000 0.000000 -0.000000

v 47.382812 0.000000 -0.000000

v 47.263916 73.744148 3.182373

v 47.263916 0.000000 3.182373

v 47.382812 0.000000 -0.000000

v 47.382812 73.744148 -0.000000

v 47.263916 73.744148 3.182373

v 0.000000 73.744148 -0.000000

v 0.000000 73.744148 3.182373

v 47.382812 73.744148 -0.000000

v 0.000000 0.000000 3.182373

v 0.000000 73.744148 3.182373

v 0.000000 73.744148 -0.000000

v 0.000000 0.000000 -0.000000

v 2.496582 2.167388 3.182373

v 44.886230 2.167388 3.182373

v 41.173584 5.141133 1.419189

v 6.209229 5.141133 1.419189

v 44.886230 71.576752 3.182373

v 41.173584 5.141133 1.419189

v 44.886230 2.167388 3.182373

v 41.173584 68.603012 1.419189

v 44.886230 71.576752 3.182373

v 2.496582 71.576752 3.182373

v 6.209229 68.603012 1.419189

v 41.173584 68.603012 1.419189

v 6.209229 5.141133 1.419189

v 6.209229 68.603012 1.419189

v 2.496582 71.576752 3.182373

v 2.496582 2.167388 3.182373

v 35.342529 64.515198 1.419189

v 38.933350 64.515198 1.419189

v 38.352783 64.021965 4.559814

v 35.923096 64.021965 4.559814

v 38.352783 64.021965 4.559814

v 38.933350 66.519737 1.419189

v 38.352783 65.855804 5.660645

v 38.933350 64.515198 1.419189

v 38.933350 66.519737 1.419189

v 35.342529 66.519737 1.419189

v 35.923340 65.855804 5.660645

v 38.352783 65.855804 5.660645

v 35.342529 66.519737 1.419189

v 35.923096 64.021965 4.559814

v 35.923340 65.855804 5.660645

v 35.342529 64.515198 1.419189

v 38.933350 50.926235 1.419189

v 35.923340 51.590168 5.660645

v 35.342529 50.926235 1.419189

v 38.352783 51.590168 5.660645

v 38.933350 50.926235 1.419189

v 38.352783 53.424015 4.559814

v 38.352783 51.590168 5.660645

v 38.933350 52.930782 1.419189

v 38.933350 52.930782 1.419189

v 35.342529 52.930782 1.419189

v 35.923096 53.424015 4.559814

v 38.352783 53.424015 4.559814

v 35.923096 53.424015 4.559814

v 35.342529 50.926235 1.419189

v 35.923340 51.590168 5.660645

v 35.342529 52.930782 1.419189

v 36.186523 58.722988 4.887207

v 35.923096 64.021965 4.559814

v 38.089355 58.722988 4.887207

v 38.352783 64.021965 4.559814

v 38.352783 65.855804 5.660645

v 38.089355 58.722988 6.478027

v 38.352783 64.021965 4.559814

v 38.089355 58.722988 4.887207

v 35.923340 65.855804 5.660645

v 38.089355 58.722988 6.478027

v 38.352783 65.855804 5.660645

v 36.186523 58.722988 6.478027

v 35.923096 64.021965 4.559814

v 36.186523 58.722988 6.478027

v 35.923340 65.855804 5.660645

v 36.186523 58.722988 4.887207

v 36.186523 58.722988 6.478027

v 35.923340 51.590168 5.660645

v 38.089355 58.722988 6.478027

v 38.352783 51.590168 5.660645

v 38.352783 53.424015 4.559814

v 38.089355 58.722988 6.478027

v 38.352783 51.590168 5.660645

v 38.089355 58.722988 4.887207

v 35.923096 53.424015 4.559814

v 36.186523 58.722988 4.887207

v 38.352783 53.424015 4.559814

v 38.089355 58.722988 4.887207

v 35.923340 51.590168 5.660645

v 36.186523 58.722988 6.478027

v 35.923096 53.424015 4.559814

v 36.186523 58.722988 4.887207

v 2.496582 2.167388 3.182373

v 47.263916 0.000000 3.182373

v 44.886230 2.167388 3.182373

v 44.886230 71.576752 3.182373

v 0.000000 0.000000 3.182373

v 47.263916 73.744148 3.182373

v 2.496582 71.576752 3.182373

v 0.000000 73.744148 3.182373

v 41.173584 5.141133 1.419189

v 35.342529 50.926235 1.419189

v 6.209229 5.141133 1.419189

v 6.209229 68.603012 1.419189

v 38.933350 50.926235 1.419189

v 35.342529 52.930782 1.419189

v 41.173584 68.603012 1.419189

v 38.933350 52.930782 1.419189

v 35.342529 64.515198 1.419189

v 35.342529 66.519737 1.419189

v 38.933350 64.515198 1.419189

v 38.933350 66.519737 1.419189



vt 0.037109 0.350098

vt 0.037109 0.350098

vt 0.037109 0.350098

vt 0.037109 0.350098

vt 0.069763 0.378906

vt 0.069763 0.378906

vt 0.069763 0.378906

vt 0.069763 0.378906

vt 0.069763 0.378906

vt 0.069763 0.378906

vt 0.069763 0.378906

vt 0.069763 0.378906

vt 0.069763 0.378906

vt 0.069763 0.378906

vt 0.069763 0.378906

vt 0.069763 0.378906

vt 0.069763 0.378906

vt 0.069763 0.378906

vt 0.069763 0.378906

vt 0.069763 0.378906

vt 0.069763 0.378906

vt 0.069763 0.378906

vt 0.069763 0.378906

vt 0.069763 0.378906

vt 0.069763 0.378906

vt 0.069763 0.378906

vt 0.069763 0.378906

vt 0.069763 0.378906

vt 0.069763 0.378906

vt 0.069763 0.378906

vt 0.069763 0.378906

vt 0.069763 0.378906

vt 0.069763 0.378906

vt 0.069763 0.378906

vt 0.069763 0.378906

vt 0.069763 0.378906

vt 0.101807 0.229004

vt 0.101807 0.229004

vt 0.101807 0.229004

vt 0.101807 0.229004

vt 0.101807 0.229004

vt 0.101807 0.229004

vt 0.101807 0.229004

vt 0.101807 0.229004

vt 0.101807 0.229004

vt 0.101807 0.229004

vt 0.101807 0.229004

vt 0.101807 0.229004

vt 0.101807 0.229004

vt 0.101807 0.229004

vt 0.101807 0.229004

vt 0.101807 0.229004

vt 0.101807 0.229004

vt 0.101807 0.229004

vt 0.101807 0.229004

vt 0.101807 0.229004

vt 0.101807 0.229004

vt 0.101807 0.229004

vt 0.101807 0.229004

vt 0.101807 0.229004

vt 0.101807 0.229004

vt 0.101807 0.229004

vt 0.101807 0.229004

vt 0.101807 0.229004

vt 0.101807 0.229004

vt 0.101807 0.229004

vt 0.101807 0.229004

vt 0.101807 0.229004

vt 0.101807 0.229004

vt 0.101807 0.229004

vt 0.101807 0.229004

vt 0.101807 0.229004

vt 0.101807 0.229004

vt 0.101807 0.229004

vt 0.101807 0.229004

vt 0.101807 0.229004

vt 0.101807 0.229004

vt 0.101807 0.229004

vt 0.101807 0.229004

vt 0.101807 0.229004

vt 0.101807 0.229004

vt 0.101807 0.229004

vt 0.101807 0.229004

vt 0.101807 0.229004

vt 0.101807 0.229004

vt 0.101807 0.229004

vt 0.101807 0.229004

vt 0.101807 0.229004

vt 0.101807 0.229004

vt 0.101807 0.229004

vt 0.101807 0.229004

vt 0.101807 0.229004

vt 0.101807 0.229004

vt 0.101807 0.229004

vt 0.101807 0.229004

vt 0.101807 0.229004

vt 0.101807 0.229004

vt 0.101807 0.229004

vt 0.101807 0.229004

vt 0.101807 0.229004

vt 0.069763 0.378906

vt 0.069763 0.378906

vt 0.069763 0.378906

vt 0.069763 0.378906

vt 0.069763 0.378906

vt 0.069763 0.378906

vt 0.069763 0.378906

vt 0.069763 0.378906

vt 0.069763 0.378906

vt 0.069763 0.378906

vt 0.069763 0.378906

vt 0.069763 0.378906

vt 0.069763 0.378906

vt 0.069763 0.378906

vt 0.069763 0.378906

vt 0.069763 0.378906

vt 0.069763 0.378906

vt 0.069763 0.378906

vt 0.069763 0.378906

vt 0.069763 0.378906



vn 0.000000 0.000000 -1.000000

vn 0.000000 0.000000 -1.000000

vn 0.000000 0.000000 -1.000000

vn 0.000000 0.000000 -1.000000

vn 0.000000 -1.000000 0.000000

vn 0.000000 -1.000000 0.000000

vn 0.000000 -1.000000 0.000000

vn 0.000000 -1.000000 0.000000

vn 1.000000 0.000000 0.039370

vn 1.000000 0.000000 0.039370

vn 1.000000 0.000000 0.039370

vn 1.000000 0.000000 0.039370

vn 0.000000 1.000000 0.000000

vn 0.000000 1.000000 0.000000

vn 0.000000 1.000000 0.000000

vn 0.000000 1.000000 0.000000

vn -1.000000 0.000000 0.000000

vn -1.000000 0.000000 0.000000

vn -1.000000 0.000000 0.000000

vn -1.000000 0.000000 0.000000

vn 0.000000 0.511811 0.858268

vn 0.000000 0.511811 0.858268

vn 0.000000 0.511811 0.858268

vn 0.000000 0.511811 0.858268

vn -0.425197 0.000000 0.905512

vn -0.425197 0.000000 0.905512

vn -0.425197 0.000000 0.905512

vn -0.425197 0.000000 0.905512

vn 0.000000 -0.511811 0.858268

vn 0.000000 -0.511811 0.858268

vn 0.000000 -0.511811 0.858268

vn 0.000000 -0.511811 0.858268

vn 0.425197 0.000000 0.905512

vn 0.425197 0.000000 0.905512

vn 0.425197 0.000000 0.905512

vn 0.425197 0.000000 0.905512

vn 0.000000 -0.984252 -0.157480

vn 0.000000 -0.984252 -0.157480

vn 0.000000 -0.984252 -0.157480

vn 0.000000 -0.984252 -0.157480

vn 0.984252 -0.039370 0.149606

vn 0.984252 -0.039370 0.149606

vn 0.984252 -0.039370 0.149606

vn 0.984252 -0.039370 0.149606

vn 0.000000 0.984252 0.157480

vn 0.000000 0.984252 0.157480

vn 0.000000 0.984252 0.157480

vn 0.000000 0.984252 0.157480

vn -0.984252 -0.039370 0.149606

vn -0.984252 -0.039370 0.149606

vn -0.984252 -0.039370 0.149606

vn -0.984252 -0.039370 0.149606

vn 0.000000 -0.984252 0.157480

vn 0.000000 -0.984252 0.157480

vn 0.000000 -0.984252 0.157480

vn 0.000000 -0.984252 0.157480

vn 0.984252 0.039370 0.149606

vn 0.984252 0.039370 0.149606

vn 0.984252 0.039370 0.149606

vn 0.984252 0.039370 0.149606

vn 0.000000 0.984252 -0.157480

vn 0.000000 0.984252 -0.157480

vn 0.000000 0.984252 -0.157480

vn 0.000000 0.984252 -0.157480

vn -0.984252 0.039370 0.149606

vn -0.984252 0.039370 0.149606

vn -0.984252 0.039370 0.149606

vn -0.984252 0.039370 0.149606

vn 0.000000 -0.062992 -1.000000

vn 0.000000 -0.062992 -1.000000

vn 0.000000 -0.062992 -1.000000

vn 0.000000 -0.062992 -1.000000

vn 1.000000 -0.039370 0.023622

vn 1.000000 -0.039370 0.023622

vn 1.000000 -0.039370 0.023622

vn 1.000000 -0.039370 0.023622

vn 0.000000 0.110236 0.992126

vn 0.000000 0.110236 0.992126

vn 0.000000 0.110236 0.992126

vn 0.000000 0.110236 0.992126

vn -1.000000 -0.039370 0.023622

vn -1.000000 -0.039370 0.023622

vn -1.000000 -0.039370 0.023622

vn -1.000000 -0.039370 0.023622

vn 0.000000 -0.110236 0.992126

vn 0.000000 -0.110236 0.992126

vn 0.000000 -0.110236 0.992126

vn 0.000000 -0.110236 0.992126

vn 1.000000 0.039370 0.023622

vn 1.000000 0.039370 0.023622

vn 1.000000 0.039370 0.023622

vn 1.000000 0.039370 0.023622

vn 0.000000 0.062992 -1.000000

vn 0.000000 0.062992 -1.000000

vn 0.000000 0.062992 -1.000000

vn 0.000000 0.062992 -1.000000

vn -1.000000 0.039370 0.023622

vn -1.000000 0.039370 0.023622

vn -1.000000 0.039370 0.023622

vn -1.000000 0.039370 0.023622

vn 0.000000 0.000000 1.000000

vn 0.000000 0.000000 1.000000

vn 0.000000 0.000000 1.000000

vn 0.000000 0.000000 1.000000

vn 0.000000 0.000000 1.000000

vn 0.000000 0.000000 1.000000

vn 0.000000 0.000000 1.000000

vn 0.000000 0.000000 1.000000

vn 0.000000 0.000000 1.000000

vn 0.000000 0.000000 1.000000

vn 0.000000 0.000000 1.000000

vn 0.000000 0.000000 1.000000

vn 0.000000 0.000000 1.000000

vn 0.000000 0.000000 1.000000

vn 0.000000 0.000000 1.000000

vn 0.000000 0.000000 1.000000

vn 0.000000 0.000000 1.000000

vn 0.000000 0.000000 1.000000

vn 0.000000 0.000000 1.000000

vn 0.000000 0.000000 1.000000

f 1/1/1 2/2/2 3/3/3

f 2/2/2 1/1/1 4/4/4

f 5/5/5 6/6/6 7/7/7

f 5/5/5 7/7/7 8/8/8

f 9/9/9 10/10/10 11/11/11

f 9/9/9 11/11/11 12/12/12

f 13/13/13 14/14/14 15/15/15

f 14/14/14 13/13/13 16/16/16

f 17/17/17 18/18/18 19/19/19

f 17/17/17 19/19/19 20/20/20

f 21/21/21 22/22/22 23/23/23

f 21/21/21 23/23/23 24/24/24

f 25/25/25 26/26/26 27/27/27

f 26/26/26 25/25/25 28/28/28

f 29/29/29 30/30/30 31/31/31

f 29/29/29 31/31/31 32/32/32

f 33/33/33 34/34/34 35/35/35

f 35/35/35 36/36/36 33/33/33

f 37/37/37 38/38/38 39/39/39

f 37/37/37 39/39/39 40/40/40

f 41/41/41 42/42/42 43/43/43

f 42/42/42 41/41/41 44/44/44

f 45/45/45 46/46/46 47/47/47

f 45/45/45 47/47/47 48/48/48

f 49/49/49 50/50/50 51/51/51

f 50/50/50 49/49/49 52/52/52

f 53/53/53 54/54/54 55/55/55

f 54/54/54 53/53/53 56/56/56

f 57/57/57 58/58/58 59/59/59

f 58/58/58 57/57/57 60/60/60

f 61/61/61 62/62/62 63/63/63

f 61/61/61 63/63/63 64/64/64

f 65/65/65 66/66/66 67/67/67

f 66/66/66 65/65/65 68/68/68

f 69/69/69 70/70/70 71/71/71

f 71/71/71 70/70/70 72/72/72

f 73/73/73 74/74/74 75/75/75

f 75/75/75 74/74/74 76/76/76

f 77/77/77 78/78/78 79/79/79

f 78/78/78 77/77/77 80/80/80

f 81/81/81 82/82/82 83/83/83

f 82/82/82 81/81/81 84/84/84

f 85/85/85 86/86/86 87/87/87

f 87/87/87 86/86/86 88/88/88

f 89/89/89 90/90/90 91/91/91

f 90/90/90 89/89/89 92/92/92

f 93/93/93 94/94/94 95/95/95

f 95/95/95 94/94/94 96/96/96

f 97/97/97 98/98/98 99/99/99

f 99/99/99 98/98/98 100/100/100

f 101/101/101 102/102/102 103/103/103

f 102/102/102 104/104/104 103/103/103

f 102/102/102 101/101/101 105/105/105

f 102/102/102 106/106/106 104/104/104

f 107/107/107 105/105/105 101/101/101

f 106/106/106 107/107/107 104/104/104

f 105/105/105 107/107/107 108/108/108

f 106/106/106 108/108/108 107/107/107

f 109/109/109 110/110/110 111/111/111

f 110/110/110 112/112/112 111/111/111

f 110/110/110 109/109/109 113/113/113

f 114/114/114 112/112/112 110/110/110

f 109/109/109 115/115/115 113/113/113

f 113/113/113 115/115/115 116/116/116

f 117/117/117 112/112/112 114/114/114

f 112/112/112 117/117/117 118/118/118

f 115/115/115 112/112/112 118/118/118

f 117/117/117 114/114/114 119/119/119

f 119/119/119 114/114/114 116/116/116

f 115/115/115 119/119/119 116/116/116

f 115/115/115 118/118/118 120/120/120

f 115/115/115 120/120/120 119/119/119

