# UnrealEd OBJ exporter (_Internal)



v 31.383228 12.543529 3.947020

v 30.300570 12.543529 3.947020

v 30.300570 11.460596 3.947020

v 31.383228 11.460596 3.947020

v 30.300570 12.543529 3.947020

v 31.383228 12.543529 3.947020

v 31.383228 12.543529 3.740978

v 30.300570 12.543529 3.740978

v 31.383228 11.460596 3.947020

v 30.300570 11.460596 3.947020

v 30.300570 11.460596 3.740978

v 31.383228 11.460596 3.740978

v 31.383228 11.460596 3.740978

v 31.383228 12.543529 3.740978

v 31.383228 11.460596 3.947020

v 31.383228 12.543529 3.947020

v 30.300570 12.543529 3.947020

v 30.300570 11.460596 3.740978

v 30.300570 11.460596 3.947020

v 30.300570 12.543529 3.740978

v 27.559996 12.683909 4.252005

v 24.610376 12.683909 4.252005

v 24.610376 11.320191 4.252005

v 27.559996 11.320191 4.252005

v 24.610376 12.683909 4.252005

v 27.559996 12.683909 4.252005

v 27.559996 12.683909 3.740978

v 24.610376 12.683909 3.740978

v 27.559996 11.320191 4.252005

v 24.610376 11.320191 4.252005

v 24.610376 11.320191 3.740978

v 27.559996 11.320191 3.740978

v 27.559996 11.320191 3.740978

v 27.559996 12.683909 3.740978

v 27.559996 11.320191 4.252005

v 27.559996 12.683909 4.252005

v 24.610376 12.683909 4.252005

v 24.610376 11.320191 3.740978

v 24.610376 11.320191 4.252005

v 24.610376 12.683909 3.740978

v 20.732880 12.683909 4.252005

v 17.783022 12.683909 4.252005

v 17.783022 11.320191 4.252005

v 20.732880 11.320191 4.252005

v 17.783022 12.683909 4.252005

v 20.732880 12.683909 4.252005

v 20.732880 12.683909 3.740978

v 17.783022 12.683909 3.740978

v 20.732880 11.320191 4.252005

v 17.783022 11.320191 4.252005

v 17.783022 11.320191 3.740978

v 20.732880 11.320191 3.740978

v 20.732880 11.320191 3.740978

v 20.732880 12.683909 3.740978

v 20.732880 11.320191 4.252005

v 20.732880 12.683909 4.252005

v 17.783022 12.683909 4.252005

v 17.783022 11.320191 3.740978

v 17.783022 11.320191 4.252005

v 17.783022 12.683909 3.740978

v 15.606260 23.337860 -2.582121

v -15.606212 23.337860 -2.582121

v 15.606260 44.610485 -2.582121

v -15.606212 44.610485 -2.582121

v 35.551407 12.128299 3.740978

v 34.049606 10.768038 3.740978

v 35.551407 12.128299 1.232052

v 34.049606 10.768038 1.232052

v 35.551407 12.128299 1.232052

v 35.551407 55.820042 1.232052

v 35.551407 12.128299 3.740978

v 35.551407 55.820042 3.740978

v 34.049606 57.180305 3.740978

v 35.551407 55.820042 3.740978

v 34.049606 57.180305 1.232052

v 35.551407 55.820042 1.232052

v -34.049366 10.768038 1.232052

v 34.049606 10.768038 1.232052

v -34.049366 10.768038 3.740978

v 34.049606 10.768038 3.740978

v 34.049606 57.180305 1.232052

v -34.049366 57.180305 1.232052

v 34.049606 57.180305 3.740978

v -34.049366 57.180305 3.740978

v -34.049366 10.768038 3.740978

v -35.551407 12.128299 3.740978

v -34.049366 10.768038 1.232052

v -35.551407 12.128299 1.232052

v -35.551407 55.820042 3.740978

v -34.049366 57.180305 3.740978

v -35.551407 55.820042 1.232052

v -34.049366 57.180305 1.232052

v -35.551407 55.820042 1.232052

v -35.551407 12.128299 1.232052

v -35.551407 55.820042 3.740978

v -35.551407 12.128299 3.740978

v 33.416889 54.051643 3.740978

v 32.582428 54.858356 3.740978

v 33.416889 54.051643 2.743149

v 32.582428 54.858356 2.743149

v 33.416889 54.051643 2.743149

v 33.416889 13.896710 2.743149

v 33.416889 54.051643 3.740978

v 33.416889 13.896710 3.740978

v 32.582428 13.089985 3.740978

v 33.416889 13.896710 3.740978

v 32.582428 13.089985 2.743149

v 33.416889 13.896710 2.743149

v -32.581997 54.858356 2.743149

v 32.582428 54.858356 2.743149

v -32.581997 54.858356 3.740978

v 32.582428 54.858356 3.740978

v 32.582428 13.089985 2.743149

v -32.581997 13.089985 2.743149

v 32.582428 13.089985 3.740978

v -32.581997 13.089985 3.740978

v -33.416462 13.896710 2.743149

v -33.416462 54.051643 2.743149

v -33.416462 13.896710 3.740978

v -33.416462 54.051643 3.740978

v -32.581997 54.858356 3.740978

v -33.416462 54.051643 3.740978

v -32.581997 54.858356 2.743149

v -33.416462 54.051643 2.743149

v -33.416462 13.896710 3.740978

v -32.581997 13.089985 3.740978

v -33.416462 13.896710 2.743149

v -32.581997 13.089985 2.743149

v -15.606212 23.337860 -2.582121

v 15.606260 23.337860 -2.582121

v -15.606212 23.337860 1.232052

v 15.606260 23.337860 1.232052

v 15.606260 23.337860 -2.582121

v 15.606260 44.610485 -2.582121

v 15.606260 23.337860 1.232052

v 15.606260 44.610485 1.232052

v 15.606260 44.610485 -2.582121

v -15.606212 44.610485 -2.582121

v 15.606260 44.610485 1.232052

v -15.606212 44.610485 1.232052

v -15.606212 44.610485 -2.582121

v -15.606212 23.337860 -2.582121

v -15.606212 44.610485 1.232052

v -15.606212 23.337860 1.232052

v -19.240379 0.000000 10.730505

v 19.240379 0.000000 10.730505

v 18.408203 1.738071 10.266352

v -18.408203 1.738071 10.266352

v 3.630543 37.835091 -1.566601

v 3.630543 37.835091 -8.472776

v -3.630733 37.835091 -1.566601

v -3.630733 37.835091 -8.472776

v 19.240379 -0.000000 -10.730553

v -19.240379 -0.000000 -10.730553

v -18.408203 1.738071 -10.266447

v 18.408203 1.738071 -10.266447

v 19.240379 0.000000 10.730505

v -19.240379 0.000000 10.730505

v -19.240379 -0.000000 -10.730553

v 19.240379 -0.000000 -10.730553

v 18.408203 1.738071 10.266352

v 19.240379 -0.000000 -10.730553

v 18.408203 1.738071 -10.266447

v 19.240379 0.000000 10.730505

v -18.408203 1.738071 10.266352

v -19.240379 -0.000000 -10.730553

v -19.240379 0.000000 10.730505

v -18.408203 1.738071 -10.266447

v -3.630733 37.835091 -1.566601

v -3.630733 1.738071 -1.566601

v 3.630543 37.835091 -1.566601

v 3.630543 1.738071 -1.566601

v 3.630543 1.738071 -8.472776

v 3.630543 37.835091 -8.472776

v 3.630543 1.738071 -1.566601

v 3.630543 37.835091 -1.566601

v -3.630733 1.738071 -8.472776

v -3.630733 37.835091 -8.472776

v 3.630543 1.738071 -8.472776

v 3.630543 37.835091 -8.472776

v -3.630733 37.835091 -1.566601

v -3.630733 1.738071 -8.472776

v -3.630733 1.738071 -1.566601

v -3.630733 37.835091 -8.472776

v 34.049606 10.768038 1.232052

v 35.551407 55.820042 1.232052

v 35.551407 12.128299 1.232052

v 34.049606 57.180305 1.232052

v 15.606260 23.337860 1.232052

v -34.049366 10.768038 1.232052

v 15.606260 44.610485 1.232052

v -15.606212 23.337860 1.232052

v -34.049366 57.180305 1.232052

v -15.606212 44.610485 1.232052

v -35.551407 55.820042 1.232052

v -35.551407 12.128299 1.232052

v 35.551407 55.820042 3.740978

v 32.582428 54.858356 3.740978

v 33.416889 54.051643 3.740978

v 33.416889 13.896710 3.740978

v 34.049606 57.180305 3.740978

v 35.551407 12.128299 3.740978

v -32.581997 54.858356 3.740978

v 32.582428 13.089985 3.740978

v -34.049366 57.180305 3.740978

v 34.049606 10.768038 3.740978

v -35.551407 55.820042 3.740978

v -32.581997 13.089985 3.740978

v -33.416462 54.051643 3.740978

v -34.049366 10.768038 3.740978

v -33.416462 13.896710 3.740978

v -35.551407 12.128299 3.740978

v 3.630543 1.738071 -1.566601

v -18.408203 1.738071 10.266352

v 18.408203 1.738071 10.266352

v 18.408203 1.738071 -10.266447

v -3.630733 1.738071 -1.566601

v 3.630543 1.738071 -8.472776

v -18.408203 1.738071 -10.266447

v -3.630733 1.738071 -8.472776

v -33.416462 13.896710 2.743149

v -32.581997 54.858356 2.743149

v -33.416462 54.051643 2.743149

v -32.581997 13.089985 2.743149

v 32.582428 54.858356 2.743149

v 32.582428 13.089985 2.743149

v 33.416889 13.896710 2.743149

v 33.416889 54.051643 2.743149



vt 0.424316 0.035156

vt 0.424316 0.035156

vt 0.424316 0.035156

vt 0.424316 0.035156

vt 0.424316 0.035156

vt 0.424316 0.035156

vt 0.424316 0.035156

vt 0.424316 0.035156

vt 0.424316 0.035156

vt 0.424316 0.035156

vt 0.424316 0.035156

vt 0.424316 0.035156

vt 0.424316 0.035156

vt 0.424316 0.035156

vt 0.424316 0.035156

vt 0.424316 0.035156

vt 0.424316 0.035156

vt 0.424316 0.035156

vt 0.424316 0.035156

vt 0.424316 0.035156

vt 0.081116 0.013672

vt 0.081116 0.013672

vt 0.081116 0.013672

vt 0.081116 0.013672

vt 0.081116 0.013672

vt 0.081116 0.013672

vt 0.081116 0.013672

vt 0.081116 0.013672

vt 0.081116 0.013672

vt 0.081116 0.013672

vt 0.081116 0.013672

vt 0.081116 0.013672

vt 0.081116 0.013672

vt 0.081116 0.013672

vt 0.081116 0.013672

vt 0.081116 0.013672

vt 0.081116 0.013672

vt 0.081116 0.013672

vt 0.081116 0.013672

vt 0.081116 0.013672

vt 0.081116 0.013672

vt 0.081116 0.013672

vt 0.081116 0.013672

vt 0.081116 0.013672

vt 0.081116 0.013672

vt 0.081116 0.013672

vt 0.081116 0.013672

vt 0.081116 0.013672

vt 0.081116 0.013672

vt 0.081116 0.013672

vt 0.081116 0.013672

vt 0.081116 0.013672

vt 0.081116 0.013672

vt 0.081116 0.013672

vt 0.081116 0.013672

vt 0.081116 0.013672

vt 0.081116 0.013672

vt 0.081116 0.013672

vt 0.081116 0.013672

vt 0.081116 0.013672

vt 0.080383 0.301270

vt 0.080383 0.301270

vt 0.080383 0.301270

vt 0.080383 0.301270

vt 0.080383 0.301270

vt 0.080383 0.301270

vt 0.080383 0.301270

vt 0.080383 0.301270

vt 0.080383 0.301270

vt 0.080383 0.301270

vt 0.080383 0.301270

vt 0.080383 0.301270

vt 0.080383 0.301270

vt 0.080383 0.301270

vt 0.080383 0.301270

vt 0.080383 0.301270

vt 0.080383 0.301270

vt 0.080383 0.301270

vt 0.080383 0.301270

vt 0.080383 0.301270

vt 0.080383 0.301270

vt 0.080383 0.301270

vt 0.080383 0.301270

vt 0.080383 0.301270

vt 0.080383 0.301270

vt 0.080383 0.301270

vt 0.080383 0.301270

vt 0.080383 0.301270

vt 0.080383 0.301270

vt 0.080383 0.301270

vt 0.080383 0.301270

vt 0.080383 0.301270

vt 0.080383 0.301270

vt 0.080383 0.301270

vt 0.080383 0.301270

vt 0.080383 0.301270

vt 0.080383 0.301270

vt 0.080383 0.301270

vt 0.080383 0.301270

vt 0.080383 0.301270

vt 0.080383 0.301270

vt 0.080383 0.301270

vt 0.080383 0.301270

vt 0.080383 0.301270

vt 0.080383 0.301270

vt 0.080383 0.301270

vt 0.080383 0.301270

vt 0.080383 0.301270

vt 0.080383 0.301270

vt 0.080383 0.301270

vt 0.080383 0.301270

vt 0.080383 0.301270

vt 0.080383 0.301270

vt 0.080383 0.301270

vt 0.080383 0.301270

vt 0.080383 0.301270

vt 0.080383 0.301270

vt 0.080383 0.301270

vt 0.080383 0.301270

vt 0.080383 0.301270

vt 0.080383 0.301270

vt 0.080383 0.301270

vt 0.080383 0.301270

vt 0.080383 0.301270

vt 0.080383 0.301270

vt 0.080383 0.301270

vt 0.080383 0.301270

vt 0.080383 0.301270

vt 0.080383 0.301270

vt 0.080383 0.301270

vt 0.080383 0.301270

vt 0.080383 0.301270

vt 0.080383 0.301270

vt 0.080383 0.301270

vt 0.080383 0.301270

vt 0.080383 0.301270

vt 0.080383 0.301270

vt 0.080383 0.301270

vt 0.080383 0.301270

vt 0.080383 0.301270

vt 0.080383 0.301270

vt 0.080383 0.301270

vt 0.080383 0.301270

vt 0.080383 0.301270

vt 0.080383 0.301270

vt 0.080383 0.301270

vt 0.080383 0.301270

vt 0.080383 0.301270

vt 0.080383 0.301270

vt 0.080383 0.301270

vt 0.080383 0.301270

vt 0.080383 0.301270

vt 0.080383 0.301270

vt 0.080383 0.301270

vt 0.080383 0.301270

vt 0.080383 0.301270

vt 0.080383 0.301270

vt 0.080383 0.301270

vt 0.080383 0.301270

vt 0.080383 0.301270

vt 0.080383 0.301270

vt 0.080383 0.301270

vt 0.080383 0.301270

vt 0.080383 0.301270

vt 0.080383 0.301270

vt 0.080383 0.301270

vt 0.080383 0.301270

vt 0.080383 0.301270

vt 0.080383 0.301270

vt 0.080383 0.301270

vt 0.080383 0.301270

vt 0.080383 0.301270

vt 0.080383 0.301270

vt 0.080383 0.301270

vt 0.080383 0.301270

vt 0.080383 0.301270

vt 0.080383 0.301270

vt 0.080383 0.301270

vt 0.080383 0.301270

vt 0.080383 0.301270

vt 0.080383 0.301270

vt 0.080383 0.301270

vt 0.080383 0.301270

vt 0.080383 0.301270

vt 0.080383 0.301270

vt 0.080383 0.301270

vt 0.080383 0.301270

vt 0.080383 0.301270

vt 0.080383 0.301270

vt 0.080383 0.301270

vt 0.080383 0.301270

vt 0.080383 0.301270

vt 0.080383 0.301270

vt 0.080383 0.301270

vt 0.080383 0.301270

vt 0.080383 0.301270

vt 0.080383 0.301270

vt 0.080383 0.301270

vt 0.080383 0.301270

vt 0.080383 0.301270

vt 0.080383 0.301270

vt 0.080383 0.301270

vt 0.080383 0.301270

vt 0.080383 0.301270

vt 0.080383 0.301270

vt 0.080383 0.301270

vt 0.080383 0.301270

vt 0.080383 0.301270

vt 0.080383 0.301270

vt 0.080383 0.301270

vt 0.080383 0.301270

vt 0.080383 0.301270

vt 0.080383 0.301270

vt 0.080383 0.301270

vt 0.080383 0.301270

vt 0.080383 0.301270

vt 0.080383 0.301270

vt 0.080383 0.301270

vt 0.080383 0.301270

vt 0.080383 0.301270

vt 0.000000 0.004395

vt 0.012482 0.995720

vt 0.000000 0.995720

vt 0.012482 0.004395

vt 0.987305 0.995720

vt 0.987305 0.004395

vt 1.000000 0.004395

vt 1.000000 0.995720



vn 0.000000 0.000000 1.000000

vn 0.000000 0.000000 1.000000

vn 0.000000 0.000000 1.000000

vn 0.000000 0.000000 1.000000

vn 0.000000 1.000000 0.000000

vn 0.000000 1.000000 0.000000

vn 0.000000 1.000000 0.000000

vn 0.000000 1.000000 0.000000

vn 0.000000 -1.000000 0.000000

vn 0.000000 -1.000000 0.000000

vn 0.000000 -1.000000 0.000000

vn 0.000000 -1.000000 0.000000

vn 1.000000 0.000000 0.000000

vn 1.000000 0.000000 0.000000

vn 1.000000 0.000000 0.000000

vn 1.000000 0.000000 0.000000

vn -1.000000 0.000000 0.000000

vn -1.000000 0.000000 0.000000

vn -1.000000 0.000000 0.000000

vn -1.000000 0.000000 0.000000

vn 0.000000 0.000000 1.000000

vn 0.000000 0.000000 1.000000

vn 0.000000 0.000000 1.000000

vn 0.000000 0.000000 1.000000

vn 0.000000 1.000000 0.000000

vn 0.000000 1.000000 0.000000

vn 0.000000 1.000000 0.000000

vn 0.000000 1.000000 0.000000

vn 0.000000 -1.000000 0.000000

vn 0.000000 -1.000000 0.000000

vn 0.000000 -1.000000 0.000000

vn 0.000000 -1.000000 0.000000

vn 1.000000 0.000000 0.000000

vn 1.000000 0.000000 0.000000

vn 1.000000 0.000000 0.000000

vn 1.000000 0.000000 0.000000

vn -1.000000 0.000000 0.000000

vn -1.000000 0.000000 0.000000

vn -1.000000 0.000000 0.000000

vn -1.000000 0.000000 0.000000

vn 0.000000 0.000000 1.000000

vn 0.000000 0.000000 1.000000

vn 0.000000 0.000000 1.000000

vn 0.000000 0.000000 1.000000

vn 0.000000 1.000000 0.000000

vn 0.000000 1.000000 0.000000

vn 0.000000 1.000000 0.000000

vn 0.000000 1.000000 0.000000

vn 0.000000 -1.000000 0.000000

vn 0.000000 -1.000000 0.000000

vn 0.000000 -1.000000 0.000000

vn 0.000000 -1.000000 0.000000

vn 1.000000 0.000000 0.000000

vn 1.000000 0.000000 0.000000

vn 1.000000 0.000000 0.000000

vn 1.000000 0.000000 0.000000

vn -1.000000 0.000000 0.000000

vn -1.000000 0.000000 0.000000

vn -1.000000 0.000000 0.000000

vn -1.000000 0.000000 0.000000

vn 0.000000 0.000000 -1.000000

vn 0.000000 0.000000 -1.000000

vn 0.000000 0.000000 -1.000000

vn 0.000000 0.000000 -1.000000

vn 0.669291 -0.740157 0.000000

vn 0.669291 -0.740157 0.000000

vn 0.669291 -0.740157 0.000000

vn 0.669291 -0.740157 0.000000

vn 1.000000 0.000000 0.000000

vn 1.000000 0.000000 0.000000

vn 1.000000 0.000000 0.000000

vn 1.000000 0.000000 0.000000

vn 0.669291 0.740157 0.000000

vn 0.669291 0.740157 0.000000

vn 0.669291 0.740157 0.000000

vn 0.669291 0.740157 0.000000

vn 0.000000 -1.000000 0.000000

vn 0.000000 -1.000000 0.000000

vn 0.000000 -1.000000 0.000000

vn 0.000000 -1.000000 0.000000

vn 0.000000 1.000000 0.000000

vn 0.000000 1.000000 0.000000

vn 0.000000 1.000000 0.000000

vn 0.000000 1.000000 0.000000

vn -0.669291 -0.740157 0.000000

vn -0.669291 -0.740157 0.000000

vn -0.669291 -0.740157 0.000000

vn -0.669291 -0.740157 0.000000

vn -0.669291 0.740157 0.000000

vn -0.669291 0.740157 0.000000

vn -0.669291 0.740157 0.000000

vn -0.669291 0.740157 0.000000

vn -1.000000 0.000000 0.000000

vn -1.000000 0.000000 0.000000

vn -1.000000 0.000000 0.000000

vn -1.000000 0.000000 0.000000

vn -0.692913 -0.716535 0.000000

vn -0.692913 -0.716535 0.000000

vn -0.692913 -0.716535 0.000000

vn -0.692913 -0.716535 0.000000

vn -1.000000 0.000000 0.000000

vn -1.000000 0.000000 0.000000

vn -1.000000 0.000000 0.000000

vn -1.000000 0.000000 0.000000

vn -0.692913 0.716535 0.000000

vn -0.692913 0.716535 0.000000

vn -0.692913 0.716535 0.000000

vn -0.692913 0.716535 0.000000

vn 0.000000 -1.000000 0.000000

vn 0.000000 -1.000000 0.000000

vn 0.000000 -1.000000 0.000000

vn 0.000000 -1.000000 0.000000

vn 0.000000 1.000000 0.000000

vn 0.000000 1.000000 0.000000

vn 0.000000 1.000000 0.000000

vn 0.000000 1.000000 0.000000

vn 1.000000 0.000000 0.000000

vn 1.000000 0.000000 0.000000

vn 1.000000 0.000000 0.000000

vn 1.000000 0.000000 0.000000

vn 0.692913 -0.716535 0.000000

vn 0.692913 -0.716535 0.000000

vn 0.692913 -0.716535 0.000000

vn 0.692913 -0.716535 0.000000

vn 0.692913 0.716535 0.000000

vn 0.692913 0.716535 0.000000

vn 0.692913 0.716535 0.000000

vn 0.692913 0.716535 0.000000

vn 0.000000 -1.000000 0.000000

vn 0.000000 -1.000000 0.000000

vn 0.000000 -1.000000 0.000000

vn 0.000000 -1.000000 0.000000

vn 1.000000 0.000000 0.000000

vn 1.000000 0.000000 0.000000

vn 1.000000 0.000000 0.000000

vn 1.000000 0.000000 0.000000

vn 0.000000 1.000000 0.000000

vn 0.000000 1.000000 0.000000

vn 0.000000 1.000000 0.000000

vn 0.000000 1.000000 0.000000

vn -1.000000 0.000000 0.000000

vn -1.000000 0.000000 0.000000

vn -1.000000 0.000000 0.000000

vn -1.000000 0.000000 0.000000

vn 0.000000 0.259843 0.968504

vn 0.000000 0.259843 0.968504

vn 0.000000 0.259843 0.968504

vn 0.000000 0.259843 0.968504

vn 0.000000 1.000000 0.000000

vn 0.000000 1.000000 0.000000

vn 0.000000 1.000000 0.000000

vn 0.000000 1.000000 0.000000

vn 0.000000 0.259843 -0.968504

vn 0.000000 0.259843 -0.968504

vn 0.000000 0.259843 -0.968504

vn 0.000000 0.259843 -0.968504

vn 0.000000 -1.000000 0.000000

vn 0.000000 -1.000000 0.000000

vn 0.000000 -1.000000 0.000000

vn 0.000000 -1.000000 0.000000

vn 0.905512 0.433071 0.000000

vn 0.905512 0.433071 0.000000

vn 0.905512 0.433071 0.000000

vn 0.905512 0.433071 0.000000

vn -0.905512 0.433071 0.000000

vn -0.905512 0.433071 0.000000

vn -0.905512 0.433071 0.000000

vn -0.905512 0.433071 0.000000

vn 0.000000 0.000000 1.000000

vn 0.000000 0.000000 1.000000

vn 0.000000 0.000000 1.000000

vn 0.000000 0.000000 1.000000

vn 1.000000 0.000000 0.000000

vn 1.000000 0.000000 0.000000

vn 1.000000 0.000000 0.000000

vn 1.000000 0.000000 0.000000

vn 0.000000 0.000000 -1.000000

vn 0.000000 0.000000 -1.000000

vn 0.000000 0.000000 -1.000000

vn 0.000000 0.000000 -1.000000

vn -1.000000 0.000000 0.000000

vn -1.000000 0.000000 0.000000

vn -1.000000 0.000000 0.000000

vn -1.000000 0.000000 0.000000

vn 0.000000 0.000000 -1.000000

vn 0.000000 0.000000 -1.000000

vn 0.000000 0.000000 -1.000000

vn 0.000000 0.000000 -1.000000

vn 0.000000 0.000000 -1.000000

vn 0.000000 0.000000 -1.000000

vn 0.000000 0.000000 -1.000000

vn 0.000000 0.000000 -1.000000

vn 0.000000 0.000000 -1.000000

vn 0.000000 0.000000 -1.000000

vn 0.000000 0.000000 -1.000000

vn 0.000000 0.000000 -1.000000

vn 0.000000 0.000000 1.000000

vn 0.000000 0.000000 1.000000

vn 0.000000 0.000000 1.000000

vn 0.000000 0.000000 1.000000

vn 0.000000 0.000000 1.000000

vn 0.000000 0.000000 1.000000

vn 0.000000 0.000000 1.000000

vn 0.000000 0.000000 1.000000

vn 0.000000 0.000000 1.000000

vn 0.000000 0.000000 1.000000

vn 0.000000 0.000000 1.000000

vn 0.000000 0.000000 1.000000

vn 0.000000 0.000000 1.000000

vn 0.000000 0.000000 1.000000

vn 0.000000 0.000000 1.000000

vn 0.000000 0.000000 1.000000

vn 0.000000 1.000000 0.000000

vn 0.000000 1.000000 0.000000

vn 0.000000 1.000000 0.000000

vn 0.000000 1.000000 0.000000

vn 0.000000 1.000000 0.000000

vn 0.000000 1.000000 0.000000

vn 0.000000 1.000000 0.000000

vn 0.000000 1.000000 0.000000

vn 0.000000 0.000000 1.000000

vn 0.000000 0.000000 1.000000

vn 0.000000 0.000000 1.000000

vn 0.000000 0.000000 1.000000

vn 0.000000 0.000000 1.000000

vn 0.000000 0.000000 1.000000

vn 0.000000 0.000000 1.000000

vn 0.000000 0.000000 1.000000

f 1/1/1 2/2/2 3/3/3

f 1/1/1 3/3/3 4/4/4

f 5/5/5 6/6/6 7/7/7

f 5/5/5 7/7/7 8/8/8

f 9/9/9 10/10/10 11/11/11

f 9/9/9 11/11/11 12/12/12

f 13/13/13 14/14/14 15/15/15

f 16/16/16 15/15/15 14/14/14

f 17/17/17 18/18/18 19/19/19

f 18/18/18 17/17/17 20/20/20

f 21/21/21 22/22/22 23/23/23

f 21/21/21 23/23/23 24/24/24

f 25/25/25 26/26/26 27/27/27

f 25/25/25 27/27/27 28/28/28

f 29/29/29 30/30/30 31/31/31

f 29/29/29 31/31/31 32/32/32

f 33/33/33 34/34/34 35/35/35

f 36/36/36 35/35/35 34/34/34

f 37/37/37 38/38/38 39/39/39

f 38/38/38 37/37/37 40/40/40

f 41/41/41 42/42/42 43/43/43

f 41/41/41 43/43/43 44/44/44

f 45/45/45 46/46/46 47/47/47

f 45/45/45 47/47/47 48/48/48

f 49/49/49 50/50/50 51/51/51

f 49/49/49 51/51/51 52/52/52

f 53/53/53 54/54/54 55/55/55

f 56/56/56 55/55/55 54/54/54

f 57/57/57 58/58/58 59/59/59

f 58/58/58 57/57/57 60/60/60

f 61/61/61 62/62/62 63/63/63

f 62/62/62 64/64/64 63/63/63

f 65/65/65 66/66/66 67/67/67

f 66/66/66 68/68/68 67/67/67

f 69/69/69 70/70/70 71/71/71

f 72/72/72 71/71/71 70/70/70

f 73/73/73 74/74/74 75/75/75

f 74/74/74 76/76/76 75/75/75

f 77/77/77 78/78/78 79/79/79

f 80/80/80 79/79/79 78/78/78

f 81/81/81 82/82/82 83/83/83

f 84/84/84 83/83/83 82/82/82

f 85/85/85 86/86/86 87/87/87

f 86/86/86 88/88/88 87/87/87

f 89/89/89 90/90/90 91/91/91

f 90/90/90 92/92/92 91/91/91

f 93/93/93 94/94/94 95/95/95

f 96/96/96 95/95/95 94/94/94

f 97/97/97 98/98/98 99/99/99

f 98/98/98 100/100/100 99/99/99

f 101/101/101 102/102/102 103/103/103

f 104/104/104 103/103/103 102/102/102

f 105/105/105 106/106/106 107/107/107

f 106/106/106 108/108/108 107/107/107

f 109/109/109 110/110/110 111/111/111

f 112/112/112 111/111/111 110/110/110

f 113/113/113 114/114/114 115/115/115

f 116/116/116 115/115/115 114/114/114

f 117/117/117 118/118/118 119/119/119

f 120/120/120 119/119/119 118/118/118

f 121/121/121 122/122/122 123/123/123

f 122/122/122 124/124/124 123/123/123

f 125/125/125 126/126/126 127/127/127

f 126/126/126 128/128/128 127/127/127

f 129/129/129 130/130/130 131/131/131

f 132/132/132 131/131/131 130/130/130

f 133/133/133 134/134/134 135/135/135

f 136/136/136 135/135/135 134/134/134

f 137/137/137 138/138/138 139/139/139

f 140/140/140 139/139/139 138/138/138

f 141/141/141 142/142/142 143/143/143

f 144/144/144 143/143/143 142/142/142

f 145/145/145 146/146/146 147/147/147

f 145/145/145 147/147/147 148/148/148

f 149/149/149 150/150/150 151/151/151

f 151/151/151 150/150/150 152/152/152

f 153/153/153 154/154/154 155/155/155

f 153/153/153 155/155/155 156/156/156

f 157/157/157 158/158/158 159/159/159

f 157/157/157 159/159/159 160/160/160

f 161/161/161 162/162/162 163/163/163

f 162/162/162 161/161/161 164/164/164

f 165/165/165 166/166/166 167/167/167

f 166/166/166 165/165/165 168/168/168

f 169/169/169 170/170/170 171/171/171

f 171/171/171 170/170/170 172/172/172

f 173/173/173 174/174/174 175/175/175

f 176/176/176 175/175/175 174/174/174

f 177/177/177 178/178/178 179/179/179

f 179/179/179 178/178/178 180/180/180

f 181/181/181 182/182/182 183/183/183

f 182/182/182 181/181/181 184/184/184

f 185/185/185 186/186/186 187/187/187

f 185/185/185 188/188/188 186/186/186

f 189/189/189 188/188/188 185/185/185

f 185/185/185 190/190/190 189/189/189

f 188/188/188 189/189/189 191/191/191

f 189/189/189 190/190/190 192/192/192

f 191/191/191 193/193/193 188/188/188

f 190/190/190 193/193/193 192/192/192

f 193/193/193 191/191/191 194/194/194

f 192/192/192 193/193/193 194/194/194

f 190/190/190 195/195/195 193/193/193

f 195/195/195 190/190/190 196/196/196

f 197/197/197 198/198/198 199/199/199

f 200/200/200 197/197/197 199/199/199

f 198/198/198 197/197/197 201/201/201

f 202/202/202 197/197/197 200/200/200

f 201/201/201 203/203/203 198/198/198

f 202/202/202 200/200/200 204/204/204

f 203/203/203 201/201/201 205/205/205

f 204/204/204 206/206/206 202/202/202

f 207/207/207 203/203/203 205/205/205

f 208/208/208 206/206/206 204/204/204

f 203/203/203 207/207/207 209/209/209

f 206/206/206 208/208/208 210/210/210

f 207/207/207 211/211/211 209/209/209

f 208/208/208 212/212/212 210/210/210

f 211/211/211 207/207/207 212/212/212

f 212/212/212 208/208/208 211/211/211

f 213/213/213 214/214/214 215/215/215

f 216/216/216 213/213/213 215/215/215

f 214/214/214 213/213/213 217/217/217

f 213/213/213 216/216/216 218/218/218

f 219/219/219 214/214/214 217/217/217

f 219/219/219 218/218/218 216/216/216

f 219/219/219 217/217/217 220/220/220

f 218/218/218 219/219/219 220/220/220

f 221/221/221 222/222/222 223/223/223

f 222/222/222 221/221/221 224/224/224

f 225/225/225 222/222/222 224/224/224

f 225/225/225 224/224/224 226/226/226

f 227/227/227 225/225/225 226/226/226

f 225/225/225 227/227/227 228/228/228

